<svg width="1920" height="1857" viewBox="0 0 1920 1857" fill="none" xmlns="http://www.w3.org/2000/svg">
<mask id="mask0_28_33" style="mask-type:luminance" maskUnits="userSpaceOnUse" x="1" y="22" width="1873" height="1835">
<path d="M1.33331 22.01H1873V1857H1.33331V22.01Z" fill="white"/>
</mask>
<g mask="url(#mask0_28_33)">
<path d="M1853.49 996.987L1852.86 996.422L1852.22 995.862C1850.95 994.737 1849.06 993.612 1847.79 992.487L1740.81 938.477V378.697C1740.81 377.572 1740.17 376.447 1740.17 375.321C1740.17 373.632 1740.17 371.946 1739.54 370.821C1738.27 367.446 1736.38 365.195 1733.21 363.506L1595.84 295.43L1657.88 204.291L1728.14 236.359L1740.17 47.3272V45.077L1722.45 23.1351L1721.18 23.6999V22.01L1572.42 101.902L1533.17 122.714L1541.4 150.846L1594.57 175.038L1534.44 264.491L1507.85 251.55C1503.42 249.3 1498.35 249.3 1494.56 251.55L1268.56 366.881C1266.66 368.006 1264.76 369.696 1263.5 371.381C1261.6 374.196 1261.6 377.572 1262.23 380.947C1262.87 383.758 1264.76 386.008 1267.29 387.133V661.117L1152.08 831.583L848.227 474.336L676.038 706.686L533.607 779.263C531.705 780.388 529.809 782.073 528.543 783.763C526.641 786.574 526.011 789.954 527.277 793.329C527.907 796.139 529.809 798.39 532.341 799.515V901.344L372.816 1116.82L167.076 1221.46C165.179 1222.59 163.278 1224.27 162.012 1225.96C160.115 1228.77 159.48 1232.15 160.746 1235.52C161.381 1238.34 163.278 1240.59 165.81 1241.71V1496.01L11.9849 1579.83C8.81737 1581.52 6.2854 1583.77 5.01941 1586.59C2.48744 1590.52 1.85699 1595.02 3.12297 1599.52C3.12297 1600.09 3.12297 1600.09 3.75342 1600.65C5.01941 1616.4 21.4772 1652.41 31.6102 1657.47L431.052 1854.94C434.219 1856.63 437.387 1857.19 440.549 1857.19C443.717 1857.19 447.515 1856.63 450.677 1854.94L1866.78 1070.12C1871.85 1067.31 1872.48 1061.12 1872.48 1056.62C1872.48 1041.43 1863.61 1007.67 1853.49 996.987ZM1267.29 777.573V898.533L1264.76 899.659L1204.63 869.841L1267.29 777.573ZM532.341 1016.67V1169.14L449.411 1128.07L532.341 1016.67ZM1003.95 783.763C1002.69 780.388 1000.79 778.138 997.624 776.448L786.819 672.368L854.557 580.665L1092.58 859.715L1005.22 904.159V791.639C1005.22 790.514 1004.58 789.389 1004.58 788.264C1004.58 786.574 1004.58 784.888 1003.95 783.763Z" fill="white"/>
</g>
<mask id="mask1_28_33" style="mask-type:luminance" maskUnits="userSpaceOnUse" x="14" y="22" width="1832" height="1778">
<path d="M14.3491 22.01H1845.67V1799.26H14.3491V22.01Z" fill="white"/>
</mask>
<g mask="url(#mask1_28_33)">
<path d="M1843.99 1010.49C1843.36 1011.61 1842.72 1012.17 1841.46 1012.74L424.722 1797.55C422.825 1798.68 420.293 1798.68 418.392 1797.55L18.3148 1599.52C17.0488 1598.96 16.4133 1598.4 15.7828 1597.27C15.7828 1596.71 15.1473 1596.15 15.1473 1596.15C14.5169 1594.46 15.1473 1592.77 15.7828 1591.65C15.7828 1591.09 16.4133 1591.09 16.4133 1590.52C17.0488 1589.96 17.6793 1589.4 18.3148 1589.4L165.81 1509.51V1241.71C166.445 1242.27 167.076 1242.27 167.076 1242.84L392.437 1354.23V1404.86L396.235 1737.92C396.235 1741.86 398.767 1745.79 401.934 1748.04C404.466 1749.73 407.634 1750.86 410.796 1750.86C413.328 1750.86 415.86 1750.3 418.392 1749.17L633.625 1631.03C636.157 1629.34 638.058 1627.09 638.058 1623.71V1235.52C638.058 1233.84 637.423 1232.15 636.792 1231.02C637.423 1228.77 637.423 1226.52 636.792 1224.27C635.526 1220.9 633.625 1218.65 630.462 1216.96L531.075 1168.01V1015.55L648.186 857.46L758.332 912.035L760.234 1172.51V1218.08L762.13 1538.76C762.13 1542.14 764.032 1545.51 766.564 1547.76C767.194 1548.33 767.194 1548.33 767.83 1548.89C770.362 1550.58 773.529 1551.7 776.691 1551.7C779.223 1551.7 781.755 1551.14 784.287 1550.02L999.52 1431.87C1002.05 1430.18 1003.95 1427.93 1003.95 1424.56V1023.99L1018.51 1031.31L1024.84 1034.68L1031.18 1038.06L1060.29 1052.68L1072.95 1059.43L1129.93 1087.57L1134.36 1328.35C1134.36 1331.73 1136.26 1335.1 1138.79 1337.35C1139.42 1337.92 1139.42 1337.92 1140.05 1338.48C1142.59 1340.17 1145.75 1341.29 1148.92 1341.29C1151.45 1341.29 1153.98 1340.73 1156.51 1339.6L1371.75 1221.46C1374.28 1219.77 1376.18 1217.52 1376.18 1214.15V967.17C1376.18 966.044 1375.54 964.919 1375.54 963.794C1375.54 962.104 1375.54 960.419 1374.91 959.294C1373.65 955.918 1371.75 953.664 1368.58 951.978L1327.43 931.726L1314.77 924.976L1276.79 906.409L1270.46 903.034L1266.66 901.344V777.573L1465.43 485.587L1493.92 499.653L1495.82 815.266V865.34L1497.72 1127.51C1497.72 1131.44 1500.25 1135.38 1503.42 1137.63C1505.95 1139.32 1509.11 1140.45 1512.28 1140.45C1514.81 1140.45 1517.34 1139.89 1519.88 1138.76L1735.11 1020.61C1737.64 1018.92 1739.54 1016.67 1739.54 1013.86V953.103L1790.18 978.421L1840.83 1003.74C1842.09 1004.3 1842.72 1004.86 1843.36 1005.42C1844.62 1005.99 1845.26 1008.24 1843.99 1010.49ZM414.594 1124.13L418.392 1119.63L422.19 1115.13L532.341 966.044L621.595 845.084L625.398 840.583L627.295 837.773L628.561 835.523L736.18 689.81L743.776 679.119L751.372 668.433L852.656 531.721L1120.43 845.084L1128.03 854.085L1155.25 886.153L1169.17 865.34L1172.34 860.275L1175.5 855.214L1266.03 722.442L1436.95 471.525L1440.11 466.46L1442.02 463.084L1443.28 461.399L1559.76 290.369L1562.92 285.304L1566.09 280.243L1627.5 190.225L1592.68 174.474L1532.54 263.927L1529.37 268.992L1526.21 274.053L1411 445.643L1409.73 447.333L1407.83 450.143L1404.67 455.209L1268.56 388.258C1267.93 388.258 1267.29 387.698 1267.29 387.133V661.117L1152.08 831.583L848.227 474.336L676.038 706.686L660.846 728.068L594.379 818.081L592.478 820.331L590.581 822.582L586.783 827.082L533.607 800.64C532.971 800.64 532.341 800.079 532.341 799.515V901.344L372.816 1116.82L365.22 1127.51L357.619 1138.2L319.004 1190.52L351.925 1209.65L414.594 1124.13ZM1547.73 129.465L1607.23 156.472L1642.05 172.223L1657.88 179.539L1670.54 185.164L1709.15 202.606L1719.28 39.4515L1719.92 30.4506L1720.55 23.6999V22.01L1571.79 101.902L1533.8 122.154L1540.13 124.964L1547.73 129.465Z" fill="#FB3201"/>
</g>
<mask id="mask2_28_33" style="mask-type:luminance" maskUnits="userSpaceOnUse" x="1" y="22" width="1873" height="1835">
<path d="M1.33331 22.507H1873V1857H1.33331V22.507Z" fill="white"/>
</mask>
<g mask="url(#mask2_28_33)">
<path d="M1853.49 996.987L1852.86 996.422L1852.22 995.862C1850.95 994.737 1849.06 993.612 1847.79 992.487L1740.81 938.477V378.697C1740.81 377.572 1740.17 376.447 1740.17 375.321C1740.17 373.632 1740.17 371.946 1739.54 370.821C1738.27 367.446 1736.38 365.195 1733.21 363.506L1595.84 295.43L1657.88 204.291L1728.14 236.359L1740.17 47.3272V45.077L1722.45 23.1351L1721.18 23.6999L1720.55 30.4506L1719.92 39.4515L1709.79 202.606L1671.17 185.164L1658.51 179.539L1642.69 172.223L1607.87 156.472L1548.36 129.465L1540.77 126.089L1534.44 123.279L1572.42 103.027L1533.17 123.839L1541.4 151.971L1594.57 176.164L1629.39 191.915L1567.99 281.928L1564.82 286.994L1561.66 292.054L1445.18 463.084L1443.91 464.774L1442.01 468.15L1438.85 473.21L1267.93 724.128L1177.4 856.9L1174.24 861.965L1171.07 867.026L1157.15 887.843L1129.93 855.775L1122.33 846.774L854.557 533.411L753.268 670.118L745.672 680.809L738.076 691.495L630.462 837.208L629.196 839.458L627.295 842.273L623.497 846.774L534.237 967.73L424.091 1116.82L416.495 1125.82L353.191 1211.33V1211.9L368.383 1220.9C369.018 1221.46 370.284 1222.59 370.915 1223.15L378.511 1227.09L379.146 1227.65L506.386 1293.47L399.402 1344.67L173.406 1233.27C172.775 1233.27 172.775 1232.15 172.775 1232.15C172.775 1232.15 172.775 1232.15 173.406 1231.59L356.989 1137.63L372.181 1116.25L167.076 1221.46C165.179 1222.59 163.278 1224.27 162.012 1225.96C160.115 1228.77 159.48 1232.15 160.746 1235.52C161.381 1238.34 163.278 1240.59 165.81 1241.71C166.445 1242.27 167.076 1242.27 167.076 1242.84L392.437 1354.23V1404.86L396.235 1737.92C396.235 1741.86 398.767 1745.8 401.934 1748.05C404.466 1749.74 407.634 1750.86 410.796 1750.86C413.328 1750.86 415.86 1750.3 418.392 1749.17L633.625 1631.03C636.157 1629.34 638.058 1627.09 638.058 1623.71V1235.52C638.058 1233.84 637.423 1232.15 636.792 1231.02C637.423 1228.77 637.423 1226.52 636.792 1224.27C635.526 1220.9 633.625 1218.65 630.462 1216.96L531.075 1168.01L448.145 1126.94L531.075 1014.99L648.186 856.9L758.332 911.47L760.234 1171.95V1217.52L762.13 1538.2C762.13 1541.58 764.032 1544.95 766.564 1547.2C767.194 1547.77 767.194 1547.77 767.83 1548.33C770.361 1550.02 773.529 1551.14 776.691 1551.14C779.223 1551.14 781.755 1550.58 784.287 1549.45L999.52 1431.31C1002.05 1429.62 1003.95 1427.37 1003.95 1424V1023.43L1018.51 1030.74L1024.84 1034.12L1031.17 1037.49L1060.29 1052.12L1072.95 1058.87L1129.93 1087L1134.36 1327.79C1134.36 1331.17 1136.26 1334.54 1138.79 1336.79C1139.42 1337.35 1139.42 1337.35 1140.05 1337.92C1142.59 1339.61 1145.75 1340.73 1148.92 1340.73C1151.45 1340.73 1153.98 1340.17 1156.51 1339.04L1371.75 1220.9C1374.28 1219.21 1376.18 1216.96 1376.18 1213.59V966.605C1376.18 965.48 1375.54 964.355 1375.54 963.229C1375.54 961.544 1375.54 959.854 1374.91 958.729C1373.65 955.354 1371.75 953.103 1368.58 951.418L1327.43 931.162L1314.77 924.411L1276.79 905.844L1270.46 902.469L1266.66 900.784V897.969L1264.13 899.094L1203.99 869.276L1266.66 777.013L1465.43 485.026L1493.92 499.093L1495.82 814.706V864.776L1497.72 1126.94C1497.72 1130.88 1500.25 1134.82 1503.42 1137.07C1505.95 1138.76 1509.11 1139.89 1512.28 1139.89C1514.81 1139.89 1517.34 1139.32 1519.88 1138.2L1735.11 1020.05C1737.64 1018.36 1739.54 1016.11 1739.54 1013.3V952.543L1790.18 977.856L1840.83 1003.17C1842.09 1003.74 1842.72 1004.3 1843.36 1004.86C1844.62 1006.55 1845.26 1008.8 1843.99 1011.05C1843.36 1012.17 1842.72 1012.74 1841.46 1013.3L424.722 1797.55C422.825 1798.68 420.293 1798.68 418.392 1797.55L18.3148 1599.52C17.0488 1598.96 16.4133 1598.4 15.7828 1597.27C15.7828 1596.71 15.1473 1596.15 15.1473 1596.15C14.5168 1594.46 15.1473 1592.77 15.7828 1591.65C15.7828 1591.09 16.4133 1591.09 16.4133 1590.52C17.0488 1589.96 17.6793 1589.4 18.3148 1589.4L165.81 1509.51V1496.01L11.9849 1579.83C8.81737 1581.52 6.2854 1583.77 5.01941 1586.59C2.48744 1590.52 1.85699 1595.02 3.12297 1599.52C3.12297 1600.09 3.12297 1600.09 3.75342 1600.65C5.01941 1616.4 21.4772 1652.41 31.6102 1657.47L431.052 1854.94C434.219 1856.63 437.387 1857.19 440.549 1857.19C443.717 1857.19 447.515 1856.63 450.677 1854.94L1866.78 1070.12C1871.85 1067.31 1872.48 1061.12 1872.48 1056.62C1872.48 1041.43 1863.61 1007.67 1853.49 996.987ZM532.341 1182.08L625.398 1228.21C626.029 1228.21 626.029 1229.34 625.398 1229.9L617.167 1233.84L532.341 1223.15L393.072 1205.15L443.081 1137.63L532.341 1182.08ZM764.032 900.784C763.396 900.784 763.396 901.344 762.766 901.344L656.413 848.459L779.859 681.369L990.023 785.449L764.032 900.784ZM1004.58 788.264C1004.58 786.574 1004.58 784.888 1003.95 783.763C1002.69 780.388 1000.79 778.138 997.624 776.448L786.819 672.368L854.557 580.665L1092.58 859.715L1005.22 904.159V791.639C1005.22 790.514 1005.22 789.389 1004.58 788.264ZM1267.29 1008.8L1135.62 1075.75C1134.99 1075.75 1134.99 1076.31 1134.36 1076.31L1086.88 1052.68L1074.22 1045.93L1044.47 1031.31L1031.81 1024.55L1005.22 1011.61V915.97L1100.17 867.591L1155.88 932.852C1156.51 933.977 1157.15 935.102 1157.78 935.662L1177.4 945.788L1190.06 952.539L1224.25 969.98L1236.91 976.731L1266.66 992.487L1282.49 1000.36L1267.29 1008.8ZM1252.1 906.409L1264.76 913.16L1266.66 914.285L1302.11 931.726L1314.77 938.477L1343.89 953.103L1297.68 946.913L1287.55 945.788L1277.42 944.663L1266.66 943.538L1221.08 937.912L1200.83 935.662L1162.84 930.601L1196.39 881.092L1252.1 906.409ZM1498.98 487.837C1498.35 487.837 1498.35 488.402 1497.72 488.402L1472.4 476.026L1588.88 304.995L1724.98 372.506L1498.98 487.837ZM1262.23 380.947C1260.96 377.572 1261.6 374.757 1263.5 371.381C1264.76 369.696 1266.66 368.006 1268.56 366.881L1493.92 252.111C1498.35 249.86 1503.42 249.86 1507.22 252.111L1533.8 265.052L1530.64 270.117L1527.47 275.178L1500.89 262.241C1500.25 262.241 1500.25 262.241 1499.62 262.241L1274.89 376.447C1274.89 376.447 1274.89 376.447 1274.26 377.007C1274.26 377.572 1274.26 378.132 1274.89 378.132L1412.26 446.208L1411 447.893L1409.09 450.708L1405.93 455.769L1268.56 388.258C1267.93 388.258 1267.29 387.698 1267.29 387.133C1264.76 385.447 1262.87 383.197 1262.23 380.947ZM527.277 793.889C526.011 790.514 526.641 787.699 528.543 784.324C529.809 782.638 531.705 780.948 533.607 779.823L676.038 707.251L668.442 717.938L660.846 728.628L539.937 790.514C539.937 790.514 539.937 790.514 539.301 791.079C539.301 791.639 539.301 792.204 539.937 792.204L594.379 819.206L592.478 821.457L590.581 823.707L586.783 828.207L533.607 801.765C532.971 801.765 532.341 801.205 532.341 800.64C529.809 798.39 527.907 796.139 527.277 793.889Z" fill="#333333"/>
</g>
</svg>
