<svg width="766" height="659" viewBox="0 0 766 659" fill="none" xmlns="http://www.w3.org/2000/svg">
<mask id="mask0_30_280" style="mask-type:luminance" maskUnits="userSpaceOnUse" x="0" y="0" width="766" height="659">
<path d="M0.666504 0.84375H765.114V658.573H0.666504V0.84375Z" fill="white"/>
</mask>
<g mask="url(#mask0_30_280)">
<path fill-rule="evenodd" clip-rule="evenodd" d="M708.64 543.599C709.411 544.521 710.172 545.448 710.958 546.37C715.005 544.167 712.057 541.349 712.489 538.833C709.942 540.307 711.885 542.193 708.64 543.599ZM696.823 561.318C701.807 557.224 699.745 552.479 701.422 548.078C699.281 549.88 697.109 551.672 694.969 553.474C696.708 556.188 695.364 558.641 696.823 561.318ZM681.297 563.349C683.75 564.896 691.156 560.573 686.969 557.021C684.651 557.641 682.442 556.776 680.047 558.115C683.698 560.151 677.666 561.318 681.297 563.349ZM662.385 583.844C665.469 576.432 665.114 568.729 660.213 560.609C658.057 562.411 655.906 564.214 653.76 566.01C659.719 572.234 656.442 577.625 662.385 583.844ZM726.359 459.854C726.974 459.344 727.594 458.818 728.213 458.313C727.182 457.083 726.146 455.854 725.125 454.63C724.51 455.135 723.89 455.651 723.291 456.167C724.302 457.396 725.333 458.625 726.359 459.854ZM642.151 524.01C638.521 521.974 644.536 520.802 640.906 518.786C639.328 520.568 638.026 519.057 636.599 519.24C638.484 520.427 640.01 525.594 642.151 524.01ZM511.047 616.401C509.745 615.026 508.5 613.099 506.901 615.172C506.453 623.391 516.625 633.141 519.245 639.323C524.333 634.839 519.786 634.313 518.458 629.01C516.583 621.563 521.052 612.615 509.333 606.87C504.364 611.302 512.854 611.677 511.047 616.401ZM501.036 613.792C497.567 611.781 500.614 610.359 499.812 608.568C495.291 609.432 498.682 615.135 501.036 613.792ZM587.864 539.635C590.26 541.349 593.416 534.75 595.854 536.089C591.646 533.089 592.39 530.375 588.76 529.484C592.114 533.198 585.411 536.005 587.864 539.635ZM563.271 557.068C564.687 554.354 564.588 551.5 565.719 548.755C563.317 550.25 562.302 551.859 561.88 553.526C565.583 554.641 559.302 558.708 563.271 557.068ZM492.864 600.266C489.844 597.344 485.604 586.5 483.63 589.203C486.76 592.141 486.219 602.563 492.864 600.266ZM653.213 419.182C656.182 420.708 654.094 425.927 657.833 424.714C655.364 421.047 662.38 413.792 655.51 412.563C658.187 415.073 654.104 416.99 653.213 419.182ZM490.984 478.063C487.182 469.656 482.995 461.073 475.864 456.234C482.87 462.698 484.067 477.276 490.984 478.063ZM394.135 530.865C391.474 528.823 388.578 529.359 385.521 531.797C388.182 533.672 390.979 534.276 394.135 530.865ZM409.005 498.047C411.166 499.49 412.864 505.698 415.463 502.042C415.703 498.646 411.146 494.839 412.995 491.583C410.094 493.599 411.906 496.036 409.005 498.047ZM437.411 457.078C439.442 453.438 440.614 459.464 442.646 455.839C439.349 453.547 444.62 452.031 442.312 449.833C441.104 450.573 440.099 449.208 439.099 447.844C435.01 450.594 438.536 454.052 437.411 457.078ZM432.739 432.766C428.505 432.469 424.729 427.109 420.135 430.786C424.255 432.406 428.458 433.104 432.739 432.766ZM509.219 331.224C506.442 329.453 507.776 323.828 503.812 324.766C503.604 326.266 506.771 332.292 509.219 331.224ZM505.333 307.844C508.823 304.74 514.755 301.854 509.62 297.979C506.844 301.146 503.114 304.224 505.333 307.844ZM265.271 483.505C264.38 482.193 259.838 476.724 261.271 480.589C262.151 481.901 266.713 487.375 265.271 483.505ZM179.932 512.578C178.39 513.859 176.859 515.135 175.307 516.422C176.276 520.448 183.703 514.229 179.932 512.578ZM324.052 388.917C324.974 388.151 325.896 387.375 326.828 386.604C326.317 385.984 325.802 385.37 325.281 384.755C324.359 385.536 323.437 386.302 322.51 387.073C323.031 387.688 323.552 388.302 324.052 388.917ZM318.364 395.234C321.203 392.927 324.88 390.698 321.593 387.844C320.672 388.609 319.75 389.385 318.828 390.151C322.995 392.229 316.156 393.328 318.364 395.234ZM195.432 491.776C198.187 489.458 197.932 486.875 196.963 484.229C192.817 486.417 195.031 489.177 195.432 491.776ZM396.505 284.458C400.969 282.01 397.724 278.885 398.963 276.141C396.817 277.948 394.677 279.734 392.521 281.547C393.776 283.208 395.12 284.234 396.505 284.458ZM179.062 455.318C179.989 454.552 180.911 453.776 181.838 453.01C181.323 452.385 180.812 451.786 180.291 451.161C179.37 451.938 178.453 452.703 177.531 453.474C178.031 454.094 178.562 454.708 179.062 455.318ZM176.588 444.854C180.453 442.875 181.041 436.234 177.354 436.396C176.75 439.177 176.781 442.031 176.588 444.854ZM284.885 330.807C285.854 329.75 287.64 328.771 286.88 327.568C285.297 329.359 284 327.849 282.573 328.036C283.333 328.953 284.12 329.88 284.885 330.807ZM354.484 267.896C357.224 272.302 360.463 270.995 363.573 271.271C360.901 269.313 358.37 265.839 355.562 265.432C355.958 266.328 355.682 267.161 354.484 267.896ZM544.776 248.219C517.312 237.292 491.26 210.625 463.187 206.786C461.911 209.609 467.453 209.276 465.177 212.938C458.213 213.885 456.427 225.068 451.515 232.203C449.182 235.615 444.682 237.922 442.151 241.604C437.599 248.208 436.776 257.599 432.495 263.781C427.729 270.656 423.578 275.724 421.755 279.036C418.442 284.964 413.161 286.625 407.286 287.979C395.224 302.188 385.677 288.021 374.823 288.49C371.541 280.62 360.146 281.099 353.442 279.755C351.38 277.297 349.317 274.844 347.26 272.375C353.229 256.547 335.442 249.083 323.073 247.172C318.364 252.255 307.906 251.5 308.323 259.5C306.791 260.646 305.62 257.76 304.01 259.984C302.885 261.583 305.635 263.536 301.87 264.906C287.172 269.24 280.64 287.667 281.75 298.958C279.62 300.745 277.458 302.547 275.302 304.349C279.911 317.339 281.203 319.281 292.578 330.635C303.047 331.182 313.364 333.583 323.661 335.979C332.646 345.828 336.531 353.922 345.245 361.797C341.734 396.755 298.328 428.151 288.468 462.536C294.125 464.083 300.672 469.938 303.427 476.677C329.604 487.63 353.854 509.401 377.823 522.578C380.786 511.75 388.76 501.359 395.151 490.849C394.739 487.115 390.359 483.026 393.599 479.604C375.151 458.109 400.39 420.245 427.807 421.234C432.922 424.443 438.323 424.521 443.666 425.203C445.911 429.875 450.833 429.828 450.588 433.5C454.812 428.484 459.39 436.849 462.927 438.87C466.515 440.932 476.474 444.62 480.005 448.083C503.01 470.474 501.047 501.729 486.125 522.87C479.265 520.229 470.812 535.151 464.432 526.906C451.88 529.818 439.5 539.677 441.708 552.177C447.599 553.047 453.125 558.099 459.406 554.604C467.453 575.609 496.198 579.453 514.255 599.62C538.104 572.458 550.396 544.255 565.192 516.281C588.385 498.776 610.14 496.984 630.578 510.177C634.515 507.755 637.942 510.542 641.666 510.318C644.489 513.698 647.312 517.073 650.13 520.458C646.51 534.167 659.151 541 670.344 552.13C679.781 548.276 689.328 543.417 699.104 535.938C698.906 523.677 708.104 512.266 713.349 500.5C712.521 490.479 705.958 479.938 703.307 469.745C686.208 457.307 668.312 453.891 650.802 446.266C636.698 434.484 646.531 424.844 644.281 414.12C646.812 412.641 644.885 410.76 648.135 409.344C648.76 384.938 670.859 362.453 680.021 338.807C677.437 334.87 679.547 331.365 676.776 327.417C666.401 322.484 656.156 316.151 646.265 305.911C635.682 306.682 626.161 295.521 616.094 290.422C611.713 294.776 608.12 290.443 603.937 292.755C580.172 312.25 591.281 334.854 571.109 354.672C567.88 352.589 563.995 357.844 560.333 360.542C534.536 361.844 506.995 357.531 486.734 324.953C486.515 304.021 495.104 281.766 521.875 265.792C525.411 267.682 529.26 265.99 532.974 265.922C534.198 259.875 541.484 248.818 544.776 248.219ZM271.468 309.125C271.177 314.193 275.89 325.969 282.729 326.339C281.099 322.786 272.614 318.615 278.547 315.724C275.031 313.823 276.224 305.76 271.468 309.125ZM448.422 123.547C446.906 121.427 444.802 125.865 443.041 126.484C444.208 129.563 452.036 126.651 448.422 123.547ZM406.453 144.542C410.224 143.87 408.583 138.688 405.984 140.234C407.781 141.823 406.265 143.104 406.453 144.542ZM165.63 128.146C170.422 130.417 171.849 133.646 175.198 135.828C174.343 134.609 173.635 133.417 175.489 132.438C177.026 134.276 178.573 136.135 180.125 137.979C196.614 144.365 214.958 129.813 231.047 140.813C232.87 139.51 234.635 138.849 236.286 139.578C259.995 150.661 253.583 178.38 238.823 196.984C218.745 222.286 185.724 256.755 159.37 255.583C146.442 251.51 131.453 248.859 126.708 229.63C129.13 226.427 126.547 222.797 129.307 219.62C122.354 204.01 108.718 200.708 98.031 197.193C72.0727 225.193 47.3747 252.526 13.3904 285.208C16.9529 289.927 22.057 277.427 25.8591 279.49C22.8435 282.354 23.505 285.536 20.7862 288.427C32.2445 300.224 44.4477 303.771 55.9164 315.458C57.1195 314.703 58.3904 313.115 59.4425 314.073C60.88 319.552 66.4841 318.292 69.9268 320.984C97.057 342.208 111.656 375.182 104.666 400.031C100.672 400.276 96.4268 403.12 92.5154 402.354C91.8279 412.979 71.1039 412.599 70.0831 424.255C68.0675 427.88 66.8904 421.849 64.8643 425.495C66.557 431.047 62.5466 436.094 67.6456 441.953C69.6247 445.245 72.5154 438.474 74.4268 442.557C71.38 444.844 73.38 447.589 69.5154 449.792C74.6143 456.271 79.656 463.615 85.5258 461.474C91.2237 474.005 104.698 474.052 114.026 476.818C113.906 478.802 112.771 480.688 116.026 482.969C137.817 487.964 148.844 470.823 163.838 453.958C152.453 433.516 160.375 397.609 189.442 396.516C194.729 401.021 200.146 404.057 205.76 404.807C209.182 403.115 204.224 400.677 208.843 399.109C215.802 403.854 222.312 413.594 229.474 416.313C234.901 431.135 255.062 435.813 270.146 448.099C274.64 443.917 280.359 434.849 284.724 428.068C286.031 429.448 287.281 431.375 288.885 429.297C294.343 409.005 313.567 389.969 322.343 369.99C324.817 367.646 326.734 371.604 329.406 367.208C329.109 344.01 307.578 346.802 296.125 338.63C291.937 341.104 288.125 339.203 283.989 340.958C276.802 335.307 268.937 337.401 262.099 327.911C261.843 313.094 269.614 298.995 272.807 284.5C274.718 282.255 276.224 284.5 278.182 281.563C280.213 263.776 299 250.297 316.271 237.182C323.776 242.516 332.047 238.901 339.979 239.302C354.593 252.12 355.38 262.896 370.031 275.271C380.979 274 391.437 277.656 403.411 264.589C399.62 254.589 412.427 246.057 422.906 237.323C425.828 225.922 432.088 214.818 442.094 204.057C433.265 197.677 424.823 187.214 415.75 183.776C400.229 167.943 371.125 160.703 375.672 135.828C390.255 109.885 452.463 84.8906 422.469 51.25C409.047 42.3021 395.89 30.2708 382.411 22.0781C379.047 24.7135 375.453 30.0365 372.88 23.7865C360.088 31.2604 354.557 41.9948 346.463 52.1406C348.453 48.8906 349.807 52.8333 351.38 54.2917C344.687 67.6302 342.62 81.3906 333.302 94.4844C331.375 90.3802 328.448 97.8177 326.672 92.1927C318.073 102.417 310.703 99.0833 302.682 102.839C290.922 94.4323 277.588 103.547 266.203 91.0521C252.703 89.1979 240.14 77.2448 226.786 73.875C223.75 69.7813 220.484 68.0573 217.229 66.1979C204.463 87.1615 171.495 104.995 165.63 128.146ZM221.828 52.9531C224.708 51.224 219.828 48.7969 221.51 46.9531C236.646 46.2396 249.989 65.6979 265.396 61.9635C270.692 74.2031 284.703 74.75 284.968 81.6406C298.713 85.4688 316.776 92.0313 328.802 77.875C334.088 71.6458 329.682 61.6302 338.468 55.6927C336.437 33.8802 347.385 11.0729 374.078 0.84375C388.104 9.34896 402.734 11.0521 416.114 26.7865C417.448 27.8125 419.067 25.6302 420.578 24.6354C424.416 29.4219 428.203 34.7396 432.442 35.0833C439.073 45.2396 449.276 58.6094 461.432 73.5104C461.849 82.9271 465.885 92.6823 468.234 102.276C467.995 121.578 438.026 140.333 419.698 149.141C417.182 150.625 423.713 152.911 419.245 154.219C467.062 182.323 514.989 209.151 562.151 244.651C561.864 257.99 571.156 272.188 566.229 285.12C560.698 286.26 560.192 291.604 555.937 295.286C541.661 294.698 524.317 313.01 519.979 325.365C526.437 333.047 522.406 339.786 522.328 346.901C535.073 350.495 548.031 352.073 561.26 350.385C585.401 334.714 572.729 290.802 609.156 282.125C612.01 279.823 608.588 276.964 612.375 274.734C615.692 275.734 619.057 276.208 622.666 273.948C628.937 285.745 642.067 288.589 651.791 291.917C652.541 293.109 650.765 294.094 649.797 295.141C661.052 305.979 673.364 304.99 684.297 319.557C685.578 317.911 686.64 318.828 687.677 319.865C688.125 318.474 686.859 316.948 688.906 315.703C696.656 330.063 696.896 343.724 707.297 358.307C708.474 361.823 706.067 365.031 711.453 368.922C709.307 370.438 709.151 372.135 711.005 374C691.984 389.365 689.39 406.198 677.682 422.224C679.078 425.99 679.354 424.385 682.317 427.76C679.573 430.359 681.734 433.391 678.166 435.922C683.177 437.161 687.786 442.938 692.646 445.755C707.474 445.344 722.562 441.995 736.802 447.995C746.838 458.839 756.604 471 761.791 483.505C758.448 484.432 763.125 489.917 759.021 485.813C757.745 488.536 763.515 491.911 765.026 494.885C764.797 508.516 759.146 521.661 759.713 535.365C756.338 537.057 757.146 539.12 754.963 540.917C757.739 556.25 735.448 569.328 728.094 583.74C716.375 590.781 704.802 596.333 692.75 607.036C677.505 605.807 661.51 612.802 647.791 594.495C625.12 590.958 628.271 561.37 611.713 549.453C576.817 564.354 572.156 600.776 551.219 625.109C550.198 626.443 552.37 628.057 553.396 629.573C544.776 636.198 543.281 643.458 539.562 650.526C531.041 651.432 525.031 654.234 514.969 658.568C502.437 644.5 488.505 627.536 471.505 619.693C465.25 608.922 453.666 611.188 449.932 603.271C447.338 600.682 444.01 606.068 441.338 604.198C439.661 597.219 438.036 590.255 438.062 583.432C436.703 579.495 434.495 585.219 433.135 581.281C426.317 556.839 430.656 526.99 462.416 511.365C465.495 493.219 451.995 464.755 429.719 466.63C425.974 468.854 426.161 471.438 424.823 473.875C426.172 481.385 426.713 488.833 427.916 496.328C414.604 520.464 404.021 544.828 386.51 568.573C385.474 567.339 384.453 566.12 383.427 564.885C382.291 566.495 385.057 568.448 381.271 569.818C367.755 573.479 350.422 557.724 335.833 543.573C303.625 524.219 273.255 505.292 242.817 486.615C230.635 482.823 219.104 471.938 207.234 464.672C205.849 464.229 204.323 465.484 203.078 463.448C201.245 464.984 199.396 466.526 197.547 468.068C195.739 471.885 200.651 476.313 196.505 479.922C199.093 481.714 199.89 473.286 203.567 477.13C200.01 495.958 194.843 519.542 172.427 529.823C170.302 532.198 172.291 534.932 167.495 537.068C144.942 522.188 120.224 531.557 98.5206 507.005C95.5206 508.682 93.0987 504.156 90.0622 506.245C76.63 488.599 54.3591 472.266 61.3643 455.042C56.4372 441.521 52.3747 428.068 64.8487 416.099C63.4893 413.411 68.8383 411.333 64.682 408.406C73.5362 400.229 82.6091 405.839 87.8852 396.828C89.6612 393.802 86.2497 390.677 90.4841 386.823C84.3956 372.927 71.7081 374.193 62.9008 361.313C51.2602 358.021 40.6977 342.51 28.5675 344.599C23.63 335.146 22.1768 331.068 19.4581 322.448C3.35391 314.833 -2.51588 298.365 4.78099 286.146C6.82266 282.51 7.99974 288.542 10.0154 284.911C13.0102 269.255 38.2081 255.568 46.4112 240.37C67.9216 222.948 79.7081 204.661 95.5675 186.745C101.385 191.661 107.437 193.781 113.729 193.484C117.354 199.859 121.797 198.547 124.968 201.318C137.599 212.302 129.781 231.344 141.797 242.073C144.213 244.219 157.536 247.76 164.432 246.651C166.354 246.349 169.573 242.406 171.656 242.172C172.25 242.109 174.62 244.26 174.896 244.177C192.828 238.151 215.812 209.193 225.13 197.464C223.328 195.313 221.536 193.161 219.734 191.01C221.974 186.083 221.125 180.896 222.791 175.917C214.083 165.328 204.25 167.005 194.01 173.354C188.968 172.464 184.151 169.115 178.468 175.375C172.635 170.63 166.51 169.297 160.317 168.63C153.797 156.677 152.432 145.172 153.182 133.865C151.146 131.12 148.125 139.38 146.109 136.641C145.64 133.771 147.526 122.411 150.229 119.094C157.182 110.573 174.932 108.859 177.906 95.9688C193.661 82.8698 204.088 69.2969 211.364 55.4323C215.078 52.2188 218.151 55.9375 221.828 52.9531Z" fill="#1E3149"/>
</g>
</svg>
