<svg width="769" height="749" viewBox="0 0 769 749" fill="none" xmlns="http://www.w3.org/2000/svg">
<mask id="mask0_30_294" style="mask-type:luminance" maskUnits="userSpaceOnUse" x="0" y="180" width="540" height="320">
<path d="M0.75 180H539.667V500H0.75V180Z" fill="white"/>
</mask>
<g mask="url(#mask0_30_294)">
<path d="M142.083 325.375C155.391 287.333 180.323 255.203 216.188 229.875C266.636 194.25 334.443 180.479 397.568 193.036C455.042 204.469 502.682 236.078 531.719 282.036C531.979 282.448 532.307 282.797 532.709 283.078C533.104 283.359 533.542 283.552 534.021 283.661C534.495 283.771 534.974 283.781 535.453 283.698C535.938 283.614 536.38 283.443 536.797 283.182C537.209 282.922 537.552 282.594 537.834 282.193C538.115 281.792 538.313 281.354 538.417 280.88C538.526 280.406 538.537 279.927 538.453 279.443C538.37 278.963 538.198 278.516 537.938 278.104C507.818 230.422 458.479 197.646 399 185.818C333.938 172.875 264.011 187.099 211.943 223.859C174.797 250.088 148.958 283.427 135.136 322.943C131.505 333.312 128.495 343.854 126.104 354.573C123.714 365.297 121.953 376.12 120.833 387.047C119.714 397.974 119.235 408.927 119.396 419.911C119.563 430.891 120.37 441.828 121.818 452.713C87.1512 463.51 51.9324 472.031 16.1668 478.276L36.3231 459.26C36.6772 458.927 36.9585 458.536 37.1564 458.088C37.3543 457.646 37.4637 457.177 37.4793 456.687C37.4897 456.203 37.4116 455.729 37.2397 455.271C37.0679 454.818 36.8126 454.411 36.4793 454.057C36.1408 453.698 35.7501 453.422 35.3074 453.224C34.8595 453.021 34.396 452.917 33.9064 452.901C33.4168 452.885 32.9481 452.969 32.4897 453.141C32.0366 453.312 31.6304 453.568 31.2762 453.901L2.05222 481.469C1.83347 481.677 1.64077 481.906 1.47931 482.167C1.31264 482.422 1.18243 482.693 1.08868 482.979C0.989725 483.271 0.932432 483.562 0.90639 483.864C0.885556 484.172 0.901181 484.469 0.953265 484.771C1.00535 485.068 1.08868 485.359 1.21368 485.635C1.33347 485.911 1.48972 486.172 1.67722 486.411C1.86472 486.651 2.07827 486.864 2.31785 487.052C2.55743 487.234 2.81264 487.391 3.09389 487.516C14.5001 492.547 26.3231 496.266 38.5574 498.656C39.0366 498.75 39.5158 498.75 39.9949 498.651C40.4741 498.557 40.9116 498.37 41.3179 498.099C41.7241 497.828 42.0626 497.484 42.3335 497.078C42.5991 496.672 42.7814 496.229 42.8751 495.75C42.9689 495.271 42.9689 494.792 42.8699 494.312C42.7762 493.833 42.5887 493.396 42.3179 492.989C42.047 492.583 41.7033 492.245 41.297 491.974C40.8908 491.708 40.4481 491.526 39.9689 491.432C32.4741 489.963 25.1199 487.969 17.9116 485.443C54.8543 478.969 91.2189 470.094 126.995 458.818C127.412 458.687 127.797 458.489 128.146 458.224C128.495 457.953 128.781 457.635 129.016 457.266C129.25 456.891 129.412 456.489 129.5 456.062C129.594 455.635 129.604 455.203 129.542 454.766C127.974 443.927 127.063 433.036 126.802 422.088C126.547 411.141 126.943 400.213 128 389.312C129.057 378.417 130.766 367.614 133.12 356.922C135.474 346.229 138.464 335.713 142.083 325.375Z" fill="#414042"/>
</g>
<mask id="mask1_30_294" style="mask-type:luminance" maskUnits="userSpaceOnUse" x="141" y="201" width="252" height="548">
<path d="M141 201.333H393V748.693H141V201.333Z" fill="white"/>
</mask>
<g mask="url(#mask1_30_294)">
<path d="M271.26 631.646C210.708 601.062 165.229 540.651 152.568 473.989C139.906 407.333 160.062 334.448 205.177 283.776C250.292 233.104 320.354 204.672 388.005 209.562C388.49 209.599 388.964 209.536 389.427 209.385C389.891 209.229 390.307 208.995 390.677 208.677C391.047 208.354 391.339 207.979 391.557 207.542C391.776 207.104 391.906 206.646 391.937 206.156C391.974 205.672 391.917 205.193 391.76 204.729C391.609 204.265 391.37 203.854 391.052 203.484C390.734 203.114 390.354 202.818 389.922 202.599C389.484 202.38 389.021 202.255 388.536 202.219C318.646 197.172 246.281 226.542 199.682 278.88C153.078 331.219 132.255 406.51 145.333 475.364C158.208 543.151 203.943 604.682 265.036 636.724C253.005 669.828 238.01 701.526 220.057 731.823C219.818 722.917 219.312 714.005 218.516 705.193C218.474 704.703 218.339 704.245 218.109 703.812C217.885 703.38 217.583 703.01 217.208 702.698C216.833 702.385 216.411 702.156 215.948 702.01C215.484 701.864 215.005 701.818 214.521 701.859C214.036 701.906 213.578 702.042 213.146 702.265C212.714 702.489 212.339 702.792 212.026 703.167C211.714 703.542 211.484 703.958 211.339 704.427C211.193 704.89 211.141 705.37 211.187 705.854C212.339 718.578 212.901 731.521 212.859 744.328C212.859 744.989 213.021 745.604 213.354 746.177C213.682 746.75 214.135 747.203 214.708 747.531C215.276 747.859 215.896 748.026 216.557 748.021C217.219 748.021 217.833 747.849 218.401 747.515C228.802 741.422 239.51 735.552 250.219 730.062C250.656 729.838 251.031 729.542 251.349 729.167C251.667 728.797 251.896 728.38 252.047 727.911C252.198 727.448 252.255 726.974 252.214 726.484C252.177 726 252.047 725.536 251.823 725.104C251.599 724.667 251.302 724.292 250.927 723.974C250.557 723.656 250.135 723.427 249.672 723.276C249.208 723.125 248.729 723.073 248.245 723.114C247.755 723.151 247.297 723.286 246.865 723.505C240.323 726.859 233.812 730.385 227.344 733.984C245.661 702.823 260.901 670.224 273.068 636.182C273.219 635.76 273.292 635.323 273.281 634.875C273.276 634.422 273.187 633.989 273.021 633.573C272.854 633.156 272.62 632.781 272.318 632.448C272.016 632.12 271.661 631.849 271.26 631.646Z" fill="#414042"/>
</g>
<path d="M628.724 422.068C610.771 487 561.068 543.604 499.016 569.792C436.959 595.974 361.74 592.088 302.719 559.641C302.292 559.406 301.834 559.26 301.349 559.203C300.865 559.151 300.386 559.193 299.917 559.328C299.448 559.463 299.021 559.687 298.641 559.989C298.261 560.297 297.948 560.661 297.714 561.094C297.479 561.521 297.334 561.979 297.281 562.463C297.229 562.948 297.271 563.427 297.406 563.896C297.547 564.364 297.766 564.792 298.073 565.172C298.38 565.552 298.745 565.859 299.172 566.094C333.292 584.849 372.646 594.364 411.927 594.364C442.818 594.364 473.667 588.479 501.875 576.573C565.953 549.531 617.276 491.078 635.818 424.026C654.078 357.984 640.766 282.76 601.104 226.875C627.745 200.151 652.125 179.104 676.849 161.515L667.427 178.984C667.193 179.411 667.052 179.87 667 180.354C666.948 180.844 666.995 181.318 667.136 181.786C667.271 182.255 667.495 182.682 667.808 183.062C668.115 183.437 668.485 183.745 668.912 183.979C669.344 184.208 669.802 184.349 670.287 184.401C670.776 184.448 671.25 184.406 671.719 184.265C672.188 184.125 672.61 183.896 672.99 183.588C673.37 183.281 673.672 182.911 673.901 182.479L689.511 153.547C689.849 152.932 689.99 152.271 689.948 151.568C689.906 150.87 689.677 150.229 689.271 149.661C688.724 148.911 688 148.437 687.099 148.245C686.479 147.844 685.808 147.651 685.073 147.656C684.339 147.661 683.667 147.87 683.058 148.276C682.875 148.401 682.698 148.526 682.516 148.646C669.953 150.63 657.318 151.932 644.61 152.547C644.125 152.568 643.656 152.682 643.214 152.89C642.771 153.099 642.386 153.385 642.058 153.745C641.729 154.109 641.485 154.515 641.318 154.979C641.151 155.437 641.084 155.911 641.104 156.401C641.125 156.885 641.245 157.349 641.453 157.792C641.662 158.234 641.943 158.62 642.308 158.948C642.667 159.276 643.078 159.526 643.537 159.687C644 159.854 644.469 159.927 644.959 159.901C653.052 159.521 661.188 158.838 669.281 157.901C644.656 175.739 620.292 197.026 593.683 223.901C593.37 224.213 593.125 224.568 592.948 224.969C592.766 225.364 592.656 225.786 592.625 226.219C592.594 226.656 592.636 227.088 592.755 227.505C592.88 227.927 593.068 228.318 593.328 228.667C633.11 283.026 646.677 357.13 628.724 422.068Z" fill="#414042"/>
<mask id="mask2_30_294" style="mask-type:luminance" maskUnits="userSpaceOnUse" x="174" y="266" width="391" height="483">
<path d="M174.333 266.667H565V748.693H174.333V266.667Z" fill="white"/>
</mask>
<g mask="url(#mask2_30_294)">
<path d="M560.12 696.849C559.635 696.844 559.161 696.927 558.708 697.109C558.255 697.292 557.854 697.557 557.505 697.896C557.156 698.239 556.891 698.635 556.698 699.088C556.505 699.536 556.411 700.005 556.406 700.495L556.125 730.219C548.641 715.359 541.219 700.391 534 685.812C525.026 667.687 515.74 648.948 506.396 630.562C506.187 630.156 505.917 629.802 505.583 629.5C505.245 629.193 504.865 628.958 504.443 628.797C504.021 628.63 503.583 628.552 503.13 628.547C502.677 628.547 502.234 628.625 501.812 628.786C491.828 632.557 481.646 635.672 471.266 638.141C460.88 640.604 450.385 642.401 439.776 643.526C429.161 644.651 418.521 645.094 407.854 644.859C397.187 644.625 386.578 643.708 376.026 642.114C331.047 635.302 295.51 615.526 263.807 595.172C234.667 576.458 217.234 538.651 202.74 500.583C181.885 445.823 177.12 402.974 187.74 365.724C197.771 330.542 222.458 300.349 244.234 273.713C244.547 273.338 244.771 272.917 244.917 272.448C245.057 271.979 245.104 271.5 245.057 271.015C245.01 270.526 244.87 270.068 244.635 269.64C244.406 269.208 244.104 268.838 243.724 268.526C243.344 268.219 242.922 267.995 242.453 267.854C241.984 267.708 241.51 267.667 241.021 267.713C240.536 267.765 240.078 267.906 239.646 268.135C239.219 268.37 238.849 268.672 238.542 269.052C216.307 296.239 191.109 327.057 180.661 363.708C169.583 402.557 174.411 446.885 195.859 503.203C210.807 542.448 228.901 581.505 259.833 601.364C290.672 621.167 328.458 642.359 374.922 649.396C385.51 650.995 396.156 651.927 406.865 652.198C417.568 652.469 428.25 652.078 438.906 651.016C449.562 649.958 460.109 648.239 470.552 645.864C480.995 643.489 491.25 640.474 501.318 636.823C510.146 654.234 518.911 671.932 527.401 689.083C534.667 703.745 542.13 718.807 549.667 733.766C548.323 732.573 546.979 731.354 545.62 730.099C544.271 728.859 542.922 727.614 541.552 726.406C535.885 721.385 528.187 715.427 518.865 713.875C518.38 713.797 517.906 713.812 517.432 713.927C516.953 714.036 516.521 714.234 516.125 714.516C515.729 714.802 515.401 715.151 515.146 715.562C514.885 715.979 514.719 716.427 514.635 716.906C514.557 717.385 514.573 717.864 514.682 718.338C514.792 718.812 514.99 719.25 515.271 719.646C515.552 720.047 515.901 720.375 516.318 720.63C516.729 720.891 517.177 721.057 517.656 721.141C525.13 722.38 531.745 727.552 536.672 731.917C538.005 733.099 539.318 734.307 540.635 735.516C545.344 739.854 550.213 744.333 556.052 747.614C556.677 747.969 557.354 748.125 558.068 748.083C558.786 748.042 559.437 747.807 560.021 747.385C563.344 744.969 563.385 740.781 563.406 738.766L563.766 700.562C563.771 700.073 563.682 699.604 563.5 699.151C563.318 698.698 563.057 698.297 562.713 697.948C562.37 697.599 561.974 697.333 561.526 697.141C561.078 696.948 560.609 696.849 560.12 696.849Z" fill="#414042"/>
</g>
<path d="M83.2344 169.01C85.9792 175.292 89.0886 182.411 88.9375 189.38C88.9271 189.87 89.0105 190.344 89.1875 190.797C89.3646 191.25 89.6198 191.656 89.9584 192.01C90.2969 192.359 90.6875 192.635 91.1355 192.833C91.5782 193.031 92.0469 193.135 92.5365 193.146C92.5625 193.146 92.5938 193.146 92.6198 193.146C93.099 193.146 93.5625 193.052 94.0052 192.87C94.4532 192.687 94.849 192.432 95.1927 192.094C95.5365 191.755 95.8021 191.37 95.9948 190.927C96.1875 190.484 96.2865 190.026 96.2969 189.542C96.4844 180.953 93.0261 173.042 89.9792 166.062L88.9427 163.693C118 185.797 146.224 209.469 172.974 234.203C173.354 234.552 173.787 234.812 174.276 234.979C174.766 235.151 175.266 235.208 175.781 235.167C176.297 235.125 176.781 234.979 177.234 234.729C177.688 234.484 178.073 234.156 178.385 233.745C218.854 181.141 290.469 148.25 360.979 150.01C429.401 151.693 496.146 187.682 535.162 243.932C574.182 300.182 584.526 375.318 562.151 440.021C561.99 440.484 561.922 440.958 561.953 441.448C561.979 441.932 562.099 442.396 562.313 442.838C562.526 443.276 562.813 443.661 563.182 443.984C563.547 444.307 563.958 444.552 564.422 444.713C564.885 444.87 565.359 444.937 565.844 444.906C566.333 444.88 566.797 444.755 567.234 444.542C567.677 444.328 568.057 444.036 568.38 443.672C568.703 443.302 568.948 442.891 569.104 442.427C592.234 375.547 581.547 297.88 541.214 239.734C500.88 181.594 431.891 144.391 361.156 142.646C289.875 140.911 217.287 173.536 175.037 226.094C149.037 202.219 121.688 179.354 93.5521 157.943C95.2136 158.463 96.8855 159 98.5886 159.557C104.156 161.385 109.912 163.276 115.927 164.193C116.406 164.266 116.885 164.245 117.359 164.125C117.833 164.01 118.266 163.807 118.662 163.516C119.052 163.229 119.375 162.875 119.63 162.458C119.88 162.042 120.042 161.588 120.115 161.109C120.188 160.625 120.167 160.146 120.052 159.672C119.932 159.198 119.729 158.766 119.443 158.37C119.151 157.979 118.802 157.656 118.38 157.401C117.964 157.151 117.516 156.989 117.031 156.917C111.625 156.088 106.406 154.375 100.885 152.562C94.125 150.344 87.1407 148.052 79.7292 147.505C79.4115 147.484 79.099 147.5 78.7865 147.557C78.474 147.62 78.1771 147.713 77.8907 147.849C77.6042 147.984 77.3386 148.156 77.0938 148.359C76.8542 148.562 76.6407 148.792 76.4584 149.052C76.2709 149.312 76.125 149.588 76.0157 149.885C75.9011 150.182 75.8334 150.489 75.7969 150.802C75.7657 151.12 75.7761 151.432 75.823 151.745C75.8698 152.062 75.9584 152.364 76.0886 152.651L83.2344 169.01Z" fill="#414042"/>
<path d="M367.229 48.2759C367.703 48.3905 368.177 48.4113 368.662 48.3384C369.146 48.2655 369.594 48.104 370.01 47.8488C370.427 47.5988 370.781 47.2707 371.073 46.8801C371.359 46.4842 371.563 46.0519 371.677 45.578C373.953 36.3071 378.162 27.4113 382.359 18.7915C383.818 56.3488 382.823 93.8436 379.375 131.271C379.328 131.75 379.375 132.219 379.516 132.682C379.656 133.14 379.88 133.557 380.182 133.932C380.49 134.307 380.854 134.609 381.276 134.838C381.698 135.073 382.151 135.213 382.63 135.265C429.141 140.479 482.177 148.614 522.854 179.328C546.427 197.13 566.214 222.547 580.068 252.828C581.667 256.328 583.177 259.864 584.604 263.437C586.026 267.015 587.365 270.62 588.609 274.26C589.854 277.901 591.011 281.573 592.073 285.271C593.136 288.969 594.104 292.687 594.984 296.437C595.865 300.182 596.646 303.948 597.339 307.734C598.031 311.521 598.625 315.318 599.13 319.135C599.63 322.948 600.037 326.776 600.349 330.609C600.662 334.448 600.88 338.286 601 342.13C601.125 345.979 601.151 349.828 601.078 353.672C601.011 357.521 600.844 361.364 600.583 365.203C600.323 369.042 599.969 372.875 599.516 376.693C599.068 380.515 598.521 384.323 597.88 388.12C597.24 391.911 596.505 395.687 595.677 399.448C594.849 403.203 593.927 406.937 592.917 410.651C591.901 414.364 590.797 418.047 589.599 421.703C588.406 425.364 587.12 428.989 585.74 432.578C584.365 436.172 582.901 439.729 581.344 443.25C579.792 446.771 578.151 450.25 576.427 453.687C574.698 457.13 572.891 460.521 570.995 463.87C569.099 467.219 567.125 470.521 565.063 473.771C563.005 477.021 560.865 480.219 558.651 483.364C556.432 486.505 554.136 489.594 551.766 492.625C549.396 495.656 546.948 498.625 544.432 501.531C541.912 504.443 539.323 507.286 536.662 510.068C534.005 512.844 531.276 515.557 528.479 518.203C525.688 520.844 522.828 523.422 519.906 525.922C516.984 528.422 514 530.854 510.953 533.208C507.912 535.557 504.813 537.838 501.656 540.036C498.5 542.234 495.292 544.354 492.031 546.396C488.766 548.437 485.458 550.396 482.099 552.271C478.74 554.146 475.333 555.937 471.886 557.646C468.438 559.349 464.953 560.969 461.422 562.5C460.974 562.698 460.578 562.969 460.24 563.318C459.896 563.672 459.636 564.073 459.458 564.526C459.276 564.984 459.188 565.453 459.198 565.943C459.208 566.432 459.307 566.901 459.5 567.349C459.698 567.802 459.969 568.193 460.323 568.531C460.672 568.875 461.078 569.13 461.531 569.312C461.99 569.489 462.458 569.573 462.948 569.562C463.438 569.557 463.906 569.453 464.354 569.255C467.995 567.672 471.594 566.005 475.151 564.245C478.708 562.484 482.219 560.635 485.688 558.698C489.151 556.765 492.568 554.745 495.932 552.64C499.297 550.536 502.609 548.349 505.865 546.078C509.12 543.807 512.318 541.458 515.458 539.031C518.599 536.604 521.677 534.099 524.693 531.515C527.708 528.932 530.656 526.281 533.537 523.552C536.422 520.823 539.234 518.026 541.979 515.156C544.724 512.286 547.396 509.354 549.995 506.354C552.594 503.354 555.115 500.286 557.563 497.161C560.005 494.036 562.375 490.849 564.662 487.609C566.953 484.364 569.156 481.062 571.281 477.708C573.406 474.359 575.443 470.953 577.401 467.5C579.354 464.042 581.224 460.542 583.005 456.995C584.787 453.448 586.474 449.854 588.078 446.224C589.682 442.594 591.193 438.922 592.615 435.213C594.031 431.51 595.359 427.765 596.594 423.995C597.828 420.224 598.969 416.422 600.016 412.588C601.063 408.76 602.011 404.906 602.865 401.031C603.719 397.151 604.474 393.255 605.136 389.344C605.797 385.427 606.359 381.5 606.823 377.557C607.292 373.614 607.656 369.661 607.927 365.703C608.193 361.739 608.365 357.776 608.438 353.807C608.511 349.838 608.484 345.87 608.359 341.901C608.234 337.932 608.011 333.969 607.688 330.01C607.365 326.057 606.943 322.109 606.427 318.172C605.906 314.239 605.292 310.318 604.578 306.411C603.865 302.505 603.057 298.62 602.151 294.755C601.245 290.89 600.24 287.052 599.146 283.234C598.047 279.422 596.859 275.635 595.573 271.88C594.287 268.12 592.912 264.401 591.438 260.713C589.969 257.026 588.412 253.375 586.761 249.765C572.401 218.375 551.833 191.984 527.287 173.453C486.177 142.411 433.641 133.703 387.026 128.354C390.01 94.4322 390.995 60.4478 389.979 26.4061L398.276 41.5728C398.51 41.9999 398.818 42.3696 399.198 42.6717C399.578 42.979 400 43.1978 400.469 43.3384C400.938 43.4738 401.412 43.5155 401.901 43.4634C402.385 43.4113 402.839 43.2655 403.266 43.0311C403.698 42.7967 404.063 42.4894 404.37 42.1092C404.672 41.729 404.896 41.3071 405.031 40.8384C405.172 40.3696 405.214 39.8957 405.162 39.4113C405.109 38.9217 404.964 38.4686 404.734 38.0415L395.422 21.0207C392.589 15.8332 389.37 9.95298 389.052 4.01548C389.031 3.60923 388.943 3.21339 388.792 2.83839C388.635 2.45819 388.427 2.11444 388.162 1.80715C387.896 1.49985 387.589 1.23944 387.234 1.03631C386.885 0.827978 386.51 0.682145 386.109 0.60402C385.708 0.520686 385.307 0.510269 384.901 0.562353C384.5 0.614437 384.115 0.72902 383.75 0.911312C383.385 1.08839 383.057 1.32277 382.771 1.61444C382.479 1.90089 382.25 2.22902 382.068 2.5936L376.531 13.9426C371.912 23.4113 367.135 33.203 364.531 43.8228C364.412 44.2967 364.391 44.7759 364.464 45.2551C364.542 45.7394 364.703 46.1874 364.958 46.6092C365.208 47.0259 365.531 47.3801 365.927 47.6665C366.318 47.953 366.755 48.1561 367.229 48.2759Z" fill="#414042"/>
<mask id="mask3_30_294" style="mask-type:luminance" maskUnits="userSpaceOnUse" x="197" y="426" width="572" height="198">
<path d="M197 426.667H768.432V624H197V426.667Z" fill="white"/>
</mask>
<g mask="url(#mask3_30_294)">
<path d="M766.604 475.161L739.151 455.734C736.74 454.166 734.542 452.354 732.542 450.291C732.219 449.927 731.839 449.64 731.396 449.427C730.958 449.213 730.495 449.094 730.01 449.062C729.521 449.036 729.052 449.099 728.589 449.26C728.13 449.416 727.714 449.661 727.349 449.984C726.984 450.307 726.698 450.687 726.484 451.125C726.266 451.562 726.146 452.026 726.115 452.51C726.083 453 726.151 453.474 726.307 453.932C726.464 454.396 726.703 454.807 727.026 455.172C729.396 457.666 732.021 459.859 734.901 461.745L750.854 473.036C730.286 470.062 712.964 467.125 697.094 463.932C685.896 461.677 675.016 459.219 664.755 456.614C663.677 456.338 662.089 455.755 660.406 455.135C655.901 453.474 650.807 451.594 647.016 452.318C641.401 453.406 640.12 457.625 639.182 460.708C638.979 461.37 638.766 462.078 638.5 462.807C636.969 467.01 635.318 471.172 633.552 475.281C631.786 479.396 629.906 483.453 627.917 487.463C625.922 491.469 623.818 495.416 621.604 499.307C619.385 503.193 617.068 507.015 614.635 510.776C612.208 514.536 609.677 518.224 607.036 521.838C604.401 525.458 601.667 528.995 598.833 532.458C596 535.922 593.068 539.302 590.047 542.599C587.021 545.901 583.906 549.109 580.703 552.234C577.5 555.359 574.208 558.39 570.833 561.328C567.458 564.271 564.005 567.109 560.474 569.859C556.937 572.604 553.333 575.245 549.651 577.791C545.969 580.333 542.219 582.771 538.396 585.104C534.578 587.437 530.698 589.661 526.755 591.776C522.812 593.89 518.812 595.89 514.755 597.781C510.698 599.672 506.594 601.448 502.437 603.109C498.286 604.765 494.083 606.312 489.844 607.734C460.021 617.791 423.771 618.276 382.094 609.166C335.458 598.979 294.464 577.885 263.542 548.161C230.031 515.953 208.917 472.943 205.615 430.166C205.578 429.677 205.453 429.213 205.229 428.781C205.01 428.344 204.714 427.969 204.344 427.651C203.974 427.328 203.557 427.094 203.089 426.943C202.625 426.791 202.151 426.734 201.661 426.771C201.177 426.807 200.714 426.937 200.281 427.161C199.844 427.38 199.469 427.677 199.151 428.047C198.833 428.422 198.599 428.838 198.448 429.302C198.297 429.765 198.24 430.245 198.276 430.729C201.719 475.286 223.646 520.026 258.437 553.469C290.344 584.135 332.557 605.885 380.521 616.364C400.833 620.802 419.891 623.015 437.703 623.015C457.568 623.015 475.781 620.25 492.193 614.713C496.568 613.245 500.896 611.651 505.177 609.943C509.458 608.229 513.693 606.401 517.87 604.453C522.052 602.505 526.172 600.437 530.24 598.26C534.302 596.078 538.302 593.786 542.24 591.385C546.172 588.979 550.042 586.469 553.833 583.844C557.63 581.224 561.349 578.5 564.99 575.666C568.63 572.838 572.193 569.911 575.672 566.88C579.146 563.849 582.536 560.724 585.844 557.505C589.146 554.286 592.354 550.974 595.469 547.578C598.589 544.177 601.609 540.693 604.526 537.125C607.448 533.552 610.271 529.906 612.984 526.177C615.703 522.448 618.312 518.651 620.818 514.776C623.323 510.901 625.714 506.958 628 502.953C630.281 498.943 632.448 494.875 634.505 490.745C636.557 486.614 638.495 482.432 640.318 478.193C642.135 473.953 643.833 469.666 645.417 465.333C645.729 464.469 645.984 463.635 646.224 462.849C647.156 459.791 647.323 459.76 648.417 459.547C650.172 459.213 654.984 460.979 657.859 462.041C659.729 462.729 661.495 463.38 662.943 463.75C673.323 466.385 684.323 468.875 695.641 471.151C708.74 473.786 722.797 476.245 738.812 478.693C733.865 479.859 728.964 481.224 724.12 482.781C723.656 482.927 723.234 483.161 722.865 483.479C722.495 483.797 722.198 484.172 721.974 484.604C721.75 485.041 721.62 485.5 721.578 485.984C721.542 486.474 721.594 486.948 721.745 487.416C721.896 487.88 722.13 488.297 722.443 488.666C722.76 489.041 723.135 489.338 723.573 489.562C724.005 489.781 724.469 489.911 724.953 489.953C725.443 489.989 725.917 489.937 726.38 489.786C738.214 485.974 750.312 483.401 762.677 482.068C762.75 482.062 762.823 482.052 762.901 482.041C763.547 481.974 764.187 481.89 764.833 481.828C765.599 481.755 766.271 481.469 766.859 480.974C767.448 480.474 767.839 479.854 768.036 479.109C768.234 478.37 768.203 477.635 767.937 476.911C767.677 476.187 767.234 475.604 766.604 475.161Z" fill="#414042"/>
</g>
</svg>
