<svg xmlns="http://www.w3.org/2000/svg" xmlns:xlink="http://www.w3.org/1999/xlink" width="1024" zoomAndPan="magnify" viewBox="0 0 768 767.999994" height="1024" preserveAspectRatio="xMidYMid meet" version="1.0"><defs><clipPath id="a9686fd94b"><path d="M 99 19 L 667 19 L 667 746.632812 L 99 746.632812 Z M 99 19 " clip-rule="nonzero"/></clipPath></defs><g clip-path="url(#a9686fd94b)"><path fill="#ffffff" d="M 662.417969 540.941406 C 647.300781 617.515625 609.691406 673.964844 550.632812 708.726562 C 508.238281 733.683594 456.335938 746.335938 396.363281 746.335938 C 384.773438 746.335938 372.855469 745.84375 360.953125 744.878906 C 205.203125 732.203125 112.660156 655.332031 100.371094 528.429688 C 91.359375 435.351562 128.945312 385.105469 156.394531 348.414062 C 175.683594 322.628906 184.132812 310.425781 182.226562 291.394531 C 180.527344 274.308594 188.5 258.046875 203.03125 248.941406 C 206.394531 246.835938 209.953125 245.210938 213.605469 244.074219 C 215.09375 227.644531 218.859375 209.824219 226.480469 190.761719 C 247.535156 138.101562 294.699219 84.890625 370.671875 28.082031 C 387.558594 15.4375 410.585938 16.175781 426.648438 29.890625 C 442.707031 43.613281 447.042969 66.230469 437.195312 84.910156 C 434.773438 89.5 432.132812 92.574219 430.867188 94.046875 C 428.246094 97.09375 424.910156 102.09375 425.742188 110.839844 C 426.839844 122.363281 435.628906 147.023438 481.535156 184.296875 C 473.078125 172.851562 467.328125 161 464.359375 148.855469 C 460.125 131.546875 459.429688 105 480.171875 76.839844 C 488.515625 65.507812 501.957031 58.6875 516.128906 58.59375 L 516.707031 58.589844 L 517.289062 58.601562 C 531.777344 58.929688 545.246094 66.265625 553.382812 78.246094 C 556.351562 82.527344 566.417969 94.980469 577.726562 101.773438 C 589.3125 108.726562 613.421875 123.207031 622.640625 153.257812 C 630.132812 177.675781 626.125 206.558594 610.03125 244.152344 C 602.964844 260.667969 586.78125 271.347656 568.804688 271.347656 L 567.15625 271.3125 C 561.03125 271.089844 555.1875 269.65625 549.890625 267.210938 C 551.199219 270.035156 552.433594 272.882812 553.597656 275.753906 C 555.960938 274.855469 558.425781 274.140625 560.972656 273.621094 C 581.378906 269.503906 601.65625 279.011719 611.492188 297.289062 C 633.269531 337.761719 681.84375 442.527344 662.417969 540.941406 Z M 662.417969 540.941406 " fill-opacity="1" fill-rule="nonzero"/></g><path fill="#e7fe75" d="M 472.144531 589.371094 C 434.628906 632.207031 361.390625 645.839844 298.007812 621.796875 C 266.117188 609.699219 245.542969 591.164062 236.851562 566.703125 C 227.230469 539.617188 234.023438 510.390625 240.9375 491.449219 C 244.527344 500.871094 252.175781 509.5 263.632812 516.800781 C 267.542969 519.292969 272.433594 519.363281 276.394531 516.984375 C 280.394531 514.574219 282.648438 510.171875 282.273438 505.488281 C 277.679688 448.191406 311.941406 393.484375 365.589844 372.449219 C 409.484375 355.242188 426.496094 303.875 432.183594 279.820312 C 474.304688 345.859375 447.339844 401.871094 427.390625 443.3125 C 417.195312 464.5 409.136719 481.234375 414.078125 493.726562 C 416.332031 499.429688 421.144531 503.738281 428.371094 506.53125 C 430.667969 507.417969 433.269531 506.601562 434.644531 504.5625 C 446.261719 487.351562 453.175781 484.3125 459.269531 481.632812 C 467.238281 478.128906 473.09375 474.632812 480.480469 460.375 C 504.347656 510.339844 501.507812 555.847656 472.144531 589.371094 Z M 472.144531 589.371094 " fill-opacity="1" fill-rule="nonzero"/><path fill="#ff6232" d="M 572.464844 330.863281 C 567.585938 371.882812 557.488281 399.683594 540.214844 420.101562 C 534.140625 427.285156 524.570312 429 516.386719 424.367188 C 508.207031 419.738281 504.746094 410.640625 507.777344 401.734375 C 523.996094 354.082031 527.835938 284.996094 454.011719 226.46875 C 405.488281 188.007812 379.191406 150.699219 375.84375 115.585938 C 375.039062 107.113281 375.378906 96.21875 379.328125 84.722656 C 249.417969 188.734375 259.171875 252.457031 267.09375 304.160156 C 269.839844 322.09375 272.433594 339.03125 269.085938 355.789062 C 267.75 362.457031 261.851562 366.808594 255.074219 366.144531 C 248.265625 365.476562 243.316406 360.035156 243.308594 353.214844 C 243.285156 332.757812 242.296875 312.09375 232.578125 299.191406 C 231.675781 331.449219 214.546875 354.347656 196.527344 378.4375 C 171.492188 411.902344 143.113281 449.835938 150.257812 523.597656 C 162.667969 651.761719 273.894531 687.507812 365.015625 694.921875 C 444.375 701.382812 582.160156 688.699219 613.25 531.238281 C 628.386719 454.527344 590.871094 367.429688 572.464844 330.863281 Z M 480.082031 596.324219 C 453.011719 627.230469 408.875 644.085938 362.40625 644.085938 C 339.675781 644.085938 316.390625 640.054688 294.261719 631.664062 C 259.316406 618.40625 236.648438 597.71875 226.886719 570.171875 C 209.398438 520.828125 239.671875 467.898438 240.96875 465.667969 C 242.324219 463.339844 245.203125 462.40625 247.671875 463.5 C 250.128906 464.59375 251.375 467.359375 250.554688 469.921875 C 244.859375 487.808594 257.605469 500.449219 269.304688 507.902344 C 269.992188 508.339844 270.582031 508.164062 270.957031 507.941406 C 271.289062 507.738281 271.832031 507.265625 271.757812 506.332031 C 266.792969 444.4375 303.796875 385.34375 361.738281 362.625 C 412.804688 342.605469 424.105469 266.539062 424.214844 265.773438 C 424.515625 263.648438 426.066406 261.917969 428.144531 261.394531 C 430.226562 260.867188 432.414062 261.65625 433.6875 263.378906 C 489.332031 338.960938 457.777344 404.507812 436.898438 447.886719 C 428.179688 466.003906 420.648438 481.648438 423.886719 489.84375 C 424.675781 491.828125 426.195312 493.503906 428.503906 494.914062 C 440.382812 478.410156 448.453125 474.859375 455.023438 471.972656 C 461.738281 469.019531 466.589844 466.886719 475.433594 446.273438 C 476.230469 444.410156 478.019531 443.171875 480.046875 443.082031 C 482.050781 443 483.964844 444.066406 484.925781 445.847656 C 516.132812 503.691406 514.414062 557.128906 480.082031 596.324219 Z M 516.59375 112.71875 C 522.992188 120.808594 535.511719 134.886719 551.917969 144.734375 C 569.445312 155.261719 586.070312 165.246094 568.617188 212.746094 C 563.136719 201.488281 553.207031 184.558594 538.347656 171.820312 C 513.496094 150.523438 506.453125 131.566406 516.59375 112.71875 Z M 516.59375 112.71875 " fill-opacity="1" fill-rule="nonzero"/><path fill="#333330" d="M 576.644531 316.035156 C 575.125 313.21875 571.992188 311.757812 568.871094 312.390625 C 565.726562 313.03125 563.414062 315.613281 563.117188 318.820312 C 559.007812 363.707031 549.457031 392.839844 532.15625 413.289062 C 528.832031 417.222656 524.515625 416.847656 521.582031 415.1875 C 518.648438 413.527344 516.105469 410.015625 517.765625 405.136719 C 531.9375 363.496094 543.359375 283.835938 460.5625 218.203125 C 414.382812 181.59375 389.410156 146.734375 386.347656 114.589844 C 385.195312 102.484375 386.773438 84.625 400.832031 68.285156 C 401.492188 67.515625 401.855469 67.097656 402.195312 66.457031 C 403.34375 64.273438 402.832031 61.585938 400.953125 59.984375 C 399.078125 58.382812 396.339844 58.289062 394.367188 59.769531 C 237.007812 177.4375 247.90625 248.589844 256.664062 305.761719 C 259.378906 323.484375 261.722656 338.792969 258.738281 353.722656 C 258.382812 355.492188 257.109375 355.742188 256.109375 355.648438 C 255.273438 355.566406 253.863281 355.136719 253.859375 353.203125 C 253.828125 324.914062 251.929688 296.144531 229.609375 282.4375 C 227.90625 281.390625 225.75 281.398438 224.050781 282.460938 C 222.351562 283.527344 221.40625 285.460938 221.601562 287.457031 C 225.117188 322.609375 207.953125 345.550781 188.082031 372.117188 C 161.898438 407.117188 132.222656 446.785156 139.757812 524.617188 C 152.871094 660.042969 269.027344 697.695312 364.160156 705.4375 C 374.121094 706.25 384.945312 706.769531 396.367188 706.769531 C 479.992188 706.769531 594.855469 678.894531 623.601562 533.28125 C 641.019531 445.019531 592.0625 344.683594 576.644531 316.035156 Z M 613.25 531.234375 C 582.160156 688.699219 444.375 701.378906 365.015625 694.917969 C 273.894531 687.503906 162.667969 651.761719 150.257812 523.597656 C 143.113281 449.835938 171.488281 411.898438 196.523438 378.433594 C 214.542969 354.347656 231.675781 331.445312 232.574219 299.1875 C 242.296875 312.09375 243.285156 332.753906 243.308594 353.210938 C 243.316406 360.035156 248.265625 365.472656 255.070312 366.144531 C 261.847656 366.804688 267.746094 362.457031 269.082031 355.789062 C 272.433594 339.027344 269.835938 322.089844 267.089844 304.15625 C 259.171875 252.453125 249.417969 188.730469 379.324219 84.722656 C 375.375 96.214844 375.035156 107.109375 375.84375 115.585938 C 379.1875 150.699219 405.488281 188.007812 454.007812 226.46875 C 527.835938 284.996094 523.996094 354.082031 507.773438 401.734375 C 504.742188 410.640625 508.203125 419.738281 516.382812 424.367188 C 524.566406 429 534.140625 427.28125 540.210938 420.101562 C 557.484375 399.683594 567.585938 371.882812 572.460938 330.863281 C 590.871094 367.429688 628.386719 454.527344 613.25 531.234375 Z M 480.046875 443.085938 C 478.023438 443.175781 476.230469 444.414062 475.433594 446.273438 C 466.589844 466.890625 461.738281 469.023438 455.023438 471.976562 C 448.457031 474.863281 440.382812 478.410156 428.503906 494.917969 C 426.195312 493.507812 424.675781 491.832031 423.890625 489.847656 C 420.648438 481.652344 428.175781 466.003906 436.898438 447.890625 C 457.777344 404.515625 489.328125 338.960938 433.6875 263.382812 C 432.414062 261.65625 430.226562 260.871094 428.144531 261.394531 C 426.066406 261.921875 424.515625 263.652344 424.214844 265.773438 C 424.105469 266.539062 412.804688 342.605469 361.738281 362.628906 C 303.792969 385.34375 266.792969 444.4375 271.757812 506.332031 C 271.832031 507.269531 271.289062 507.742188 270.957031 507.941406 C 270.582031 508.164062 269.988281 508.34375 269.304688 507.90625 C 257.605469 500.449219 244.859375 487.808594 250.554688 469.925781 C 251.375 467.363281 250.128906 464.59375 247.671875 463.503906 C 245.203125 462.40625 242.324219 463.34375 240.96875 465.671875 C 239.671875 467.898438 209.398438 520.832031 226.886719 570.175781 C 236.648438 597.71875 259.316406 618.410156 294.261719 631.664062 C 316.390625 640.058594 339.675781 644.089844 362.40625 644.089844 C 408.875 644.089844 453.011719 627.234375 480.082031 596.324219 C 514.414062 557.132812 516.132812 503.691406 484.925781 445.855469 C 483.964844 444.070312 482.054688 443.003906 480.046875 443.085938 Z M 472.144531 589.371094 C 434.628906 632.207031 361.390625 645.839844 298.007812 621.796875 C 266.117188 609.699219 245.542969 591.164062 236.851562 566.703125 C 227.230469 539.617188 234.023438 510.390625 240.9375 491.449219 C 244.527344 500.871094 252.175781 509.5 263.632812 516.800781 C 267.542969 519.292969 272.433594 519.363281 276.394531 516.984375 C 280.394531 514.574219 282.648438 510.171875 282.273438 505.488281 C 277.679688 448.191406 311.941406 393.484375 365.589844 372.449219 C 409.484375 355.242188 426.496094 303.875 432.183594 279.820312 C 474.304688 345.859375 447.339844 401.871094 427.390625 443.3125 C 417.195312 464.5 409.136719 481.234375 414.078125 493.726562 C 416.332031 499.429688 421.144531 503.738281 428.371094 506.53125 C 430.667969 507.417969 433.269531 506.601562 434.644531 504.5625 C 446.261719 487.351562 453.175781 484.3125 459.269531 481.632812 C 467.238281 478.128906 473.09375 474.632812 480.480469 460.375 C 504.347656 510.339844 501.507812 555.847656 472.144531 589.371094 Z M 531.480469 179.832031 C 553.101562 198.363281 563.722656 227.957031 563.828125 228.25 C 564.550781 230.300781 566.457031 231.699219 568.632812 231.765625 C 568.691406 231.769531 568.746094 231.769531 568.804688 231.769531 C 570.910156 231.769531 572.820312 230.515625 573.652344 228.574219 C 599.867188 167.339844 582.621094 150.863281 557.351562 135.6875 C 535.667969 122.667969 520.804688 100.714844 520.65625 100.492188 C 519.699219 99.066406 518.109375 98.191406 516.390625 98.152344 C 514.6875 98.164062 513.042969 98.914062 512.027344 100.296875 C 493.195312 125.871094 499.742188 152.628906 531.480469 179.832031 Z M 516.59375 112.71875 C 522.992188 120.808594 535.511719 134.886719 551.917969 144.734375 C 569.445312 155.261719 586.070312 165.246094 568.617188 212.746094 C 563.136719 201.488281 553.207031 184.558594 538.347656 171.820312 C 513.496094 150.523438 506.453125 131.566406 516.59375 112.71875 Z M 516.59375 112.71875 " fill-opacity="1" fill-rule="nonzero"/></svg>