<svg width="512" height="512" viewBox="0 0 512 512" fill="none" xmlns="http://www.w3.org/2000/svg">
<g clip-path="url(#clip0_6012_215)">
<path d="M492.008 232.344C492.008 232.997 491.935 233.648 491.789 234.299C491.646 234.951 491.43 235.596 491.141 236.237C490.852 236.878 490.495 237.51 490.065 238.135C489.638 238.76 489.141 239.375 488.576 239.979C488.01 240.583 487.38 241.174 486.685 241.75C485.987 242.326 485.229 242.885 484.409 243.43C483.589 243.974 482.711 244.497 481.773 245.003C480.836 245.508 479.846 245.992 478.802 246.453C477.758 246.917 476.667 247.354 475.523 247.768C474.383 248.182 473.198 248.573 471.971 248.935C470.742 249.299 469.479 249.633 468.177 249.943C466.875 250.25 465.542 250.529 464.177 250.779C462.813 251.029 461.424 251.25 460.01 251.44C458.599 251.628 457.167 251.786 455.719 251.914C454.271 252.042 452.813 252.138 451.344 252.203C449.875 252.266 448.401 252.299 446.924 252.299C445.448 252.299 443.974 252.266 442.505 252.203C441.036 252.138 439.578 252.042 438.13 251.914C436.68 251.786 435.25 251.628 433.839 251.44C432.424 251.25 431.036 251.029 429.672 250.779C428.307 250.529 426.974 250.25 425.672 249.943C424.37 249.633 423.104 249.299 421.878 248.935C420.651 248.573 419.466 248.182 418.323 247.768C417.182 247.354 416.091 246.917 415.047 246.453C414.003 245.992 413.01 245.508 412.076 245.003C411.138 244.497 410.26 243.974 409.44 243.43C408.62 242.885 407.862 242.326 407.164 241.75C406.469 241.174 405.839 240.583 405.273 239.979C404.708 239.375 404.211 238.76 403.784 238.135C403.354 237.51 402.995 236.878 402.708 236.237C402.419 235.596 402.203 234.951 402.057 234.299C401.914 233.648 401.841 232.997 401.841 232.344C401.841 231.69 401.914 231.039 402.057 230.388C402.203 229.737 402.419 229.091 402.708 228.451C402.995 227.81 403.354 227.177 403.784 226.552C404.211 225.924 404.708 225.31 405.273 224.708C405.839 224.104 406.469 223.513 407.164 222.937C407.862 222.362 408.62 221.802 409.44 221.258C410.26 220.714 411.138 220.19 412.076 219.685C413.01 219.18 414.003 218.695 415.047 218.234C416.091 217.771 417.182 217.333 418.323 216.919C419.466 216.505 420.651 216.115 421.878 215.753C423.104 215.388 424.37 215.052 425.672 214.745C426.974 214.437 428.307 214.159 429.672 213.909C431.036 213.659 432.424 213.437 433.839 213.247C435.25 213.057 436.68 212.901 438.13 212.773C439.578 212.646 441.036 212.549 442.505 212.484C443.974 212.422 445.448 212.388 446.924 212.388C448.401 212.388 449.875 212.422 451.344 212.484C452.813 212.549 454.271 212.646 455.719 212.773C457.167 212.901 458.599 213.057 460.01 213.247C461.424 213.437 462.813 213.659 464.177 213.909C465.542 214.159 466.875 214.437 468.177 214.745C469.479 215.052 470.742 215.388 471.971 215.753C473.198 216.115 474.383 216.505 475.523 216.919C476.667 217.333 477.758 217.771 478.802 218.234C479.846 218.695 480.836 219.18 481.773 219.685C482.711 220.19 483.589 220.714 484.409 221.258C485.229 221.802 485.987 222.362 486.685 222.937C487.38 223.513 488.01 224.104 488.576 224.708C489.141 225.31 489.638 225.924 490.065 226.552C490.495 227.177 490.852 227.81 491.141 228.451C491.43 229.091 491.646 229.737 491.789 230.388C491.935 231.039 492.008 231.69 492.008 232.344Z" fill="#FF6232"/>
<path d="M126.909 232.344C126.909 232.997 126.839 233.648 126.693 234.299C126.549 234.951 126.331 235.596 126.044 236.237C125.755 236.878 125.398 237.51 124.969 238.135C124.539 238.76 124.044 239.375 123.479 239.979C122.914 240.583 122.284 241.174 121.586 241.75C120.891 242.326 120.133 242.885 119.312 243.43C118.492 243.974 117.615 244.497 116.677 245.003C115.74 245.508 114.75 245.992 113.706 246.453C112.661 246.917 111.568 247.354 110.427 247.768C109.286 248.182 108.102 248.573 106.875 248.935C105.646 249.299 104.38 249.633 103.078 249.943C101.776 250.25 100.443 250.529 99.0807 250.779C97.7161 251.029 96.3281 251.25 94.9141 251.44C93.5 251.628 92.0703 251.786 90.6224 251.914C89.1745 252.042 87.7161 252.138 86.2474 252.203C84.776 252.266 83.3047 252.299 81.8281 252.299C80.3516 252.299 78.8776 252.266 77.4088 252.203C75.9401 252.138 74.4792 252.042 73.0312 251.914C71.5833 251.786 70.1536 251.628 68.7396 251.44C67.3281 251.25 65.9401 251.029 64.5755 250.779C63.2109 250.529 61.8776 250.25 60.5755 249.943C59.2734 249.633 58.0078 249.299 56.7812 248.935C55.5521 248.573 54.3672 248.182 53.2266 247.768C52.0859 247.354 50.9922 246.917 49.9479 246.453C48.9036 245.992 47.9141 245.508 46.9766 245.003C46.0417 244.497 45.1614 243.974 44.3411 243.43C43.5208 242.885 42.763 242.326 42.0677 241.75C41.3724 241.174 40.7422 240.583 40.1771 239.979C39.612 239.375 39.1146 238.76 38.6849 238.135C38.2578 237.51 37.8984 236.878 37.612 236.237C37.3229 235.596 37.1068 234.951 36.9609 234.299C36.8177 233.648 36.7448 232.997 36.7448 232.344C36.7448 231.69 36.8177 231.039 36.9609 230.388C37.1068 229.737 37.3229 229.091 37.612 228.451C37.8984 227.81 38.2578 227.177 38.6849 226.552C39.1146 225.924 39.612 225.31 40.1771 224.708C40.7422 224.104 41.3724 223.513 42.0677 222.937C42.763 222.362 43.5208 221.802 44.3411 221.258C45.1614 220.714 46.0417 220.19 46.9766 219.685C47.9141 219.18 48.9036 218.695 49.9479 218.234C50.9922 217.771 52.0859 217.333 53.2266 216.919C54.3672 216.505 55.5521 216.115 56.7812 215.753C58.0078 215.388 59.2734 215.052 60.5755 214.745C61.8776 214.437 63.2109 214.159 64.5755 213.909C65.9401 213.659 67.3281 213.437 68.7396 213.247C70.1536 213.057 71.5833 212.901 73.0312 212.773C74.4792 212.646 75.9401 212.549 77.4088 212.484C78.8776 212.422 80.3516 212.388 81.8281 212.388C83.3047 212.388 84.776 212.422 86.2474 212.484C87.7161 212.549 89.1745 212.646 90.6224 212.773C92.0703 212.901 93.5 213.057 94.9141 213.247C96.3281 213.437 97.7161 213.659 99.0807 213.909C100.443 214.159 101.776 214.437 103.078 214.745C104.38 215.052 105.646 215.388 106.875 215.753C108.102 216.115 109.286 216.505 110.427 216.919C111.568 217.333 112.661 217.771 113.706 218.234C114.75 218.695 115.74 219.18 116.677 219.685C117.615 220.19 118.492 220.714 119.312 221.258C120.133 221.802 120.891 222.362 121.586 222.937C122.284 223.513 122.914 224.104 123.479 224.708C124.044 225.31 124.539 225.924 124.969 226.552C125.398 227.177 125.755 227.81 126.044 228.451C126.331 229.091 126.549 229.737 126.693 230.388C126.839 231.039 126.909 231.69 126.909 232.344Z" fill="#E7FE75"/>
<path d="M200.815 412.675C200.815 413.328 200.745 413.982 200.599 414.63C200.456 415.281 200.237 415.927 199.951 416.568C199.661 417.208 199.305 417.841 198.875 418.469C198.445 419.094 197.951 419.708 197.385 420.313C196.82 420.914 196.19 421.505 195.492 422.081C194.797 422.659 194.039 423.219 193.219 423.76C192.398 424.305 191.521 424.828 190.583 425.333C189.646 425.839 188.656 426.323 187.612 426.784C186.568 427.247 185.474 427.685 184.333 428.099C183.193 428.516 182.008 428.904 180.781 429.266C179.552 429.63 178.286 429.966 176.984 430.273C175.682 430.581 174.349 430.859 172.987 431.109C171.622 431.362 170.234 431.581 168.82 431.771C167.406 431.961 165.977 432.12 164.529 432.247C163.081 432.375 161.622 432.469 160.154 432.534C158.682 432.596 157.211 432.63 155.734 432.63C154.258 432.63 152.784 432.596 151.315 432.534C149.846 432.469 148.385 432.375 146.937 432.247C145.49 432.12 144.06 431.961 142.646 431.771C141.234 431.581 139.846 431.362 138.482 431.109C137.117 430.859 135.784 430.581 134.482 430.273C133.18 429.966 131.914 429.63 130.687 429.266C129.458 428.904 128.273 428.516 127.133 428.099C125.992 427.685 124.898 427.247 123.854 426.784C122.81 426.323 121.82 425.839 120.883 425.333C119.948 424.828 119.068 424.305 118.247 423.76C117.427 423.219 116.669 422.659 115.974 422.081C115.279 421.505 114.648 420.914 114.083 420.313C113.518 419.708 113.021 419.094 112.591 418.469C112.164 417.841 111.805 417.208 111.518 416.568C111.229 415.927 111.013 415.281 110.867 414.63C110.724 413.982 110.651 413.328 110.651 412.675C110.651 412.021 110.724 411.37 110.867 410.719C111.013 410.068 111.229 409.422 111.518 408.781C111.805 408.141 112.164 407.508 112.591 406.883C113.021 406.258 113.518 405.643 114.083 405.039C114.648 404.435 115.279 403.844 115.974 403.268C116.669 402.693 117.427 402.133 118.247 401.589C119.068 401.044 119.948 400.521 120.883 400.016C121.82 399.51 122.81 399.026 123.854 398.565C124.898 398.102 125.992 397.664 127.133 397.25C128.273 396.836 129.458 396.445 130.687 396.083C131.914 395.721 133.18 395.385 134.482 395.076C135.784 394.768 137.117 394.49 138.482 394.24C139.846 393.99 141.234 393.768 142.646 393.581C144.06 393.391 145.49 393.232 146.937 393.104C148.385 392.977 149.846 392.88 151.315 392.815C152.784 392.753 154.258 392.721 155.734 392.721C157.211 392.721 158.682 392.753 160.154 392.815C161.622 392.88 163.081 392.977 164.529 393.104C165.977 393.232 167.406 393.391 168.82 393.581C170.234 393.768 171.622 393.99 172.987 394.24C174.349 394.49 175.682 394.768 176.984 395.076C178.286 395.385 179.552 395.721 180.781 396.083C182.008 396.445 183.193 396.836 184.333 397.25C185.474 397.664 186.568 398.102 187.612 398.565C188.656 399.026 189.646 399.51 190.583 400.016C191.521 400.521 192.398 401.044 193.219 401.589C194.039 402.133 194.797 402.693 195.492 403.268C196.19 403.844 196.82 404.435 197.385 405.039C197.951 405.643 198.445 406.258 198.875 406.883C199.305 407.508 199.661 408.141 199.951 408.781C200.237 409.422 200.456 410.068 200.599 410.719C200.745 411.37 200.815 412.021 200.815 412.675Z" fill="#FF6232"/>
<path d="M421.057 412.675C421.057 413.328 420.984 413.982 420.841 414.63C420.695 415.281 420.479 415.927 420.19 416.568C419.904 417.208 419.544 417.841 419.115 418.469C418.688 419.094 418.19 419.708 417.625 420.313C417.06 420.914 416.43 421.505 415.734 422.081C415.036 422.659 414.279 423.219 413.458 423.76C412.638 424.305 411.76 424.828 410.823 425.333C409.888 425.839 408.896 426.323 407.852 426.784C406.807 427.247 405.716 427.685 404.576 428.099C403.432 428.516 402.247 428.904 401.021 429.266C399.794 429.63 398.529 429.966 397.227 430.273C395.924 430.581 394.591 430.859 393.227 431.109C391.862 431.362 390.474 431.581 389.06 431.771C387.648 431.961 386.219 432.12 384.768 432.247C383.32 432.375 381.862 432.469 380.393 432.534C378.924 432.596 377.451 432.63 375.974 432.63C374.497 432.63 373.023 432.596 371.555 432.534C370.086 432.469 368.628 432.375 367.18 432.247C365.732 432.12 364.299 431.961 362.888 431.771C361.474 431.581 360.086 431.362 358.721 431.109C357.357 430.859 356.023 430.581 354.721 430.273C353.419 429.966 352.156 429.63 350.927 429.266C349.701 428.904 348.516 428.516 347.375 428.099C346.232 427.685 345.141 427.247 344.096 426.784C343.052 426.323 342.063 425.839 341.125 425.333C340.188 424.828 339.31 424.305 338.49 423.76C337.669 423.219 336.911 422.659 336.214 422.081C335.518 421.505 334.888 420.914 334.323 420.313C333.758 419.708 333.26 419.094 332.833 418.469C332.404 417.841 332.047 417.208 331.758 416.568C331.469 415.927 331.253 415.281 331.109 414.63C330.964 413.982 330.891 413.328 330.891 412.675C330.891 412.021 330.964 411.37 331.109 410.719C331.253 410.068 331.469 409.422 331.758 408.781C332.047 408.141 332.404 407.508 332.833 406.883C333.26 406.258 333.758 405.643 334.323 405.039C334.888 404.435 335.518 403.844 336.214 403.268C336.911 402.693 337.669 402.133 338.49 401.589C339.31 401.044 340.188 400.521 341.125 400.016C342.063 399.51 343.052 399.026 344.096 398.565C345.141 398.102 346.232 397.664 347.375 397.25C348.516 396.836 349.701 396.445 350.927 396.083C352.156 395.721 353.419 395.385 354.721 395.076C356.023 394.768 357.357 394.49 358.721 394.24C360.086 393.99 361.474 393.768 362.888 393.581C364.299 393.391 365.732 393.232 367.18 393.104C368.628 392.977 370.086 392.88 371.555 392.815C373.023 392.753 374.497 392.721 375.974 392.721C377.451 392.721 378.924 392.753 380.393 392.815C381.862 392.88 383.32 392.977 384.768 393.104C386.219 393.232 387.648 393.391 389.06 393.581C390.474 393.768 391.862 393.99 393.227 394.24C394.591 394.49 395.924 394.768 397.227 395.076C398.529 395.385 399.794 395.721 401.021 396.083C402.247 396.445 403.432 396.836 404.576 397.25C405.716 397.664 406.807 398.102 407.852 398.565C408.896 399.026 409.888 399.51 410.823 400.016C411.76 400.521 412.638 401.044 413.458 401.589C414.279 402.133 415.036 402.693 415.734 403.268C416.43 403.844 417.06 404.435 417.625 405.039C418.19 405.643 418.688 406.258 419.115 406.883C419.544 407.508 419.904 408.141 420.19 408.781C420.479 409.422 420.695 410.068 420.841 410.719C420.984 411.37 421.057 412.021 421.057 412.675Z" fill="#E7FE75"/>
<path d="M200.815 54.9687C200.815 55.6224 200.745 56.2734 200.599 56.9245C200.456 57.5755 200.237 58.2213 199.951 58.862C199.661 59.5026 199.305 60.1354 198.875 60.7604C198.445 61.3854 197.951 62 197.385 62.6042C196.82 63.2083 196.19 63.7995 195.492 64.375C194.797 64.9505 194.039 65.5104 193.219 66.0547C192.398 66.599 191.521 67.1224 190.583 67.6276C189.646 68.1328 188.656 68.6172 187.612 69.0781C186.568 69.5417 185.474 69.9792 184.333 70.3932C183.193 70.8073 182.008 71.1979 180.781 71.5599C179.552 71.9245 178.286 72.2578 176.984 72.5677C175.682 72.875 174.349 73.1536 172.987 73.4036C171.622 73.6536 170.234 73.875 168.82 74.0651C167.406 74.2526 165.977 74.4115 164.529 74.5391C163.081 74.6667 161.622 74.763 160.154 74.8281C158.682 74.8906 157.211 74.9245 155.734 74.9245C154.258 74.9245 152.784 74.8906 151.315 74.8281C149.846 74.763 148.385 74.6667 146.937 74.5391C145.49 74.4115 144.06 74.2526 142.646 74.0651C141.234 73.875 139.846 73.6536 138.482 73.4036C137.117 73.1536 135.784 72.875 134.482 72.5677C133.18 72.2578 131.914 71.9245 130.687 71.5599C129.458 71.1979 128.273 70.8073 127.133 70.3932C125.992 69.9792 124.898 69.5417 123.854 69.0781C122.81 68.6172 121.82 68.1328 120.883 67.6276C119.948 67.1224 119.068 66.599 118.247 66.0547C117.427 65.5104 116.669 64.9505 115.974 64.375C115.279 63.7995 114.648 63.2083 114.083 62.6042C113.518 62 113.021 61.3854 112.591 60.7604C112.164 60.1354 111.805 59.5026 111.518 58.862C111.229 58.2213 111.013 57.5755 110.867 56.9245C110.724 56.2734 110.651 55.6224 110.651 54.9687C110.651 54.3151 110.724 53.6641 110.867 53.013C111.013 52.362 111.229 51.7161 111.518 51.0755C111.805 50.4349 112.164 49.8021 112.591 49.1771C113.021 48.5495 113.518 47.9349 114.083 47.3333C114.648 46.7292 115.279 46.138 115.974 45.5625C116.669 44.987 117.427 44.4271 118.247 43.8828C119.068 43.3385 119.948 42.8151 120.883 42.3099C121.82 41.8047 122.81 41.3203 123.854 40.8594C124.898 40.3958 125.992 39.9583 127.133 39.5443C128.273 39.1302 129.458 38.7396 130.687 38.3776C131.914 38.013 133.18 37.6771 134.482 37.3698C135.784 37.0625 137.117 36.7838 138.482 36.5338C139.846 36.2838 141.234 36.0625 142.646 35.8724C144.06 35.6823 145.49 35.526 146.937 35.3984C148.385 35.2708 149.846 35.1745 151.315 35.1094C152.784 35.0469 154.258 35.013 155.734 35.013C157.211 35.013 158.682 35.0469 160.154 35.1094C161.622 35.1745 163.081 35.2708 164.529 35.3984C165.977 35.526 167.406 35.6823 168.82 35.8724C170.234 36.0625 171.622 36.2838 172.987 36.5338C174.349 36.7838 175.682 37.0625 176.984 37.3698C178.286 37.6771 179.552 38.013 180.781 38.3776C182.008 38.7396 183.193 39.1302 184.333 39.5443C185.474 39.9583 186.568 40.3958 187.612 40.8594C188.656 41.3203 189.646 41.8047 190.583 42.3099C191.521 42.8151 192.398 43.3385 193.219 43.8828C194.039 44.4271 194.797 44.987 195.492 45.5625C196.19 46.138 196.82 46.7292 197.385 47.3333C197.951 47.9349 198.445 48.5495 198.875 49.1771C199.305 49.8021 199.661 50.4349 199.951 51.0755C200.237 51.7161 200.456 52.362 200.599 53.013C200.745 53.6641 200.815 54.3151 200.815 54.9687Z" fill="#FF6232"/>
<path d="M421.057 54.9687C421.057 55.6224 420.984 56.2734 420.841 56.9245C420.695 57.5755 420.479 58.2213 420.19 58.862C419.904 59.5026 419.544 60.1354 419.115 60.7604C418.688 61.3854 418.19 62 417.625 62.6042C417.06 63.2083 416.43 63.7995 415.734 64.375C415.036 64.9505 414.279 65.5104 413.458 66.0547C412.638 66.599 411.76 67.1224 410.823 67.6276C409.888 68.1328 408.896 68.6172 407.852 69.0781C406.807 69.5417 405.716 69.9792 404.576 70.3932C403.432 70.8073 402.247 71.1979 401.021 71.5599C399.794 71.9245 398.529 72.2578 397.227 72.5677C395.924 72.875 394.591 73.1536 393.227 73.4036C391.862 73.6536 390.474 73.875 389.06 74.0651C387.648 74.2526 386.219 74.4115 384.768 74.5391C383.32 74.6667 381.862 74.763 380.393 74.8281C378.924 74.8906 377.451 74.9245 375.974 74.9245C374.497 74.9245 373.023 74.8906 371.555 74.8281C370.086 74.763 368.628 74.6667 367.18 74.5391C365.732 74.4115 364.299 74.2526 362.888 74.0651C361.474 73.875 360.086 73.6536 358.721 73.4036C357.357 73.1536 356.023 72.875 354.721 72.5677C353.419 72.2578 352.156 71.9245 350.927 71.5599C349.701 71.1979 348.516 70.8073 347.375 70.3932C346.232 69.9792 345.141 69.5417 344.096 69.0781C343.052 68.6172 342.063 68.1328 341.125 67.6276C340.188 67.1224 339.31 66.599 338.49 66.0547C337.669 65.5104 336.911 64.9505 336.214 64.375C335.518 63.7995 334.888 63.2083 334.323 62.6042C333.758 62 333.26 61.3854 332.833 60.7604C332.404 60.1354 332.047 59.5026 331.758 58.862C331.469 58.2213 331.253 57.5755 331.109 56.9245C330.964 56.2734 330.891 55.6224 330.891 54.9687C330.891 54.3151 330.964 53.6641 331.109 53.013C331.253 52.362 331.469 51.7161 331.758 51.0755C332.047 50.4349 332.404 49.8021 332.833 49.1771C333.26 48.5495 333.758 47.9349 334.323 47.3333C334.888 46.7292 335.518 46.138 336.214 45.5625C336.911 44.987 337.669 44.4271 338.49 43.8828C339.31 43.3385 340.188 42.8151 341.125 42.3099C342.063 41.8047 343.052 41.3203 344.096 40.8594C345.141 40.3958 346.232 39.9583 347.375 39.5443C348.516 39.1302 349.701 38.7396 350.927 38.3776C352.156 38.013 353.419 37.6771 354.721 37.3698C356.023 37.0625 357.357 36.7838 358.721 36.5338C360.086 36.2838 361.474 36.0625 362.888 35.8724C364.299 35.6823 365.732 35.526 367.18 35.3984C368.628 35.2708 370.086 35.1745 371.555 35.1094C373.023 35.0469 374.497 35.013 375.974 35.013C377.451 35.013 378.924 35.0469 380.393 35.1094C381.862 35.1745 383.32 35.2708 384.768 35.3984C386.219 35.526 387.648 35.6823 389.06 35.8724C390.474 36.0625 391.862 36.2838 393.227 36.5338C394.591 36.7838 395.924 37.0625 397.227 37.3698C398.529 37.6771 399.794 38.013 401.021 38.3776C402.247 38.7396 403.432 39.1302 404.576 39.5443C405.716 39.9583 406.807 40.3958 407.852 40.8594C408.896 41.3203 409.888 41.8047 410.823 42.3099C411.76 42.8151 412.638 43.3385 413.458 43.8828C414.279 44.4271 415.036 44.987 415.734 45.5625C416.43 46.138 417.06 46.7292 417.625 47.3333C418.19 47.9349 418.688 48.5495 419.115 49.1771C419.544 49.8021 419.904 50.4349 420.19 51.0755C420.479 51.7161 420.695 52.362 420.841 53.013C420.984 53.6641 421.057 54.3151 421.057 54.9687Z" fill="#E7FE75"/>
<path d="M330.891 203.521C330.891 203.943 330.865 204.367 330.81 204.789C330.755 205.214 330.672 205.635 330.565 206.055C330.456 206.477 330.318 206.896 330.156 207.315C329.992 207.734 329.802 208.151 329.586 208.568C329.367 208.982 329.125 209.396 328.854 209.805C328.583 210.216 328.286 210.625 327.964 211.029C327.641 211.435 327.292 211.836 326.917 212.234C326.542 212.633 326.141 213.029 325.716 213.419C325.289 213.81 324.839 214.198 324.362 214.581C323.888 214.964 323.388 215.341 322.862 215.714C322.339 216.089 321.789 216.456 321.219 216.818C320.646 217.182 320.049 217.539 319.432 217.891C318.815 218.242 318.174 218.589 317.51 218.93C316.849 219.268 316.164 219.604 315.458 219.93C314.753 220.258 314.026 220.578 313.279 220.891C312.531 221.206 311.763 221.513 310.977 221.81C310.19 222.109 309.383 222.401 308.56 222.687C307.734 222.971 306.893 223.247 306.031 223.516C305.172 223.784 304.294 224.044 303.401 224.297C302.508 224.549 301.599 224.792 300.672 225.029C299.747 225.263 298.807 225.49 297.854 225.708C296.898 225.924 295.93 226.133 294.951 226.333C293.969 226.534 292.974 226.724 291.969 226.904C290.964 227.086 289.945 227.255 288.917 227.419C287.891 227.581 286.852 227.732 285.805 227.875C284.755 228.018 283.701 228.151 282.635 228.273C281.57 228.396 280.497 228.51 279.419 228.612C278.339 228.716 277.253 228.807 276.161 228.891C275.07 228.974 273.974 229.044 272.875 229.107C271.773 229.169 270.669 229.221 269.562 229.263C268.456 229.305 267.346 229.336 266.234 229.357C265.122 229.378 264.01 229.388 262.898 229.388C261.784 229.388 260.672 229.378 259.562 229.357C258.451 229.336 257.341 229.305 256.232 229.263C255.125 229.221 254.021 229.169 252.922 229.107C251.82 229.044 250.724 228.974 249.633 228.891C248.542 228.807 247.456 228.716 246.378 228.612C245.297 228.51 244.224 228.396 243.159 228.273C242.096 228.151 241.039 228.018 239.992 227.875C238.943 227.732 237.906 227.581 236.878 227.419C235.849 227.255 234.833 227.086 233.826 226.904C232.82 226.724 231.828 226.534 230.846 226.333C229.865 226.133 228.896 225.924 227.943 225.708C226.987 225.49 226.047 225.263 225.122 225.029C224.198 224.792 223.286 224.549 222.393 224.297C221.5 224.044 220.622 223.784 219.763 223.516C218.904 223.247 218.06 222.971 217.237 222.687C216.411 222.401 215.607 222.109 214.818 221.81C214.031 221.513 213.266 221.206 212.518 220.891C211.771 220.578 211.044 220.258 210.339 219.93C209.633 219.604 208.948 219.268 208.284 218.93C207.622 218.589 206.982 218.242 206.362 217.891C205.745 217.539 205.148 217.182 204.578 216.818C204.005 216.456 203.456 216.089 202.932 215.714C202.409 215.341 201.909 214.964 201.432 214.581C200.956 214.198 200.505 213.81 200.081 213.419C199.654 213.029 199.253 212.633 198.878 212.234C198.503 211.836 198.154 211.435 197.831 211.029C197.508 210.625 197.211 210.216 196.943 209.805C196.672 209.396 196.427 208.982 196.211 208.568C195.992 208.151 195.802 207.734 195.641 207.315C195.477 206.896 195.341 206.477 195.232 206.055C195.122 205.635 195.042 205.214 194.987 204.789C194.932 204.367 194.904 203.943 194.904 203.521C194.904 203.096 194.932 202.674 194.987 202.25C195.042 201.828 195.122 201.406 195.232 200.984C195.341 200.562 195.477 200.143 195.641 199.724C195.802 199.305 195.992 198.888 196.211 198.474C196.427 198.06 196.672 197.646 196.943 197.234C197.211 196.826 197.508 196.417 197.831 196.01C198.154 195.607 198.503 195.206 198.878 194.805C199.253 194.406 199.654 194.013 200.081 193.622C200.505 193.229 200.956 192.844 201.432 192.461C201.909 192.078 202.409 191.701 202.932 191.326C203.456 190.953 204.005 190.586 204.578 190.221C205.148 189.859 205.745 189.5 206.362 189.148C206.982 188.797 207.622 188.451 208.284 188.112C208.948 187.771 209.633 187.437 210.339 187.109C211.044 186.784 211.771 186.464 212.518 186.148C213.266 185.836 214.031 185.529 214.818 185.229C215.607 184.93 216.411 184.638 217.237 184.354C218.06 184.07 218.904 183.794 219.763 183.523C220.622 183.255 221.5 182.995 222.393 182.745C223.286 182.492 224.198 182.247 225.122 182.013C226.047 181.776 226.987 181.552 227.943 181.333C228.896 181.115 229.865 180.906 230.846 180.708C231.828 180.508 232.82 180.318 233.826 180.135C234.833 179.956 235.849 179.784 236.878 179.622C237.906 179.461 238.943 179.307 239.992 179.164C241.039 179.023 242.096 178.891 243.159 178.766C244.224 178.643 245.297 178.531 246.378 178.427C247.456 178.326 248.542 178.232 249.633 178.151C250.724 178.068 251.82 177.995 252.922 177.932C254.021 177.87 255.125 177.82 256.232 177.779C257.341 177.737 258.451 177.706 259.562 177.685C260.672 177.664 261.784 177.654 262.898 177.654C264.01 177.654 265.122 177.664 266.234 177.685C267.346 177.706 268.456 177.737 269.562 177.779C270.669 177.82 271.773 177.87 272.875 177.932C273.974 177.995 275.07 178.068 276.161 178.151C277.253 178.232 278.339 178.326 279.419 178.427C280.497 178.531 281.57 178.643 282.635 178.766C283.701 178.891 284.755 179.023 285.805 179.164C286.852 179.307 287.891 179.461 288.917 179.622C289.945 179.784 290.964 179.956 291.969 180.135C292.974 180.318 293.969 180.508 294.951 180.708C295.93 180.906 296.898 181.115 297.854 181.333C298.807 181.552 299.747 181.776 300.672 182.013C301.599 182.247 302.508 182.492 303.401 182.745C304.294 182.995 305.172 183.255 306.031 183.523C306.893 183.794 307.734 184.07 308.56 184.354C309.383 184.638 310.19 184.93 310.977 185.229C311.763 185.529 312.531 185.836 313.279 186.148C314.026 186.464 314.753 186.784 315.458 187.109C316.164 187.437 316.849 187.771 317.51 188.112C318.174 188.451 318.815 188.797 319.432 189.148C320.049 189.5 320.646 189.859 321.219 190.221C321.789 190.586 322.339 190.953 322.862 191.326C323.388 191.701 323.888 192.078 324.362 192.461C324.839 192.844 325.289 193.229 325.716 193.622C326.141 194.013 326.542 194.406 326.917 194.805C327.292 195.206 327.641 195.607 327.964 196.01C328.286 196.417 328.583 196.826 328.854 197.234C329.125 197.646 329.367 198.06 329.586 198.474C329.802 198.888 329.992 199.305 330.156 199.724C330.318 200.143 330.456 200.562 330.565 200.984C330.672 201.406 330.755 201.828 330.81 202.25C330.865 202.674 330.891 203.096 330.891 203.521Z" fill="#FFFFFA"/>
<mask id="mask0_6012_215" style="mask-type:luminance" maskUnits="userSpaceOnUse" x="28" y="29" width="470" height="474">
<path d="M28 29.1016H497.333V502.102H28V29.1016Z" fill="white"/>
</mask>
<g mask="url(#mask0_6012_215)">
<path d="M446.924 207.216C418.102 207.216 395.93 218.302 395.93 233.083V258.951H336.065V203.521C336.065 196.87 331.63 190.956 324.979 186.521L356.758 142.177C362.672 142.917 368.583 143.656 375.234 143.656C404.057 143.656 426.229 132.57 426.229 117.789V54.9688C426.229 40.1875 404.057 29.1016 375.234 29.1016C346.411 29.1016 324.24 40.1875 324.24 54.9688V118.529C324.24 127.396 332.37 134.786 344.932 139.221L314.633 181.349C300.589 175.435 280.635 172.479 261.419 172.479C242.203 172.479 222.987 175.435 208.206 181.349L178.643 140.701C194.164 136.266 204.51 128.135 204.51 117.789V54.9688C204.51 40.1875 182.339 29.1016 153.516 29.1016C124.693 29.1016 102.521 40.1875 102.521 54.9688V118.529C102.521 133.31 124.693 144.396 153.516 144.396C157.951 144.396 162.385 144.396 166.82 143.656L198.599 187.26C191.948 191.695 187.513 197.607 187.513 204.26V259.69H130.604V233.823C130.604 219.042 108.432 207.956 79.6094 207.956C50.7865 207.956 28.6146 219.042 28.6146 233.823V297.38C28.6146 312.161 50.7865 323.247 79.6094 323.247C108.432 323.247 130.604 312.161 130.604 297.38V271.513H187.513V324.727C187.513 331.378 191.208 337.292 197.859 341.724L163.862 387.547C160.906 387.547 157.211 386.807 153.516 386.807C124.693 386.807 102.521 397.893 102.521 412.674V476.234C102.521 491.016 124.693 502.102 153.516 502.102C182.339 502.102 204.51 491.016 204.51 476.234V412.674C204.51 402.328 193.424 393.458 176.427 389.763L208.206 346.898C222.25 352.81 242.203 355.768 261.419 355.768C280.635 355.768 299.852 352.81 314.633 346.898L346.411 391.242C332.37 395.677 324.24 403.807 324.24 412.674V476.234C324.24 491.016 346.411 502.102 375.234 502.102C404.057 502.102 426.229 491.016 426.229 476.234V412.674C426.229 397.893 404.057 386.807 375.234 386.807C369.323 386.807 363.409 387.547 358.237 388.286L324.24 341.724C330.891 337.292 335.326 331.378 335.326 324.727V269.297H395.19V295.164C395.19 309.945 417.362 321.031 446.185 321.031C475.008 321.031 497.18 309.945 497.18 295.164V231.604C497.919 218.302 475.747 207.216 446.924 207.216ZM336.065 71.2292C345.672 77.1406 359.714 80.8359 375.974 80.8359C392.234 80.8359 407.016 77.1406 415.883 71.2292V83.7917C415.883 91.9219 399.625 101.529 375.974 101.529C352.323 101.529 336.065 91.9219 336.065 83.7917V71.2292ZM375.974 40.1875C400.362 40.1875 415.883 49.0573 415.883 54.9688C415.883 60.8802 400.362 69.75 375.974 69.75C351.586 69.75 336.065 60.8802 336.065 54.9688C336.065 49.0573 351.586 40.1875 375.974 40.1875ZM336.065 118.529V102.268C345.672 108.919 359.714 113.354 375.974 113.354C392.234 113.354 406.276 108.919 415.883 102.268V118.529C415.883 124.44 400.365 133.31 375.974 133.31C351.586 133.31 336.065 124.44 336.065 118.529ZM115.823 71.2292C124.693 77.1406 138.734 80.8359 155.734 80.8359C172.732 80.8359 186.773 77.1406 195.643 71.2292V83.7917C195.643 91.9219 179.383 101.529 155.734 101.529C132.083 101.529 115.823 91.9219 115.823 83.7917V71.2292ZM155.734 40.1875C180.122 40.1875 195.643 49.0573 195.643 54.9688C195.643 60.8802 180.122 69.75 155.734 69.75C131.344 69.75 115.823 60.8802 115.823 54.9688C115.823 49.0573 131.344 40.1875 155.734 40.1875ZM115.823 118.529V102.268C125.432 108.919 139.474 113.354 155.734 113.354C171.992 113.354 186.034 108.919 195.643 102.268V118.529C195.643 124.44 180.122 133.31 155.734 133.31C131.344 133.31 115.823 124.44 115.823 118.529ZM41.9167 248.604C50.7865 254.516 64.8281 258.211 81.8281 258.211C98.0859 258.211 112.867 254.516 121.737 248.604V261.167C121.737 269.297 105.477 278.904 81.8281 278.904C58.1771 278.904 41.9167 269.297 41.9167 261.167V248.604ZM81.8281 218.302C106.216 218.302 121.737 227.169 121.737 233.083C121.737 238.995 106.216 247.865 81.8281 247.865C57.4375 247.865 41.9167 238.995 41.9167 233.083C41.9167 226.432 57.4375 218.302 81.8281 218.302ZM81.8281 310.685C57.4375 310.685 41.9167 301.815 41.9167 295.904V279.643C51.526 286.294 65.5677 290.729 81.8281 290.729C98.0859 290.729 112.128 286.294 121.737 279.643V295.904C121.737 301.815 106.216 310.685 81.8281 310.685ZM195.643 441.497C195.643 449.628 179.383 459.237 155.734 459.237C132.083 459.237 115.823 449.628 115.823 441.497V428.935C124.693 434.846 139.474 438.542 155.734 438.542C171.992 438.542 186.773 434.846 195.643 428.935V441.497ZM155.734 491.016C131.344 491.016 115.823 482.146 115.823 476.234V459.974C125.432 466.628 139.474 471.06 155.734 471.06C171.992 471.06 186.034 466.628 195.643 459.974V476.234C195.643 482.146 180.122 491.016 155.734 491.016ZM195.643 412.674C195.643 418.589 180.122 427.456 155.734 427.456C131.344 427.456 115.823 418.589 115.823 412.674C115.823 406.763 131.344 397.893 155.734 397.893C180.122 397.893 195.643 406.763 195.643 412.674ZM415.883 441.497C415.883 449.628 399.625 459.237 375.974 459.237C352.323 459.237 336.065 449.628 336.065 441.497V428.935C344.932 434.846 359.714 438.542 375.974 438.542C392.234 438.542 407.016 434.846 415.883 428.935V441.497ZM375.974 491.016C351.586 491.016 336.065 482.146 336.065 476.234V459.974C345.672 466.628 359.714 471.06 375.974 471.06C392.234 471.06 406.276 466.628 415.883 459.974V476.234C415.883 482.146 400.362 491.016 375.974 491.016ZM415.883 412.674C415.883 418.589 400.362 427.456 375.974 427.456C351.586 427.456 336.065 418.589 336.065 412.674C336.065 406.763 351.586 397.893 375.974 397.893C400.362 397.893 415.883 406.763 415.883 412.674ZM324.979 244.169C324.979 252.299 300.589 264.122 262.898 264.122C225.206 264.122 200.815 252.299 200.815 244.169V220.518C214.859 230.128 239.247 234.56 262.898 234.56C286.547 234.56 311.674 229.388 324.979 220.518V244.169ZM200.078 261.167C214.12 270.776 238.508 275.208 262.159 275.208C285.807 275.208 310.938 270.036 324.24 261.167V287.773C324.24 295.904 299.852 307.729 262.159 307.729C224.466 307.729 200.078 295.904 200.078 287.773V261.167ZM324.979 203.521C324.979 211.651 300.589 223.474 262.898 223.474C225.206 223.474 200.815 211.651 200.815 203.521C200.815 195.391 225.206 183.565 262.898 183.565C300.589 183.565 324.979 195.391 324.979 203.521ZM200.078 324.727V304.034C214.12 313.641 238.508 318.076 262.159 318.076C285.807 318.076 310.938 312.901 324.24 304.034V324.727C324.24 332.857 299.852 344.682 262.159 344.682C224.466 344.682 200.078 333.596 200.078 324.727ZM486.833 261.167C486.833 269.297 470.573 278.904 446.924 278.904C423.273 278.904 407.016 269.297 407.016 261.167V248.604C415.883 254.516 430.664 258.211 446.924 258.211C463.182 258.211 477.964 254.516 486.833 248.604V261.167ZM446.924 218.302C471.313 218.302 486.833 227.169 486.833 233.083C486.833 238.995 471.313 247.865 446.924 247.865C422.534 247.865 407.016 238.995 407.016 233.083C407.016 226.432 422.534 218.302 446.924 218.302ZM446.924 310.685C422.534 310.685 407.016 301.815 407.016 295.904V279.643C416.622 286.294 430.664 290.729 446.924 290.729C463.182 290.729 477.227 286.294 486.833 279.643V295.904C486.833 301.815 471.313 310.685 446.924 310.685Z" fill="#FFFFFA"/>
</g>
</g>
<defs>
<clipPath id="clip0_6012_215">
<rect width="512" height="512" fill="white"/>
</clipPath>
</defs>
</svg>
