<svg xmlns="http://www.w3.org/2000/svg" xmlns:xlink="http://www.w3.org/1999/xlink" width="1024" zoomAndPan="magnify" viewBox="0 0 768 767.999994" height="1024" preserveAspectRatio="xMidYMid meet" version="1.0"><defs><clipPath id="8a9f195daf"><path d="M 101 194 L 136 194 L 136 230 L 101 230 Z M 101 194 " clip-rule="nonzero"/></clipPath><clipPath id="9cdb895d75"><path d="M 98.003906 225.28125 L 105.046875 191.246094 L 139.078125 198.289062 L 132.035156 232.320312 Z M 98.003906 225.28125 " clip-rule="nonzero"/></clipPath><clipPath id="f2c933d907"><path d="M 101.523438 208.261719 C 99.578125 217.660156 105.621094 226.855469 115.019531 228.800781 C 124.417969 230.746094 133.613281 224.703125 135.554688 215.304688 C 137.5 205.90625 131.460938 196.714844 122.0625 194.769531 C 112.664062 192.824219 103.46875 198.867188 101.523438 208.261719 Z M 101.523438 208.261719 " clip-rule="nonzero"/></clipPath><clipPath id="deda135453"><path d="M 101 194 L 136 194 L 136 230 L 101 230 Z M 101 194 " clip-rule="nonzero"/></clipPath><clipPath id="093e1e5c53"><path d="M 98.003906 225.28125 L 104.996094 191.492188 L 138.78125 198.484375 L 131.789062 232.269531 Z M 98.003906 225.28125 " clip-rule="nonzero"/></clipPath><clipPath id="eb387dcf05"><path d="M 98.003906 225.28125 L 105.042969 191.253906 L 139.070312 198.292969 L 132.03125 232.320312 Z M 98.003906 225.28125 " clip-rule="nonzero"/></clipPath><clipPath id="3a7c68d46c"><path d="M 101.523438 208.265625 C 99.578125 217.664062 105.621094 226.855469 115.015625 228.800781 C 124.414062 230.746094 133.605469 224.703125 135.550781 215.308594 C 137.496094 205.910156 131.453125 196.71875 122.058594 194.773438 C 112.660156 192.828125 103.46875 198.871094 101.523438 208.265625 Z M 101.523438 208.265625 " clip-rule="nonzero"/></clipPath><clipPath id="1998357f2f"><path d="M 197 255 L 233 255 L 233 291 L 197 291 Z M 197 255 " clip-rule="nonzero"/></clipPath><clipPath id="236ed0a8bd"><path d="M 194.324219 286.339844 L 201.367188 252.304688 L 235.398438 259.347656 L 228.355469 293.378906 Z M 194.324219 286.339844 " clip-rule="nonzero"/></clipPath><clipPath id="596bd02026"><path d="M 197.84375 269.320312 C 195.898438 278.71875 201.941406 287.914062 211.339844 289.859375 C 220.738281 291.804688 229.929688 285.761719 231.875 276.363281 C 233.820312 266.964844 227.777344 257.773438 218.382812 255.828125 C 208.984375 253.882812 199.789062 259.925781 197.84375 269.320312 Z M 197.84375 269.320312 " clip-rule="nonzero"/></clipPath><clipPath id="b8c6924c27"><path d="M 197 255 L 233 255 L 233 291 L 197 291 Z M 197 255 " clip-rule="nonzero"/></clipPath><clipPath id="d81869c3ed"><path d="M 194.324219 286.339844 L 201.3125 252.550781 L 235.097656 259.542969 L 228.109375 293.328125 Z M 194.324219 286.339844 " clip-rule="nonzero"/></clipPath><clipPath id="9205807d15"><path d="M 194.324219 286.339844 L 201.363281 252.3125 L 235.390625 259.351562 L 228.351562 293.378906 Z M 194.324219 286.339844 " clip-rule="nonzero"/></clipPath><clipPath id="4f26b5a187"><path d="M 197.84375 269.324219 C 195.898438 278.722656 201.941406 287.914062 211.335938 289.859375 C 220.734375 291.804688 229.925781 285.761719 231.871094 276.367188 C 233.816406 266.96875 227.773438 257.777344 218.378906 255.832031 C 208.980469 253.886719 199.789062 259.929688 197.84375 269.324219 Z M 197.84375 269.324219 " clip-rule="nonzero"/></clipPath><clipPath id="d20dbc9c2b"><path d="M 133 308 L 168 308 L 168 344 L 133 344 Z M 133 308 " clip-rule="nonzero"/></clipPath><clipPath id="a09178bf52"><path d="M 129.90625 339.5625 L 136.945312 305.53125 L 170.980469 312.574219 L 163.9375 346.605469 Z M 129.90625 339.5625 " clip-rule="nonzero"/></clipPath><clipPath id="2db1236aba"><path d="M 133.425781 322.546875 C 131.480469 331.945312 137.523438 341.140625 146.921875 343.082031 C 156.320312 345.027344 165.511719 338.984375 167.457031 329.589844 C 169.402344 320.191406 163.359375 310.996094 153.964844 309.050781 C 144.566406 307.105469 135.371094 313.148438 133.425781 322.546875 Z M 133.425781 322.546875 " clip-rule="nonzero"/></clipPath><clipPath id="9a811b7541"><path d="M 133 308 L 168 308 L 168 344 L 133 344 Z M 133 308 " clip-rule="nonzero"/></clipPath><clipPath id="4399a13ea7"><path d="M 129.90625 339.5625 L 136.894531 305.777344 L 170.679688 312.769531 L 163.691406 346.554688 Z M 129.90625 339.5625 " clip-rule="nonzero"/></clipPath><clipPath id="4970c25522"><path d="M 129.90625 339.5625 L 136.945312 305.535156 L 170.972656 312.578125 L 163.933594 346.605469 Z M 129.90625 339.5625 " clip-rule="nonzero"/></clipPath><clipPath id="fed9236235"><path d="M 133.425781 322.546875 C 131.480469 331.945312 137.523438 341.136719 146.917969 343.082031 C 156.316406 345.027344 165.507812 338.984375 167.453125 329.589844 C 169.398438 320.195312 163.355469 311 153.960938 309.054688 C 144.5625 307.109375 135.371094 313.152344 133.425781 322.546875 Z M 133.425781 322.546875 " clip-rule="nonzero"/></clipPath><clipPath id="9a65113956"><path d="M 154 494 L 190 494 L 190 530 L 154 530 Z M 154 494 " clip-rule="nonzero"/></clipPath><clipPath id="fe4ef0b516"><path d="M 151.828125 525.796875 L 158.871094 491.765625 L 192.902344 498.808594 L 185.859375 532.839844 Z M 151.828125 525.796875 " clip-rule="nonzero"/></clipPath><clipPath id="d12b7749a9"><path d="M 155.347656 508.78125 C 153.40625 518.179688 159.445312 527.375 168.84375 529.316406 C 178.242188 531.261719 187.4375 525.222656 189.382812 515.824219 C 191.328125 506.425781 185.285156 497.230469 175.886719 495.285156 C 166.488281 493.339844 157.292969 499.382812 155.347656 508.78125 Z M 155.347656 508.78125 " clip-rule="nonzero"/></clipPath><clipPath id="e3574b17fd"><path d="M 154 494 L 190 494 L 190 530 L 154 530 Z M 154 494 " clip-rule="nonzero"/></clipPath><clipPath id="ea7c1ca256"><path d="M 151.828125 525.796875 L 158.820312 492.011719 L 192.605469 499.003906 L 185.613281 532.789062 Z M 151.828125 525.796875 " clip-rule="nonzero"/></clipPath><clipPath id="da9fa5d2b3"><path d="M 151.828125 525.796875 L 158.871094 491.769531 L 192.898438 498.8125 L 185.855469 532.839844 Z M 151.828125 525.796875 " clip-rule="nonzero"/></clipPath><clipPath id="45f0a1223b"><path d="M 155.347656 508.785156 C 153.40625 518.179688 159.445312 527.375 168.84375 529.316406 C 178.238281 531.261719 187.433594 525.222656 189.375 515.824219 C 191.320312 506.429688 185.28125 497.234375 175.882812 495.289062 C 166.488281 493.347656 157.292969 499.386719 155.347656 508.785156 Z M 155.347656 508.785156 " clip-rule="nonzero"/></clipPath><clipPath id="64ed9c5d85"><path d="M 102 567 L 138 567 L 138 603 L 102 603 Z M 102 567 " clip-rule="nonzero"/></clipPath><clipPath id="ab34b76c4a"><path d="M 99.441406 598.484375 L 106.484375 564.449219 L 140.515625 571.492188 L 133.472656 605.523438 Z M 99.441406 598.484375 " clip-rule="nonzero"/></clipPath><clipPath id="9629d4309e"><path d="M 102.960938 581.46875 C 101.015625 590.863281 107.058594 600.058594 116.457031 602.003906 C 125.855469 603.949219 135.050781 597.90625 136.992188 588.507812 C 138.9375 579.113281 132.898438 569.917969 123.5 567.972656 C 114.101562 566.027344 104.90625 572.070312 102.960938 581.46875 Z M 102.960938 581.46875 " clip-rule="nonzero"/></clipPath><clipPath id="aa76c80a91"><path d="M 102 567 L 138 567 L 138 603 L 102 603 Z M 102 567 " clip-rule="nonzero"/></clipPath><clipPath id="497af54593"><path d="M 99.441406 598.484375 L 106.433594 564.699219 L 140.21875 571.6875 L 133.226562 605.472656 Z M 99.441406 598.484375 " clip-rule="nonzero"/></clipPath><clipPath id="46bbf8e3b1"><path d="M 99.441406 598.484375 L 106.480469 564.457031 L 140.507812 571.496094 L 133.46875 605.523438 Z M 99.441406 598.484375 " clip-rule="nonzero"/></clipPath><clipPath id="36ae3c7abd"><path d="M 102.960938 581.46875 C 101.015625 590.867188 107.058594 600.058594 116.453125 602.003906 C 125.851562 603.949219 135.042969 597.90625 136.988281 588.511719 C 138.933594 579.113281 132.890625 569.921875 123.496094 567.976562 C 114.097656 566.03125 104.90625 572.074219 102.960938 581.46875 Z M 102.960938 581.46875 " clip-rule="nonzero"/></clipPath><clipPath id="f13b05bef4"><path d="M 139 661 L 175 661 L 175 697 L 139 697 Z M 139 661 " clip-rule="nonzero"/></clipPath><clipPath id="f3b5547992"><path d="M 136.640625 692.761719 L 143.679688 658.730469 L 177.714844 665.769531 L 170.671875 699.804688 Z M 136.640625 692.761719 " clip-rule="nonzero"/></clipPath><clipPath id="3889d61009"><path d="M 140.160156 675.746094 C 138.214844 685.140625 144.257812 694.335938 153.65625 696.28125 C 163.050781 698.226562 172.246094 692.183594 174.191406 682.789062 C 176.136719 673.390625 170.09375 664.195312 160.699219 662.25 C 151.300781 660.304688 142.105469 666.347656 140.160156 675.746094 Z M 140.160156 675.746094 " clip-rule="nonzero"/></clipPath><clipPath id="987e7602f1"><path d="M 139 661 L 175 661 L 175 697 L 139 697 Z M 139 661 " clip-rule="nonzero"/></clipPath><clipPath id="3646666243"><path d="M 136.640625 692.761719 L 143.628906 658.976562 L 177.414062 665.96875 L 170.425781 699.753906 Z M 136.640625 692.761719 " clip-rule="nonzero"/></clipPath><clipPath id="690526b715"><path d="M 136.640625 692.761719 L 143.679688 658.734375 L 177.707031 665.773438 L 170.667969 699.800781 Z M 136.640625 692.761719 " clip-rule="nonzero"/></clipPath><clipPath id="9127c7499f"><path d="M 140.160156 675.746094 C 138.214844 685.144531 144.257812 694.335938 153.652344 696.28125 C 163.050781 698.226562 172.242188 692.183594 174.1875 682.789062 C 176.132812 673.390625 170.089844 664.199219 160.695312 662.253906 C 151.296875 660.308594 142.105469 666.351562 140.160156 675.746094 Z M 140.160156 675.746094 " clip-rule="nonzero"/></clipPath><clipPath id="80bd6148cd"><path d="M 256 566 L 292 566 L 292 602 L 256 602 Z M 256 566 " clip-rule="nonzero"/></clipPath><clipPath id="d5b318416d"><path d="M 253.5 597.492188 L 260.542969 563.460938 L 294.574219 570.503906 L 287.535156 604.535156 Z M 253.5 597.492188 " clip-rule="nonzero"/></clipPath><clipPath id="73987c5776"><path d="M 257.023438 580.476562 C 255.078125 589.875 261.121094 599.066406 270.519531 601.011719 C 279.914062 602.957031 289.109375 596.914062 291.054688 587.519531 C 293 578.121094 286.957031 568.925781 277.558594 566.980469 C 268.164062 565.035156 258.96875 571.078125 257.023438 580.476562 Z M 257.023438 580.476562 " clip-rule="nonzero"/></clipPath><clipPath id="6fd01b52c8"><path d="M 256 566 L 292 566 L 292 602 L 256 602 Z M 256 566 " clip-rule="nonzero"/></clipPath><clipPath id="db038c4bde"><path d="M 253.5 597.492188 L 260.492188 563.707031 L 294.277344 570.699219 L 287.285156 604.484375 Z M 253.5 597.492188 " clip-rule="nonzero"/></clipPath><clipPath id="3f4c7c7822"><path d="M 253.5 597.492188 L 260.542969 563.464844 L 294.570312 570.507812 L 287.527344 604.535156 Z M 253.5 597.492188 " clip-rule="nonzero"/></clipPath><clipPath id="fb3da765ec"><path d="M 257.023438 580.476562 C 255.078125 589.875 261.117188 599.066406 270.515625 601.011719 C 279.910156 602.957031 289.105469 596.914062 291.050781 587.519531 C 292.992188 578.125 286.953125 568.929688 277.554688 566.984375 C 268.160156 565.039062 258.964844 571.082031 257.023438 580.476562 Z M 257.023438 580.476562 " clip-rule="nonzero"/></clipPath><clipPath id="16814cf9bb"><path d="M 318 80 L 354 80 L 354 115 L 318 115 Z M 318 80 " clip-rule="nonzero"/></clipPath><clipPath id="f927587201"><path d="M 315.140625 111.070312 L 322.183594 77.039062 L 356.214844 84.082031 L 349.175781 118.113281 Z M 315.140625 111.070312 " clip-rule="nonzero"/></clipPath><clipPath id="cb5c143363"><path d="M 318.664062 94.054688 C 316.71875 103.453125 322.761719 112.648438 332.15625 114.59375 C 341.554688 116.539062 350.75 110.496094 352.695312 101.097656 C 354.640625 91.699219 348.597656 82.503906 339.199219 80.558594 C 329.800781 78.617188 320.609375 84.65625 318.664062 94.054688 Z M 318.664062 94.054688 " clip-rule="nonzero"/></clipPath><clipPath id="beee2b12ec"><path d="M 318 80 L 354 80 L 354 115 L 318 115 Z M 318 80 " clip-rule="nonzero"/></clipPath><clipPath id="1b1c15036a"><path d="M 315.140625 111.070312 L 322.132812 77.285156 L 355.917969 84.277344 L 348.925781 118.0625 Z M 315.140625 111.070312 " clip-rule="nonzero"/></clipPath><clipPath id="17fcfc8f5e"><path d="M 315.140625 111.070312 L 322.183594 77.042969 L 356.210938 84.085938 L 349.167969 118.113281 Z M 315.140625 111.070312 " clip-rule="nonzero"/></clipPath><clipPath id="1842ef46c1"><path d="M 318.664062 94.058594 C 316.71875 103.453125 322.757812 112.648438 332.15625 114.59375 C 341.550781 116.535156 350.746094 110.496094 352.691406 101.097656 C 354.632812 91.703125 348.59375 82.507812 339.195312 80.566406 C 329.800781 78.621094 320.605469 84.660156 318.664062 94.058594 Z M 318.664062 94.058594 " clip-rule="nonzero"/></clipPath><clipPath id="13f6c19fe2"><path d="M 519 121 L 554 121 L 554 157 L 519 157 Z M 519 121 " clip-rule="nonzero"/></clipPath><clipPath id="e678c8cd93"><path d="M 512.761719 146.117188 L 529.644531 115.742188 L 560.019531 132.625 L 543.136719 163 Z M 512.761719 146.117188 " clip-rule="nonzero"/></clipPath><clipPath id="c532fe54c3"><path d="M 521.203125 130.929688 C 516.539062 139.316406 519.5625 149.894531 527.949219 154.558594 C 536.335938 159.222656 546.917969 156.199219 551.578125 147.8125 C 556.242188 139.425781 553.222656 128.84375 544.832031 124.183594 C 536.445312 119.519531 525.863281 122.539062 521.203125 130.929688 Z M 521.203125 130.929688 " clip-rule="nonzero"/></clipPath><clipPath id="25a2ba6f51"><path d="M 519 121 L 554 121 L 554 157 L 519 157 Z M 519 121 " clip-rule="nonzero"/></clipPath><clipPath id="8d11055d9f"><path d="M 512.761719 146.117188 L 529.523438 115.960938 L 559.679688 132.722656 L 542.917969 162.878906 Z M 512.761719 146.117188 " clip-rule="nonzero"/></clipPath><clipPath id="0ff9186fc8"><path d="M 512.761719 146.117188 L 529.640625 115.746094 L 560.015625 132.625 L 543.132812 163 Z M 512.761719 146.117188 " clip-rule="nonzero"/></clipPath><clipPath id="0f5600a530"><path d="M 521.203125 130.929688 C 516.539062 139.316406 519.558594 149.894531 527.945312 154.558594 C 536.332031 159.21875 546.910156 156.199219 551.574219 147.8125 C 556.234375 139.425781 553.214844 128.847656 544.828125 124.1875 C 536.441406 119.523438 525.863281 122.542969 521.203125 130.929688 Z M 521.203125 130.929688 " clip-rule="nonzero"/></clipPath><clipPath id="a49fb8ed07"><path d="M 574 214 L 609 214 L 609 249 L 574 249 Z M 574 214 " clip-rule="nonzero"/></clipPath><clipPath id="0166b4a239"><path d="M 571.027344 245.101562 L 578.070312 211.070312 L 612.105469 218.113281 L 605.0625 252.144531 Z M 571.027344 245.101562 " clip-rule="nonzero"/></clipPath><clipPath id="b01d4f64c8"><path d="M 574.550781 228.085938 C 572.605469 237.484375 578.648438 246.679688 588.046875 248.625 C 597.441406 250.566406 606.636719 244.527344 608.582031 235.128906 C 610.527344 225.730469 604.484375 216.535156 595.085938 214.589844 C 585.691406 212.648438 576.496094 218.6875 574.550781 228.085938 Z M 574.550781 228.085938 " clip-rule="nonzero"/></clipPath><clipPath id="fa9bbf8e46"><path d="M 574 214 L 609 214 L 609 249 L 574 249 Z M 574 214 " clip-rule="nonzero"/></clipPath><clipPath id="1b937cd193"><path d="M 571.027344 245.101562 L 578.019531 211.316406 L 611.804688 218.308594 L 604.816406 252.09375 Z M 571.027344 245.101562 " clip-rule="nonzero"/></clipPath><clipPath id="c94432e4b2"><path d="M 571.027344 245.101562 L 578.070312 211.074219 L 612.097656 218.117188 L 605.054688 252.144531 Z M 571.027344 245.101562 " clip-rule="nonzero"/></clipPath><clipPath id="10647affad"><path d="M 574.550781 228.089844 C 572.605469 237.484375 578.648438 246.679688 588.042969 248.621094 C 597.4375 250.566406 606.632812 244.527344 608.578125 235.128906 C 610.523438 225.734375 604.480469 216.539062 595.085938 214.59375 C 585.6875 212.652344 576.496094 218.691406 574.550781 228.089844 Z M 574.550781 228.089844 " clip-rule="nonzero"/></clipPath><clipPath id="67c011236c"><path d="M 632 289 L 667 289 L 667 325 L 632 325 Z M 632 289 " clip-rule="nonzero"/></clipPath><clipPath id="be8a3ba6bd"><path d="M 628.921875 320.378906 L 635.964844 286.347656 L 669.996094 293.386719 L 662.957031 327.421875 Z M 628.921875 320.378906 " clip-rule="nonzero"/></clipPath><clipPath id="1fbaa3f512"><path d="M 632.445312 303.363281 C 630.5 312.757812 636.542969 321.953125 645.9375 323.898438 C 655.335938 325.84375 664.53125 319.800781 666.476562 310.402344 C 668.421875 301.007812 662.378906 291.8125 652.980469 289.867188 C 643.585938 287.921875 634.390625 293.964844 632.445312 303.363281 Z M 632.445312 303.363281 " clip-rule="nonzero"/></clipPath><clipPath id="3015adf618"><path d="M 632 289 L 667 289 L 667 325 L 632 325 Z M 632 289 " clip-rule="nonzero"/></clipPath><clipPath id="9df530a253"><path d="M 628.921875 320.378906 L 635.914062 286.59375 L 669.699219 293.582031 L 662.707031 327.367188 Z M 628.921875 320.378906 " clip-rule="nonzero"/></clipPath><clipPath id="78c7c3952d"><path d="M 628.921875 320.378906 L 635.964844 286.351562 L 669.992188 293.390625 L 662.949219 327.417969 Z M 628.921875 320.378906 " clip-rule="nonzero"/></clipPath><clipPath id="988545075d"><path d="M 632.445312 303.363281 C 630.5 312.761719 636.539062 321.953125 645.9375 323.898438 C 655.332031 325.84375 664.527344 319.800781 666.472656 310.40625 C 668.414062 301.007812 662.375 291.816406 652.976562 289.871094 C 643.582031 287.925781 634.386719 293.96875 632.445312 303.363281 Z M 632.445312 303.363281 " clip-rule="nonzero"/></clipPath><clipPath id="6662ca6218"><path d="M 580.679688 383.0625 L 615.433594 383.0625 L 615.433594 417.816406 L 580.679688 417.816406 Z M 580.679688 383.0625 " clip-rule="nonzero"/></clipPath><clipPath id="42396071b0"><path d="M 580.679688 400.441406 C 580.679688 410.035156 588.460938 417.816406 598.054688 417.816406 C 607.652344 417.816406 615.433594 410.035156 615.433594 400.441406 C 615.433594 390.84375 607.652344 383.0625 598.054688 383.0625 C 588.460938 383.0625 580.679688 390.84375 580.679688 400.441406 Z M 580.679688 400.441406 " clip-rule="nonzero"/></clipPath><clipPath id="132a6ca733"><path d="M 580.679688 383.316406 L 615.179688 383.316406 L 615.179688 417.816406 L 580.679688 417.816406 Z M 580.679688 383.316406 " clip-rule="nonzero"/></clipPath><clipPath id="e40a1cd721"><path d="M 580.679688 400.441406 C 580.679688 410.039062 588.457031 417.816406 598.054688 417.816406 C 607.648438 417.816406 615.429688 410.039062 615.429688 400.441406 C 615.429688 390.847656 607.648438 383.066406 598.054688 383.066406 C 588.457031 383.066406 580.679688 390.847656 580.679688 400.441406 Z M 580.679688 400.441406 " clip-rule="nonzero"/></clipPath><clipPath id="5786607b00"><path d="M 512 476 L 548 476 L 548 512 L 512 512 Z M 512 476 " clip-rule="nonzero"/></clipPath><clipPath id="c1f0f8bc6b"><path d="M 509.433594 507.488281 L 516.472656 473.457031 L 550.507812 480.5 L 543.464844 514.53125 Z M 509.433594 507.488281 " clip-rule="nonzero"/></clipPath><clipPath id="61dc6c2912"><path d="M 512.953125 490.472656 C 511.007812 499.871094 517.050781 509.066406 526.449219 511.007812 C 535.84375 512.953125 545.039062 506.910156 546.984375 497.515625 C 548.929688 488.117188 542.886719 478.921875 533.492188 476.976562 C 524.09375 475.03125 514.898438 481.074219 512.953125 490.472656 Z M 512.953125 490.472656 " clip-rule="nonzero"/></clipPath><clipPath id="40668cd2d6"><path d="M 512 476 L 548 476 L 548 512 L 512 512 Z M 512 476 " clip-rule="nonzero"/></clipPath><clipPath id="63e1beffaf"><path d="M 509.433594 507.488281 L 516.421875 473.703125 L 550.207031 480.695312 L 543.21875 514.480469 Z M 509.433594 507.488281 " clip-rule="nonzero"/></clipPath><clipPath id="22b324df37"><path d="M 509.433594 507.488281 L 516.472656 473.460938 L 550.5 480.503906 L 543.460938 514.53125 Z M 509.433594 507.488281 " clip-rule="nonzero"/></clipPath><clipPath id="6af83e5e6c"><path d="M 512.953125 490.472656 C 511.007812 499.871094 517.050781 509.0625 526.445312 511.007812 C 535.84375 512.953125 545.035156 506.914062 546.980469 497.515625 C 548.925781 488.121094 542.882812 478.925781 533.488281 476.980469 C 524.089844 475.035156 514.898438 481.078125 512.953125 490.472656 Z M 512.953125 490.472656 " clip-rule="nonzero"/></clipPath><clipPath id="d0202accae"><path d="M 576 532 L 612 532 L 612 568 L 576 568 Z M 576 532 " clip-rule="nonzero"/></clipPath><clipPath id="3eee2264e4"><path d="M 573.09375 563.449219 L 580.136719 529.414062 L 614.167969 536.457031 L 607.128906 570.488281 Z M 573.09375 563.449219 " clip-rule="nonzero"/></clipPath><clipPath id="32d9d47bd0"><path d="M 576.617188 546.429688 C 574.671875 555.828125 580.714844 565.023438 590.109375 566.96875 C 599.507812 568.914062 608.703125 562.871094 610.648438 553.472656 C 612.59375 544.074219 606.550781 534.882812 597.152344 532.9375 C 587.753906 530.992188 578.5625 537.035156 576.617188 546.429688 Z M 576.617188 546.429688 " clip-rule="nonzero"/></clipPath><clipPath id="48a3c6b4cf"><path d="M 576 532 L 612 532 L 612 568 L 576 568 Z M 576 532 " clip-rule="nonzero"/></clipPath><clipPath id="dca90425ed"><path d="M 573.09375 563.449219 L 580.085938 529.660156 L 613.871094 536.652344 L 606.878906 570.4375 Z M 573.09375 563.449219 " clip-rule="nonzero"/></clipPath><clipPath id="63d80973db"><path d="M 573.09375 563.449219 L 580.136719 529.421875 L 614.164062 536.460938 L 607.121094 570.488281 Z M 573.09375 563.449219 " clip-rule="nonzero"/></clipPath><clipPath id="e73fe73816"><path d="M 576.617188 546.433594 C 574.671875 555.828125 580.710938 565.023438 590.109375 566.96875 C 599.503906 568.914062 608.699219 562.871094 610.644531 553.476562 C 612.585938 544.078125 606.546875 534.886719 597.148438 532.941406 C 587.753906 530.996094 578.558594 537.039062 576.617188 546.433594 Z M 576.617188 546.433594 " clip-rule="nonzero"/></clipPath><clipPath id="ecdcb441c1"><path d="M 410 653 L 446 653 L 446 689 L 410 689 Z M 410 653 " clip-rule="nonzero"/></clipPath><clipPath id="365c1ba391"><path d="M 407.804688 684.199219 L 414.847656 650.167969 L 448.878906 657.207031 L 441.835938 691.242188 Z M 407.804688 684.199219 " clip-rule="nonzero"/></clipPath><clipPath id="45129d0218"><path d="M 411.328125 667.183594 C 409.382812 676.578125 415.421875 685.773438 424.820312 687.71875 C 434.21875 689.664062 443.414062 683.621094 445.359375 674.222656 C 447.304688 664.828125 441.261719 655.632812 431.863281 653.6875 C 422.464844 651.742188 413.269531 657.785156 411.328125 667.183594 Z M 411.328125 667.183594 " clip-rule="nonzero"/></clipPath><clipPath id="c3469d02c0"><path d="M 410 653 L 446 653 L 446 689 L 410 689 Z M 410 653 " clip-rule="nonzero"/></clipPath><clipPath id="72c3fdff50"><path d="M 407.804688 684.199219 L 414.796875 650.414062 L 448.582031 657.402344 L 441.589844 691.191406 Z M 407.804688 684.199219 " clip-rule="nonzero"/></clipPath><clipPath id="50b3e5af19"><path d="M 407.804688 684.199219 L 414.847656 650.171875 L 448.875 657.210938 L 441.832031 691.238281 Z M 407.804688 684.199219 " clip-rule="nonzero"/></clipPath><clipPath id="ad5aeaba5f"><path d="M 411.324219 667.183594 C 409.382812 676.582031 415.421875 685.773438 424.820312 687.71875 C 434.214844 689.664062 443.410156 683.621094 445.351562 674.226562 C 447.296875 664.828125 441.257812 655.636719 431.859375 653.691406 C 422.464844 651.746094 413.269531 657.789062 411.324219 667.183594 Z M 411.324219 667.183594 " clip-rule="nonzero"/></clipPath><clipPath id="b925ddf5e9"><path d="M 507 616 L 543 616 L 543 652 L 507 652 Z M 507 616 " clip-rule="nonzero"/></clipPath><clipPath id="c11e2c6afa"><path d="M 504.621094 647.417969 L 511.664062 613.386719 L 545.695312 620.429688 L 538.652344 654.460938 Z M 504.621094 647.417969 " clip-rule="nonzero"/></clipPath><clipPath id="37f70a9124"><path d="M 508.140625 630.402344 C 506.195312 639.800781 512.238281 648.996094 521.636719 650.941406 C 531.035156 652.886719 540.230469 646.84375 542.171875 637.445312 C 544.117188 628.046875 538.078125 618.851562 528.679688 616.910156 C 519.28125 614.964844 510.085938 621.003906 508.140625 630.402344 Z M 508.140625 630.402344 " clip-rule="nonzero"/></clipPath><clipPath id="0d283756a5"><path d="M 507 616 L 543 616 L 543 652 L 507 652 Z M 507 616 " clip-rule="nonzero"/></clipPath><clipPath id="953acdb27e"><path d="M 504.621094 647.417969 L 511.613281 613.632812 L 545.398438 620.625 L 538.40625 654.410156 Z M 504.621094 647.417969 " clip-rule="nonzero"/></clipPath><clipPath id="eb0129763d"><path d="M 504.621094 647.417969 L 511.660156 613.390625 L 545.6875 620.433594 L 538.648438 654.460938 Z M 504.621094 647.417969 " clip-rule="nonzero"/></clipPath><clipPath id="5d80291844"><path d="M 508.140625 630.40625 C 506.195312 639.800781 512.238281 648.996094 521.632812 650.941406 C 531.03125 652.882812 540.222656 646.84375 542.167969 637.445312 C 544.113281 628.050781 538.070312 618.855469 528.675781 616.914062 C 519.277344 614.96875 510.085938 621.007812 508.140625 630.40625 Z M 508.140625 630.40625 " clip-rule="nonzero"/></clipPath><clipPath id="bb97b5a810"><path d="M 199 113 L 235 113 L 235 149 L 199 149 Z M 199 113 " clip-rule="nonzero"/></clipPath><clipPath id="bd29202be1"><path d="M 196.574219 144.835938 L 203.617188 110.804688 L 237.648438 117.847656 L 230.605469 151.878906 Z M 196.574219 144.835938 " clip-rule="nonzero"/></clipPath><clipPath id="17acfe8472"><path d="M 200.097656 127.820312 C 198.152344 137.21875 204.195312 146.414062 213.589844 148.359375 C 222.988281 150.304688 232.183594 144.261719 234.128906 134.863281 C 236.074219 125.464844 230.03125 116.269531 220.632812 114.328125 C 211.234375 112.382812 202.042969 118.421875 200.097656 127.820312 Z M 200.097656 127.820312 " clip-rule="nonzero"/></clipPath><clipPath id="04fe704c41"><path d="M 199 113 L 235 113 L 235 149 L 199 149 Z M 199 113 " clip-rule="nonzero"/></clipPath><clipPath id="fa0103f010"><path d="M 196.574219 144.835938 L 203.566406 111.050781 L 237.351562 118.042969 L 230.359375 151.828125 Z M 196.574219 144.835938 " clip-rule="nonzero"/></clipPath><clipPath id="defa2d7ddd"><path d="M 196.574219 144.835938 L 203.617188 110.808594 L 237.644531 117.851562 L 230.601562 151.878906 Z M 196.574219 144.835938 " clip-rule="nonzero"/></clipPath><clipPath id="4ddc25e6f7"><path d="M 200.097656 127.824219 C 198.152344 137.21875 204.191406 146.414062 213.589844 148.359375 C 222.984375 150.300781 232.179688 144.261719 234.125 134.863281 C 236.066406 125.46875 230.027344 116.273438 220.628906 114.332031 C 211.234375 112.386719 202.039062 118.425781 200.097656 127.824219 Z M 200.097656 127.824219 " clip-rule="nonzero"/></clipPath><clipPath id="d96f0c15c9"><path d="M 248.148438 13.054688 L 520.988281 13.054688 L 520.988281 754.949219 L 248.148438 754.949219 Z M 248.148438 13.054688 " clip-rule="nonzero"/></clipPath><clipPath id="878f9e2664"><path d="M 268.414062 13.054688 L 520.988281 13.054688 L 520.988281 754.949219 L 268.414062 754.949219 Z M 268.414062 13.054688 " clip-rule="nonzero"/></clipPath></defs><g clip-path="url(#8a9f195daf)"><g clip-path="url(#9cdb895d75)"><g clip-path="url(#f2c933d907)"><path fill="#ff6232" d="M 98.003906 225.28125 L 105.046875 191.246094 L 139.078125 198.289062 L 132.035156 232.320312 Z M 98.003906 225.28125 " fill-opacity="1" fill-rule="nonzero"/></g></g></g><g clip-path="url(#deda135453)"><g clip-path="url(#093e1e5c53)"><g clip-path="url(#eb387dcf05)"><g clip-path="url(#3a7c68d46c)"><path stroke-linecap="butt" transform="matrix(0.145652, -0.703862, 0.703862, 0.145652, 98.003012, 225.279429)" fill="none" stroke-linejoin="miter" d="M 24.171992 -0.000402238 C 10.819189 -0.00103396 0.000537112 10.82315 -0.00119588 24.170631 C -0.00182761 37.523433 10.822357 48.342085 24.169837 48.343818 C 37.522639 48.34445 48.341291 37.520266 48.343024 24.172785 C 48.343656 10.819983 37.519472 0.00133076 24.171992 -0.000402238 Z M 24.171992 -0.000402238 " stroke="#fffffa" stroke-width="8.347546" stroke-opacity="1" stroke-miterlimit="4"/></g></g></g></g><g clip-path="url(#1998357f2f)"><g clip-path="url(#236ed0a8bd)"><g clip-path="url(#596bd02026)"><path fill="#ff6232" d="M 194.324219 286.339844 L 201.367188 252.304688 L 235.398438 259.347656 L 228.355469 293.378906 Z M 194.324219 286.339844 " fill-opacity="1" fill-rule="nonzero"/></g></g></g><g clip-path="url(#b8c6924c27)"><g clip-path="url(#d81869c3ed)"><g clip-path="url(#9205807d15)"><g clip-path="url(#4f26b5a187)"><path stroke-linecap="butt" transform="matrix(0.145652, -0.703862, 0.703862, 0.145652, 194.322898, 286.338083)" fill="none" stroke-linejoin="miter" d="M 24.172193 0.000161308 C 10.819391 -0.000470418 0.000739014 10.823714 -0.00099398 24.171194 C -0.00162571 37.523996 10.822559 48.342649 24.170039 48.344382 C 37.522841 48.345013 48.341493 37.520829 48.343226 24.173349 C 48.343858 10.820546 37.519674 0.0018943 24.172193 0.000161308 Z M 24.172193 0.000161308 " stroke="#fffffa" stroke-width="8.347546" stroke-opacity="1" stroke-miterlimit="4"/></g></g></g></g><g clip-path="url(#d20dbc9c2b)"><g clip-path="url(#a09178bf52)"><g clip-path="url(#2db1236aba)"><path fill="#ff6232" d="M 129.90625 339.5625 L 136.945312 305.53125 L 170.980469 312.574219 L 163.9375 346.605469 Z M 129.90625 339.5625 " fill-opacity="1" fill-rule="nonzero"/></g></g></g><g clip-path="url(#9a811b7541)"><g clip-path="url(#4399a13ea7)"><g clip-path="url(#4970c25522)"><g clip-path="url(#fed9236235)"><path stroke-linecap="butt" transform="matrix(0.145652, -0.703862, 0.703862, 0.145652, 129.904873, 339.56221)" fill="none" stroke-linejoin="miter" d="M 24.174214 -0.000177169 C 10.821412 -0.000808895 0.0027596 10.823375 0.00102661 24.170856 C 0.000394884 37.523658 10.824579 48.34231 24.17206 48.344043 C 37.51954 48.345776 48.343514 37.520491 48.345247 24.17301 C 48.345879 10.820208 37.521694 0.00155582 24.174214 -0.000177169 Z M 24.174214 -0.000177169 " stroke="#fffffa" stroke-width="8.347546" stroke-opacity="1" stroke-miterlimit="4"/></g></g></g></g><g clip-path="url(#9a65113956)"><g clip-path="url(#fe4ef0b516)"><g clip-path="url(#d12b7749a9)"><path fill="#ff6232" d="M 151.828125 525.796875 L 158.871094 491.765625 L 192.902344 498.808594 L 185.859375 532.839844 Z M 151.828125 525.796875 " fill-opacity="1" fill-rule="nonzero"/></g></g></g><g clip-path="url(#e3574b17fd)"><g clip-path="url(#ea7c1ca256)"><g clip-path="url(#da9fa5d2b3)"><g clip-path="url(#45f0a1223b)"><path stroke-linecap="butt" transform="matrix(0.145652, -0.703862, 0.703862, 0.145652, 151.828311, 525.797034)" fill="none" stroke-linejoin="miter" d="M 24.169063 -0.00133086 C 10.822684 0.002258 -0.00239155 10.822222 0.00229857 24.173923 C 0.000565578 37.521403 10.820529 48.346478 24.17223 48.341788 C 37.519711 48.343521 48.344786 37.523558 48.345418 24.170755 C 48.341829 10.824376 37.521865 -0.000699131 24.169063 -0.00133086 Z M 24.169063 -0.00133086 " stroke="#fffffa" stroke-width="8.347546" stroke-opacity="1" stroke-miterlimit="4"/></g></g></g></g><g clip-path="url(#64ed9c5d85)"><g clip-path="url(#ab34b76c4a)"><g clip-path="url(#9629d4309e)"><path fill="#ff6232" d="M 99.441406 598.484375 L 106.484375 564.449219 L 140.515625 571.492188 L 133.472656 605.523438 Z M 99.441406 598.484375 " fill-opacity="1" fill-rule="nonzero"/></g></g></g><g clip-path="url(#aa76c80a91)"><g clip-path="url(#497af54593)"><g clip-path="url(#46bbf8e3b1)"><g clip-path="url(#36ae3c7abd)"><path stroke-linecap="butt" transform="matrix(0.145652, -0.703862, 0.703862, 0.145652, 99.440571, 598.48295)" fill="none" stroke-linejoin="miter" d="M 24.172515 -0.000594587 C 10.819713 -0.00122631 0.00106068 10.822958 -0.000672316 24.170438 C -0.00130404 37.523241 10.82288 48.341893 24.170361 48.343626 C 37.523163 48.344257 48.341815 37.520073 48.343548 24.172593 C 48.34418 10.819791 37.519995 0.00113841 24.172515 -0.000594587 Z M 24.172515 -0.000594587 " stroke="#fffffa" stroke-width="8.347546" stroke-opacity="1" stroke-miterlimit="4"/></g></g></g></g><g clip-path="url(#f13b05bef4)"><g clip-path="url(#f3b5547992)"><g clip-path="url(#3889d61009)"><path fill="#ff6232" d="M 136.640625 692.761719 L 143.679688 658.730469 L 177.714844 665.769531 L 170.671875 699.804688 Z M 136.640625 692.761719 " fill-opacity="1" fill-rule="nonzero"/></g></g></g><g clip-path="url(#987e7602f1)"><g clip-path="url(#3646666243)"><g clip-path="url(#690526b715)"><g clip-path="url(#9127c7499f)"><path stroke-linecap="butt" transform="matrix(0.145652, -0.703862, 0.703862, 0.145652, 136.639009, 692.760922)" fill="none" stroke-linejoin="miter" d="M 24.17359 0.000291953 C 10.820788 -0.000339774 0.00213576 10.823845 0.00040277 24.171325 C -0.000228956 37.524127 10.823955 48.342779 24.171436 48.344512 C 37.524238 48.345144 48.34289 37.52096 48.344623 24.173479 C 48.345255 10.820677 37.521071 0.00202495 24.17359 0.000291953 Z M 24.17359 0.000291953 " stroke="#fffffa" stroke-width="8.347546" stroke-opacity="1" stroke-miterlimit="4"/></g></g></g></g><g clip-path="url(#80bd6148cd)"><g clip-path="url(#d5b318416d)"><g clip-path="url(#73987c5776)"><path fill="#ff6232" d="M 253.5 597.492188 L 260.542969 563.460938 L 294.574219 570.503906 L 287.535156 604.535156 Z M 253.5 597.492188 " fill-opacity="1" fill-rule="nonzero"/></g></g></g><g clip-path="url(#6fd01b52c8)"><g clip-path="url(#db038c4bde)"><g clip-path="url(#3f4c7c7822)"><g clip-path="url(#fb3da765ec)"><path stroke-linecap="butt" transform="matrix(0.145652, -0.703862, 0.703862, 0.145652, 253.501572, 597.491822)" fill="none" stroke-linejoin="miter" d="M 24.174381 0.00114869 C 10.821579 0.00051696 0.00182549 10.819379 0.00119376 24.172182 C -0.000539232 37.519662 10.824746 48.343636 24.172227 48.345369 C 37.518606 48.34178 48.343681 37.521816 48.344313 24.169014 C 48.346046 10.821534 37.52076 -0.00244017 24.174381 0.00114869 Z M 24.174381 0.00114869 " stroke="#fffffa" stroke-width="8.347546" stroke-opacity="1" stroke-miterlimit="4"/></g></g></g></g><g clip-path="url(#16814cf9bb)"><g clip-path="url(#f927587201)"><g clip-path="url(#cb5c143363)"><path fill="#ff6232" d="M 315.140625 111.070312 L 322.183594 77.039062 L 356.214844 84.082031 L 349.175781 118.113281 Z M 315.140625 111.070312 " fill-opacity="1" fill-rule="nonzero"/></g></g></g><g clip-path="url(#beee2b12ec)"><g clip-path="url(#1b1c15036a)"><g clip-path="url(#17fcfc8f5e)"><g clip-path="url(#1842ef46c1)"><path stroke-linecap="butt" transform="matrix(0.145652, -0.703862, 0.703862, 0.145652, 315.141784, 111.071323)" fill="none" stroke-linejoin="miter" d="M 24.17105 0.00242453 C 10.82357 0.000691534 -0.0015055 10.820655 -0.00213722 24.173457 C 0.00145163 37.519837 10.821415 48.344912 24.174218 48.345544 C 37.520597 48.341955 48.345672 37.521991 48.340982 24.17029 C 48.342715 10.82281 37.522751 -0.0022656 24.17105 0.00242453 Z M 24.17105 0.00242453 " stroke="#fffffa" stroke-width="8.347546" stroke-opacity="1" stroke-miterlimit="4"/></g></g></g></g><g clip-path="url(#13f6c19fe2)"><g clip-path="url(#e678c8cd93)"><g clip-path="url(#c532fe54c3)"><path fill="#ff6232" d="M 512.761719 146.117188 L 529.644531 115.742188 L 560.019531 132.625 L 543.136719 163 Z M 512.761719 146.117188 " fill-opacity="1" fill-rule="nonzero"/></g></g></g><g clip-path="url(#25a2ba6f51)"><g clip-path="url(#8d11055d9f)"><g clip-path="url(#0ff9186fc8)"><g clip-path="url(#0f5600a530)"><path stroke-linecap="butt" transform="matrix(0.349202, -0.628247, 0.628247, 0.349202, 512.760674, 146.11658)" fill="none" stroke-linejoin="miter" d="M 24.174146 0.00125528 C 10.823107 -0.00169197 0.000700855 10.820071 -0.00224639 24.17111 C -0.000443512 37.519508 10.821319 48.341914 24.172358 48.344862 C 37.520757 48.343059 48.343163 37.521296 48.34136 24.172897 C 48.344307 10.821859 37.522544 -0.000547604 24.174146 0.00125528 Z M 24.174146 0.00125528 " stroke="#fffffa" stroke-width="8.347546" stroke-opacity="1" stroke-miterlimit="4"/></g></g></g></g><g clip-path="url(#a49fb8ed07)"><g clip-path="url(#0166b4a239)"><g clip-path="url(#b01d4f64c8)"><path fill="#ff6232" d="M 571.027344 245.101562 L 578.070312 211.070312 L 612.105469 218.113281 L 605.0625 252.144531 Z M 571.027344 245.101562 " fill-opacity="1" fill-rule="nonzero"/></g></g></g><g clip-path="url(#fa9bbf8e46)"><g clip-path="url(#1b937cd193)"><g clip-path="url(#c94432e4b2)"><g clip-path="url(#10647affad)"><path stroke-linecap="butt" transform="matrix(0.145652, -0.703862, 0.703862, 0.145652, 571.029287, 245.102132)" fill="none" stroke-linejoin="miter" d="M 24.170228 0.00148115 C 10.822747 -0.000251845 -0.0012266 10.825034 0.00236225 24.171413 C 0.000629261 37.518893 10.820593 48.343969 24.173395 48.3446 C 37.520876 48.346333 48.34485 37.521048 48.346583 24.173567 C 48.341892 10.821866 37.52303 0.00211288 24.170228 0.00148115 Z M 24.170228 0.00148115 " stroke="#fffffa" stroke-width="8.347546" stroke-opacity="1" stroke-miterlimit="4"/></g></g></g></g><g clip-path="url(#67c011236c)"><g clip-path="url(#be8a3ba6bd)"><g clip-path="url(#1fbaa3f512)"><path fill="#ff6232" d="M 628.921875 320.378906 L 635.964844 286.347656 L 669.996094 293.386719 L 662.957031 327.421875 Z M 628.921875 320.378906 " fill-opacity="1" fill-rule="nonzero"/></g></g></g><g clip-path="url(#3015adf618)"><g clip-path="url(#9df530a253)"><g clip-path="url(#78c7c3952d)"><g clip-path="url(#988545075d)"><path stroke-linecap="butt" transform="matrix(0.145652, -0.703862, 0.703862, 0.145652, 628.92338, 320.377797)" fill="none" stroke-linejoin="miter" d="M 24.173386 0.00145003 C 10.820584 0.000818299 0.000830481 10.819681 0.000198754 24.172483 C -0.00153424 37.519963 10.823751 48.343937 24.171232 48.34567 C 37.522933 48.34098 48.342686 37.522118 48.343318 24.169316 C 48.345051 10.821835 37.519765 -0.00213883 24.173386 0.00145003 Z M 24.173386 0.00145003 " stroke="#fffffa" stroke-width="8.347546" stroke-opacity="1" stroke-miterlimit="4"/></g></g></g></g><g clip-path="url(#6662ca6218)"><g clip-path="url(#42396071b0)"><path fill="#ff6232" d="M 580.679688 417.816406 L 580.679688 383.0625 L 615.433594 383.0625 L 615.433594 417.816406 Z M 580.679688 417.816406 " fill-opacity="1" fill-rule="nonzero"/></g></g><g clip-path="url(#132a6ca733)"><g clip-path="url(#e40a1cd721)"><path stroke-linecap="butt" transform="matrix(0, -0.718774, 0.718774, 0, 580.679854, 417.816071)" fill="none" stroke-linejoin="miter" d="M 24.172634 -0.000232018 C 10.819822 -0.000232018 -0.000465964 10.820056 -0.000465964 24.172868 C -0.000465964 37.520244 10.819822 48.345967 24.172634 48.345967 C 37.52001 48.345967 48.345733 37.520244 48.345733 24.172868 C 48.345733 10.820056 37.52001 -0.000232018 24.172634 -0.000232018 Z M 24.172634 -0.000232018 " stroke="#fffffa" stroke-width="8.347546" stroke-opacity="1" stroke-miterlimit="4"/></g></g><g clip-path="url(#5786607b00)"><g clip-path="url(#c1f0f8bc6b)"><g clip-path="url(#61dc6c2912)"><path fill="#ff6232" d="M 509.433594 507.488281 L 516.472656 473.457031 L 550.507812 480.5 L 543.464844 514.53125 Z M 509.433594 507.488281 " fill-opacity="1" fill-rule="nonzero"/></g></g></g><g clip-path="url(#40668cd2d6)"><g clip-path="url(#63e1beffaf)"><g clip-path="url(#22b324df37)"><g clip-path="url(#6af83e5e6c)"><path stroke-linecap="butt" transform="matrix(0.145652, -0.703862, 0.703862, 0.145652, 509.431922, 507.488083)" fill="none" stroke-linejoin="miter" d="M 24.174422 0.000199462 C 10.821619 -0.000432265 0.00296717 10.823752 0.00123418 24.171232 C 0.00060245 37.524035 10.819465 48.343788 24.172267 48.34442 C 37.519747 48.346153 48.343722 37.520867 48.345455 24.173387 C 48.346086 10.820585 37.521902 0.00193246 24.174422 0.000199462 Z M 24.174422 0.000199462 " stroke="#fffffa" stroke-width="8.347546" stroke-opacity="1" stroke-miterlimit="4"/></g></g></g></g><g clip-path="url(#d0202accae)"><g clip-path="url(#3eee2264e4)"><g clip-path="url(#32d9d47bd0)"><path fill="#ff6232" d="M 573.09375 563.449219 L 580.136719 529.414062 L 614.167969 536.457031 L 607.128906 570.488281 Z M 573.09375 563.449219 " fill-opacity="1" fill-rule="nonzero"/></g></g></g><g clip-path="url(#48a3c6b4cf)"><g clip-path="url(#dca90425ed)"><g clip-path="url(#63d80973db)"><g clip-path="url(#e73fe73816)"><path stroke-linecap="butt" transform="matrix(0.145652, -0.703862, 0.703862, 0.145652, 573.094895, 563.447272)" fill="none" stroke-linejoin="miter" d="M 24.172347 0.00217687 C 10.824867 0.00044388 -0.000208728 10.820408 -0.000840454 24.17321 C -0.00257345 37.52069 10.822712 48.344664 24.170192 48.346397 C 37.521893 48.341707 48.341647 37.522845 48.342279 24.170042 C 48.344012 10.822562 37.518726 -0.00141198 24.172347 0.00217687 Z M 24.172347 0.00217687 " stroke="#fffffa" stroke-width="8.347546" stroke-opacity="1" stroke-miterlimit="4"/></g></g></g></g><g clip-path="url(#ecdcb441c1)"><g clip-path="url(#365c1ba391)"><g clip-path="url(#45129d0218)"><path fill="#ff6232" d="M 407.804688 684.199219 L 414.847656 650.167969 L 448.878906 657.207031 L 441.835938 691.242188 Z M 407.804688 684.199219 " fill-opacity="1" fill-rule="nonzero"/></g></g></g><g clip-path="url(#c3469d02c0)"><g clip-path="url(#72c3fdff50)"><g clip-path="url(#50b3e5af19)"><g clip-path="url(#ad5aeaba5f)"><path stroke-linecap="butt" transform="matrix(0.145652, -0.703862, 0.703862, 0.145652, 407.805007, 684.198202)" fill="none" stroke-linejoin="miter" d="M 24.172745 -0.00228276 C 10.821044 0.00240736 0.00129101 10.82127 0.000659284 24.174072 C -0.00107371 37.521552 10.824212 48.345526 24.170591 48.341938 C 37.523393 48.342569 48.343147 37.523707 48.343778 24.170905 C 48.345511 10.823424 37.520226 -0.000549767 24.172745 -0.00228276 Z M 24.172745 -0.00228276 " stroke="#fffffa" stroke-width="8.347546" stroke-opacity="1" stroke-miterlimit="4"/></g></g></g></g><g clip-path="url(#b925ddf5e9)"><g clip-path="url(#c11e2c6afa)"><g clip-path="url(#37f70a9124)"><path fill="#ff6232" d="M 504.621094 647.417969 L 511.664062 613.386719 L 545.695312 620.429688 L 538.652344 654.460938 Z M 504.621094 647.417969 " fill-opacity="1" fill-rule="nonzero"/></g></g></g><g clip-path="url(#0d283756a5)"><g clip-path="url(#953acdb27e)"><g clip-path="url(#eb0129763d)"><g clip-path="url(#5d80291844)"><path stroke-linecap="butt" transform="matrix(0.145652, -0.703862, 0.703862, 0.145652, 504.620426, 647.419548)" fill="none" stroke-linejoin="miter" d="M 24.171238 -0.000568581 C 10.823758 -0.00230157 -0.00021604 10.822984 -0.00194903 24.170464 C 0.00274109 37.522165 10.821604 48.341919 24.169084 48.343652 C 37.521886 48.344283 48.34586 37.518998 48.342271 24.172619 C 48.342903 10.819817 37.524041 0.0000631457 24.171238 -0.000568581 Z M 24.171238 -0.000568581 " stroke="#fffffa" stroke-width="8.347546" stroke-opacity="1" stroke-miterlimit="4"/></g></g></g></g><path stroke-linecap="round" transform="matrix(0.50825, 0.50825, -0.50825, 0.50825, 227.460973, 140.863446)" fill="none" stroke-linejoin="miter" d="M 2.501493 2.501564 L 62.530538 2.497721 " stroke="#fffffa" stroke-width="5" stroke-opacity="1" stroke-miterlimit="4"/><g clip-path="url(#bb97b5a810)"><g clip-path="url(#bd29202be1)"><g clip-path="url(#17acfe8472)"><path fill="#ff6232" d="M 196.574219 144.835938 L 203.617188 110.804688 L 237.648438 117.847656 L 230.605469 151.878906 Z M 196.574219 144.835938 " fill-opacity="1" fill-rule="nonzero"/></g></g></g><g clip-path="url(#04fe704c41)"><g clip-path="url(#fa0103f010)"><g clip-path="url(#defa2d7ddd)"><g clip-path="url(#4ddc25e6f7)"><path stroke-linecap="butt" transform="matrix(0.145652, -0.703862, 0.703862, 0.145652, 196.575228, 144.837435)" fill="none" stroke-linejoin="miter" d="M 24.171756 0.00249091 C 10.824275 0.000757912 -0.000799964 10.820722 -0.00143169 24.173524 C 0.00215717 37.519903 10.822121 48.344978 24.174923 48.34561 C 37.521302 48.342021 48.346378 37.522057 48.341687 24.170356 C 48.34342 10.822876 37.523457 -0.00219922 24.171756 0.00249091 Z M 24.171756 0.00249091 " stroke="#fffffa" stroke-width="8.347546" stroke-opacity="1" stroke-miterlimit="4"/></g></g></g></g><path stroke-linecap="round" transform="matrix(0, -0.718774, 0.718774, 0, 256.102344, 214.857989)" fill="none" stroke-linejoin="miter" d="M 2.497987 2.498829 L 57.170064 2.498829 " stroke="#fffffa" stroke-width="5" stroke-opacity="1" stroke-miterlimit="4"/><path stroke-linecap="round" transform="matrix(-0.462857, -0.549909, 0.549909, -0.462857, 334.300299, 306.689976)" fill="none" stroke-linejoin="miter" d="M 2.500495 2.503327 L 167.977667 2.500492 " stroke="#fffffa" stroke-width="5" stroke-opacity="1" stroke-miterlimit="4"/><path stroke-linecap="butt" transform="matrix(0, -0.718774, 0.718774, 0, 333.87775, 290.435367)" fill="none" stroke-linejoin="miter" d="M 0.00246737 2.501524 L 244.135572 2.501524 " stroke="#fffffa" stroke-width="5" stroke-opacity="1" stroke-miterlimit="4"/><path stroke-linecap="butt" transform="matrix(0, -0.718774, 0.718774, 0, 333.876754, 491.764388)" fill="none" stroke-linejoin="miter" d="M -0.00172145 2.497475 L 402.169554 2.497475 " stroke="#fffffa" stroke-width="5" stroke-opacity="1" stroke-miterlimit="4"/><path stroke-linecap="butt" transform="matrix(-0.396437, 0.599561, -0.599561, -0.396437, 337.173589, 491.771372)" fill="none" stroke-linejoin="miter" d="M 0.000286427 2.497983 L 131.302485 2.500665 " stroke="#fffffa" stroke-width="5" stroke-opacity="1" stroke-miterlimit="4"/><path stroke-linecap="butt" transform="matrix(-0.260221, 0.670016, -0.670016, -0.260221, 289.510683, 407.199048)" fill="none" stroke-linejoin="miter" d="M -0.00224909 2.500435 L 157.846537 2.49839 " stroke="#fffffa" stroke-width="5" stroke-opacity="1" stroke-miterlimit="4"/><path stroke-linecap="butt" transform="matrix(0.718774, 0, 0, 0.718774, 189.745086, 510.509587)" fill="none" stroke-linejoin="miter" d="M 0.00140258 2.497448 L 81.254108 2.497448 " stroke="#fffffa" stroke-width="5" stroke-opacity="1" stroke-miterlimit="4"/><path stroke-linecap="butt" transform="matrix(0.718774, -0.000000000000000624, 0.000000000000000624, 0.718774, 137.357341, 583.195431)" fill="none" stroke-linejoin="miter" d="M -0.00260479 2.499751 L 125.591003 2.499751 " stroke="#fffffa" stroke-width="5" stroke-opacity="1" stroke-miterlimit="4"/><path stroke-linecap="butt" transform="matrix(0.0000000012545, -0.718774, 0.718774, 0.0000000012545, 224.389357, 584.986815)" fill="none" stroke-linejoin="miter" d="M -0.00203985 2.501679 L 101.124998 2.501679 " stroke="#fffffa" stroke-width="5" stroke-opacity="1" stroke-miterlimit="4"/><path stroke-linecap="butt" transform="matrix(-0.47115, 0.54282, -0.54282, -0.47115, 198.650458, 634.227997)" fill="none" stroke-linejoin="miter" d="M 0.00109405 2.499859 L 60.969482 2.502234 " stroke="#fffffa" stroke-width="5" stroke-opacity="1" stroke-miterlimit="4"/><path stroke-linecap="butt" transform="matrix(0, 0.718774, -0.718774, 0, 198.371288, 584.992791)" fill="none" stroke-linejoin="miter" d="M -0.000839701 2.500186 L 67.861011 2.500186 " stroke="#fffffa" stroke-width="5" stroke-opacity="1" stroke-miterlimit="4"/><path stroke-linecap="butt" transform="matrix(0.718296, 0.0262213, -0.0262213, 0.718296, 167.874911, 324.909964)" fill="none" stroke-linejoin="miter" d="M -0.000995386 2.501885 L 65.502229 2.498074 " stroke="#fffffa" stroke-width="5" stroke-opacity="1" stroke-miterlimit="4"/><path stroke-linecap="butt" transform="matrix(-0.61249, -0.376155, 0.376155, -0.61249, 282.680468, 372.184924)" fill="none" stroke-linejoin="miter" d="M 0.000706215 2.501781 L 112.27204 2.500168 " stroke="#fffffa" stroke-width="5" stroke-opacity="1" stroke-miterlimit="4"/><path stroke-linecap="butt" transform="matrix(-0.661282, 0.281677, -0.281677, -0.661282, 479.024883, 226.3318)" fill="none" stroke-linejoin="miter" d="M 0.00107982 2.498807 L 72.910994 2.501679 " stroke="#fffffa" stroke-width="5" stroke-opacity="1" stroke-miterlimit="4"/><path stroke-linecap="butt" transform="matrix(0.405539, -0.593443, 0.593443, 0.405539, 476.119203, 224.379047)" fill="none" stroke-linejoin="miter" d="M -0.00285979 2.499851 L 120.776451 2.499452 " stroke="#fffffa" stroke-width="5" stroke-opacity="1" stroke-miterlimit="4"/><path stroke-linecap="butt" transform="matrix(0.248204, -0.67456, 0.67456, 0.248204, 405.585559, 304.663834)" fill="none" stroke-linejoin="miter" d="M 0.00111424 3.497802 L 89.285654 3.502687 " stroke="#fffffa" stroke-width="7" stroke-opacity="1" stroke-miterlimit="4"/><path stroke-linecap="butt" transform="matrix(-0.691399, 0.196479, -0.196479, -0.691399, 408.628039, 307.955395)" fill="none" stroke-linejoin="miter" d="M -0.00152794 3.500062 L 104.525703 3.497676 " stroke="#fffffa" stroke-width="7" stroke-opacity="1" stroke-miterlimit="4"/><path stroke-linecap="butt" transform="matrix(0, 0.718774, -0.718774, 0, 216.65116, 290.232956)" fill="none" stroke-linejoin="miter" d="M 0.00197414 2.49827 L 53.141494 2.49827 " stroke="#fffffa" stroke-width="5" stroke-opacity="1" stroke-miterlimit="4"/><path stroke-linecap="butt" transform="matrix(0.718774, -0.000000000000000267, 0.000000000000000267, 0.718774, 135.919787, 209.991924)" fill="none" stroke-linejoin="miter" d="M -0.0025292 2.500283 L 169.703727 2.500283 " stroke="#fffffa" stroke-width="5" stroke-opacity="1" stroke-miterlimit="4"/><path stroke-linecap="butt" transform="matrix(0.718774, 0, 0, 0.718774, 407.947903, 492.200564)" fill="none" stroke-linejoin="miter" d="M 0.0018308 2.498045 L 145.583898 2.498045 " stroke="#fffffa" stroke-width="5" stroke-opacity="1" stroke-miterlimit="4"/><path stroke-linecap="butt" transform="matrix(-0.535906, -0.479, 0.479, -0.535906, 417.960414, 606.869222)" fill="none" stroke-linejoin="miter" d="M 0.0000635406 2.496597 L 85.752813 2.501387 " stroke="#fffffa" stroke-width="5" stroke-opacity="1" stroke-miterlimit="4"/><path stroke-linecap="butt" transform="matrix(-0.667506, -0.266594, 0.266594, -0.667506, 498.186722, 591.481623)" fill="none" stroke-linejoin="miter" d="M 0.00230831 2.499614 L 213.699213 2.49743 " stroke="#fffffa" stroke-width="5" stroke-opacity="1" stroke-miterlimit="4"/><path stroke-linecap="butt" transform="matrix(-0.673488, 0.251097, -0.251097, -0.673488, 577.974046, 557.711896)" fill="none" stroke-linejoin="miter" d="M -0.00216808 2.500427 L 57.610772 2.497012 " stroke="#fffffa" stroke-width="5" stroke-opacity="1" stroke-miterlimit="4"/><path stroke-linecap="butt" transform="matrix(0.153751, -0.702137, 0.702137, 0.153751, 527.115265, 616.565797)" fill="none" stroke-linejoin="miter" d="M 0.00144524 2.500375 L 67.902844 2.502476 " stroke="#fffffa" stroke-width="5" stroke-opacity="1" stroke-miterlimit="4"/><path stroke-linecap="butt" transform="matrix(0.716039, 0.0626487, -0.0626487, 0.716039, 497.79917, 588.024591)" fill="none" stroke-linejoin="miter" d="M -0.00245758 2.502615 L 52.701659 2.501128 " stroke="#fffffa" stroke-width="5" stroke-opacity="1" stroke-miterlimit="4"/><path stroke-linecap="butt" transform="matrix(0, -0.718774, 0.718774, 0, 486.557451, 346.608344)" fill="none" stroke-linejoin="miter" d="M -0.00143487 3.501472 L 42.187366 3.501472 " stroke="#fffffa" stroke-width="7" stroke-opacity="1" stroke-miterlimit="4"/><path stroke-linecap="butt" transform="matrix(-0.560869, 0.449513, -0.449513, -0.560869, 579.12811, 243.881888)" fill="none" stroke-linejoin="miter" d="M 0.00111463 2.499548 L 143.283242 2.501148 " stroke="#fffffa" stroke-width="5" stroke-opacity="1" stroke-miterlimit="4"/><path stroke-linecap="butt" transform="matrix(-0.718774, 0, 0, -0.718774, 580.672294, 402.241289)" fill="none" stroke-linejoin="miter" d="M 0.000583311 2.498666 L 169.77749 2.498666 " stroke="#fffffa" stroke-width="5" stroke-opacity="1" stroke-miterlimit="4"/><path stroke-linecap="butt" transform="matrix(0, 0.718774, -0.718774, 0, 552.299856, 346.611917)" fill="none" stroke-linejoin="miter" d="M 0.00189768 2.498628 L 74.901556 2.498628 " stroke="#fffffa" stroke-width="5" stroke-opacity="1" stroke-miterlimit="4"/><path stroke-linecap="butt" transform="matrix(-0.718774, 0, 0, -0.718774, 609.014613, 348.405824)" fill="none" stroke-linejoin="miter" d="M -0.00140814 2.499323 L 83.827298 2.499323 " stroke="#fffffa" stroke-width="5" stroke-opacity="1" stroke-miterlimit="4"/><path stroke-linecap="butt" transform="matrix(-0.100343, -0.711736, 0.711736, -0.100343, 424.134582, 653.746212)" fill="none" stroke-linejoin="miter" d="M -0.00104487 2.500051 L 68.76827 2.497447 " stroke="#fffffa" stroke-width="5" stroke-opacity="1" stroke-miterlimit="4"/><path stroke-linecap="butt" transform="matrix(0.515263, -0.501139, 0.501139, 0.515263, 606.626805, 346.038576)" fill="none" stroke-linejoin="miter" d="M -0.0020952 2.500664 L 56.516188 2.499334 " stroke="#fffffa" stroke-width="5" stroke-opacity="1" stroke-miterlimit="4"/><path stroke-linecap="butt" transform="matrix(0.0000000012545, 0.718774, -0.718774, 0.0000000012545, 499.93733, 305.536147)" fill="none" stroke-linejoin="miter" d="M -0.00137879 2.49968 L 18.737122 2.49968 " stroke="#fffffa" stroke-width="5" stroke-opacity="1" stroke-miterlimit="4"/><g clip-path="url(#d96f0c15c9)"><path fill="#fffffa" d="M 513.800781 13.054688 L 248.148438 410.726562 L 377.203125 410.507812 L 268.425781 754.949219 L 520.984375 315.808594 L 410.84375 315.808594 L 513.800781 13.054688 " fill-opacity="1" fill-rule="nonzero"/></g><g clip-path="url(#878f9e2664)"><path fill="#fbf8ef" d="M 513.800781 13.054688 L 341.550781 361.574219 L 437.035156 361.574219 L 268.425781 754.949219 L 520.984375 315.808594 L 410.84375 315.808594 L 513.800781 13.054688 " fill-opacity="1" fill-rule="nonzero"/></g></svg>