<svg xmlns="http://www.w3.org/2000/svg" xmlns:xlink="http://www.w3.org/1999/xlink" width="1024" zoomAndPan="magnify" viewBox="0 0 768 767.999994" height="1024" preserveAspectRatio="xMidYMid meet" version="1.0"><defs><clipPath id="75c6113484"><path d="M 58.648438 1 L 627 1 L 627 719 L 58.648438 719 Z M 58.648438 1 " clip-rule="nonzero"/></clipPath></defs><path fill="#e7fe75" d="M 624.949219 18.511719 L 624.949219 376.199219 C 624.949219 388.894531 617.300781 403.582031 607.816406 408.9375 L 77.867188 714.914062 C 68.378906 720.421875 60.730469 714.605469 60.730469 701.910156 L 60.730469 344.222656 C 60.730469 331.523438 68.378906 316.839844 77.867188 311.484375 L 607.816406 5.507812 C 617.148438 0 624.949219 5.8125 624.949219 18.511719 Z M 624.949219 18.511719 " fill-opacity="1" fill-rule="nonzero"/><g clip-path="url(#75c6113484)"><path fill="#333330" d="M 619.75 3.058594 C 616.078125 0.917969 611.488281 1.222656 606.746094 3.976562 L 76.796875 309.953125 C 67.003906 315.613281 58.894531 331.066406 58.894531 344.222656 L 58.894531 701.910156 C 58.894531 709.253906 61.34375 714.761719 65.625 717.359375 C 67.15625 718.277344 68.992188 718.738281 70.828125 718.738281 C 73.277344 718.738281 75.878906 717.972656 78.476562 716.441406 L 608.429688 410.46875 C 618.371094 404.652344 626.480469 389.355469 626.480469 376.199219 L 626.480469 18.511719 C 626.632812 11.167969 624.1875 5.507812 619.75 3.058594 Z M 606.898438 407.40625 L 76.949219 713.382812 C 73.429688 715.371094 70.0625 715.832031 67.460938 714.300781 C 64.25 712.464844 62.414062 707.875 62.414062 701.910156 L 62.414062 357.226562 L 623.113281 33.503906 L 623.113281 376.199219 C 623.113281 388.128906 615.773438 402.207031 606.898438 407.40625 Z M 606.898438 407.40625 " fill-opacity="1" fill-rule="nonzero"/></g><path fill="#e7fe75" d="M 75.113281 332.289062 C 75.113281 334.433594 75.722656 335.960938 76.949219 336.726562 C 78.171875 337.339844 79.855469 337.1875 81.691406 336.113281 C 86.128906 333.515625 89.953125 326.933594 89.953125 321.886719 C 89.953125 319.746094 89.339844 318.214844 88.117188 317.449219 C 87.65625 317.144531 87.199219 317.144531 86.585938 317.144531 C 85.667969 317.144531 84.445312 317.449219 83.375 318.214844 C 78.9375 320.511719 75.113281 327.089844 75.113281 332.289062 Z M 75.113281 332.289062 " fill-opacity="1" fill-rule="nonzero"/><path fill="#ff6232" d="M 100.050781 317.757812 C 100.050781 319.898438 100.660156 321.429688 101.886719 322.191406 C 103.109375 322.804688 104.792969 322.652344 106.628906 321.582031 C 111.0625 318.980469 114.890625 312.402344 114.890625 307.351562 C 114.890625 305.210938 114.277344 303.679688 113.054688 302.917969 C 112.59375 302.609375 112.136719 302.609375 111.523438 302.609375 C 110.605469 302.609375 109.382812 302.917969 108.308594 303.679688 C 103.875 306.128906 100.050781 312.707031 100.050781 317.757812 Z M 100.050781 317.757812 " fill-opacity="1" fill-rule="nonzero"/><path fill="#fbf8ef" d="M 125.597656 303.070312 C 125.597656 305.210938 126.210938 306.742188 127.433594 307.507812 C 128.65625 308.117188 130.339844 307.964844 132.175781 306.894531 C 136.613281 304.292969 140.4375 297.714844 140.4375 292.667969 C 140.4375 290.523438 139.824219 288.996094 138.601562 288.230469 C 138.144531 287.921875 137.683594 287.921875 137.070312 287.921875 C 136.152344 287.921875 134.929688 288.230469 133.859375 288.996094 C 129.421875 291.289062 125.597656 297.867188 125.597656 303.070312 Z M 125.597656 303.070312 " fill-opacity="1" fill-rule="nonzero"/><path fill="#ff6232" d="M 666.105469 41.765625 L 666.105469 399.453125 C 666.105469 412.148438 658.457031 426.835938 648.96875 432.191406 L 119.019531 738.167969 C 109.535156 743.675781 101.886719 737.863281 101.886719 725.164062 L 101.886719 367.476562 C 101.886719 354.78125 109.535156 340.09375 119.019531 334.738281 L 648.96875 28.761719 C 658.457031 23.253906 666.105469 29.066406 666.105469 41.765625 Z M 666.105469 41.765625 " fill-opacity="1" fill-rule="nonzero"/><path fill="#333330" d="M 661.054688 26.3125 C 657.382812 24.171875 652.796875 24.476562 648.050781 27.230469 L 118.101562 333.207031 C 108.15625 339.023438 100.050781 354.320312 100.050781 367.476562 L 100.050781 725.164062 C 100.050781 732.507812 102.496094 738.015625 106.78125 740.613281 C 108.308594 741.53125 110.144531 741.992188 111.980469 741.992188 C 114.429688 741.992188 117.03125 741.226562 119.632812 739.695312 L 649.582031 433.722656 C 659.527344 427.90625 667.632812 412.609375 667.632812 399.453125 L 667.632812 41.765625 C 667.941406 34.421875 665.339844 28.914062 661.054688 26.3125 Z M 664.421875 56.757812 L 664.421875 60.734375 L 462.324219 262.832031 L 378.640625 346.519531 L 127.894531 597.265625 L 103.566406 621.589844 L 103.566406 611.953125 L 316.066406 399.453125 L 389.347656 326.015625 L 441.519531 273.847656 L 514.648438 200.71875 L 566.96875 148.550781 L 640.097656 75.421875 L 650.960938 64.40625 Z M 618.832031 221.222656 L 587.46875 252.582031 L 493.535156 346.519531 L 462.171875 377.878906 L 368.238281 471.816406 L 336.875 503.175781 L 242.941406 597.113281 L 105.863281 734.191406 C 104.640625 732.199219 104.027344 729.601562 103.875 726.539062 L 665.035156 165.378906 L 665.035156 175.019531 Z M 608.429688 221.222656 L 587.46875 242.179688 L 232.382812 597.265625 L 211.425781 618.226562 L 106.933594 722.714844 L 103.566406 726.082031 C 103.566406 725.773438 103.566406 725.46875 103.566406 725.164062 L 103.566406 716.289062 L 117.796875 702.0625 L 441.519531 378.339844 L 459.722656 360.132812 L 462.324219 357.53125 L 493.6875 326.171875 L 664.117188 155.742188 L 664.117188 165.378906 Z M 598.023438 221.222656 L 103.875 715.371094 L 103.875 705.734375 L 441.824219 367.785156 L 483.589844 326.015625 L 664.574219 145.03125 L 664.574219 154.671875 Z M 587.46875 221.222656 L 103.722656 704.96875 L 103.722656 695.332031 L 191.078125 607.972656 L 222.441406 576.613281 L 316.375 482.675781 L 347.738281 451.316406 L 441.671875 357.378906 L 664.421875 134.628906 L 664.421875 144.269531 Z M 577.066406 221.222656 L 201.175781 597.113281 L 103.566406 694.71875 L 103.566406 685.082031 L 664.117188 124.53125 L 664.117188 134.171875 Z M 566.664062 221.222656 L 441.367188 346.519531 L 315.914062 471.96875 L 190.617188 597.265625 L 103.722656 684.164062 L 103.722656 674.523438 L 664.421875 113.824219 L 664.421875 123.460938 Z M 587.46875 189.859375 L 556.105469 221.222656 L 462.171875 315.308594 L 103.722656 673.757812 L 103.722656 664.121094 L 462.171875 305.671875 L 462.628906 305.210938 L 664.574219 103.265625 L 664.574219 112.90625 Z M 587.46875 179.453125 L 545.703125 221.222656 L 169.660156 597.265625 L 103.566406 663.355469 L 103.566406 653.71875 L 180.519531 576.765625 L 190.925781 566.363281 L 305.816406 451.46875 L 316.222656 441.066406 L 431.113281 326.171875 L 441.519531 315.765625 L 461.867188 295.421875 L 462.476562 294.808594 L 556.414062 200.875 L 566.816406 190.46875 L 664.269531 93.015625 L 664.269531 102.65625 Z M 660.597656 95.921875 L 587.46875 169.050781 L 535.300781 221.222656 L 462.171875 294.347656 L 410.003906 346.519531 L 336.875 419.644531 L 284.707031 471.816406 L 103.722656 652.800781 L 103.722656 643.160156 L 664.726562 82.15625 L 664.726562 91.792969 Z M 650.195312 95.921875 L 399.292969 346.824219 L 336.570312 409.550781 L 273.84375 472.273438 L 103.261719 642.855469 L 103.261719 633.21875 L 159.253906 577.222656 L 190.617188 545.863281 L 284.550781 451.925781 L 315.914062 420.5625 L 409.851562 326.628906 L 441.210938 295.265625 L 461.101562 275.378906 L 663.964844 72.515625 L 663.964844 82.15625 Z M 639.789062 95.921875 L 587.621094 148.09375 L 138.601562 597.113281 L 103.566406 631.992188 L 103.566406 622.355469 L 149.160156 576.765625 L 461.101562 264.824219 L 462.476562 263.445312 L 664.269531 61.652344 L 664.269531 71.292969 Z M 618.832031 95.921875 L 587.46875 127.285156 L 493.535156 221.222656 L 462.171875 252.582031 L 368.238281 346.519531 L 336.875 377.878906 L 242.941406 471.816406 L 211.578125 503.175781 L 117.644531 597.113281 L 103.875 610.882812 L 103.875 601.394531 L 191.230469 514.039062 L 253.957031 451.316406 L 316.679688 388.589844 L 626.941406 78.328125 L 649.886719 65.019531 Z M 105.558594 379.410156 L 103.566406 381.398438 L 103.566406 380.632812 Z M 107.238281 378.339844 L 130.1875 365.03125 L 103.566406 391.800781 L 103.566406 382.164062 Z M 132.023438 364.113281 L 154.972656 350.800781 L 103.566406 402.207031 L 103.566406 392.566406 Z M 156.808594 349.882812 L 179.757812 336.574219 L 103.722656 412.609375 L 103.722656 402.96875 Z M 181.4375 335.503906 L 204.386719 322.191406 L 180.0625 346.519531 L 103.566406 423.011719 L 103.566406 413.375 Z M 190.925781 336.574219 L 206.070312 321.429688 L 229.019531 308.117188 L 190.464844 346.671875 L 103.566406 433.566406 L 103.566406 423.929688 Z M 211.882812 326.015625 L 230.855469 307.046875 L 253.800781 293.738281 L 103.566406 443.972656 L 103.566406 434.332031 Z M 190.925781 357.378906 L 222.285156 326.015625 L 255.636719 292.667969 L 278.585938 279.355469 L 211.578125 346.363281 L 103.722656 454.222656 L 103.722656 444.582031 Z M 107.390625 451.46875 L 190.925781 367.9375 L 232.691406 326.171875 L 280.269531 278.589844 L 303.21875 265.28125 L 211.425781 357.074219 L 103.566406 464.929688 L 103.566406 455.292969 Z M 117.796875 451.46875 L 243.09375 326.171875 L 304.898438 264.363281 L 327.847656 251.054688 L 232.230469 346.671875 L 211.269531 367.628906 L 106.78125 472.121094 L 103.414062 475.488281 L 103.414062 465.847656 Z M 128.351562 451.46875 L 191.078125 388.742188 L 253.800781 326.015625 L 316.527344 263.292969 L 329.988281 249.828125 L 352.9375 236.519531 L 336.875 252.582031 L 242.941406 346.519531 L 211.578125 377.878906 L 117.644531 471.816406 L 103.875 485.585938 L 103.875 475.945312 Z M 138.753906 451.46875 L 354.316406 235.90625 L 377.261719 222.597656 L 336.722656 263.140625 L 253.191406 346.519531 L 127.894531 471.816406 L 103.566406 496.140625 L 103.566406 486.503906 Z M 149.160156 451.46875 L 316.222656 284.40625 L 379.097656 221.527344 L 402.046875 208.214844 L 389.042969 221.222656 L 103.722656 506.542969 L 103.722656 496.90625 Z M 159.5625 451.46875 L 403.730469 207.300781 L 426.679688 193.988281 L 103.261719 517.40625 L 103.261719 507.765625 Z M 170.117188 451.46875 L 191.078125 430.507812 L 295.566406 326.015625 L 316.527344 305.058594 L 428.820312 192.765625 L 451.769531 179.453125 L 211.730469 419.492188 L 159.5625 471.664062 L 103.875 527.351562 L 103.875 517.710938 Z M 180.519531 451.46875 L 190.925781 441.066406 L 305.816406 326.171875 L 453.144531 178.84375 L 476.09375 165.53125 L 462.019531 179.609375 L 169.660156 471.96875 L 103.566406 538.058594 L 103.566406 528.421875 Z M 190.925781 451.46875 L 441.519531 200.875 L 462.019531 180.371094 L 477.929688 164.460938 L 500.878906 151.152344 L 430.808594 221.222656 L 336.875 315.308594 L 103.722656 548.460938 L 103.722656 538.671875 Z M 190.925781 461.871094 L 502.714844 150.082031 L 525.660156 136.769531 L 441.210938 221.222656 L 103.722656 558.710938 L 103.722656 549.074219 Z M 211.882812 451.46875 L 527.34375 136.007812 L 550.292969 122.695312 L 451.617188 221.375 L 326.320312 346.671875 L 201.019531 471.96875 L 103.566406 569.269531 L 103.566406 559.628906 Z M 190.925781 482.675781 L 316.222656 357.378906 L 347.582031 326.015625 L 441.519531 232.082031 L 552.128906 121.472656 L 575.078125 108.164062 L 462.171875 221.066406 L 336.875 346.363281 L 211.578125 471.664062 L 103.722656 579.519531 L 103.722656 569.878906 Z M 107.390625 576.765625 L 190.925781 493.234375 L 576.761719 107.398438 L 599.707031 94.085938 L 597.871094 95.921875 L 587.46875 106.328125 L 103.722656 590.074219 L 103.722656 580.4375 Z M 117.796875 576.765625 L 441.519531 253.042969 L 459.722656 234.835938 L 462.324219 232.234375 L 493.6875 200.875 L 566.816406 127.746094 L 601.390625 93.167969 L 624.339844 79.859375 L 482.671875 221.527344 L 461.710938 242.484375 L 357.222656 346.976562 L 103.566406 600.632812 L 103.566406 590.992188 Z M 106.015625 734.800781 L 138.753906 702.0625 L 190.925781 649.894531 L 264.050781 576.765625 L 316.222656 524.597656 L 389.347656 451.46875 L 441.519531 399.296875 L 460.796875 380.023438 L 462.476562 378.339844 L 664.421875 176.394531 L 664.421875 186.035156 L 629.386719 221.066406 L 462.324219 388.128906 L 378.640625 471.96875 L 336.875 513.734375 L 253.191406 597.265625 L 112.136719 738.320312 C 110.910156 738.320312 109.6875 738.015625 108.769531 737.402344 C 107.699219 736.945312 106.78125 736.027344 106.015625 734.800781 Z M 118.253906 736.636719 C 116.417969 737.707031 114.582031 738.320312 112.898438 738.472656 L 149.160156 702.0625 L 461.101562 390.121094 L 462.476562 388.742188 L 650.5 200.71875 L 664.269531 186.953125 L 664.269531 196.589844 L 132.941406 727.917969 Z M 663.65625 406.183594 L 627.09375 442.746094 L 604.144531 456.058594 L 664.421875 395.78125 L 664.421875 399.296875 C 664.421875 401.59375 664.117188 403.886719 663.65625 406.183594 Z M 648.050781 430.660156 L 628.777344 441.828125 L 663.351562 407.253906 C 661.210938 417.046875 655.242188 426.53125 648.050781 430.660156 Z M 602.460938 456.976562 L 579.511719 470.285156 L 598.332031 451.46875 L 664.421875 385.375 L 664.421875 395.015625 Z M 577.679688 471.355469 L 554.730469 484.667969 L 587.929688 451.46875 L 664.421875 374.972656 L 664.421875 384.613281 Z M 566.664062 471.96875 L 553.046875 485.585938 L 530.097656 498.894531 L 664.421875 364.570312 L 664.421875 374.207031 Z M 587.46875 440.605469 L 528.261719 499.8125 L 505.3125 513.121094 L 566.96875 451.46875 L 664.421875 354.015625 L 664.421875 363.652344 Z M 587.46875 430.203125 L 503.480469 514.191406 L 480.53125 527.503906 L 566.96875 441.066406 L 664.421875 343.609375 L 664.421875 353.25 Z M 660.597656 346.519531 L 587.46875 419.644531 L 535.300781 471.816406 L 478.847656 528.269531 L 455.898438 541.578125 L 664.421875 333.054688 L 664.421875 342.691406 Z M 650.195312 346.519531 L 587.46875 409.242188 L 453.910156 542.800781 L 430.960938 556.113281 L 664.269531 322.804688 L 664.269531 332.441406 Z M 639.789062 346.519531 L 429.585938 556.722656 L 406.636719 570.035156 L 462.785156 513.886719 L 525.507812 451.160156 L 664.574219 312.09375 L 664.574219 321.734375 Z M 629.234375 346.519531 L 462.171875 513.582031 L 404.648438 571.257812 L 381.699219 584.566406 L 389.347656 576.917969 L 441.519531 524.75 L 460.796875 505.472656 L 462.476562 503.789062 L 514.800781 451.46875 L 566.96875 399.296875 L 640.097656 326.171875 L 664.421875 301.84375 L 664.421875 311.484375 Z M 618.832031 346.519531 L 587.46875 377.878906 L 493.535156 471.816406 L 462.171875 503.175781 L 380.015625 585.332031 L 357.070312 598.640625 L 664.726562 290.984375 L 664.726562 300.621094 Z M 608.429688 346.519531 L 587.46875 367.476562 L 357.679688 597.265625 L 355.234375 599.714844 L 332.285156 613.023438 L 664.269531 281.039062 L 664.269531 290.675781 Z M 598.023438 346.519531 L 330.753906 613.789062 L 307.808594 627.097656 L 567.121094 367.785156 L 608.886719 326.015625 L 664.574219 270.328125 L 664.574219 279.96875 Z M 587.46875 346.519531 L 336.875 597.113281 L 305.816406 628.167969 L 282.871094 641.480469 L 316.375 607.972656 L 347.738281 576.613281 L 441.671875 482.675781 L 473.035156 451.316406 L 566.96875 357.378906 L 664.421875 259.925781 L 664.421875 269.566406 Z M 577.066406 346.519531 L 281.1875 642.398438 L 258.238281 655.707031 L 664.421875 249.523438 L 664.421875 259.160156 Z M 566.664062 346.519531 L 441.367188 471.816406 L 315.914062 597.265625 L 256.402344 656.777344 L 233.453125 670.085938 L 316.375 587.167969 L 664.421875 239.121094 L 664.421875 248.757812 Z M 587.46875 315.308594 L 556.105469 346.519531 L 231.773438 670.851562 L 208.824219 684.164062 L 441.671875 451.316406 L 462.171875 430.8125 L 664.574219 228.410156 L 664.574219 238.050781 Z M 587.46875 304.753906 L 420.40625 471.816406 L 336.875 555.5 L 207.140625 685.234375 L 184.191406 698.542969 L 191.078125 691.660156 L 462.019531 420.71875 L 462.628906 420.105469 L 556.566406 326.171875 L 566.96875 315.765625 L 664.421875 218.3125 L 664.421875 227.953125 Z M 660.597656 221.222656 L 587.46875 294.347656 L 535.300781 346.519531 L 462.171875 419.644531 L 410.003906 471.816406 L 211.578125 670.242188 L 182.355469 699.460938 L 159.410156 712.769531 L 664.726562 207.453125 L 664.726562 217.089844 Z M 650.195312 221.222656 L 587.46875 283.945312 L 399.292969 472.121094 L 336.570312 534.847656 L 273.84375 597.570312 L 211.117188 660.296875 L 157.113281 714.148438 L 134.164062 727.457031 L 315.914062 545.707031 L 409.851562 451.773438 L 441.210938 420.410156 L 461.101562 400.523438 L 663.964844 197.660156 L 663.964844 207.300781 Z M 650.195312 221.222656 " fill-opacity="1" fill-rule="nonzero"/><path fill="#e7fe75" d="M 116.417969 355.542969 C 116.417969 357.6875 117.03125 359.214844 118.253906 359.980469 C 119.480469 360.59375 121.160156 360.441406 122.996094 359.367188 C 127.433594 356.769531 131.257812 350.191406 131.257812 345.140625 C 131.257812 343 130.648438 341.46875 129.421875 340.703125 C 128.964844 340.398438 128.503906 340.398438 127.894531 340.398438 C 126.976562 340.398438 125.75 340.703125 124.679688 341.46875 C 120.089844 343.765625 116.417969 350.34375 116.417969 355.542969 Z M 116.417969 355.542969 " fill-opacity="1" fill-rule="nonzero"/><path fill="#ff6232" d="M 141.355469 341.164062 C 141.355469 343.304688 141.96875 344.835938 143.191406 345.601562 C 144.414062 346.210938 146.097656 346.058594 147.933594 344.988281 C 152.371094 342.386719 156.195312 335.808594 156.195312 330.761719 C 156.195312 328.617188 155.582031 327.089844 154.359375 326.324219 C 153.902344 326.015625 153.441406 326.015625 152.828125 326.015625 C 151.910156 326.015625 150.6875 326.324219 149.617188 327.089844 C 145.179688 329.382812 141.355469 335.960938 141.355469 341.164062 Z M 141.355469 341.164062 " fill-opacity="1" fill-rule="nonzero"/><path fill="#fbf8ef" d="M 166.90625 326.324219 C 166.90625 328.464844 167.515625 329.996094 168.742188 330.761719 C 169.964844 331.371094 171.648438 331.21875 173.484375 330.148438 C 177.921875 327.546875 181.746094 320.96875 181.746094 315.921875 C 181.746094 313.777344 181.132812 312.25 179.910156 311.484375 C 179.449219 311.175781 178.992188 311.175781 178.378906 311.175781 C 177.460938 311.175781 176.238281 311.484375 175.167969 312.25 C 170.730469 314.695312 166.90625 321.121094 166.90625 326.324219 Z M 166.90625 326.324219 " fill-opacity="1" fill-rule="nonzero"/><path fill="#fbf8ef" d="M 690.277344 53.085938 L 160.328125 359.0625 C 150.839844 364.570312 143.191406 379.257812 143.191406 391.800781 L 143.191406 749.488281 C 143.191406 762.1875 150.839844 768 160.328125 762.492188 L 690.277344 456.515625 C 699.761719 451.007812 707.410156 436.320312 707.410156 423.777344 L 707.410156 66.089844 C 707.410156 53.394531 699.761719 47.578125 690.277344 53.085938 Z M 690.277344 53.085938 " fill-opacity="1" fill-rule="nonzero"/><path fill="#333330" d="M 702.363281 50.640625 C 698.691406 48.496094 694.101562 48.804688 689.359375 51.558594 L 159.410156 357.53125 C 149.464844 363.347656 141.355469 378.644531 141.355469 391.800781 L 141.355469 749.488281 C 141.355469 756.832031 143.804688 762.339844 148.085938 764.941406 C 149.617188 765.859375 151.453125 766.316406 153.289062 766.316406 C 155.738281 766.316406 158.335938 765.550781 160.9375 764.023438 L 690.890625 458.046875 C 700.832031 452.234375 708.941406 436.933594 708.941406 423.777344 L 708.941406 66.089844 C 709.09375 58.746094 706.648438 53.238281 702.363281 50.640625 Z M 689.359375 454.988281 L 159.410156 760.960938 C 155.890625 762.953125 152.523438 763.410156 149.921875 761.878906 C 146.710938 760.042969 144.875 755.453125 144.875 749.488281 L 144.875 404.804688 L 705.574219 81.082031 L 705.574219 423.777344 C 705.574219 435.710938 698.386719 449.785156 689.359375 454.988281 Z M 689.359375 454.988281 " fill-opacity="1" fill-rule="nonzero"/><path fill="#e7fe75" d="M 157.574219 379.871094 C 157.574219 382.011719 158.183594 383.542969 159.410156 384.304688 C 160.632812 384.917969 162.316406 384.765625 164.152344 383.695312 C 168.585938 381.09375 172.414062 374.515625 172.414062 369.464844 C 172.414062 367.324219 171.800781 365.792969 170.578125 365.03125 C 170.117188 364.722656 169.660156 364.722656 169.046875 364.722656 C 168.128906 364.722656 166.90625 365.03125 165.832031 365.792969 C 161.398438 368.089844 157.574219 374.667969 157.574219 379.871094 Z M 157.574219 379.871094 " fill-opacity="1" fill-rule="nonzero"/><path fill="#ff6232" d="M 182.507812 365.488281 C 182.507812 367.628906 183.121094 369.160156 184.34375 369.925781 C 185.570312 370.535156 187.253906 370.382812 189.089844 369.3125 C 193.523438 366.710938 197.347656 360.132812 197.347656 355.085938 C 197.347656 352.945312 196.738281 351.414062 195.511719 350.648438 C 195.054688 350.34375 194.597656 350.34375 193.984375 350.34375 C 193.066406 350.34375 191.84375 350.648438 190.769531 351.414062 C 186.335938 353.707031 182.507812 360.285156 182.507812 365.488281 Z M 182.507812 365.488281 " fill-opacity="1" fill-rule="nonzero"/><path fill="#fbf8ef" d="M 208.210938 350.648438 C 208.210938 352.789062 208.824219 354.320312 210.046875 355.085938 C 211.269531 355.695312 212.953125 355.542969 214.789062 354.472656 C 219.226562 351.871094 223.050781 345.292969 223.050781 340.246094 C 223.050781 338.105469 222.441406 336.574219 221.214844 335.808594 C 220.757812 335.503906 220.296875 335.503906 219.6875 335.503906 C 218.769531 335.503906 217.542969 335.808594 216.472656 336.574219 C 212.035156 339.023438 208.210938 345.445312 208.210938 350.648438 Z M 208.210938 350.648438 " fill-opacity="1" fill-rule="nonzero"/><path fill="#e7fe75" d="M 457.277344 436.015625 L 233.609375 565.136719 L 233.609375 402.050781 L 457.277344 272.929688 Z M 457.277344 436.015625 " fill-opacity="1" fill-rule="nonzero"/><path fill="#ff6232" d="M 616.996094 248.605469 L 480.070312 327.699219 L 480.070312 259.773438 L 616.996094 180.679688 Z M 616.996094 269.871094 L 480.070312 348.964844 L 480.070312 423.011719 L 616.996094 343.917969 Z M 616.996094 269.871094 " fill-opacity="1" fill-rule="nonzero"/><path fill="#333330" d="M 459.113281 436.933594 L 459.113281 269.871094 L 232.84375 400.523438 L 231.925781 400.980469 L 231.925781 568.042969 L 458.195312 437.546875 Z M 455.59375 434.945312 L 235.445312 562.078125 L 235.445312 403.125 L 455.59375 275.992188 Z M 455.59375 434.945312 " fill-opacity="1" fill-rule="nonzero"/><path fill="#333330" d="M 479.152344 258.242188 L 478.234375 258.703125 L 478.234375 330.605469 L 617.761719 250.136719 L 618.679688 249.675781 L 618.679688 177.773438 Z M 615.160156 247.6875 L 481.753906 324.640625 L 481.753906 260.84375 L 615.160156 183.890625 Z M 615.160156 247.6875 " fill-opacity="1" fill-rule="nonzero"/><path fill="#333330" d="M 478.234375 347.894531 L 478.234375 425.917969 L 617.761719 345.445312 L 618.679688 344.988281 L 618.679688 266.964844 L 479.152344 347.4375 Z M 481.753906 349.882812 L 615.160156 272.929688 L 615.160156 342.847656 L 481.753906 419.800781 Z M 481.753906 349.882812 " fill-opacity="1" fill-rule="nonzero"/><path fill="#333330" d="M 233.609375 610.421875 L 499.808594 456.667969 L 499.808594 447.335938 L 233.609375 600.9375 Z M 233.609375 610.421875 " fill-opacity="1" fill-rule="nonzero"/><path fill="#333330" d="M 233.609375 658.765625 L 499.808594 505.011719 L 499.808594 495.679688 L 233.609375 649.433594 Z M 233.609375 658.765625 " fill-opacity="1" fill-rule="nonzero"/><path fill="#333330" d="M 233.609375 682.9375 L 499.808594 529.339844 L 499.808594 519.851562 L 233.609375 673.605469 Z M 233.609375 682.9375 " fill-opacity="1" fill-rule="nonzero"/><path fill="#333330" d="M 233.609375 634.59375 L 499.808594 480.839844 L 499.808594 471.507812 L 233.609375 625.261719 Z M 233.609375 634.59375 " fill-opacity="1" fill-rule="nonzero"/></svg>