<svg xmlns="http://www.w3.org/2000/svg" xmlns:xlink="http://www.w3.org/1999/xlink" width="1024" zoomAndPan="magnify" viewBox="0 0 768 767.999994" height="1024" preserveAspectRatio="xMidYMid meet" version="1.0"><defs><clipPath id="5bf1e79651"><path d="M 9.683594 236 L 400 236 L 400 313 L 9.683594 313 Z M 9.683594 236 " clip-rule="nonzero"/></clipPath><clipPath id="34a6a99084"><path d="M 93 161.125 L 626 161.125 L 626 190 L 93 190 Z M 93 161.125 " clip-rule="nonzero"/></clipPath><clipPath id="f968296567"><path d="M 420 318 L 697 318 L 697 606.625 L 420 606.625 Z M 420 318 " clip-rule="nonzero"/></clipPath><clipPath id="8d700fab3c"><path d="M 419 317 L 698 317 L 698 606.625 L 419 606.625 Z M 419 317 " clip-rule="nonzero"/></clipPath><clipPath id="233f63c25b"><path d="M 429 299 L 441 299 L 441 310 L 429 310 Z M 429 299 " clip-rule="nonzero"/></clipPath><clipPath id="cd89926e3c"><path d="M 440.007812 304.671875 C 440.007812 305.011719 439.972656 305.34375 439.910156 305.671875 C 439.84375 306.003906 439.746094 306.324219 439.617188 306.632812 C 439.488281 306.945312 439.332031 307.238281 439.144531 307.519531 C 438.957031 307.800781 438.746094 308.058594 438.507812 308.296875 C 438.269531 308.535156 438.011719 308.746094 437.730469 308.933594 C 437.449219 309.121094 437.15625 309.277344 436.84375 309.40625 C 436.535156 309.535156 436.214844 309.632812 435.882812 309.699219 C 435.554688 309.761719 435.21875 309.796875 434.882812 309.796875 C 434.546875 309.796875 434.214844 309.761719 433.882812 309.699219 C 433.554688 309.632812 433.234375 309.535156 432.921875 309.40625 C 432.613281 309.277344 432.316406 309.121094 432.039062 308.933594 C 431.757812 308.746094 431.5 308.535156 431.261719 308.296875 C 431.023438 308.058594 430.8125 307.800781 430.625 307.519531 C 430.4375 307.238281 430.28125 306.945312 430.152344 306.632812 C 430.023438 306.324219 429.925781 306.003906 429.859375 305.671875 C 429.792969 305.34375 429.761719 305.011719 429.761719 304.671875 C 429.761719 304.335938 429.792969 304.003906 429.859375 303.675781 C 429.925781 303.34375 430.023438 303.023438 430.152344 302.714844 C 430.28125 302.402344 430.4375 302.105469 430.625 301.828125 C 430.8125 301.546875 431.023438 301.289062 431.261719 301.050781 C 431.5 300.8125 431.757812 300.601562 432.039062 300.414062 C 432.316406 300.226562 432.613281 300.070312 432.921875 299.941406 C 433.234375 299.8125 433.554688 299.714844 433.882812 299.648438 C 434.214844 299.582031 434.546875 299.550781 434.882812 299.550781 C 435.21875 299.550781 435.554688 299.582031 435.882812 299.648438 C 436.214844 299.714844 436.535156 299.8125 436.84375 299.941406 C 437.15625 300.070312 437.449219 300.226562 437.730469 300.414062 C 438.011719 300.601562 438.269531 300.8125 438.507812 301.050781 C 438.746094 301.289062 438.957031 301.546875 439.144531 301.828125 C 439.332031 302.105469 439.488281 302.402344 439.617188 302.714844 C 439.746094 303.023438 439.84375 303.34375 439.910156 303.675781 C 439.972656 304.003906 440.007812 304.335938 440.007812 304.671875 Z M 440.007812 304.671875 " clip-rule="nonzero"/></clipPath><linearGradient x1="795.39987" gradientTransform="matrix(0.528133, 0, 0, 0.528133, 9.684023, 161.179639)" y1="271.69" x2="814.79996" gradientUnits="userSpaceOnUse" y2="271.69" id="8d7c170d9a"><stop stop-opacity="1" stop-color="rgb(96.499634%, 97.299194%, 98.399353%)" offset="0"/><stop stop-opacity="1" stop-color="rgb(96.607971%, 97.381592%, 98.387146%)" offset="0.0625"/><stop stop-opacity="1" stop-color="rgb(96.824646%, 97.549438%, 98.361206%)" offset="0.125"/><stop stop-opacity="1" stop-color="rgb(97.042847%, 97.718811%, 98.336792%)" offset="0.1875"/><stop stop-opacity="1" stop-color="rgb(97.262573%, 97.888184%, 98.312378%)" offset="0.25"/><stop stop-opacity="1" stop-color="rgb(97.480774%, 98.05603%, 98.286438%)" offset="0.3125"/><stop stop-opacity="1" stop-color="rgb(97.7005%, 98.225403%, 98.262024%)" offset="0.375"/><stop stop-opacity="1" stop-color="rgb(97.918701%, 98.394775%, 98.236084%)" offset="0.4375"/><stop stop-opacity="1" stop-color="rgb(98.136902%, 98.562622%, 98.21167%)" offset="0.5"/><stop stop-opacity="1" stop-color="rgb(98.356628%, 98.731995%, 98.187256%)" offset="0.5625"/><stop stop-opacity="1" stop-color="rgb(98.574829%, 98.899841%, 98.161316%)" offset="0.625"/><stop stop-opacity="1" stop-color="rgb(98.794556%, 99.069214%, 98.136902%)" offset="0.6875"/><stop stop-opacity="1" stop-color="rgb(99.012756%, 99.238586%, 98.110962%)" offset="0.75"/><stop stop-opacity="1" stop-color="rgb(99.230957%, 99.406433%, 98.086548%)" offset="0.8125"/><stop stop-opacity="1" stop-color="rgb(99.450684%, 99.575806%, 98.062134%)" offset="0.875"/><stop stop-opacity="1" stop-color="rgb(99.668884%, 99.745178%, 98.036194%)" offset="0.9375"/><stop stop-opacity="1" stop-color="rgb(99.888611%, 99.913025%, 98.01178%)" offset="1"/></linearGradient><clipPath id="a3ab1e5649"><path d="M 445 299 L 456 299 L 456 310 L 445 310 Z M 445 299 " clip-rule="nonzero"/></clipPath><clipPath id="788a6adc7e"><path d="M 455.796875 304.671875 C 455.796875 305.011719 455.765625 305.34375 455.699219 305.671875 C 455.632812 306.003906 455.535156 306.324219 455.40625 306.632812 C 455.28125 306.945312 455.121094 307.238281 454.933594 307.519531 C 454.746094 307.800781 454.535156 308.058594 454.296875 308.296875 C 454.058594 308.535156 453.800781 308.746094 453.519531 308.933594 C 453.242188 309.121094 452.945312 309.277344 452.636719 309.40625 C 452.324219 309.535156 452.003906 309.632812 451.675781 309.699219 C 451.34375 309.761719 451.011719 309.796875 450.675781 309.796875 C 450.339844 309.796875 450.003906 309.761719 449.675781 309.699219 C 449.347656 309.632812 449.027344 309.535156 448.714844 309.40625 C 448.402344 309.277344 448.109375 309.121094 447.828125 308.933594 C 447.550781 308.746094 447.289062 308.535156 447.054688 308.296875 C 446.816406 308.058594 446.601562 307.800781 446.414062 307.519531 C 446.230469 307.238281 446.070312 306.945312 445.941406 306.632812 C 445.8125 306.324219 445.714844 306.003906 445.652344 305.671875 C 445.585938 305.34375 445.550781 305.011719 445.550781 304.671875 C 445.550781 304.335938 445.585938 304.003906 445.652344 303.675781 C 445.714844 303.34375 445.8125 303.023438 445.941406 302.714844 C 446.070312 302.402344 446.230469 302.105469 446.414062 301.828125 C 446.601562 301.546875 446.816406 301.289062 447.054688 301.050781 C 447.289062 300.8125 447.550781 300.601562 447.828125 300.414062 C 448.109375 300.226562 448.402344 300.070312 448.714844 299.941406 C 449.027344 299.8125 449.347656 299.714844 449.675781 299.648438 C 450.003906 299.582031 450.339844 299.550781 450.675781 299.550781 C 451.011719 299.550781 451.34375 299.582031 451.675781 299.648438 C 452.003906 299.714844 452.324219 299.8125 452.636719 299.941406 C 452.945312 300.070312 453.242188 300.226562 453.519531 300.414062 C 453.800781 300.601562 454.058594 300.8125 454.296875 301.050781 C 454.535156 301.289062 454.746094 301.546875 454.933594 301.828125 C 455.121094 302.105469 455.28125 302.402344 455.40625 302.714844 C 455.535156 303.023438 455.632812 303.34375 455.699219 303.675781 C 455.765625 304.003906 455.796875 304.335938 455.796875 304.671875 Z M 455.796875 304.671875 " clip-rule="nonzero"/></clipPath><linearGradient x1="825.299899" gradientTransform="matrix(0.528133, 0, 0, 0.528133, 9.684023, 161.179639)" y1="271.69" x2="844.699978" gradientUnits="userSpaceOnUse" y2="271.69" id="79b63cbfc7"><stop stop-opacity="1" stop-color="rgb(96.50116%, 97.30072%, 98.399353%)" offset="0"/><stop stop-opacity="1" stop-color="rgb(96.611023%, 97.384644%, 98.38562%)" offset="0.0625"/><stop stop-opacity="1" stop-color="rgb(96.829224%, 97.554016%, 98.361206%)" offset="0.125"/><stop stop-opacity="1" stop-color="rgb(97.04895%, 97.723389%, 98.336792%)" offset="0.1875"/><stop stop-opacity="1" stop-color="rgb(97.267151%, 97.891235%, 98.310852%)" offset="0.25"/><stop stop-opacity="1" stop-color="rgb(97.485352%, 98.060608%, 98.286438%)" offset="0.3125"/><stop stop-opacity="1" stop-color="rgb(97.705078%, 98.228455%, 98.260498%)" offset="0.375"/><stop stop-opacity="1" stop-color="rgb(97.923279%, 98.397827%, 98.236084%)" offset="0.4375"/><stop stop-opacity="1" stop-color="rgb(98.143005%, 98.5672%, 98.21167%)" offset="0.5"/><stop stop-opacity="1" stop-color="rgb(98.361206%, 98.735046%, 98.18573%)" offset="0.5625"/><stop stop-opacity="1" stop-color="rgb(98.579407%, 98.904419%, 98.161316%)" offset="0.625"/><stop stop-opacity="1" stop-color="rgb(98.799133%, 99.072266%, 98.135376%)" offset="0.6875"/><stop stop-opacity="1" stop-color="rgb(99.017334%, 99.241638%, 98.110962%)" offset="0.75"/><stop stop-opacity="1" stop-color="rgb(99.235535%, 99.411011%, 98.086548%)" offset="0.8125"/><stop stop-opacity="1" stop-color="rgb(99.455261%, 99.578857%, 98.060608%)" offset="0.875"/><stop stop-opacity="1" stop-color="rgb(99.673462%, 99.74823%, 98.036194%)" offset="0.9375"/><stop stop-opacity="1" stop-color="rgb(99.891663%, 99.916077%, 98.01178%)" offset="1"/></linearGradient><clipPath id="90e2e4b9ba"><path d="M 461 299 L 472 299 L 472 310 L 461 310 Z M 461 299 " clip-rule="nonzero"/></clipPath><clipPath id="dd082426eb"><path d="M 471.589844 304.671875 C 471.589844 305.011719 471.554688 305.34375 471.492188 305.671875 C 471.425781 306.003906 471.328125 306.324219 471.199219 306.632812 C 471.070312 306.945312 470.914062 307.238281 470.726562 307.519531 C 470.539062 307.800781 470.328125 308.058594 470.089844 308.296875 C 469.851562 308.535156 469.59375 308.746094 469.3125 308.933594 C 469.03125 309.121094 468.738281 309.277344 468.425781 309.40625 C 468.117188 309.535156 467.796875 309.632812 467.464844 309.699219 C 467.136719 309.761719 466.804688 309.796875 466.464844 309.796875 C 466.128906 309.796875 465.796875 309.761719 465.46875 309.699219 C 465.136719 309.632812 464.816406 309.535156 464.507812 309.40625 C 464.195312 309.277344 463.898438 309.121094 463.621094 308.933594 C 463.339844 308.746094 463.082031 308.535156 462.84375 308.296875 C 462.605469 308.058594 462.394531 307.800781 462.207031 307.519531 C 462.019531 307.238281 461.863281 306.945312 461.734375 306.632812 C 461.605469 306.324219 461.507812 306.003906 461.441406 305.671875 C 461.375 305.34375 461.34375 305.011719 461.34375 304.671875 C 461.34375 304.335938 461.375 304.003906 461.441406 303.675781 C 461.507812 303.34375 461.605469 303.023438 461.734375 302.714844 C 461.863281 302.402344 462.019531 302.105469 462.207031 301.828125 C 462.394531 301.546875 462.605469 301.289062 462.84375 301.050781 C 463.082031 300.8125 463.339844 300.601562 463.621094 300.414062 C 463.898438 300.226562 464.195312 300.070312 464.507812 299.941406 C 464.816406 299.8125 465.136719 299.714844 465.46875 299.648438 C 465.796875 299.582031 466.128906 299.550781 466.464844 299.550781 C 466.804688 299.550781 467.136719 299.582031 467.464844 299.648438 C 467.796875 299.714844 468.117188 299.8125 468.425781 299.941406 C 468.738281 300.070312 469.03125 300.226562 469.3125 300.414062 C 469.59375 300.601562 469.851562 300.8125 470.089844 301.050781 C 470.328125 301.289062 470.539062 301.546875 470.726562 301.828125 C 470.914062 302.105469 471.070312 302.402344 471.199219 302.714844 C 471.328125 303.023438 471.425781 303.34375 471.492188 303.675781 C 471.554688 304.003906 471.589844 304.335938 471.589844 304.671875 Z M 471.589844 304.671875 " clip-rule="nonzero"/></clipPath><linearGradient x1="855.199918" gradientTransform="matrix(0.528133, 0, 0, 0.528133, 9.684023, 161.179639)" y1="271.69" x2="874.600007" gradientUnits="userSpaceOnUse" y2="271.69" id="50aec39782"><stop stop-opacity="1" stop-color="rgb(96.507263%, 97.305298%, 98.397827%)" offset="0"/><stop stop-opacity="1" stop-color="rgb(96.615601%, 97.389221%, 98.38562%)" offset="0.0625"/><stop stop-opacity="1" stop-color="rgb(96.833801%, 97.557068%, 98.361206%)" offset="0.125"/><stop stop-opacity="1" stop-color="rgb(97.053528%, 97.72644%, 98.335266%)" offset="0.1875"/><stop stop-opacity="1" stop-color="rgb(97.271729%, 97.895813%, 98.310852%)" offset="0.25"/><stop stop-opacity="1" stop-color="rgb(97.491455%, 98.06366%, 98.284912%)" offset="0.3125"/><stop stop-opacity="1" stop-color="rgb(97.709656%, 98.233032%, 98.260498%)" offset="0.375"/><stop stop-opacity="1" stop-color="rgb(97.927856%, 98.400879%, 98.236084%)" offset="0.4375"/><stop stop-opacity="1" stop-color="rgb(98.147583%, 98.570251%, 98.210144%)" offset="0.5"/><stop stop-opacity="1" stop-color="rgb(98.365784%, 98.739624%, 98.18573%)" offset="0.5625"/><stop stop-opacity="1" stop-color="rgb(98.583984%, 98.907471%, 98.15979%)" offset="0.625"/><stop stop-opacity="1" stop-color="rgb(98.803711%, 99.076843%, 98.135376%)" offset="0.6875"/><stop stop-opacity="1" stop-color="rgb(99.021912%, 99.246216%, 98.110962%)" offset="0.75"/><stop stop-opacity="1" stop-color="rgb(99.241638%, 99.414062%, 98.085022%)" offset="0.8125"/><stop stop-opacity="1" stop-color="rgb(99.459839%, 99.583435%, 98.060608%)" offset="0.875"/><stop stop-opacity="1" stop-color="rgb(99.67804%, 99.751282%, 98.036194%)" offset="0.9375"/><stop stop-opacity="1" stop-color="rgb(99.893188%, 99.917603%, 98.01178%)" offset="1"/></linearGradient><clipPath id="3424f59e45"><path d="M 594 395 L 758.183594 395 L 758.183594 554 L 594 554 Z M 594 395 " clip-rule="nonzero"/></clipPath></defs><path fill="#d9d9d9" d="M 93.289062 178.449219 L 625.277344 178.449219 L 625.277344 561.609375 L 93.289062 561.609375 Z M 93.289062 178.449219 " fill-opacity="1" fill-rule="nonzero"/><path fill="#fffffa" d="M 394.21875 312.066406 L 15.28125 312.066406 C 12.535156 312.066406 10.265625 309.796875 10.265625 307.050781 L 10.265625 241.667969 C 10.265625 238.921875 12.535156 236.648438 15.28125 236.648438 L 394.21875 236.648438 C 396.964844 236.648438 399.234375 238.921875 399.234375 241.667969 L 399.234375 307.050781 C 399.234375 309.796875 396.964844 312.066406 394.21875 312.066406 Z M 394.21875 312.066406 " fill-opacity="1" fill-rule="nonzero"/><g clip-path="url(#5bf1e79651)"><path fill="#d9d9d9" d="M 394.21875 312.648438 L 15.28125 312.648438 C 12.167969 312.648438 9.683594 310.113281 9.683594 307.050781 L 9.683594 241.667969 C 9.683594 238.605469 12.167969 236.070312 15.28125 236.070312 L 394.21875 236.070312 C 397.28125 236.070312 399.816406 238.550781 399.816406 241.667969 L 399.816406 307.050781 C 399.761719 310.113281 397.28125 312.648438 394.21875 312.648438 Z M 15.28125 237.230469 C 12.800781 237.230469 10.847656 239.238281 10.847656 241.667969 L 10.847656 307.050781 C 10.847656 309.53125 12.851562 311.488281 15.28125 311.488281 L 394.21875 311.488281 C 396.699219 311.488281 398.652344 309.480469 398.652344 307.050781 L 398.652344 241.667969 C 398.652344 239.183594 396.648438 237.230469 394.21875 237.230469 Z M 15.28125 237.230469 " fill-opacity="1" fill-rule="nonzero"/></g><path fill="#fffffa" d="M 445.761719 406.921875 L 66.828125 406.921875 C 64.082031 406.921875 61.8125 404.648438 61.8125 401.902344 L 61.8125 336.519531 C 61.8125 333.773438 64.082031 331.503906 66.828125 331.503906 L 445.761719 331.503906 C 448.511719 331.503906 450.78125 333.773438 450.78125 336.519531 L 450.78125 401.902344 C 450.78125 404.703125 448.511719 406.921875 445.761719 406.921875 Z M 445.761719 406.921875 " fill-opacity="1" fill-rule="nonzero"/><path fill="#d9d9d9" d="M 445.761719 407.5 L 66.828125 407.5 C 63.765625 407.5 61.230469 405.019531 61.230469 401.902344 L 61.230469 336.519531 C 61.230469 333.457031 63.710938 330.921875 66.828125 330.921875 L 445.761719 330.921875 C 448.828125 330.921875 451.363281 333.402344 451.363281 336.519531 L 451.363281 401.902344 C 451.363281 404.964844 448.828125 407.5 445.761719 407.5 Z M 66.828125 332.082031 C 64.347656 332.082031 62.390625 334.089844 62.390625 336.519531 L 62.390625 401.902344 C 62.390625 404.386719 64.398438 406.339844 66.828125 406.339844 L 445.761719 406.339844 C 448.246094 406.339844 450.199219 404.332031 450.199219 401.902344 L 450.199219 336.519531 C 450.199219 334.039062 448.191406 332.082031 445.761719 332.082031 Z M 66.828125 332.082031 " fill-opacity="1" fill-rule="nonzero"/><path fill="#e7fe75" d="M 32.078125 279.375 L 59.222656 279.375 L 59.222656 284.445312 L 32.078125 284.445312 Z M 32.078125 279.375 " fill-opacity="1" fill-rule="nonzero"/><path fill="#e7fe75" d="M 75.4375 279.375 L 158.089844 279.375 L 158.089844 284.445312 L 75.4375 284.445312 Z M 75.4375 279.375 " fill-opacity="1" fill-rule="nonzero"/><path fill="#e7fe75" d="M 171.980469 279.375 L 306.441406 279.375 L 306.441406 284.445312 L 171.980469 284.445312 Z M 171.980469 279.375 " fill-opacity="1" fill-rule="nonzero"/><path fill="#e7fe75" d="M 319.804688 279.375 L 382.808594 279.375 L 382.808594 284.445312 L 319.804688 284.445312 Z M 319.804688 279.375 " fill-opacity="1" fill-rule="nonzero"/><path fill="#e7fe75" d="M 32.078125 291.945312 L 214.441406 291.945312 L 214.441406 297.015625 L 32.078125 297.015625 Z M 32.078125 291.945312 " fill-opacity="1" fill-rule="nonzero"/><path fill="#e7fe75" d="M 225.796875 291.945312 L 295.828125 291.945312 L 295.828125 297.015625 L 225.796875 297.015625 Z M 225.796875 291.945312 " fill-opacity="1" fill-rule="nonzero"/><path fill="#e7fe75" d="M 302.21875 291.945312 L 361.15625 291.945312 L 361.15625 297.015625 L 302.21875 297.015625 Z M 302.21875 291.945312 " fill-opacity="1" fill-rule="nonzero"/><path fill="#ff6232" d="M 32.078125 252.757812 L 359.730469 252.757812 L 359.730469 264.113281 L 32.078125 264.113281 Z M 32.078125 252.757812 " fill-opacity="1" fill-rule="nonzero"/><path fill="#e7fe75" d="M 83.621094 373.226562 L 273.59375 373.226562 L 273.59375 378.296875 L 83.621094 378.296875 Z M 83.621094 373.226562 " fill-opacity="1" fill-rule="nonzero"/><path fill="#e7fe75" d="M 281.460938 373.226562 L 380.222656 373.226562 L 380.222656 378.296875 L 281.460938 378.296875 Z M 281.460938 373.226562 " fill-opacity="1" fill-rule="nonzero"/><path fill="#e7fe75" d="M 83.621094 385.792969 L 115.523438 385.792969 L 115.523438 390.863281 L 83.621094 390.863281 Z M 83.621094 385.792969 " fill-opacity="1" fill-rule="nonzero"/><path fill="#e7fe75" d="M 132.105469 385.792969 L 253.257812 385.792969 L 253.257812 390.863281 L 132.105469 390.863281 Z M 132.105469 385.792969 " fill-opacity="1" fill-rule="nonzero"/><path fill="#e7fe75" d="M 259.914062 385.792969 L 406.207031 385.792969 L 406.207031 390.863281 L 259.914062 390.863281 Z M 259.914062 385.792969 " fill-opacity="1" fill-rule="nonzero"/><path fill="#ff6232" d="M 83.621094 346.605469 L 351.332031 346.605469 L 351.332031 357.960938 L 83.621094 357.960938 Z M 83.621094 346.605469 " fill-opacity="1" fill-rule="nonzero"/><path fill="#fffffa" d="M 509.296875 503.410156 L 130.363281 503.410156 C 127.617188 503.410156 125.34375 501.140625 125.34375 498.394531 L 125.34375 433.011719 C 125.34375 430.261719 127.617188 427.992188 130.363281 427.992188 L 509.296875 427.992188 C 512.042969 427.992188 514.316406 430.261719 514.316406 433.011719 L 514.316406 498.394531 C 514.316406 501.191406 512.042969 503.410156 509.296875 503.410156 Z M 509.296875 503.410156 " fill-opacity="1" fill-rule="nonzero"/><path fill="#d9d9d9" d="M 509.296875 503.992188 L 130.363281 503.992188 C 127.300781 503.992188 124.765625 501.507812 124.765625 498.394531 L 124.765625 433.011719 C 124.765625 429.945312 127.246094 427.410156 130.363281 427.410156 L 509.296875 427.410156 C 512.359375 427.410156 514.894531 429.894531 514.894531 433.011719 L 514.894531 498.394531 C 514.84375 501.507812 512.359375 503.992188 509.296875 503.992188 Z M 130.363281 428.574219 C 127.878906 428.574219 125.925781 430.582031 125.925781 433.011719 L 125.925781 498.394531 C 125.925781 500.875 127.933594 502.828125 130.363281 502.828125 L 509.296875 502.828125 C 511.78125 502.828125 513.734375 500.820312 513.734375 498.394531 L 513.734375 433.011719 C 513.734375 430.527344 511.726562 428.574219 509.296875 428.574219 Z M 130.363281 428.574219 " fill-opacity="1" fill-rule="nonzero"/><path fill="#e7fe75" d="M 147.15625 469.714844 L 304.488281 469.714844 L 304.488281 474.785156 L 147.15625 474.785156 Z M 147.15625 469.714844 " fill-opacity="1" fill-rule="nonzero"/><path fill="#e7fe75" d="M 312.355469 469.714844 L 443.703125 469.714844 L 443.703125 474.785156 L 312.355469 474.785156 Z M 312.355469 469.714844 " fill-opacity="1" fill-rule="nonzero"/><path fill="#e7fe75" d="M 147.15625 482.285156 L 204.777344 482.285156 L 204.777344 487.355469 L 147.15625 487.355469 Z M 147.15625 482.285156 " fill-opacity="1" fill-rule="nonzero"/><path fill="#e7fe75" d="M 221.359375 482.285156 L 344.363281 482.285156 L 344.363281 487.355469 L 221.359375 487.355469 Z M 221.359375 482.285156 " fill-opacity="1" fill-rule="nonzero"/><path fill="#e7fe75" d="M 351.015625 482.285156 L 481.941406 482.285156 L 481.941406 487.355469 L 351.015625 487.355469 Z M 351.015625 482.285156 " fill-opacity="1" fill-rule="nonzero"/><path fill="#ff6232" d="M 147.15625 443.097656 L 447.507812 443.097656 L 447.507812 454.453125 L 147.15625 454.453125 Z M 147.15625 443.097656 " fill-opacity="1" fill-rule="nonzero"/><g clip-path="url(#34a6a99084)"><path fill="#ff6232" d="M 625.277344 189.699219 L 93.289062 189.699219 L 93.289062 165.035156 C 93.289062 162.921875 95.03125 161.179688 97.144531 161.179688 L 621.472656 161.179688 C 623.585938 161.179688 625.328125 162.921875 625.328125 165.035156 L 625.328125 189.699219 Z M 625.277344 189.699219 " fill-opacity="1" fill-rule="nonzero"/></g><path fill="#d9d9d9" d="M 114.519531 175.4375 C 114.519531 175.777344 114.484375 176.109375 114.421875 176.4375 C 114.355469 176.769531 114.257812 177.089844 114.128906 177.398438 C 114 177.710938 113.84375 178.003906 113.65625 178.285156 C 113.46875 178.566406 113.253906 178.824219 113.019531 179.0625 C 112.78125 179.300781 112.519531 179.511719 112.242188 179.699219 C 111.960938 179.886719 111.667969 180.042969 111.355469 180.171875 C 111.046875 180.300781 110.726562 180.398438 110.394531 180.464844 C 110.066406 180.53125 109.730469 180.5625 109.394531 180.5625 C 109.058594 180.5625 108.726562 180.53125 108.394531 180.464844 C 108.066406 180.398438 107.746094 180.300781 107.433594 180.171875 C 107.125 180.042969 106.828125 179.886719 106.550781 179.699219 C 106.269531 179.511719 106.011719 179.300781 105.773438 179.0625 C 105.535156 178.824219 105.324219 178.566406 105.136719 178.285156 C 104.949219 178.003906 104.792969 177.710938 104.664062 177.398438 C 104.535156 177.089844 104.4375 176.769531 104.371094 176.4375 C 104.304688 176.109375 104.273438 175.777344 104.273438 175.4375 C 104.273438 175.101562 104.304688 174.769531 104.371094 174.441406 C 104.4375 174.109375 104.535156 173.789062 104.664062 173.480469 C 104.792969 173.167969 104.949219 172.871094 105.136719 172.59375 C 105.324219 172.3125 105.535156 172.054688 105.773438 171.816406 C 106.011719 171.578125 106.269531 171.367188 106.550781 171.179688 C 106.828125 170.992188 107.125 170.835938 107.433594 170.707031 C 107.746094 170.578125 108.066406 170.480469 108.394531 170.414062 C 108.726562 170.347656 109.058594 170.316406 109.394531 170.316406 C 109.730469 170.316406 110.066406 170.347656 110.394531 170.414062 C 110.726562 170.480469 111.046875 170.578125 111.355469 170.707031 C 111.667969 170.835938 111.960938 170.992188 112.242188 171.179688 C 112.519531 171.367188 112.78125 171.578125 113.019531 171.816406 C 113.253906 172.054688 113.46875 172.3125 113.65625 172.59375 C 113.84375 172.871094 114 173.167969 114.128906 173.480469 C 114.257812 173.789062 114.355469 174.109375 114.421875 174.441406 C 114.484375 174.769531 114.519531 175.101562 114.519531 175.4375 Z M 114.519531 175.4375 " fill-opacity="1" fill-rule="nonzero"/><path fill="#d9d9d9" d="M 130.308594 175.4375 C 130.308594 175.777344 130.277344 176.109375 130.210938 176.4375 C 130.144531 176.769531 130.046875 177.089844 129.917969 177.398438 C 129.789062 177.710938 129.632812 178.003906 129.445312 178.285156 C 129.257812 178.566406 129.046875 178.824219 128.808594 179.0625 C 128.570312 179.300781 128.3125 179.511719 128.03125 179.699219 C 127.753906 179.886719 127.457031 180.042969 127.148438 180.171875 C 126.835938 180.300781 126.515625 180.398438 126.1875 180.464844 C 125.855469 180.53125 125.523438 180.5625 125.1875 180.5625 C 124.851562 180.5625 124.515625 180.53125 124.1875 180.464844 C 123.855469 180.398438 123.535156 180.300781 123.226562 180.171875 C 122.914062 180.042969 122.621094 179.886719 122.339844 179.699219 C 122.0625 179.511719 121.800781 179.300781 121.5625 179.0625 C 121.328125 178.824219 121.113281 178.566406 120.925781 178.285156 C 120.742188 178.003906 120.582031 177.710938 120.453125 177.398438 C 120.324219 177.089844 120.226562 176.769531 120.164062 176.4375 C 120.097656 176.109375 120.0625 175.777344 120.0625 175.4375 C 120.0625 175.101562 120.097656 174.769531 120.164062 174.441406 C 120.226562 174.109375 120.324219 173.789062 120.453125 173.480469 C 120.582031 173.167969 120.742188 172.871094 120.925781 172.59375 C 121.113281 172.3125 121.328125 172.054688 121.5625 171.816406 C 121.800781 171.578125 122.0625 171.367188 122.339844 171.179688 C 122.621094 170.992188 122.914062 170.835938 123.226562 170.707031 C 123.535156 170.578125 123.855469 170.480469 124.1875 170.414062 C 124.515625 170.347656 124.851562 170.316406 125.1875 170.316406 C 125.523438 170.316406 125.855469 170.347656 126.1875 170.414062 C 126.515625 170.480469 126.835938 170.578125 127.148438 170.707031 C 127.457031 170.835938 127.753906 170.992188 128.03125 171.179688 C 128.3125 171.367188 128.570312 171.578125 128.808594 171.816406 C 129.046875 172.054688 129.257812 172.3125 129.445312 172.59375 C 129.632812 172.871094 129.789062 173.167969 129.917969 173.480469 C 130.046875 173.789062 130.144531 174.109375 130.210938 174.441406 C 130.277344 174.769531 130.308594 175.101562 130.308594 175.4375 Z M 130.308594 175.4375 " fill-opacity="1" fill-rule="nonzero"/><path fill="#d9d9d9" d="M 146.101562 175.4375 C 146.101562 175.777344 146.066406 176.109375 146.003906 176.4375 C 145.9375 176.769531 145.839844 177.089844 145.710938 177.398438 C 145.582031 177.710938 145.425781 178.003906 145.238281 178.285156 C 145.050781 178.566406 144.839844 178.824219 144.601562 179.0625 C 144.363281 179.300781 144.105469 179.511719 143.824219 179.699219 C 143.542969 179.886719 143.25 180.042969 142.9375 180.171875 C 142.628906 180.300781 142.308594 180.398438 141.976562 180.464844 C 141.648438 180.53125 141.3125 180.5625 140.976562 180.5625 C 140.640625 180.5625 140.308594 180.53125 139.976562 180.464844 C 139.648438 180.398438 139.328125 180.300781 139.015625 180.171875 C 138.707031 180.042969 138.410156 179.886719 138.132812 179.699219 C 137.851562 179.511719 137.59375 179.300781 137.355469 179.0625 C 137.117188 178.824219 136.90625 178.566406 136.71875 178.285156 C 136.53125 178.003906 136.375 177.710938 136.246094 177.398438 C 136.117188 177.089844 136.019531 176.769531 135.953125 176.4375 C 135.886719 176.109375 135.855469 175.777344 135.855469 175.4375 C 135.855469 175.101562 135.886719 174.769531 135.953125 174.441406 C 136.019531 174.109375 136.117188 173.789062 136.246094 173.480469 C 136.375 173.167969 136.53125 172.871094 136.71875 172.59375 C 136.90625 172.3125 137.117188 172.054688 137.355469 171.816406 C 137.59375 171.578125 137.851562 171.367188 138.132812 171.179688 C 138.410156 170.992188 138.707031 170.835938 139.015625 170.707031 C 139.328125 170.578125 139.648438 170.480469 139.976562 170.414062 C 140.308594 170.347656 140.640625 170.316406 140.976562 170.316406 C 141.3125 170.316406 141.648438 170.347656 141.976562 170.414062 C 142.308594 170.480469 142.628906 170.578125 142.9375 170.707031 C 143.25 170.835938 143.542969 170.992188 143.824219 171.179688 C 144.105469 171.367188 144.363281 171.578125 144.601562 171.816406 C 144.839844 172.054688 145.050781 172.3125 145.238281 172.59375 C 145.425781 172.871094 145.582031 173.167969 145.710938 173.480469 C 145.839844 173.789062 145.9375 174.109375 146.003906 174.441406 C 146.066406 174.769531 146.101562 175.101562 146.101562 175.4375 Z M 146.101562 175.4375 " fill-opacity="1" fill-rule="nonzero"/><g clip-path="url(#f968296567)"><path fill="#fffffa" d="M 423.582031 606.238281 C 421.839844 606.238281 420.464844 604.863281 420.464844 603.121094 L 420.464844 318.246094 L 696.839844 318.246094 L 696.839844 603.175781 C 696.839844 604.917969 695.464844 606.289062 693.722656 606.289062 L 423.582031 606.289062 Z M 423.582031 606.238281 " fill-opacity="1" fill-rule="nonzero"/></g><g clip-path="url(#8d700fab3c)"><path fill="#ff6232" d="M 696.257812 318.773438 L 696.257812 603.121094 C 696.257812 604.546875 695.09375 605.65625 693.722656 605.65625 L 423.582031 605.65625 C 422.15625 605.65625 421.046875 604.496094 421.046875 603.121094 L 421.046875 318.773438 L 696.257812 318.773438 M 697.417969 317.664062 L 419.9375 317.664062 L 419.9375 603.121094 C 419.9375 605.128906 421.574219 606.820312 423.636719 606.820312 L 693.773438 606.820312 C 695.78125 606.820312 697.472656 605.179688 697.472656 603.121094 L 697.472656 317.664062 Z M 697.417969 317.664062 " fill-opacity="1" fill-rule="nonzero"/></g><path fill="#ff6232" d="M 693.5625 290.730469 L 423.742188 290.730469 C 421.628906 290.730469 419.886719 292.472656 419.886719 294.585938 L 419.886719 317.664062 L 697.367188 317.664062 L 697.367188 294.585938 C 697.417969 292.472656 695.675781 290.730469 693.5625 290.730469 Z M 693.5625 290.730469 " fill-opacity="1" fill-rule="nonzero"/><g clip-path="url(#233f63c25b)"><g clip-path="url(#cd89926e3c)"><path fill="url(#8d7c170d9a)" d="M 429.761719 299.550781 L 429.761719 309.796875 L 440.007812 309.796875 L 440.007812 299.550781 Z M 429.761719 299.550781 " fill-rule="nonzero"/></g></g><g clip-path="url(#a3ab1e5649)"><g clip-path="url(#788a6adc7e)"><path fill="url(#79b63cbfc7)" d="M 445.550781 299.550781 L 445.550781 309.796875 L 455.796875 309.796875 L 455.796875 299.550781 Z M 445.550781 299.550781 " fill-rule="nonzero"/></g></g><g clip-path="url(#90e2e4b9ba)"><g clip-path="url(#dd082426eb)"><path fill="url(#50aec39782)" d="M 461.34375 299.550781 L 461.34375 309.796875 L 471.589844 309.796875 L 471.589844 299.550781 Z M 461.34375 299.550781 " fill-rule="nonzero"/></g></g><path fill="#e7fe75" d="M 460.445312 342.699219 L 523.980469 342.699219 L 523.980469 362.453125 L 460.445312 362.453125 Z M 460.445312 342.699219 " fill-opacity="1" fill-rule="nonzero"/><path fill="#fffffa" d="M 524.085938 362.609375 L 460.289062 362.609375 L 460.289062 342.539062 L 524.085938 342.539062 Z M 460.550781 362.292969 L 523.769531 362.292969 L 523.769531 342.859375 L 460.550781 342.859375 Z M 460.550781 362.292969 " fill-opacity="1" fill-rule="nonzero"/><path fill="#e7fe75" d="M 526.886719 342.699219 L 590.417969 342.699219 L 590.417969 362.453125 L 526.886719 362.453125 Z M 526.886719 342.699219 " fill-opacity="1" fill-rule="nonzero"/><path fill="#fffffa" d="M 590.523438 362.609375 L 526.726562 362.609375 L 526.726562 342.539062 L 590.523438 342.539062 Z M 526.992188 362.292969 L 590.207031 362.292969 L 590.207031 342.859375 L 526.992188 342.859375 Z M 526.992188 362.292969 " fill-opacity="1" fill-rule="nonzero"/><path fill="#e7fe75" d="M 593.324219 342.699219 L 656.859375 342.699219 L 656.859375 362.453125 L 593.324219 362.453125 Z M 593.324219 342.699219 " fill-opacity="1" fill-rule="nonzero"/><path fill="#fffffa" d="M 656.964844 362.609375 L 593.164062 362.609375 L 593.164062 342.539062 L 656.964844 342.539062 Z M 593.429688 362.292969 L 656.648438 362.292969 L 656.648438 342.859375 L 593.429688 342.859375 Z M 593.429688 362.292969 " fill-opacity="1" fill-rule="nonzero"/><path fill="#e7fe75" d="M 460.445312 366.730469 L 523.980469 366.730469 L 523.980469 386.480469 L 460.445312 386.480469 Z M 460.445312 366.730469 " fill-opacity="1" fill-rule="nonzero"/><path fill="#fffffa" d="M 524.085938 386.640625 L 460.289062 386.640625 L 460.289062 366.570312 L 524.085938 366.570312 Z M 460.550781 386.375 L 523.769531 386.375 L 523.769531 366.886719 L 460.550781 366.886719 Z M 460.550781 386.375 " fill-opacity="1" fill-rule="nonzero"/><path fill="#d9d9d9" d="M 526.886719 366.730469 L 590.417969 366.730469 L 590.417969 386.480469 L 526.886719 386.480469 Z M 526.886719 366.730469 " fill-opacity="1" fill-rule="nonzero"/><path fill="#fffffa" d="M 590.523438 386.640625 L 526.726562 386.640625 L 526.726562 366.570312 L 590.523438 366.570312 Z M 526.992188 386.375 L 590.207031 386.375 L 590.207031 366.886719 L 526.992188 366.886719 Z M 526.992188 386.375 " fill-opacity="1" fill-rule="nonzero"/><path fill="#d9d9d9" d="M 593.324219 366.730469 L 656.859375 366.730469 L 656.859375 386.480469 L 593.324219 386.480469 Z M 593.324219 366.730469 " fill-opacity="1" fill-rule="nonzero"/><path fill="#fffffa" d="M 656.964844 386.640625 L 593.164062 386.640625 L 593.164062 366.570312 L 656.964844 366.570312 Z M 593.429688 386.375 L 656.648438 386.375 L 656.648438 366.886719 L 593.429688 366.886719 Z M 593.429688 386.375 " fill-opacity="1" fill-rule="nonzero"/><path fill="#e7fe75" d="M 460.445312 390.8125 L 523.980469 390.8125 L 523.980469 410.5625 L 460.445312 410.5625 Z M 460.445312 390.8125 " fill-opacity="1" fill-rule="nonzero"/><path fill="#fffffa" d="M 524.085938 410.722656 L 460.289062 410.722656 L 460.289062 390.652344 L 524.085938 390.652344 Z M 460.550781 410.40625 L 523.769531 410.40625 L 523.769531 390.917969 L 460.550781 390.917969 Z M 460.550781 410.40625 " fill-opacity="1" fill-rule="nonzero"/><path fill="#d9d9d9" d="M 526.886719 390.8125 L 590.417969 390.8125 L 590.417969 410.5625 L 526.886719 410.5625 Z M 526.886719 390.8125 " fill-opacity="1" fill-rule="nonzero"/><path fill="#fffffa" d="M 590.523438 410.722656 L 526.726562 410.722656 L 526.726562 390.652344 L 590.523438 390.652344 Z M 526.992188 410.40625 L 590.207031 410.40625 L 590.207031 390.917969 L 526.992188 390.917969 Z M 526.992188 410.40625 " fill-opacity="1" fill-rule="nonzero"/><path fill="#d9d9d9" d="M 593.324219 390.8125 L 656.859375 390.8125 L 656.859375 410.5625 L 593.324219 410.5625 Z M 593.324219 390.8125 " fill-opacity="1" fill-rule="nonzero"/><path fill="#fffffa" d="M 656.964844 410.722656 L 593.164062 410.722656 L 593.164062 390.652344 L 656.964844 390.652344 Z M 593.429688 410.40625 L 656.648438 410.40625 L 656.648438 390.917969 L 593.429688 390.917969 Z M 593.429688 410.40625 " fill-opacity="1" fill-rule="nonzero"/><path fill="#e7fe75" d="M 460.445312 414.84375 L 523.980469 414.84375 L 523.980469 434.59375 L 460.445312 434.59375 Z M 460.445312 414.84375 " fill-opacity="1" fill-rule="nonzero"/><path fill="#fffffa" d="M 524.085938 434.753906 L 460.289062 434.753906 L 460.289062 414.683594 L 524.085938 414.683594 Z M 460.550781 434.488281 L 523.769531 434.488281 L 523.769531 415 L 460.550781 415 Z M 460.550781 434.488281 " fill-opacity="1" fill-rule="nonzero"/><path fill="#d9d9d9" d="M 526.886719 414.84375 L 590.417969 414.84375 L 590.417969 434.59375 L 526.886719 434.59375 Z M 526.886719 414.84375 " fill-opacity="1" fill-rule="nonzero"/><path fill="#fffffa" d="M 590.523438 434.753906 L 526.726562 434.753906 L 526.726562 414.683594 L 590.523438 414.683594 Z M 526.992188 434.488281 L 590.207031 434.488281 L 590.207031 415 L 526.992188 415 Z M 526.992188 434.488281 " fill-opacity="1" fill-rule="nonzero"/><path fill="#d9d9d9" d="M 593.324219 414.84375 L 656.859375 414.84375 L 656.859375 434.59375 L 593.324219 434.59375 Z M 593.324219 414.84375 " fill-opacity="1" fill-rule="nonzero"/><path fill="#fffffa" d="M 656.964844 434.753906 L 593.164062 434.753906 L 593.164062 414.683594 L 656.964844 414.683594 Z M 593.429688 434.488281 L 656.648438 434.488281 L 656.648438 415 L 593.429688 415 Z M 593.429688 434.488281 " fill-opacity="1" fill-rule="nonzero"/><path fill="#e7fe75" d="M 460.445312 438.871094 L 523.980469 438.871094 L 523.980469 458.625 L 460.445312 458.625 Z M 460.445312 438.871094 " fill-opacity="1" fill-rule="nonzero"/><path fill="#fffffa" d="M 524.085938 458.835938 L 460.289062 458.835938 L 460.289062 438.765625 L 524.085938 438.765625 Z M 460.550781 458.519531 L 523.769531 458.519531 L 523.769531 439.03125 L 460.550781 439.03125 Z M 460.550781 458.519531 " fill-opacity="1" fill-rule="nonzero"/><path fill="#d9d9d9" d="M 526.886719 438.871094 L 590.417969 438.871094 L 590.417969 458.625 L 526.886719 458.625 Z M 526.886719 438.871094 " fill-opacity="1" fill-rule="nonzero"/><path fill="#fffffa" d="M 590.523438 458.835938 L 526.726562 458.835938 L 526.726562 438.765625 L 590.523438 438.765625 Z M 526.992188 458.519531 L 590.207031 458.519531 L 590.207031 439.03125 L 526.992188 439.03125 Z M 526.992188 458.519531 " fill-opacity="1" fill-rule="nonzero"/><path fill="#d9d9d9" d="M 593.324219 438.871094 L 656.859375 438.871094 L 656.859375 458.625 L 593.324219 458.625 Z M 593.324219 438.871094 " fill-opacity="1" fill-rule="nonzero"/><path fill="#fffffa" d="M 656.964844 458.835938 L 593.164062 458.835938 L 593.164062 438.765625 L 656.964844 438.765625 Z M 593.429688 458.519531 L 656.648438 458.519531 L 656.648438 439.03125 L 593.429688 439.03125 Z M 593.429688 458.519531 " fill-opacity="1" fill-rule="nonzero"/><path fill="#e7fe75" d="M 460.445312 462.953125 L 523.980469 462.953125 L 523.980469 482.707031 L 460.445312 482.707031 Z M 460.445312 462.953125 " fill-opacity="1" fill-rule="nonzero"/><path fill="#fffffa" d="M 524.085938 482.867188 L 460.289062 482.867188 L 460.289062 462.796875 L 524.085938 462.796875 Z M 460.550781 482.546875 L 523.769531 482.546875 L 523.769531 463.0625 L 460.550781 463.0625 Z M 460.550781 482.546875 " fill-opacity="1" fill-rule="nonzero"/><path fill="#d9d9d9" d="M 526.886719 462.953125 L 590.417969 462.953125 L 590.417969 482.707031 L 526.886719 482.707031 Z M 526.886719 462.953125 " fill-opacity="1" fill-rule="nonzero"/><path fill="#fffffa" d="M 590.523438 482.867188 L 526.726562 482.867188 L 526.726562 462.796875 L 590.523438 462.796875 Z M 526.992188 482.546875 L 590.207031 482.546875 L 590.207031 463.0625 L 526.992188 463.0625 Z M 526.992188 482.546875 " fill-opacity="1" fill-rule="nonzero"/><path fill="#d9d9d9" d="M 593.324219 462.953125 L 656.859375 462.953125 L 656.859375 482.707031 L 593.324219 482.707031 Z M 593.324219 462.953125 " fill-opacity="1" fill-rule="nonzero"/><path fill="#fffffa" d="M 656.964844 482.867188 L 593.164062 482.867188 L 593.164062 462.796875 L 656.964844 462.796875 Z M 593.429688 482.546875 L 656.648438 482.546875 L 656.648438 463.0625 L 593.429688 463.0625 Z M 593.429688 482.546875 " fill-opacity="1" fill-rule="nonzero"/><path fill="#e7fe75" d="M 460.445312 486.984375 L 523.980469 486.984375 L 523.980469 506.738281 L 460.445312 506.738281 Z M 460.445312 486.984375 " fill-opacity="1" fill-rule="nonzero"/><path fill="#fffffa" d="M 524.085938 506.894531 L 460.289062 506.894531 L 460.289062 486.828125 L 524.085938 486.828125 Z M 460.550781 506.632812 L 523.769531 506.632812 L 523.769531 487.144531 L 460.550781 487.144531 Z M 460.550781 506.632812 " fill-opacity="1" fill-rule="nonzero"/><path fill="#d9d9d9" d="M 526.886719 486.984375 L 590.417969 486.984375 L 590.417969 506.738281 L 526.886719 506.738281 Z M 526.886719 486.984375 " fill-opacity="1" fill-rule="nonzero"/><path fill="#fffffa" d="M 590.523438 506.894531 L 526.726562 506.894531 L 526.726562 486.828125 L 590.523438 486.828125 Z M 526.992188 506.632812 L 590.207031 506.632812 L 590.207031 487.144531 L 526.992188 487.144531 Z M 526.992188 506.632812 " fill-opacity="1" fill-rule="nonzero"/><path fill="#d9d9d9" d="M 593.324219 486.984375 L 656.859375 486.984375 L 656.859375 506.738281 L 593.324219 506.738281 Z M 593.324219 486.984375 " fill-opacity="1" fill-rule="nonzero"/><path fill="#fffffa" d="M 656.964844 506.894531 L 593.164062 506.894531 L 593.164062 486.828125 L 656.964844 486.828125 Z M 593.429688 506.632812 L 656.648438 506.632812 L 656.648438 487.144531 L 593.429688 487.144531 Z M 593.429688 506.632812 " fill-opacity="1" fill-rule="nonzero"/><path fill="#e7fe75" d="M 460.445312 511.066406 L 523.980469 511.066406 L 523.980469 530.820312 L 460.445312 530.820312 Z M 460.445312 511.066406 " fill-opacity="1" fill-rule="nonzero"/><path fill="#fffffa" d="M 524.085938 530.980469 L 460.289062 530.980469 L 460.289062 510.910156 L 524.085938 510.910156 Z M 460.550781 530.660156 L 523.769531 530.660156 L 523.769531 511.171875 L 460.550781 511.171875 Z M 460.550781 530.660156 " fill-opacity="1" fill-rule="nonzero"/><path fill="#d9d9d9" d="M 526.886719 511.066406 L 590.417969 511.066406 L 590.417969 530.820312 L 526.886719 530.820312 Z M 526.886719 511.066406 " fill-opacity="1" fill-rule="nonzero"/><path fill="#fffffa" d="M 590.523438 530.980469 L 526.726562 530.980469 L 526.726562 510.910156 L 590.523438 510.910156 Z M 526.992188 530.660156 L 590.207031 530.660156 L 590.207031 511.171875 L 526.992188 511.171875 Z M 526.992188 530.660156 " fill-opacity="1" fill-rule="nonzero"/><path fill="#d9d9d9" d="M 593.324219 511.066406 L 656.859375 511.066406 L 656.859375 530.820312 L 593.324219 530.820312 Z M 593.324219 511.066406 " fill-opacity="1" fill-rule="nonzero"/><path fill="#fffffa" d="M 656.964844 530.980469 L 593.164062 530.980469 L 593.164062 510.910156 L 656.964844 510.910156 Z M 593.429688 530.660156 L 656.648438 530.660156 L 656.648438 511.171875 L 593.429688 511.171875 Z M 593.429688 530.660156 " fill-opacity="1" fill-rule="nonzero"/><path fill="#e7fe75" d="M 460.445312 535.097656 L 523.980469 535.097656 L 523.980469 554.851562 L 460.445312 554.851562 Z M 460.445312 535.097656 " fill-opacity="1" fill-rule="nonzero"/><path fill="#fffffa" d="M 524.085938 555.007812 L 460.289062 555.007812 L 460.289062 534.941406 L 524.085938 534.941406 Z M 460.550781 554.746094 L 523.769531 554.746094 L 523.769531 535.257812 L 460.550781 535.257812 Z M 460.550781 554.746094 " fill-opacity="1" fill-rule="nonzero"/><path fill="#d9d9d9" d="M 526.886719 535.097656 L 590.417969 535.097656 L 590.417969 554.851562 L 526.886719 554.851562 Z M 526.886719 535.097656 " fill-opacity="1" fill-rule="nonzero"/><path fill="#fffffa" d="M 590.523438 555.007812 L 526.726562 555.007812 L 526.726562 534.941406 L 590.523438 534.941406 Z M 526.992188 554.746094 L 590.207031 554.746094 L 590.207031 535.257812 L 526.992188 535.257812 Z M 526.992188 554.746094 " fill-opacity="1" fill-rule="nonzero"/><path fill="#d9d9d9" d="M 593.324219 535.097656 L 656.859375 535.097656 L 656.859375 554.851562 L 593.324219 554.851562 Z M 593.324219 535.097656 " fill-opacity="1" fill-rule="nonzero"/><path fill="#fffffa" d="M 656.964844 555.007812 L 593.164062 555.007812 L 593.164062 534.941406 L 656.964844 534.941406 Z M 593.429688 554.746094 L 656.648438 554.746094 L 656.648438 535.257812 L 593.429688 535.257812 Z M 593.429688 554.746094 " fill-opacity="1" fill-rule="nonzero"/><path fill="#e7fe75" d="M 460.445312 559.128906 L 523.980469 559.128906 L 523.980469 578.878906 L 460.445312 578.878906 Z M 460.445312 559.128906 " fill-opacity="1" fill-rule="nonzero"/><path fill="#fffffa" d="M 524.085938 579.039062 L 460.289062 579.039062 L 460.289062 558.96875 L 524.085938 558.96875 Z M 460.550781 578.773438 L 523.769531 578.773438 L 523.769531 559.285156 L 460.550781 559.285156 Z M 460.550781 578.773438 " fill-opacity="1" fill-rule="nonzero"/><path fill="#d9d9d9" d="M 526.886719 559.128906 L 590.417969 559.128906 L 590.417969 578.878906 L 526.886719 578.878906 Z M 526.886719 559.128906 " fill-opacity="1" fill-rule="nonzero"/><path fill="#fffffa" d="M 590.523438 579.039062 L 526.726562 579.039062 L 526.726562 558.96875 L 590.523438 558.96875 Z M 526.992188 578.773438 L 590.207031 578.773438 L 590.207031 559.285156 L 526.992188 559.285156 Z M 526.992188 578.773438 " fill-opacity="1" fill-rule="nonzero"/><path fill="#d9d9d9" d="M 593.324219 559.128906 L 656.859375 559.128906 L 656.859375 578.878906 L 593.324219 578.878906 Z M 593.324219 559.128906 " fill-opacity="1" fill-rule="nonzero"/><path fill="#fffffa" d="M 656.964844 579.039062 L 593.164062 579.039062 L 593.164062 558.96875 L 656.964844 558.96875 Z M 593.429688 578.773438 L 656.648438 578.773438 L 656.648438 559.285156 L 593.429688 559.285156 Z M 593.429688 578.773438 " fill-opacity="1" fill-rule="nonzero"/><g clip-path="url(#3424f59e45)"><path fill="#ff6232" d="M 753.402344 525.910156 L 753.191406 525.695312 L 706.871094 488.886719 C 706.609375 488.675781 706.292969 488.464844 706.027344 488.253906 C 708.246094 484.820312 710.09375 481.121094 711.519531 477.265625 C 714.320312 469.925781 715.640625 462.269531 715.429688 454.398438 C 715.269531 446.53125 713.578125 438.925781 710.464844 431.742188 C 707.242188 424.296875 702.648438 417.640625 696.734375 412.042969 C 685.429688 401.214844 670.589844 395.300781 654.957031 395.300781 C 646.875 395.300781 639.007812 396.886719 631.5625 400 C 623.851562 403.222656 616.984375 407.921875 611.175781 413.996094 C 605.523438 419.914062 601.246094 426.726562 598.339844 434.332031 C 595.542969 441.671875 594.222656 449.328125 594.433594 457.199219 C 594.589844 465.066406 596.28125 472.671875 599.398438 479.855469 C 602.621094 487.300781 607.214844 493.957031 613.128906 499.554688 C 624.429688 510.382812 639.273438 516.296875 654.90625 516.296875 C 662.984375 516.296875 670.855469 514.710938 678.300781 511.597656 C 682.101562 510.011719 685.640625 508.058594 689.023438 505.785156 C 689.285156 506.210938 689.65625 506.578125 689.972656 506.949219 L 730.375 549.570312 L 730.640625 549.78125 C 733.542969 552.421875 737.242188 553.6875 740.988281 553.6875 C 745.320312 553.6875 749.757812 551.945312 753.191406 548.566406 C 756.464844 545.289062 758.3125 540.90625 758.207031 536.472656 C 758.101562 532.40625 756.410156 528.65625 753.402344 525.910156 Z M 654.957031 498.179688 C 644.449219 498.179688 633.882812 494.273438 625.644531 486.457031 C 608.746094 470.296875 608.113281 443.46875 624.273438 426.515625 C 632.617188 417.800781 643.761719 413.417969 654.90625 413.417969 C 665.414062 413.417969 675.976562 417.324219 684.214844 425.140625 C 701.117188 441.300781 701.75 468.128906 685.589844 485.082031 C 677.296875 493.796875 666.152344 498.179688 654.957031 498.179688 Z M 654.957031 498.179688 " fill-opacity="1" fill-rule="nonzero"/></g></svg>