<svg width="6291" height="6291" viewBox="0 0 6291 6291" fill="none" xmlns="http://www.w3.org/2000/svg">
<mask id="mask0_4510_10374" style="mask-type:luminance" maskUnits="userSpaceOnUse" x="188" y="206" width="5915" height="5922">
<path d="M188.398 206.77H6102.59V6127.17H188.398V206.77Z" fill="white"/>
</mask>
<g mask="url(#mask0_4510_10374)">
<path d="M6102.14 3163.45C6102.14 3211.86 6100.96 3260.21 6098.59 3308.53C6096.22 3356.88 6092.67 3405.1 6087.94 3453.25C6083.17 3501.41 6077.25 3549.44 6070.15 3597.31C6063.04 3645.18 6054.79 3692.82 6045.35 3740.27C6035.91 3787.73 6025.32 3834.92 6013.54 3881.86C6001.8 3928.8 5988.9 3975.42 5974.86 4021.73C5960.81 4068.06 5945.61 4113.97 5929.32 4159.54C5913.01 4205.1 5895.6 4250.22 5877.1 4294.92C5858.58 4339.65 5838.96 4383.88 5818.29 4427.62C5797.59 4471.36 5775.83 4514.55 5753.05 4557.24C5730.23 4599.89 5706.4 4642 5681.5 4683.5C5656.64 4725 5630.75 4765.86 5603.88 4806.12C5577 4846.34 5549.13 4885.89 5520.3 4924.76C5491.47 4963.61 5461.71 5001.75 5431.02 5039.16C5400.34 5076.56 5368.73 5113.2 5336.25 5149.04C5303.74 5184.9 5270.4 5219.94 5236.16 5254.15C5201.95 5288.35 5166.92 5321.73 5131.08 5354.2C5095.21 5386.71 5058.57 5418.3 5021.17 5449.01C4983.76 5479.7 4945.65 5509.46 4906.77 5538.29C4867.9 5567.12 4828.35 5594.96 4788.13 5621.87C4747.87 5648.74 4707.01 5674.63 4665.51 5699.49C4624.01 5724.35 4581.93 5748.22 4539.25 5771.01C4496.56 5793.82 4453.37 5815.58 4409.63 5836.28C4365.89 5856.95 4321.67 5876.57 4276.96 5895.09C4232.23 5913.59 4187.11 5930.99 4141.55 5947.31C4095.99 5963.6 4050.07 5978.77 4003.77 5992.81C3957.47 6006.86 3910.85 6019.79 3863.91 6031.53C3816.97 6043.31 3769.77 6053.9 3722.28 6063.34C3674.83 6072.78 3627.19 6081.03 3579.32 6088.14C3531.45 6095.24 3483.45 6101.16 3435.3 6105.89C3387.14 6110.66 3338.89 6114.21 3290.57 6116.58C3242.22 6118.95 3193.87 6120.13 3145.49 6120.13C3097.08 6120.13 3048.73 6118.95 3000.42 6116.58C2952.07 6114.21 2903.82 6110.66 2855.66 6105.89C2807.5 6101.16 2759.51 6095.24 2711.64 6088.14C2663.77 6081.03 2616.12 6072.78 2568.67 6063.34C2521.19 6053.9 2473.99 6043.31 2427.05 6031.53C2380.14 6019.79 2333.49 6006.86 2287.19 5992.81C2240.89 5978.77 2194.97 5963.6 2149.41 5947.31C2103.84 5930.99 2058.72 5913.59 2013.99 5895.09C1969.29 5876.57 1925.07 5856.95 1881.33 5836.28C1837.59 5815.58 1794.39 5793.82 1751.71 5771.01C1709.02 5748.22 1666.95 5724.35 1625.44 5699.49C1583.94 5674.63 1543.08 5648.74 1502.83 5621.87C1462.61 5594.96 1423.06 5567.12 1384.18 5538.29C1345.3 5509.46 1307.2 5479.7 1269.79 5449.01C1232.38 5418.3 1195.75 5386.71 1159.88 5354.2C1124.04 5321.73 1089 5288.35 1054.8 5254.15C1020.56 5219.94 987.219 5184.9 954.709 5149.04C922.231 5113.2 890.618 5076.56 859.932 5039.16C829.246 5001.75 799.488 4963.61 770.658 4924.76C741.828 4885.89 713.958 4846.34 687.08 4806.12C660.202 4765.86 634.316 4725 609.454 4683.5C584.56 4642 560.722 4599.89 537.907 4557.24C515.125 4514.55 493.366 4471.36 472.664 4427.62C451.993 4383.88 432.379 4339.65 413.852 4294.92C395.358 4250.22 377.951 4205.1 361.632 4159.54C345.345 4113.97 330.146 4068.06 316.099 4021.73C302.052 3975.42 289.157 3928.8 277.414 3881.86C265.639 3834.92 255.048 3787.73 245.608 3740.27C236.169 3692.82 227.914 3645.18 220.81 3597.31C213.707 3549.44 207.787 3501.41 203.051 3453.25C198.284 3405.1 194.732 3356.88 192.364 3308.53C189.996 3260.21 188.812 3211.86 188.812 3163.45C188.812 3115.07 189.996 3066.72 192.364 3018.37C194.732 2970.06 198.284 2921.8 203.051 2873.65C207.787 2825.49 213.707 2777.5 220.81 2729.63C227.914 2681.76 236.169 2634.11 245.608 2586.63C255.048 2539.18 265.639 2491.98 277.414 2445.04C289.157 2398.1 302.052 2351.48 316.099 2305.18C330.146 2258.88 345.345 2212.96 361.632 2167.4C377.951 2121.83 395.358 2076.68 413.852 2031.98C432.379 1987.28 451.993 1943.06 472.664 1899.32C493.366 1855.58 515.125 1812.38 537.907 1769.7C560.722 1727.01 584.56 1684.93 609.454 1643.43C634.316 1601.93 660.202 1561.04 687.08 1520.82C713.958 1480.6 741.828 1441.05 770.658 1402.17C799.488 1363.29 829.246 1325.18 859.932 1287.78C890.618 1250.37 922.231 1213.74 954.709 1177.87C987.219 1142.03 1020.56 1106.99 1054.8 1072.79C1089 1038.55 1124.04 1005.21 1159.88 972.698C1195.75 940.22 1232.38 908.607 1269.79 877.921C1307.2 847.235 1345.3 817.445 1384.18 788.647C1423.06 759.817 1462.61 731.947 1502.83 705.069C1543.08 678.191 1583.94 652.305 1625.44 627.443C1666.95 602.549 1709.02 578.711 1751.71 555.896C1794.39 533.082 1837.59 511.355 1881.33 490.653C1925.07 469.95 1969.29 450.368 2013.99 431.841C2058.72 413.315 2103.84 395.908 2149.41 379.621C2194.97 363.302 2240.89 348.135 2287.19 334.088C2333.49 320.041 2380.11 307.146 2427.05 295.403C2473.99 283.628 2521.19 273.037 2568.67 263.597C2616.12 254.158 2663.77 245.871 2711.64 238.799C2759.51 231.696 2807.5 225.776 2855.66 221.008C2903.82 216.273 2952.07 212.721 3000.42 210.353C3048.73 207.953 3097.08 206.77 3145.49 206.77C3193.87 206.77 3242.22 207.953 3290.57 210.353C3338.89 212.721 3387.14 216.273 3435.3 221.008C3483.45 225.776 3531.45 231.696 3579.32 238.799C3627.19 245.871 3674.83 254.158 3722.28 263.597C3769.77 273.037 3816.97 283.628 3863.91 295.403C3910.85 307.146 3957.47 320.041 4003.77 334.088C4050.07 348.135 4095.99 363.302 4141.55 379.621C4187.11 395.908 4232.23 413.315 4276.96 431.841C4321.67 450.368 4365.89 469.95 4409.63 490.653C4453.37 511.355 4496.56 533.082 4539.25 555.896C4581.93 578.711 4624.01 602.549 4665.51 627.443C4707.01 652.305 4747.87 678.191 4788.13 705.069C4828.35 731.947 4867.9 759.817 4906.77 788.647C4945.65 817.445 4983.76 847.235 5021.17 877.921C5058.57 908.607 5095.21 940.22 5131.08 972.698C5166.92 1005.21 5201.95 1038.55 5236.16 1072.79C5270.4 1106.99 5303.74 1142.03 5336.25 1177.87C5368.73 1213.74 5400.34 1250.37 5431.02 1287.78C5461.71 1325.18 5491.47 1363.29 5520.3 1402.17C5549.13 1441.05 5577 1480.6 5603.88 1520.82C5630.75 1561.04 5656.64 1601.93 5681.5 1643.43C5706.4 1684.93 5730.23 1727.01 5753.05 1769.7C5775.86 1812.38 5797.59 1855.58 5818.29 1899.32C5838.96 1943.06 5858.58 1987.28 5877.1 2031.98C5895.6 2076.68 5913.04 2121.83 5929.32 2167.4C5945.61 2212.96 5960.81 2258.88 5974.86 2305.18C5988.9 2351.48 6001.8 2398.1 6013.54 2445.04C6025.32 2491.98 6035.91 2539.18 6045.35 2586.63C6054.79 2634.11 6063.04 2681.76 6070.15 2729.63C6077.25 2777.5 6083.17 2825.49 6087.94 2873.65C6092.67 2921.8 6096.22 2970.06 6098.59 3018.37C6100.96 3066.72 6102.14 3115.07 6102.14 3163.45Z" fill="#FF6232"/>
</g>
<path d="M3883.46 822.371L3440.68 821.155C3413.06 821.155 3390.28 845.153 3390.28 876.351C3390.28 948.346 3337.48 1005.94 3271.47 1005.94L2273.11 1003.54C2208.32 1003.54 2155.52 944.762 2155.52 873.951C2155.52 843.969 2132.74 818.755 2105.12 818.755L1676.74 816.355C1538.73 816.355 1427.16 938.747 1427.16 1089.94L1412.76 5908.95C1412.76 6061.35 1535.15 6184.93 1687.55 6186.14L3831.85 6192.13C3989.05 6192.13 4117.43 6064.94 4117.43 5907.76L4131.86 1097.14C4133.04 945.946 4021.43 822.371 3883.46 822.371Z" fill="#333330"/>
<path d="M4009.44 822.374L3566.66 821.158C3539.07 821.158 3516.26 845.156 3516.26 876.354C3516.26 948.349 3463.46 1005.94 3397.48 1005.94L2399.12 1003.54C2334.33 1003.54 2281.53 944.765 2281.53 873.954C2281.53 843.972 2258.72 818.758 2231.14 818.758L1801.54 817.574C1663.56 817.574 1551.95 939.965 1551.95 1091.15L1537.55 5911.35C1537.55 6063.75 1659.95 6187.33 1812.35 6188.54L3956.64 6194.53C4113.85 6194.53 4242.25 6067.34 4242.25 5910.17L4256.65 1099.54C4257.84 945.949 4146.26 823.558 4009.44 822.374Z" fill="#FBF8EF"/>
<mask id="mask1_4510_10374" style="mask-type:luminance" maskUnits="userSpaceOnUse" x="1515" y="802" width="2761" height="5408">
<path d="M1515.41 802.758H4275.91V6209.02H1515.41V802.758Z" fill="white"/>
</mask>
<g mask="url(#mask1_4510_10374)">
<path d="M3957.85 6206.53L1812.34 6200.54C1734.33 6200.54 1662.34 6170.53 1607.14 6115.33C1553.13 6060.14 1523.15 5988.14 1523.15 5910.16L1537.55 1089.94C1537.55 931.547 1656.35 803.141 1801.53 803.141C1801.53 803.141 1801.53 803.141 1802.74 803.141L2232.31 804.357C2268.31 804.357 2295.92 835.554 2295.92 873.951C2295.92 937.563 2342.71 990.359 2399.12 990.359L3397.48 992.759C3425.06 992.759 3450.27 980.76 3470.66 959.161C3491.07 937.563 3501.85 907.549 3501.85 876.351C3501.85 837.954 3530.65 806.756 3566.65 806.756L4009.43 807.94C4154.64 807.94 4272.23 937.563 4272.23 1097.14L4257.83 5907.76C4256.65 6073.35 4123.44 6206.53 3957.85 6206.53ZM1801.53 830.755C1671.94 830.755 1566.35 947.162 1566.35 1089.94L1551.95 5910.16C1551.95 5979.76 1578.34 6045.74 1627.56 6094.95C1676.74 6144.13 1742.75 6171.74 1812.34 6171.74L3956.64 6177.73C3956.64 6177.73 3956.64 6177.73 3957.85 6177.73C4106.64 6177.73 4229.03 6056.55 4229.03 5907.76L4243.43 1097.14C4243.43 954.362 4139.05 836.77 4009.43 836.77L3566.65 835.554C3546.27 835.554 3530.65 853.569 3530.65 876.351C3530.65 914.749 3517.47 950.746 3492.25 977.144C3467.07 1004.76 3434.66 1019.16 3398.66 1019.16L2400.3 1016.76C2327.12 1016.76 2268.31 951.962 2268.31 872.768C2268.31 849.953 2252.73 831.971 2232.31 831.971L1801.53 830.755Z" fill="#333330"/>
</g>
<path d="M2101.51 1417.53C2101.51 1423.87 2101.22 1430.17 2100.58 1436.47C2099.98 1442.78 2099.05 1449.02 2097.8 1455.22C2096.58 1461.43 2095.05 1467.57 2093.19 1473.62C2091.37 1479.67 2089.26 1485.62 2086.83 1491.48C2084.39 1497.3 2081.71 1503.03 2078.73 1508.6C2075.72 1514.2 2072.49 1519.6 2068.97 1524.85C2065.45 1530.13 2061.68 1535.22 2057.68 1540.08C2053.68 1544.98 2049.42 1549.68 2044.94 1554.13C2040.46 1558.61 2035.79 1562.86 2030.89 1566.86C2026 1570.9 2020.94 1574.64 2015.66 1578.16C2010.42 1581.68 2004.98 1584.94 1999.41 1587.92C1993.84 1590.89 1988.11 1593.61 1982.26 1596.01C1976.43 1598.45 1970.48 1600.56 1964.4 1602.41C1958.35 1604.24 1952.24 1605.77 1946.04 1607.02C1939.83 1608.24 1933.56 1609.16 1927.29 1609.8C1920.98 1610.41 1914.68 1610.73 1908.34 1610.73C1902.01 1610.73 1895.7 1610.41 1889.4 1609.8C1883.1 1609.16 1876.86 1608.24 1870.65 1607.02C1864.44 1605.77 1858.3 1604.24 1852.25 1602.41C1846.2 1600.56 1840.25 1598.45 1834.4 1596.01C1828.57 1593.61 1822.84 1590.89 1817.28 1587.92C1811.68 1584.94 1806.27 1581.68 1800.99 1578.16C1795.74 1574.64 1790.66 1570.9 1785.79 1566.86C1780.9 1562.86 1776.19 1558.61 1771.71 1554.13C1767.26 1549.68 1763.01 1544.98 1759.01 1540.08C1754.98 1535.22 1751.2 1530.13 1747.71 1524.85C1744.19 1519.6 1740.93 1514.2 1737.95 1508.6C1734.98 1503.03 1732.26 1497.3 1729.86 1491.48C1727.43 1485.62 1725.28 1479.67 1723.46 1473.62C1721.64 1467.57 1720.1 1461.43 1718.85 1455.22C1717.64 1449.02 1716.71 1442.78 1716.07 1436.47C1715.46 1430.17 1715.14 1423.87 1715.14 1417.53C1715.14 1411.19 1715.46 1404.89 1716.07 1398.59C1716.71 1392.32 1717.64 1386.04 1718.85 1379.84C1720.1 1373.63 1721.64 1367.52 1723.46 1361.44C1725.28 1355.39 1727.43 1349.44 1729.86 1343.62C1732.26 1337.76 1734.98 1332.03 1737.95 1326.46C1740.93 1320.9 1744.19 1315.46 1747.71 1310.21C1751.2 1304.93 1754.98 1299.87 1759.01 1294.98C1763.01 1290.08 1767.26 1285.41 1771.71 1280.93C1776.19 1276.45 1780.9 1272.2 1785.79 1268.2C1790.66 1264.17 1795.74 1260.42 1800.99 1256.9C1806.27 1253.38 1811.68 1250.15 1817.28 1247.14C1822.84 1244.17 1828.57 1241.48 1834.4 1239.05C1840.25 1236.62 1846.2 1234.5 1852.25 1232.65C1858.3 1230.82 1864.44 1229.29 1870.65 1228.04C1876.86 1226.82 1883.1 1225.9 1889.4 1225.26C1895.7 1224.65 1902.01 1224.33 1908.34 1224.33C1914.68 1224.33 1920.98 1224.65 1927.29 1225.26C1933.56 1225.9 1939.83 1226.82 1946.04 1228.04C1952.24 1229.29 1958.35 1230.82 1964.4 1232.65C1970.48 1234.5 1976.43 1236.62 1982.26 1239.05C1988.11 1241.48 1993.84 1244.17 1999.41 1247.14C2004.98 1250.15 2010.42 1253.38 2015.66 1256.9C2020.94 1260.42 2026 1264.17 2030.89 1268.2C2035.79 1272.2 2040.46 1276.45 2044.94 1280.93C2049.42 1285.41 2053.68 1290.08 2057.68 1294.98C2061.68 1299.87 2065.45 1304.93 2068.97 1310.21C2072.49 1315.46 2075.72 1320.9 2078.73 1326.46C2081.71 1332.03 2084.39 1337.76 2086.83 1343.62C2089.26 1349.44 2091.37 1355.39 2093.23 1361.44C2095.05 1367.52 2096.58 1373.63 2097.8 1379.84C2099.05 1386.04 2099.98 1392.32 2100.58 1398.59C2101.22 1404.89 2101.51 1411.19 2101.51 1417.53Z" fill="#333330"/>
<path d="M1794.33 5068.98C1746.33 5068.98 1707.94 5030.58 1707.94 4982.58V1910.71C1707.94 1862.71 1746.33 1824.32 1794.33 1824.32H4002.24C4050.23 1824.32 4088.63 1862.71 4088.63 1910.71V4982.58C4088.63 5030.58 4050.23 5068.98 4002.24 5068.98H1794.33Z" fill="#FFFFFA"/>
<path d="M4002.24 1831.52C4046.65 1831.52 4081.43 1867.51 4081.43 1910.71V4982.58C4081.43 5027 4045.44 5061.78 4002.24 5061.78H1794.34C1749.95 5061.78 1715.14 5025.78 1715.14 4982.58V1910.71C1715.14 1866.33 1751.14 1831.52 1794.34 1831.52H4002.24ZM4002.24 1817.12H1794.34C1742.76 1817.12 1700.74 1859.13 1700.74 1910.71V4982.58C1700.74 5034.2 1742.76 5076.18 1794.34 5076.18H4002.24C4053.85 5076.18 4095.83 5034.2 4095.83 4982.58V1910.71C4095.83 1859.13 4053.85 1817.12 4002.24 1817.12Z" fill="#333330"/>
<path d="M1823.13 5514.16C1818.33 5514.16 1813.53 5512.98 1808.73 5509.36C1739.14 5462.58 1703.14 5418.17 1699.55 5376.18V5361.79C1703.14 5318.56 1734.34 5295.77 1760.73 5293.38C1764.35 5293.38 1767.93 5293.38 1771.55 5293.38C1796.73 5293.38 1811.13 5301.76 1821.95 5312.57C1832.73 5301.76 1848.34 5293.38 1872.34 5293.38C1875.93 5293.38 1879.54 5293.38 1883.13 5293.38C1910.74 5295.77 1940.72 5318.56 1944.34 5361.79V5376.18C1940.72 5419.38 1904.72 5462.58 1835.13 5509.36C1832.73 5512.98 1827.93 5514.16 1823.13 5514.16ZM1710.34 5376.18C1713.95 5414.58 1747.55 5456.56 1814.75 5500.98C1817.15 5502.16 1819.55 5503.38 1821.95 5503.38C1824.35 5503.38 1826.75 5502.16 1829.15 5500.98C1896.34 5456.56 1929.94 5415.77 1933.52 5376.18V5364.19C1929.94 5328.16 1904.72 5308.96 1881.94 5306.56C1878.33 5306.56 1874.74 5306.56 1872.34 5306.56C1849.53 5306.56 1837.53 5314.97 1825.53 5326.97L1820.73 5331.77L1815.93 5326.97C1803.93 5314.97 1791.93 5306.56 1769.15 5306.56C1765.53 5306.56 1761.95 5306.56 1759.55 5306.56C1736.74 5308.96 1711.55 5326.97 1709.15 5362.97L1710.34 5376.18Z" fill="#333330"/>
<path d="M2299.52 5510.58C2298.33 5510.58 2297.12 5510.58 2295.93 5510.58L2217.92 5494.96C2214.34 5494.96 2210.72 5496.18 2207.14 5496.18C2202.34 5497.36 2196.32 5497.36 2190.34 5497.36C2157.93 5498.58 2127.95 5487.76 2106.31 5468.56C2085.93 5450.58 2075.12 5425.37 2075.12 5398.97C2075.12 5383.39 2079.92 5367.77 2088.33 5353.37C2089.52 5350.97 2090.73 5349.79 2093.13 5347.39L2094.32 5346.17C2115.91 5317.37 2155.53 5299.36 2197.54 5299.36C2264.74 5299.36 2319.93 5343.77 2319.93 5397.78C2319.93 5416.98 2312.73 5434.97 2300.73 5450.58L2316.32 5487.76C2318.72 5492.56 2317.53 5499.76 2313.92 5503.38C2309.12 5508.18 2304.32 5510.58 2299.52 5510.58ZM2219.14 5482.96L2298.33 5498.58C2299.52 5498.58 2301.92 5498.58 2301.92 5497.36C2303.13 5496.18 2303.13 5494.96 2303.13 5493.78L2285.12 5450.58L2287.52 5448.18C2299.52 5433.78 2306.72 5416.98 2306.72 5400.18C2306.72 5352.19 2257.54 5312.57 2196.32 5312.57C2157.93 5312.57 2121.93 5328.16 2102.73 5354.59L2101.52 5355.77C2099.12 5358.17 2099.12 5359.39 2097.93 5361.79C2090.73 5373.79 2085.93 5386.97 2085.93 5400.18C2085.93 5422.97 2095.53 5444.56 2113.51 5461.36C2132.75 5478.16 2159.14 5487.76 2189.12 5486.58C2193.92 5486.58 2199.94 5485.36 2204.74 5485.36C2210.72 5484.18 2214.34 5482.96 2219.14 5482.96Z" fill="#333330"/>
<path d="M2455.5 5530.96L2453.1 5493.78C2451.92 5461.36 2460.3 5434.96 2479.5 5410.97C2501.1 5385.78 2529.9 5366.59 2569.51 5354.59C2574.31 5353.37 2577.89 5352.19 2582.69 5350.97C2582.69 5343.77 2582.69 5336.57 2582.69 5328.19V5286.18L2700.32 5400.18L2585.09 5511.76L2582.69 5482.96C2582.69 5482.96 2582.69 5480.56 2582.69 5479.38C2582.69 5469.78 2582.69 5461.36 2582.69 5451.76C2561.09 5449.36 2543.11 5451.76 2525.1 5458.96C2507.11 5466.16 2492.71 5478.16 2479.5 5496.18C2479.5 5497.36 2478.32 5497.36 2477.1 5498.58L2455.5 5530.96ZM2595.91 5313.76V5328.19C2595.91 5337.79 2595.91 5346.17 2595.91 5355.77V5360.57L2591.11 5361.79C2585.09 5362.97 2579.11 5364.19 2574.31 5366.59C2537.1 5378.59 2509.51 5395.38 2490.32 5419.38C2472.3 5440.98 2465.1 5464.98 2466.32 5493.78V5497.36L2469.9 5491.38C2471.12 5490.16 2471.12 5490.16 2472.3 5488.98C2486.7 5469.78 2502.31 5455.38 2522.7 5448.18C2543.11 5439.76 2564.71 5437.36 2591.11 5440.98L2595.91 5442.16V5446.96C2595.91 5457.78 2595.91 5468.56 2595.91 5479.38C2595.91 5480.56 2595.91 5481.78 2595.91 5481.78V5485.36L2684.7 5398.97L2595.91 5313.76Z" fill="#333330"/>
<path d="M4075.45 5530.96C4074.24 5530.96 4073.05 5530.96 4071.84 5529.77L3990.24 5474.58C3989.06 5474.58 3987.84 5474.58 3987.84 5474.58L3907.46 5529.77C3905.06 5530.96 3902.66 5530.96 3900.26 5529.77C3897.86 5528.56 3896.65 5526.16 3896.65 5523.76V5319.77C3896.65 5305.37 3908.65 5293.38 3923.05 5293.38H4057.44C4071.84 5293.38 4083.83 5305.37 4083.83 5319.77V5523.76C4083.83 5526.16 4082.65 5528.56 4080.25 5529.77C4077.85 5530.96 4076.64 5530.96 4075.45 5530.96ZM3987.84 5463.76C3990.24 5463.76 3993.86 5464.98 3996.26 5466.16L4070.65 5516.56V5320.99C4070.65 5312.57 4063.45 5306.56 4056.25 5306.56H3921.86C3913.45 5306.56 3907.46 5313.76 3907.46 5320.99V5515.37L3980.64 5466.16C3983.04 5463.76 3985.44 5463.76 3987.84 5463.76Z" fill="#333330"/>
<path d="M2250.34 1357.54H3564.26V1370.75H2250.34V1357.54Z" fill="#333330"/>
<path d="M2250.34 1477.52H4031.04V1490.74H2250.34V1477.52Z" fill="#333330"/>
<path d="M1707.94 5678.56H4076.63V5691.75H1707.94V5678.56Z" fill="#333330"/>
<path d="M1707.94 5809.34H3204.28V5822.55H1707.94V5809.34Z" fill="#333330"/>
<path d="M2304.31 4049.02L1140.36 4046.62C1123.57 4046.62 1112.75 4065.82 1117.55 4085.01L1347.97 4713.8C1350.37 4722.18 1352.77 4729.38 1356.35 4736.58C1357.57 4741.38 1361.15 4746.18 1367.16 4749.8C1374.36 4755.78 1381.56 4760.58 1391.16 4761.8C1448.76 4784.58 1573.55 4800.19 1718.75 4801.38C1862.74 4801.38 1987.54 4785.8 2046.32 4764.2C2054.73 4762.98 2063.11 4758.18 2070.31 4752.2C2076.33 4747.4 2079.91 4743.78 2081.13 4738.98C2084.71 4733 2088.33 4724.58 2090.73 4716.2L2328.31 4088.63C2331.93 4069.43 2321.11 4049.02 2304.31 4049.02Z" fill="#FCFF55"/>
<path d="M1723.56 4810.98C1722.34 4810.98 1719.94 4810.98 1718.76 4810.98C1577.14 4810.98 1451.16 4795.4 1388.77 4771.4C1379.17 4769 1369.57 4764.2 1361.15 4757C1353.95 4752.2 1349.15 4746.18 1347.97 4740.2C1344.35 4733 1340.77 4725.8 1338.37 4717.39L1107.95 4088.63C1104.37 4075.42 1106.77 4062.23 1115.15 4051.42C1121.17 4043.03 1130.77 4038.23 1140.37 4038.23L2304.31 4040.63C2313.91 4040.63 2323.51 4045.43 2329.53 4053.82C2336.73 4064.63 2339.13 4077.82 2335.51 4091.03V4092.21L2099.11 4718.6C2096.71 4726.98 2093.13 4735.4 2089.51 4741.38C2087.11 4747.4 2082.32 4753.38 2076.33 4758.18C2067.92 4765.38 2058.32 4770.18 2048.72 4772.58C1986.32 4796.58 1862.75 4810.98 1723.56 4810.98ZM1127.18 4081.43L1357.57 4710.19C1358.75 4717.39 1362.37 4724.58 1365.95 4729.38L1367.17 4730.6V4731.78C1367.17 4733 1368.35 4735.4 1374.37 4740.2L1375.55 4741.38C1381.57 4746.18 1387.55 4749.8 1393.56 4750.98H1395.96C1454.74 4773.8 1580.75 4789.38 1719.94 4789.38C1857.95 4789.38 1985.14 4774.98 2043.92 4752.2H2046.32C2052.33 4750.98 2059.53 4747.4 2064.33 4742.6L2065.52 4741.38C2071.53 4737.8 2072.72 4734.18 2072.72 4734.18V4733L2073.93 4731.78C2077.52 4725.8 2079.92 4719.78 2082.32 4712.59V4711.4L2319.93 4083.83C2322.33 4076.63 2321.11 4069.43 2316.31 4064.63C2315.13 4062.23 2311.51 4059.83 2306.71 4059.83L1142.77 4057.43C1137.97 4057.43 1134.38 4061.02 1133.17 4062.23C1125.97 4067.03 1124.78 4075.42 1127.18 4081.43Z" fill="#333330"/>
<path d="M1721.16 4201.42C1430.74 4200.21 1188.36 4160.63 1130.77 4103.03C1121.17 4093.43 1116.37 4083.83 1116.37 4073.02C1116.37 4035.84 1177.58 4004.64 1297.57 3980.64C1409.15 3959.04 1557.94 3947.04 1716.36 3947.04H1723.56C1862.75 3947.04 1999.54 3957.83 2107.53 3975.84C2184.32 3989.02 2282.71 4011.84 2318.71 4047.84C2328.31 4057.43 2333.11 4067.03 2333.11 4077.82C2333.11 4115.03 2271.93 4146.23 2150.72 4169.01C2037.93 4190.61 1889.14 4202.61 1730.75 4202.61L1721.16 4201.42Z" fill="#FBF8EF"/>
<path d="M1716.36 3955.43C1718.76 3955.43 1721.16 3955.43 1723.56 3955.43C2052.33 3956.64 2322.33 4010.62 2322.33 4075.42C2322.33 4140.21 2054.73 4190.61 1729.54 4190.61C1727.14 4190.61 1724.74 4190.61 1722.34 4190.61C1393.56 4189.42 1128.37 4136.63 1128.37 4071.83C1127.18 4007.04 1389.95 3955.43 1716.36 3955.43ZM1716.36 3935.04C1557.94 3935.04 1407.96 3947.04 1296.36 3969.82C1169.16 3995.04 1107.95 4028.64 1107.95 4071.83C1107.95 4085.02 1113.97 4098.23 1124.78 4109.01C1161.97 4146.23 1261.57 4170.23 1339.55 4182.23C1446.36 4200.21 1583.15 4209.81 1722.34 4211.02C1724.74 4211.02 1727.14 4211.02 1729.54 4211.02C1889.14 4211.02 2039.12 4199.02 2151.94 4177.43C2208.32 4166.61 2252.73 4153.43 2283.93 4139.03C2301.91 4130.61 2315.13 4122.23 2324.73 4113.81C2336.73 4101.81 2342.71 4089.82 2342.71 4075.42C2342.71 4062.23 2336.73 4050.23 2325.91 4038.24C2288.73 3999.84 2187.94 3977.02 2109.93 3963.84C2000.72 3945.83 1863.93 3935.04 1724.74 3935.04C1719.94 3935.04 1718.76 3935.04 1716.36 3935.04Z" fill="#333330"/>
<path d="M2594.69 3243.86H839.174C813.992 3243.86 797.193 3264.24 805.576 3283.44L1052.76 3917.03C1056.37 3927.84 1062.36 3938.63 1069.56 3947.04C1071.96 3953.02 1077.97 3959.04 1088.76 3965.02C1100.76 3973.44 1115.15 3979.42 1130.77 3981.82C1235.18 4013.02 1458.36 4033.43 1717.54 4033.43C1976.72 4033.43 2199.94 4011.84 2304.32 3981.82C2319.93 3979.42 2334.33 3974.62 2346.33 3965.02C2357.11 3959.04 2363.13 3953.02 2365.53 3947.04C2372.73 3938.63 2377.53 3927.84 2382.33 3917.03L2629.51 3283.44C2635.52 3263.06 2618.69 3243.86 2594.69 3243.86Z" fill="#FCFF55"/>
<path d="M1716.36 4041.82C1465.56 4041.82 1235.18 4021.44 1127.18 3989.02C1110.35 3986.62 1094.77 3980.64 1081.55 3971.04C1069.56 3963.84 1062.36 3956.64 1058.77 3949.44C1051.57 3939.84 1045.56 3929.03 1041.97 3918.25L794.792 3285.84C789.992 3275.06 791.176 3263.06 798.375 3253.46C806.791 3241.46 821.19 3233.05 837.989 3233.05H2593.51C2610.31 3233.05 2624.71 3240.25 2633.12 3253.46C2640.32 3263.06 2641.51 3275.06 2636.71 3285.84L2389.52 3918.25C2385.91 3930.24 2379.92 3939.84 2372.73 3949.44C2369.11 3957.83 2361.91 3965.03 2349.91 3971.04C2336.73 3980.64 2321.11 3986.62 2304.31 3989.02C2196.32 4021.44 1965.94 4041.82 1716.36 4041.82ZM837.989 3253.46C828.389 3253.46 818.79 3257.05 815.174 3264.24C812.774 3267.86 811.59 3272.66 813.99 3278.64L1061.17 3912.23C1064.76 3921.83 1069.56 3931.43 1075.57 3939.84L1076.76 3941.03V3942.24C1076.76 3943.43 1080.37 3948.23 1091.15 3954.24L1092.37 3955.43C1103.15 3963.84 1116.37 3968.64 1129.58 3969.83H1131.98C1237.58 4001.02 1466.74 4021.44 1716.36 4021.44C1716.36 4021.44 1716.36 4021.44 1717.54 4021.44C1965.94 4021.44 2195.14 4001.02 2300.73 3969.83H2303.13C2316.31 3968.64 2329.53 3962.63 2340.31 3955.43L2341.53 3954.24C2353.53 3948.23 2355.93 3943.43 2355.93 3942.24V3941.03L2357.11 3939.84C2363.13 3931.43 2367.93 3923.04 2371.51 3912.23L2618.72 3278.64C2621.09 3272.66 2618.72 3267.86 2617.51 3264.24C2612.71 3257.05 2604.29 3253.46 2594.69 3253.46H837.989Z" fill="#333330"/>
<path d="M1716.36 3399.85C1476.34 3399.85 1249.57 3386.67 1079.15 3363.85C996.375 3353.07 930.364 3339.85 884.767 3325.46C831.971 3308.66 806.789 3290.64 806.789 3269.04C806.789 3247.45 831.971 3229.46 884.767 3212.66C930.364 3198.27 996.375 3185.05 1079.15 3174.27C1249.57 3151.45 1475.16 3138.27 1715.14 3138.27H1716.36C1956.34 3138.27 2183.14 3151.45 2354.71 3174.27C2438.7 3185.05 2504.71 3198.27 2550.31 3212.66C2604.29 3229.46 2628.32 3247.45 2628.32 3269.04C2628.32 3290.64 2603.11 3308.66 2550.31 3325.46C2504.71 3339.85 2438.7 3353.07 2354.71 3363.85C2183.14 3387.85 1957.52 3399.85 1716.36 3399.85Z" fill="#FBF8EF"/>
<path d="M1715.14 3147.87C2211.94 3147.87 2618.69 3201.85 2618.69 3269.04C2618.69 3336.27 2211.94 3390.25 1717.54 3390.25C1717.54 3390.25 1717.54 3390.25 1716.36 3390.25C1220.78 3390.25 816.391 3336.27 816.391 3269.04C816.391 3201.85 1220.78 3147.87 1715.14 3147.87ZM1716.36 3127.45C1475.16 3127.45 1248.36 3140.67 1077.97 3163.45C993.978 3174.27 927.967 3187.45 881.186 3203.06C855.972 3211.45 836.774 3218.65 823.591 3228.25C805.576 3240.24 795.977 3254.64 795.977 3269.04C795.977 3284.66 805.576 3297.84 823.591 3309.84C836.774 3318.26 855.972 3326.67 881.186 3335.05C927.967 3349.45 993.978 3362.67 1077.97 3374.67C1249.58 3397.45 1475.16 3410.66 1716.36 3410.66H1717.54C1958.74 3410.66 2185.54 3397.45 2357.11 3374.67C2441.11 3363.85 2507.12 3350.67 2553.9 3335.05C2579.11 3326.67 2598.31 3319.47 2611.49 3309.84C2629.51 3297.84 2639.11 3283.44 2639.11 3269.04C2639.11 3253.46 2629.51 3240.24 2611.49 3228.25C2598.31 3219.86 2579.11 3211.45 2553.9 3203.06C2507.12 3188.66 2441.11 3175.45 2355.93 3163.45C2184.32 3140.67 1956.34 3127.45 1716.36 3127.45Z" fill="#333330"/>
<path d="M2923.5 2357.11L504.381 2358.29C470.783 2358.29 446.785 2379.89 457.6 2401.49L750.379 3114.27C756.394 3123.87 763.594 3132.25 774.377 3139.45C776.777 3144.25 786.376 3150.27 801.991 3155.07C819.974 3162.27 840.388 3167.07 863.171 3168.25C1014.36 3193.46 1338.37 3211.45 1715.14 3211.45C2091.91 3211.45 2415.92 3193.46 2567.11 3167.07C2589.89 3165.85 2610.31 3161.05 2628.29 3152.67C2643.91 3147.87 2653.5 3143.07 2655.9 3137.05C2665.5 3129.85 2673.92 3121.47 2679.9 3111.87L2970.28 2399.09C2981.1 2378.71 2957.1 2357.11 2923.5 2357.11Z" fill="#FCFF55"/>
<path d="M1707.94 3221.05C1347.97 3221.05 1016.76 3204.25 861.989 3177.85C839.175 3176.66 817.576 3171.87 798.378 3163.45C781.579 3157.47 770.796 3152.67 765.996 3145.47C755.181 3137.05 746.797 3128.67 740.782 3117.85V3116.67L448.003 2405.1C443.203 2394.29 443.203 2383.51 449.187 2372.69C458.786 2357.11 480.385 2347.51 503.199 2347.51L2922.29 2346.29C2946.29 2346.29 2967.88 2355.89 2976.3 2371.51C2982.28 2381.11 2982.28 2393.11 2977.48 2403.89L2687.1 3116.67C2681.12 3126.27 2672.71 3135.87 2661.92 3144.25C2657.12 3151.45 2647.52 3156.25 2629.51 3162.27C2610.31 3169.47 2588.71 3175.45 2565.9 3176.66C2409.91 3203.06 2075.12 3221.05 1712.74 3221.05C1712.74 3221.05 1710.34 3221.05 1707.94 3221.05ZM759.98 3109.47C764.78 3117.85 771.98 3125.05 780.395 3131.07L781.579 3132.25L782.795 3134.65C782.795 3134.65 785.195 3139.45 805.577 3145.47H806.793C823.592 3152.67 843.974 3157.47 864.389 3158.65H865.573C1019.16 3185.05 1349.15 3201.85 1707.94 3201.85C1710.34 3201.85 1712.74 3201.85 1715.14 3201.85C2076.33 3201.85 2411.12 3183.86 2564.71 3157.47H2565.9C2586.31 3156.25 2606.69 3151.45 2623.53 3144.25H2624.71C2643.91 3138.27 2646.31 3133.47 2647.52 3133.47L2648.71 3131.07L2649.92 3129.85C2659.52 3123.87 2665.51 3115.45 2670.31 3108.25L2960.69 2395.51C2963.08 2390.71 2963.08 2387.09 2960.69 2383.51C2955.89 2376.31 2942.7 2367.89 2923.5 2367.89L504.383 2369.11C485.184 2369.11 472.001 2377.49 467.202 2384.69C464.802 2388.31 464.802 2393.11 467.202 2396.69V2397.91L759.98 3109.47Z" fill="#333330"/>
<path d="M1705.54 2528.68C1376.77 2528.68 1065.97 2515.5 831.973 2490.28C717.997 2478.28 627.988 2463.89 565.592 2448.3C492.382 2430.29 460 2411.09 460 2387.09C460 2363.09 492.382 2343.89 565.592 2325.88C629.204 2310.3 719.181 2295.9 834.373 2282.68C1069.56 2257.5 1382.75 2243.1 1712.74 2243.1H1721.16C2051.12 2243.1 2361.91 2256.28 2595.91 2280.28C2711.1 2292.28 2801.11 2306.68 2863.51 2322.3C2936.68 2340.31 2969.1 2359.51 2969.1 2383.51C2969.1 2407.51 2936.68 2426.7 2862.29 2445.9C2798.71 2462.7 2707.52 2477.1 2592.29 2489.1C2354.71 2515.5 2041.52 2529.9 1711.56 2529.9L1705.54 2528.68Z" fill="#FBF8EF"/>
<path d="M1722.34 2252.7C2400.31 2252.7 2960.68 2310.3 2960.68 2383.51C2960.68 2456.68 2395.51 2519.08 1713.96 2520.3C1711.56 2520.3 1707.94 2520.3 1705.54 2520.3C1026.36 2520.3 470.785 2461.48 470.785 2388.31C470.785 2315.1 1031.16 2253.88 1713.96 2253.88C1716.36 2252.7 1719.94 2252.7 1722.34 2252.7ZM1722.34 2232.29H1713.96C1382.75 2232.29 1070.77 2246.68 834.374 2271.9C719.183 2283.9 627.989 2298.3 564.378 2315.1C530.78 2323.51 505.598 2331.89 487.583 2341.49C476.8 2347.51 469.601 2352.31 463.585 2358.29C453.986 2369.11 451.586 2378.71 451.586 2385.91C451.586 2411.09 479.2 2425.49 487.583 2430.29C505.598 2439.89 530.78 2448.3 564.378 2456.68C627.989 2472.3 717.999 2486.7 833.19 2499.88C1067.16 2525.1 1377.95 2538.28 1706.76 2538.28H1715.14C2045.13 2538.28 2358.33 2523.88 2597.09 2497.48C2713.5 2484.3 2804.7 2469.9 2868.31 2453.1C2901.9 2444.69 2928.3 2435.09 2946.29 2425.49C2957.1 2419.5 2964.3 2414.7 2970.28 2408.69C2979.88 2397.91 2982.28 2388.31 2982.28 2381.11C2982.28 2354.71 2954.7 2341.49 2946.29 2336.69C2928.3 2327.09 2903.09 2318.71 2869.49 2310.3C2805.91 2294.68 2715.9 2280.28 2599.49 2268.28C2364.31 2245.5 2053.52 2232.29 1722.34 2232.29Z" fill="#333330"/>
<path d="M5448.18 1754.72C5448.18 1762.59 5447.8 1770.43 5447.03 1778.24C5446.26 1786.08 5445.11 1793.82 5443.58 1801.53C5442.04 1809.24 5440.15 1816.86 5437.85 1824.38C5435.58 1831.9 5432.92 1839.29 5429.91 1846.55C5426.91 1853.82 5423.55 1860.92 5419.87 1867.86C5416.15 1874.78 5412.12 1881.53 5407.74 1888.06C5403.39 1894.58 5398.72 1900.89 5393.72 1906.97C5388.73 1913.05 5383.45 1918.87 5377.92 1924.4C5372.35 1929.97 5366.53 1935.25 5360.45 1940.24C5354.37 1945.24 5348.06 1949.91 5341.54 1954.26C5335.01 1958.64 5328.26 1962.67 5321.35 1966.39C5314.4 1970.07 5307.3 1973.43 5300.03 1976.43C5292.77 1979.44 5285.38 1982.1 5277.86 1984.37C5270.34 1986.67 5262.73 1988.56 5255.01 1990.1C5247.3 1991.63 5239.56 1992.78 5231.72 1993.55C5223.91 1994.32 5216.07 1994.7 5208.2 1994.7C5200.33 1994.7 5192.49 1994.32 5184.68 1993.55C5176.84 1992.78 5169.1 1991.63 5161.39 1990.1C5153.68 1988.56 5146.06 1986.67 5138.54 1984.37C5131.02 1982.1 5123.63 1979.44 5116.37 1976.43C5109.1 1973.43 5102 1970.07 5095.06 1966.39C5088.15 1962.67 5081.39 1958.64 5074.87 1954.26C5068.34 1949.91 5062.04 1945.24 5055.96 1940.24C5049.88 1935.25 5044.05 1929.97 5038.52 1924.4C5032.95 1918.87 5027.67 1913.05 5022.68 1906.97C5017.69 1900.89 5013.02 1894.58 5008.66 1888.06C5004.28 1881.53 5000.25 1874.78 4996.54 1867.86C4992.86 1860.92 4989.5 1853.82 4986.49 1846.55C4983.48 1839.29 4980.83 1831.9 4978.55 1824.38C4976.25 1816.86 4974.36 1809.24 4972.83 1801.53C4971.29 1793.82 4970.14 1786.08 4969.37 1778.24C4968.6 1770.43 4968.22 1762.59 4968.22 1754.72C4968.22 1746.85 4968.6 1739.01 4969.37 1731.2C4970.14 1723.36 4971.29 1715.62 4972.83 1707.91C4974.36 1700.2 4976.25 1692.58 4978.55 1685.06C4980.83 1677.54 4983.48 1670.15 4986.49 1662.89C4989.5 1655.62 4992.86 1648.52 4996.54 1641.58C5000.25 1634.67 5004.28 1627.91 5008.66 1621.39C5013.02 1614.86 5017.69 1608.56 5022.68 1602.48C5027.67 1596.4 5032.95 1590.57 5038.52 1585.01C5044.05 1579.47 5049.88 1574.19 5055.96 1569.2C5062.04 1564.21 5068.34 1559.54 5074.87 1555.18C5081.39 1550.8 5088.15 1546.77 5095.06 1543.06C5102 1539.38 5109.1 1536.02 5116.37 1533.01C5123.63 1530 5131.02 1527.35 5138.54 1525.07C5146.06 1522.77 5153.68 1520.88 5161.39 1519.35C5169.1 1517.81 5176.84 1516.66 5184.68 1515.89C5192.49 1515.12 5200.33 1514.74 5208.2 1514.74C5216.07 1514.74 5223.91 1515.12 5231.72 1515.89C5239.56 1516.66 5247.3 1517.81 5255.01 1519.35C5262.73 1520.88 5270.34 1522.77 5277.86 1525.07C5285.38 1527.35 5292.77 1530 5300.03 1533.01C5307.3 1536.02 5314.4 1539.38 5321.35 1543.06C5328.26 1546.77 5335.01 1550.8 5341.54 1555.18C5348.06 1559.54 5354.37 1564.21 5360.45 1569.2C5366.53 1574.19 5372.35 1579.47 5377.92 1585.01C5383.45 1590.57 5388.73 1596.4 5393.72 1602.48C5398.72 1608.56 5403.39 1614.86 5407.74 1621.39C5412.12 1627.91 5416.15 1634.67 5419.87 1641.58C5423.55 1648.52 5426.91 1655.62 5429.91 1662.89C5432.92 1670.15 5435.58 1677.54 5437.85 1685.06C5440.15 1692.58 5442.04 1700.2 5443.58 1707.91C5445.11 1715.62 5446.26 1723.36 5447.03 1731.2C5447.8 1739.01 5448.18 1746.85 5448.18 1754.72Z" fill="#FCFF55"/>
<path d="M5208.2 2001.9C5202.22 2001.9 5195.02 2001.9 5189 2000.72C5122.99 1995.92 5063 1964.72 5021.01 1915.51C4932.22 1812.32 4944.22 1656.33 5047.41 1567.53C5150.61 1478.74 5306.59 1490.74 5395.39 1593.93C5484.18 1697.12 5472.18 1853.11 5368.99 1941.91C5323.39 1980.3 5267.01 2001.9 5208.2 2001.9ZM5057.01 1578.32C4959.8 1662.31 4947.8 1808.7 5031.8 1907.13C5072.59 1953.91 5129.01 1982.7 5191.4 1987.5C5253.8 1992.3 5313.79 1973.1 5360.61 1932.31C5457.78 1848.31 5469.78 1701.92 5385.79 1603.53C5301.79 1505.14 5154.22 1494.32 5057.01 1578.32Z" fill="#333330"/>
<path d="M6022.95 1617.93C6022.95 1623.5 6022.7 1629.07 6022.16 1634.63C6021.61 1640.17 6020.78 1645.7 6019.69 1651.18C6018.6 1656.65 6017.26 1662.06 6015.63 1667.4C6014 1672.74 6012.14 1677.99 6010 1683.14C6007.85 1688.29 6005.48 1693.32 6002.86 1698.24C6000.2 1703.17 5997.36 1707.94 5994.25 1712.58C5991.15 1717.22 5987.82 1721.7 5984.3 1726.02C5980.75 1730.34 5977.01 1734.47 5973.07 1738.4C5969.1 1742.37 5964.98 1746.11 5960.66 1749.63C5956.37 1753.18 5951.89 1756.51 5947.25 1759.62C5942.61 1762.69 5937.81 1765.57 5932.88 1768.19C5927.99 1770.82 5922.93 1773.22 5917.78 1775.36C5912.63 1777.47 5907.38 1779.36 5902.04 1780.99C5896.69 1782.59 5891.28 1783.97 5885.81 1785.05C5880.34 1786.14 5874.84 1786.94 5869.27 1787.49C5863.73 1788.03 5858.17 1788.32 5852.57 1788.32C5847 1788.32 5841.43 1788.03 5835.86 1787.49C5830.33 1786.94 5824.79 1786.14 5819.32 1785.05C5813.85 1783.97 5808.44 1782.59 5803.1 1780.99C5797.79 1779.36 5792.51 1777.47 5787.36 1775.36C5782.2 1773.22 5777.18 1770.82 5772.25 1768.19C5767.33 1765.57 5762.56 1762.69 5757.92 1759.62C5753.28 1756.51 5748.8 1753.18 5744.48 1749.63C5740.16 1746.11 5736.03 1742.37 5732.1 1738.4C5728.13 1734.47 5724.38 1730.34 5720.86 1726.02C5717.31 1721.7 5713.99 1717.22 5710.88 1712.58C5707.81 1707.94 5704.93 1703.17 5702.31 1698.24C5699.68 1693.32 5697.28 1688.29 5695.14 1683.14C5693.03 1677.99 5691.14 1672.74 5689.51 1667.4C5687.91 1662.06 5686.53 1656.65 5685.44 1651.18C5684.36 1645.7 5683.56 1640.17 5683.01 1634.63C5682.47 1629.07 5682.18 1623.5 5682.18 1617.93C5682.18 1612.33 5682.47 1606.76 5683.01 1601.23C5683.56 1595.66 5684.36 1590.16 5685.44 1584.69C5686.53 1579.21 5687.91 1573.81 5689.51 1568.46C5691.14 1563.12 5693.03 1557.87 5695.14 1552.72C5697.28 1547.57 5699.68 1542.51 5702.31 1537.62C5704.93 1532.69 5707.81 1527.89 5710.88 1523.25C5713.99 1518.61 5717.31 1514.13 5720.86 1509.84C5724.38 1505.52 5728.13 1501.4 5732.1 1497.43C5736.03 1493.49 5740.16 1489.75 5744.48 1486.2C5748.8 1482.68 5753.28 1479.35 5757.92 1476.24C5762.56 1473.14 5767.33 1470.29 5772.25 1467.64C5777.18 1465.01 5782.2 1462.65 5787.36 1460.5C5792.51 1458.36 5797.79 1456.5 5803.1 1454.87C5808.44 1453.24 5813.85 1451.89 5819.32 1450.81C5824.79 1449.72 5830.33 1448.89 5835.86 1448.34C5841.43 1447.8 5847 1447.54 5852.57 1447.54C5858.17 1447.54 5863.73 1447.8 5869.27 1448.34C5874.84 1448.89 5880.34 1449.72 5885.81 1450.81C5891.28 1451.89 5896.69 1453.24 5902.04 1454.87C5907.38 1456.5 5912.63 1458.36 5917.78 1460.5C5922.93 1462.65 5927.99 1465.01 5932.88 1467.64C5937.81 1470.29 5942.61 1473.14 5947.25 1476.24C5951.89 1479.35 5956.37 1482.68 5960.66 1486.2C5964.98 1489.75 5969.1 1493.49 5973.07 1497.43C5977.01 1501.4 5980.75 1505.52 5984.3 1509.84C5987.82 1514.13 5991.15 1518.61 5994.25 1523.25C5997.36 1527.89 6000.2 1532.69 6002.86 1537.62C6005.48 1542.51 6007.85 1547.57 6010 1552.72C6012.14 1557.87 6014 1563.12 6015.63 1568.46C6017.26 1573.81 6018.6 1579.21 6019.69 1584.69C6020.78 1590.16 6021.61 1595.66 6022.16 1601.23C6022.7 1606.76 6022.95 1612.33 6022.95 1617.93Z" fill="#FCFF55"/>
<path d="M5852.57 1795.52C5841.79 1795.52 5830.97 1794.3 5820.19 1791.9C5724.2 1773.92 5660.58 1681.51 5678.6 1585.52C5696.58 1489.52 5788.99 1425.94 5884.98 1443.93C5931.76 1452.34 5971.38 1478.74 5997.78 1518.32C6024.17 1557.93 6033.77 1604.71 6025.36 1651.53C6009.77 1735.52 5935.38 1795.52 5852.57 1795.52ZM5691.78 1587.92C5674.98 1676.71 5733.79 1761.92 5821.37 1778.72C5830.97 1781.12 5841.79 1781.12 5851.39 1781.12C5928.18 1781.12 5996.56 1725.92 6012.17 1647.91C6020.56 1604.71 6010.96 1561.52 5986.96 1525.52C5962.96 1489.52 5925.78 1465.52 5882.58 1457.14C5793.79 1441.53 5708.58 1499.12 5691.78 1587.92Z" fill="#333330"/>
<path d="M5937.77 2394.29C5937.77 2404.66 5937.26 2415.02 5936.24 2425.33C5935.21 2435.66 5933.71 2445.93 5931.69 2456.11C5929.65 2466.28 5927.15 2476.33 5924.14 2486.25C5921.1 2496.17 5917.62 2505.93 5913.65 2515.53C5909.68 2525.1 5905.26 2534.47 5900.37 2543.62C5895.47 2552.77 5890.13 2561.67 5884.37 2570.28C5878.61 2578.92 5872.43 2587.23 5865.87 2595.27C5859.28 2603.27 5852.31 2610.95 5844.98 2618.3C5837.65 2625.63 5829.97 2632.58 5821.94 2639.17C5813.94 2645.76 5805.59 2651.93 5796.98 2657.69C5788.34 2663.45 5779.45 2668.8 5770.3 2673.66C5761.18 2678.56 5751.8 2683 5742.2 2686.97C5732.64 2690.94 5722.88 2694.43 5712.93 2697.43C5703.01 2700.44 5692.96 2702.97 5682.78 2704.99C5672.61 2707 5662.37 2708.54 5652.03 2709.56C5641.7 2710.59 5631.36 2711.07 5620.96 2711.07C5610.6 2711.07 5600.26 2710.59 5589.93 2709.56C5579.59 2708.54 5569.35 2707 5559.18 2704.99C5549 2702.97 5538.95 2700.44 5529.04 2697.43C5519.08 2694.43 5509.32 2690.94 5499.76 2686.97C5490.16 2683 5480.78 2678.56 5471.66 2673.66C5462.51 2668.8 5453.62 2663.45 5444.98 2657.69C5436.37 2651.93 5428.02 2645.76 5420.02 2639.17C5411.99 2632.58 5404.31 2625.63 5396.98 2618.3C5389.65 2610.95 5382.68 2603.27 5376.09 2595.27C5369.53 2587.23 5363.35 2578.92 5357.59 2570.28C5351.83 2561.67 5346.49 2552.77 5341.59 2543.62C5336.7 2534.47 5332.28 2525.1 5328.31 2515.53C5324.35 2505.93 5320.86 2496.17 5317.82 2486.25C5314.81 2476.33 5312.31 2466.28 5310.27 2456.11C5308.25 2445.93 5306.75 2435.66 5305.72 2425.33C5304.7 2415.02 5304.19 2404.66 5304.19 2394.29C5304.19 2383.92 5304.7 2373.55 5305.72 2363.25C5306.75 2352.92 5308.25 2342.68 5310.27 2332.5C5312.31 2322.33 5314.81 2312.25 5317.82 2302.33C5320.86 2292.41 5324.35 2282.65 5328.31 2273.05C5332.28 2263.48 5336.7 2254.11 5341.59 2244.96C5346.49 2235.8 5351.83 2226.91 5357.59 2218.3C5363.35 2209.66 5369.53 2201.34 5376.09 2193.31C5382.68 2185.31 5389.65 2177.63 5396.98 2170.27C5404.31 2162.95 5411.99 2156 5420.02 2149.41C5428.02 2142.82 5436.37 2136.64 5444.98 2130.88C5453.62 2125.12 5462.51 2119.81 5471.66 2114.92C5480.78 2110.02 5490.16 2105.57 5499.76 2101.61C5509.32 2097.64 5519.08 2094.15 5529.04 2091.14C5538.95 2088.13 5549 2085.61 5559.18 2083.59C5569.35 2081.58 5579.59 2080.04 5589.93 2079.02C5600.26 2078.02 5610.6 2077.51 5620.96 2077.51C5631.36 2077.51 5641.7 2078.02 5652.03 2079.02C5662.37 2080.04 5672.61 2081.58 5682.78 2083.59C5692.96 2085.61 5703.01 2088.13 5712.93 2091.14C5722.88 2094.15 5732.64 2097.64 5742.2 2101.61C5751.8 2105.57 5761.15 2110.02 5770.3 2114.92C5779.45 2119.81 5788.34 2125.12 5796.98 2130.88C5805.59 2136.64 5813.94 2142.82 5821.94 2149.41C5829.97 2156 5837.65 2162.95 5844.98 2170.27C5852.31 2177.63 5859.28 2185.31 5865.87 2193.31C5872.43 2201.34 5878.61 2209.66 5884.37 2218.3C5890.13 2226.91 5895.47 2235.8 5900.37 2244.96C5905.26 2254.11 5909.68 2263.48 5913.65 2273.05C5917.62 2282.65 5921.1 2292.41 5924.11 2302.33C5927.15 2312.25 5929.65 2322.33 5931.69 2332.5C5933.71 2342.68 5935.21 2352.92 5936.24 2363.25C5937.26 2373.55 5937.77 2383.92 5937.77 2394.29Z" fill="#FCFF55"/>
<path d="M5622.18 2717.08C5599.37 2717.08 5577.77 2714.68 5554.99 2709.88C5470.99 2691.87 5397.78 2642.69 5351 2570.69C5253.79 2421.91 5295.81 2220.29 5444.6 2123.11C5516.59 2076.3 5602.98 2059.5 5688.19 2077.51C5772.19 2095.5 5845.37 2144.71 5892.18 2216.7C5938.96 2288.7 5955.76 2375.09 5937.78 2460.3C5919.76 2544.3 5870.58 2617.48 5798.59 2664.29C5744.57 2700.29 5683.4 2717.08 5622.18 2717.08ZM5620.97 2084.71C5560.97 2084.71 5503.38 2101.51 5451.8 2135.11C5308.99 2228.7 5268.19 2420.69 5361.79 2563.5C5407.38 2633.09 5476.98 2679.87 5557.39 2696.67C5637.8 2713.47 5720.58 2697.89 5790.17 2652.29C5859.77 2606.69 5906.58 2537.1 5923.38 2456.69C5940.18 2376.31 5924.56 2293.5 5878.96 2223.9C5833.37 2154.31 5763.77 2107.5 5683.4 2090.7C5662.98 2087.11 5641.38 2084.71 5620.97 2084.71Z" fill="#333330"/>
<path d="M5883.77 2394.29C5883.77 2402.9 5883.35 2411.47 5882.52 2420.05C5881.65 2428.62 5880.41 2437.1 5878.71 2445.55C5877.05 2454 5874.97 2462.35 5872.47 2470.57C5869.97 2478.83 5867.06 2486.89 5863.77 2494.86C5860.47 2502.79 5856.79 2510.57 5852.76 2518.18C5848.7 2525.77 5844.28 2533.13 5839.48 2540.29C5834.71 2547.43 5829.59 2554.34 5824.12 2561C5818.65 2567.65 5812.89 2574.02 5806.81 2580.1C5800.73 2586.21 5794.36 2591.97 5787.71 2597.44C5781.05 2602.88 5774.14 2608 5766.97 2612.8C5759.84 2617.57 5752.45 2621.98 5744.86 2626.05C5737.28 2630.11 5729.5 2633.79 5721.54 2637.09C5713.6 2640.38 5705.51 2643.26 5697.28 2645.76C5689.03 2648.25 5680.71 2650.37 5672.26 2652.03C5663.81 2653.73 5655.3 2654.97 5646.73 2655.81C5638.18 2656.67 5629.58 2657.09 5620.97 2657.09C5612.39 2657.09 5603.79 2656.67 5595.24 2655.81C5586.67 2654.97 5578.16 2653.73 5569.71 2652.03C5561.26 2650.37 5552.94 2648.25 5544.69 2645.76C5536.46 2643.26 5528.37 2640.38 5520.43 2637.09C5512.46 2633.79 5504.69 2630.11 5497.11 2626.05C5489.52 2621.98 5482.13 2617.57 5474.99 2612.8C5467.83 2608 5460.92 2602.88 5454.26 2597.44C5447.6 2591.97 5441.24 2586.21 5435.16 2580.1C5429.08 2574.02 5423.32 2567.65 5417.85 2561C5412.38 2554.34 5407.26 2547.43 5402.49 2540.29C5397.69 2533.13 5393.27 2525.77 5389.21 2518.18C5385.18 2510.57 5381.5 2502.79 5378.2 2494.86C5374.91 2486.89 5371.99 2478.83 5369.5 2470.57C5367 2462.35 5364.92 2454 5363.26 2445.55C5361.56 2437.1 5360.31 2428.62 5359.45 2420.05C5358.62 2411.47 5358.2 2402.9 5358.2 2394.29C5358.2 2385.68 5358.62 2377.11 5359.45 2368.53C5360.31 2359.96 5361.56 2351.48 5363.26 2343.03C5364.92 2334.58 5367 2326.23 5369.5 2318.01C5371.99 2309.78 5374.91 2301.69 5378.2 2293.72C5381.5 2285.79 5385.18 2278.01 5389.21 2270.43C5393.27 2262.81 5397.69 2255.45 5402.49 2248.28C5407.26 2241.15 5412.38 2234.24 5417.85 2227.58C5423.32 2220.93 5429.08 2214.56 5435.16 2208.48C5441.24 2202.4 5447.6 2196.61 5454.26 2191.17C5460.92 2185.7 5467.83 2180.58 5474.99 2175.78C5482.13 2171.01 5489.52 2166.59 5497.11 2162.53C5504.69 2158.47 5512.46 2154.79 5520.43 2151.49C5528.37 2148.23 5536.46 2145.32 5544.69 2142.82C5552.94 2140.32 5561.26 2138.24 5569.71 2136.55C5578.16 2134.88 5586.67 2133.6 5595.24 2132.77C5603.79 2131.94 5612.39 2131.49 5620.97 2131.49C5629.58 2131.49 5638.18 2131.91 5646.73 2132.77C5655.3 2133.6 5663.81 2134.88 5672.26 2136.55C5680.71 2138.24 5689.03 2140.32 5697.28 2142.82C5705.51 2145.32 5713.6 2148.23 5721.54 2151.49C5729.5 2154.79 5737.28 2158.47 5744.86 2162.53C5752.45 2166.59 5759.84 2171.01 5766.97 2175.78C5774.14 2180.58 5781.05 2185.7 5787.71 2191.17C5794.36 2196.61 5800.73 2202.4 5806.81 2208.48C5812.89 2214.56 5818.65 2220.93 5824.12 2227.58C5829.59 2234.24 5834.71 2241.15 5839.48 2248.28C5844.28 2255.45 5848.7 2262.81 5852.73 2270.43C5856.79 2278.01 5860.47 2285.79 5863.77 2293.72C5867.06 2301.69 5869.97 2309.78 5872.47 2318.01C5874.97 2326.23 5877.05 2334.58 5878.71 2343.03C5880.41 2351.48 5881.65 2359.96 5882.52 2368.53C5883.35 2377.11 5883.77 2385.68 5883.77 2394.29Z" fill="#FCFF55"/>
<path d="M5622.19 2664.29C5602.99 2664.29 5584.97 2661.89 5565.77 2658.27C5495 2643.87 5435 2601.89 5395.39 2541.9C5355.81 2481.9 5342.59 2408.69 5356.99 2339.1C5371.39 2268.28 5413.4 2208.29 5473.4 2168.71C5533.39 2129.09 5605.39 2115.91 5676.2 2130.31C5746.98 2144.71 5806.97 2186.69 5846.59 2246.69C5886.17 2306.68 5899.38 2379.89 5884.98 2449.49C5870.58 2520.3 5828.57 2580.29 5768.58 2619.88C5724.19 2649.89 5673.8 2664.29 5622.19 2664.29ZM5620.97 2137.51C5571.79 2137.51 5523.79 2151.91 5481.78 2179.49C5424.18 2216.7 5384.6 2274.3 5371.39 2341.5C5356.99 2408.69 5370.2 2477.1 5407.39 2534.7C5444.6 2592.29 5502.19 2631.87 5569.39 2645.09C5636.59 2659.49 5705 2646.27 5762.59 2609.09C5820.19 2571.88 5859.77 2514.28 5872.98 2447.09C5887.38 2379.89 5874.17 2311.48 5836.99 2253.89C5799.77 2196.29 5742.18 2156.71 5674.98 2143.49C5655.78 2139.91 5637.8 2137.51 5620.97 2137.51Z" fill="#333330"/>
<path d="M5403.8 1754.72C5403.8 1761.12 5403.48 1767.52 5402.84 1773.89C5402.23 1780.25 5401.27 1786.59 5400.02 1792.86C5398.77 1799.16 5397.24 1805.37 5395.38 1811.48C5393.49 1817.63 5391.35 1823.64 5388.89 1829.56C5386.45 1835.48 5383.7 1841.27 5380.7 1846.9C5377.69 1852.57 5374.39 1858.07 5370.84 1863.38C5367.26 1868.69 5363.45 1873.85 5359.38 1878.81C5355.32 1883.77 5351.03 1888.5 5346.49 1893.01C5341.98 1897.56 5337.24 1901.84 5332.28 1905.91C5327.32 1909.97 5322.2 1913.78 5316.86 1917.33C5311.55 1920.91 5306.04 1924.18 5300.41 1927.22C5294.75 1930.23 5288.96 1932.98 5283.04 1935.41C5277.12 1937.87 5271.1 1940.02 5264.96 1941.87C5258.85 1943.76 5252.64 1945.3 5246.37 1946.55C5240.07 1947.79 5233.73 1948.75 5227.36 1949.36C5220.99 1950 5214.6 1950.32 5208.2 1950.32C5201.8 1950.32 5195.4 1950 5189.03 1949.36C5182.66 1948.75 5176.33 1947.79 5170.05 1946.55C5163.75 1945.3 5157.54 1943.76 5151.43 1941.87C5145.29 1940.02 5139.27 1937.87 5133.35 1935.41C5127.43 1932.98 5121.64 1930.23 5116.01 1927.22C5110.35 1924.18 5104.88 1920.91 5099.53 1917.33C5094.22 1913.78 5089.07 1909.97 5084.11 1905.91C5079.15 1901.84 5074.41 1897.56 5069.9 1893.01C5065.36 1888.5 5061.07 1883.77 5057.01 1878.81C5052.94 1873.85 5049.14 1868.69 5045.58 1863.38C5042 1858.07 5038.74 1852.57 5035.7 1846.9C5032.69 1841.27 5029.94 1835.48 5027.5 1829.56C5025.04 1823.64 5022.9 1817.63 5021.04 1811.48C5019.15 1805.37 5017.62 1799.16 5016.37 1792.86C5015.12 1786.59 5014.16 1780.25 5013.55 1773.89C5012.91 1767.52 5012.59 1761.12 5012.59 1754.72C5012.59 1748.32 5012.91 1741.92 5013.55 1735.55C5014.16 1729.18 5015.12 1722.85 5016.37 1716.55C5017.62 1710.27 5019.15 1704.07 5021.04 1697.96C5022.9 1691.81 5025.04 1685.8 5027.5 1679.88C5029.94 1673.96 5032.69 1668.17 5035.7 1662.5C5038.74 1656.87 5042 1651.37 5045.58 1646.05C5049.14 1640.71 5052.94 1635.59 5057.01 1630.63C5061.07 1625.67 5065.36 1620.94 5069.9 1616.43C5074.41 1611.88 5079.15 1607.59 5084.11 1603.53C5089.07 1599.47 5094.22 1595.66 5099.53 1592.07C5104.84 1588.52 5110.35 1585.23 5116.01 1582.22C5121.64 1579.21 5127.43 1576.46 5133.35 1574.03C5139.27 1571.56 5145.29 1569.42 5151.43 1567.53C5157.54 1565.68 5163.75 1564.14 5170.05 1562.89C5176.33 1561.65 5182.66 1560.69 5189.03 1560.08C5195.4 1559.44 5201.8 1559.12 5208.2 1559.12C5214.6 1559.12 5220.99 1559.44 5227.36 1560.08C5233.73 1560.69 5240.07 1561.65 5246.37 1562.89C5252.64 1564.14 5258.85 1565.68 5264.96 1567.53C5271.1 1569.42 5277.12 1571.56 5283.04 1574.03C5288.96 1576.46 5294.75 1579.21 5300.41 1582.22C5306.04 1585.23 5311.55 1588.52 5316.86 1592.07C5322.2 1595.66 5327.32 1599.47 5332.28 1603.53C5337.24 1607.59 5341.98 1611.88 5346.49 1616.43C5351.03 1620.94 5355.32 1625.67 5359.38 1630.63C5363.45 1635.59 5367.26 1640.71 5370.84 1646.05C5374.39 1651.37 5377.69 1656.87 5380.7 1662.5C5383.7 1668.17 5386.45 1673.96 5388.89 1679.88C5391.35 1685.8 5393.49 1691.81 5395.38 1697.96C5397.24 1704.07 5398.77 1710.27 5400.02 1716.55C5401.27 1722.85 5402.23 1729.18 5402.84 1735.55C5403.48 1741.92 5403.8 1748.32 5403.8 1754.72Z" fill="#FCFF55"/>
<path d="M5208.19 1957.52C5203.39 1957.52 5197.41 1957.52 5192.61 1956.31C5138.6 1952.72 5089.39 1927.51 5054.61 1885.53C5019.79 1844.73 5001.81 1791.9 5006.61 1737.92C5010.19 1683.91 5035.41 1634.73 5077.39 1599.92C5118.19 1565.14 5171.01 1547.12 5224.99 1551.92C5279.01 1555.54 5328.19 1580.72 5363 1622.73C5397.78 1663.53 5415.8 1716.32 5411 1770.3C5407.38 1824.32 5382.2 1873.53 5340.19 1908.31C5303 1940.72 5257.41 1957.52 5208.19 1957.52ZM5208.19 1565.14C5162.6 1565.14 5120.58 1580.72 5085.8 1610.73C5047.41 1643.11 5024.59 1689.93 5019.79 1740.32C5016.21 1790.72 5031.79 1839.93 5064.21 1878.33C5096.59 1916.73 5143.4 1939.51 5193.8 1944.31C5244.19 1947.92 5293.4 1932.31 5331.8 1899.93C5370.2 1867.51 5392.98 1820.7 5397.78 1770.3C5401.4 1719.91 5385.78 1670.73 5353.4 1632.33C5320.99 1593.93 5274.21 1571.12 5223.81 1566.32C5217.79 1566.32 5212.99 1565.14 5208.19 1565.14Z" fill="#333330"/>
<path d="M5980.98 1617.93C5980.98 1626.35 5980.14 1634.7 5978.51 1642.98C5976.85 1651.24 5974.42 1659.27 5971.19 1667.05C5967.99 1674.85 5964.02 1682.25 5959.35 1689.25C5954.64 1696.26 5949.33 1702.76 5943.38 1708.71C5937.4 1714.66 5930.93 1720 5923.89 1724.67C5916.89 1729.38 5909.49 1733.31 5901.72 1736.55C5893.91 1739.78 5885.88 1742.21 5877.62 1743.84C5869.37 1745.5 5861.02 1746.3 5852.57 1746.3C5844.15 1746.3 5835.8 1745.5 5827.52 1743.84C5819.26 1742.21 5811.23 1739.78 5803.45 1736.55C5795.65 1733.31 5788.25 1729.38 5781.25 1724.67C5774.24 1720 5767.74 1714.66 5761.79 1708.71C5755.84 1702.76 5750.5 1696.26 5745.83 1689.25C5741.12 1682.25 5737.19 1674.85 5733.95 1667.05C5730.72 1659.27 5728.29 1651.24 5726.66 1642.98C5725 1634.7 5724.2 1626.35 5724.2 1617.93C5724.2 1609.48 5725 1601.13 5726.66 1592.88C5728.29 1584.62 5730.72 1576.59 5733.95 1568.78C5737.19 1561.01 5741.12 1553.61 5745.83 1546.58C5750.5 1539.57 5755.84 1533.1 5761.79 1527.12C5767.74 1521.17 5774.24 1515.86 5781.25 1511.15C5788.25 1506.48 5795.65 1502.51 5803.45 1499.31C5811.23 1496.08 5819.26 1493.65 5827.52 1491.99C5835.8 1490.36 5844.15 1489.52 5852.57 1489.52C5861.02 1489.52 5869.37 1490.36 5877.62 1491.99C5885.88 1493.65 5893.91 1496.08 5901.72 1499.31C5909.49 1502.51 5916.89 1506.48 5923.89 1511.15C5930.93 1515.86 5937.4 1521.17 5943.38 1527.12C5949.33 1533.1 5954.64 1539.57 5959.35 1546.58C5964.02 1553.61 5967.99 1561.01 5971.19 1568.78C5974.42 1576.59 5976.85 1584.62 5978.51 1592.88C5980.14 1601.13 5980.98 1609.48 5980.98 1617.93Z" fill="#FCFF55"/>
<path d="M5852.56 1753.5C5844.18 1753.5 5835.77 1752.32 5827.38 1751.11C5754.17 1736.71 5706.18 1665.93 5719.39 1592.72C5726.59 1556.72 5745.79 1526.74 5775.77 1506.32C5805.78 1485.94 5841.78 1478.74 5877.78 1484.72C5913.78 1491.92 5943.76 1511.12 5964.17 1541.14C5984.56 1571.12 5991.75 1607.12 5985.77 1643.11C5972.56 1707.91 5916.18 1753.5 5852.56 1753.5ZM5732.57 1595.12C5720.57 1661.13 5763.77 1724.71 5829.78 1736.71C5895.76 1748.71 5959.37 1705.51 5971.37 1639.53C5977.36 1607.12 5970.16 1574.73 5952.17 1548.34C5934.16 1521.94 5906.58 1503.92 5874.16 1497.94C5841.78 1491.92 5809.37 1499.12 5782.97 1517.14C5756.57 1536.34 5738.59 1563.92 5732.57 1595.12Z" fill="#333330"/>
<path d="M2349.91 1731.91C2349.91 1742.4 2349.65 1752.9 2349.14 1763.36C2348.63 1773.82 2347.86 1784.29 2346.83 1794.72C2345.81 1805.15 2344.53 1815.58 2342.96 1825.95C2341.43 1836.31 2339.64 1846.65 2337.59 1856.92C2335.57 1867.22 2333.27 1877.43 2330.71 1887.61C2328.15 1897.78 2325.36 1907.89 2322.32 1917.94C2319.28 1927.96 2315.99 1937.91 2312.47 1947.79C2308.92 1957.65 2305.14 1967.44 2301.14 1977.14C2297.11 1986.83 2292.89 1996.4 2288.41 2005.87C2283.9 2015.37 2279.19 2024.72 2274.26 2033.96C2269.3 2043.21 2264.15 2052.36 2258.74 2061.35C2253.37 2070.35 2247.74 2079.21 2241.91 2087.91C2236.09 2096.65 2230.08 2105.19 2223.8 2113.64C2217.56 2122.05 2211.13 2130.31 2204.48 2138.44C2197.82 2146.53 2190.97 2154.47 2183.93 2162.24C2176.9 2170.02 2169.66 2177.6 2162.24 2185.03C2154.82 2192.42 2147.23 2199.65 2139.46 2206.69C2131.68 2213.76 2123.75 2220.61 2115.65 2227.23C2107.52 2233.89 2099.27 2240.35 2090.85 2246.59C2082.44 2252.83 2073.86 2258.88 2065.13 2264.7C2056.42 2270.52 2047.56 2276.12 2038.57 2281.53C2029.58 2286.91 2020.46 2292.09 2011.21 2297.02C2001.96 2301.98 1992.59 2306.68 1983.12 2311.16C1973.61 2315.64 1964.05 2319.9 1954.35 2323.93C1944.66 2327.93 1934.9 2331.7 1925.01 2335.22C1915.12 2338.77 1905.17 2342.07 1895.16 2345.11C1885.11 2348.15 1875 2350.93 1864.82 2353.49C1854.68 2356.05 1844.44 2358.32 1834.14 2360.37C1823.86 2362.42 1813.53 2364.21 1803.16 2365.75C1792.79 2367.28 1782.4 2368.6 1771.93 2369.62C1761.5 2370.64 1751.07 2371.41 1740.57 2371.92C1730.11 2372.44 1719.62 2372.69 1709.15 2372.69C1698.66 2372.69 1688.16 2372.44 1677.7 2371.92C1667.24 2371.41 1656.77 2370.64 1646.34 2369.62C1635.91 2368.6 1625.48 2367.28 1615.11 2365.75C1604.74 2364.21 1594.41 2362.42 1584.14 2360.37C1573.83 2358.32 1563.63 2356.05 1553.45 2353.49C1543.28 2350.93 1533.17 2348.15 1523.12 2345.11C1513.1 2342.07 1503.15 2338.77 1493.26 2335.22C1483.41 2331.7 1473.62 2327.93 1463.92 2323.93C1454.23 2319.9 1444.66 2315.64 1435.19 2311.16C1425.69 2306.68 1416.34 2301.98 1407.09 2297.02C1397.85 2292.09 1388.7 2286.91 1379.7 2281.53C1370.71 2276.12 1361.85 2270.52 1353.15 2264.7C1344.41 2258.88 1335.87 2252.83 1327.42 2246.59C1319.01 2240.35 1310.75 2233.89 1302.62 2227.23C1294.53 2220.61 1286.59 2213.76 1278.82 2206.69C1271.04 2199.65 1263.46 2192.42 1256.03 2185.03C1248.64 2177.6 1241.41 2170.02 1234.37 2162.24C1227.3 2154.47 1220.45 2146.53 1213.83 2138.44C1207.17 2130.31 1200.71 2122.05 1194.47 2113.64C1188.23 2105.19 1182.18 2096.65 1176.36 2087.91C1170.54 2079.21 1164.94 2070.35 1159.53 2061.35C1154.15 2052.36 1148.97 2043.21 1144.04 2033.96C1139.08 2024.72 1134.38 2015.37 1129.9 2005.87C1125.39 1996.4 1121.16 1986.83 1117.13 1977.14C1113.13 1967.44 1109.36 1957.65 1105.84 1947.79C1102.28 1937.91 1098.99 1927.96 1095.95 1917.94C1092.91 1907.89 1090.13 1897.78 1087.57 1887.61C1085.01 1877.43 1082.73 1867.22 1080.69 1856.92C1078.64 1846.65 1076.85 1836.31 1075.31 1825.95C1073.77 1815.58 1072.46 1805.15 1071.44 1794.72C1070.42 1784.29 1069.65 1773.82 1069.14 1763.36C1068.62 1752.9 1068.37 1742.4 1068.37 1731.91C1068.37 1721.44 1068.62 1710.95 1069.14 1700.48C1069.65 1689.99 1070.42 1679.56 1071.44 1669.13C1072.46 1658.66 1073.77 1648.26 1075.31 1637.9C1076.85 1627.53 1078.64 1617.19 1080.69 1606.92C1082.73 1596.62 1085.01 1586.38 1087.57 1576.24C1090.13 1566.06 1092.91 1555.95 1095.95 1545.9C1098.99 1535.89 1102.28 1525.94 1105.84 1516.05C1109.36 1506.16 1113.13 1496.4 1117.13 1486.71C1121.16 1477.01 1125.39 1467.45 1129.9 1457.94C1134.38 1448.47 1139.08 1439.1 1144.04 1429.85C1148.97 1420.6 1154.15 1411.48 1159.53 1402.49C1164.94 1393.5 1170.54 1384.64 1176.36 1375.93C1182.18 1367.2 1188.23 1358.62 1194.47 1350.21C1200.71 1341.79 1207.17 1333.53 1213.83 1325.41C1220.45 1317.31 1227.3 1309.38 1234.37 1301.6C1241.41 1293.83 1248.64 1286.24 1256.03 1278.82C1263.46 1271.4 1271.04 1264.16 1278.82 1257.12C1286.59 1250.08 1294.53 1243.24 1302.62 1236.58C1310.75 1229.93 1319.01 1223.49 1327.42 1217.26C1335.87 1210.98 1344.41 1204.97 1353.15 1199.14C1361.85 1193.32 1370.71 1187.69 1379.7 1182.31C1388.7 1176.91 1397.85 1171.75 1407.09 1166.79C1416.34 1161.87 1425.69 1157.16 1435.19 1152.65C1444.66 1148.17 1454.23 1143.95 1463.92 1139.92C1473.62 1135.92 1483.41 1132.14 1493.26 1128.59C1503.15 1125.07 1513.1 1121.77 1523.12 1118.73C1533.17 1115.69 1543.28 1112.91 1553.45 1110.35C1563.63 1107.79 1573.83 1105.49 1584.14 1103.47C1594.41 1101.42 1604.74 1099.63 1615.11 1098.1C1625.48 1096.53 1635.91 1095.25 1646.34 1094.22C1656.77 1093.2 1667.24 1092.43 1677.7 1091.92C1688.16 1091.41 1698.66 1091.15 1709.15 1091.15C1719.62 1091.15 1730.11 1091.41 1740.57 1091.92C1751.07 1092.43 1761.5 1093.2 1771.93 1094.22C1782.4 1095.25 1792.79 1096.53 1803.16 1098.1C1813.53 1099.63 1823.86 1101.42 1834.14 1103.47C1844.44 1105.49 1854.68 1107.79 1864.82 1110.35C1875 1112.91 1885.11 1115.69 1895.16 1118.73C1905.17 1121.77 1915.12 1125.07 1925.01 1128.59C1934.9 1132.14 1944.66 1135.92 1954.35 1139.92C1964.05 1143.95 1973.61 1148.17 1983.12 1152.65C1992.59 1157.16 2001.96 1161.87 2011.21 1166.79C2020.46 1171.75 2029.58 1176.91 2038.57 1182.31C2047.56 1187.69 2056.42 1193.32 2065.13 1199.14C2073.86 1204.97 2082.44 1210.98 2090.85 1217.26C2099.27 1223.49 2107.52 1229.93 2115.65 1236.58C2123.75 1243.24 2131.68 1250.08 2139.46 1257.12C2147.23 1264.16 2154.82 1271.4 2162.24 1278.82C2169.66 1286.24 2176.9 1293.83 2183.93 1301.6C2190.97 1309.38 2197.82 1317.31 2204.48 1325.41C2211.13 1333.53 2217.56 1341.79 2223.8 1350.21C2230.08 1358.62 2236.09 1367.2 2241.91 1375.93C2247.74 1384.64 2253.37 1393.5 2258.74 1402.49C2264.15 1411.48 2269.3 1420.6 2274.26 1429.85C2279.19 1439.1 2283.9 1448.47 2288.41 1457.94C2292.89 1467.45 2297.11 1477.01 2301.14 1486.71C2305.14 1496.4 2308.92 1506.16 2312.47 1516.05C2315.99 1525.94 2319.28 1535.89 2322.32 1545.9C2325.36 1555.95 2328.15 1566.06 2330.71 1576.24C2333.27 1586.38 2335.54 1596.62 2337.59 1606.92C2339.64 1617.19 2341.43 1627.53 2342.96 1637.9C2344.53 1648.26 2345.81 1658.66 2346.83 1669.13C2347.86 1679.56 2348.63 1689.99 2349.14 1700.48C2349.65 1710.95 2349.91 1721.44 2349.91 1731.91Z" fill="#FCFF55"/>
<path d="M1709.16 2382.29C1535.15 2382.29 1371.97 2315.1 1249.58 2191.49C1127.18 2069.1 1058.77 1905.91 1058.77 1731.91C1058.77 1557.94 1125.97 1394.75 1249.58 1272.32C1371.97 1149.93 1535.15 1081.55 1709.16 1081.55C1883.13 1081.55 2046.32 1148.75 2168.74 1272.32C2291.13 1394.75 2359.51 1557.94 2359.51 1731.91C2359.51 1905.91 2292.32 2069.1 2168.74 2191.49C2046.32 2313.88 1883.13 2382.29 1709.16 2382.29ZM1709.16 1101.94C1539.95 1101.94 1381.57 1167.95 1262.76 1286.72C1143.98 1405.53 1077.97 1563.92 1077.97 1733.12C1077.97 1901.11 1143.98 2059.5 1262.76 2178.31C1381.57 2297.08 1539.95 2363.09 1707.94 2363.09C1875.93 2363.09 2034.32 2297.08 2153.13 2178.31C2271.93 2059.5 2337.91 1901.11 2337.91 1731.91C2337.91 1563.92 2271.93 1405.53 2153.13 1286.72C2035.53 1166.73 1877.15 1101.94 1709.16 1101.94Z" fill="#333330"/>
<path d="M1893.94 1537.52C1893.94 1543.34 1893.65 1549.14 1893.08 1554.93C1892.5 1560.72 1891.67 1566.48 1890.52 1572.17C1889.4 1577.87 1887.99 1583.5 1886.29 1589.07C1884.6 1594.64 1882.65 1600.11 1880.41 1605.48C1878.2 1610.86 1875.7 1616.11 1872.95 1621.26C1870.23 1626.38 1867.22 1631.37 1863.99 1636.2C1860.76 1641.03 1857.3 1645.7 1853.62 1650.18C1849.94 1654.7 1846.04 1658.98 1841.91 1663.11C1837.82 1667.21 1833.5 1671.11 1829.02 1674.82C1824.51 1678.5 1819.83 1681.96 1815 1685.19C1810.17 1688.42 1805.18 1691.4 1800.06 1694.15C1794.94 1696.9 1789.66 1699.36 1784.32 1701.6C1778.94 1703.81 1773.47 1705.8 1767.9 1707.46C1762.33 1709.16 1756.7 1710.56 1750.97 1711.72C1745.28 1712.84 1739.55 1713.7 1733.76 1714.28C1727.97 1714.82 1722.15 1715.11 1716.35 1715.11C1710.53 1715.11 1704.71 1714.82 1698.95 1714.28C1693.16 1713.7 1687.4 1712.84 1681.7 1711.72C1676 1710.56 1670.34 1709.16 1664.77 1707.46C1659.24 1705.8 1653.77 1703.81 1648.39 1701.6C1643.01 1699.36 1637.77 1696.9 1632.62 1694.15C1627.5 1691.4 1622.5 1688.42 1617.67 1685.19C1612.84 1681.96 1608.17 1678.5 1603.69 1674.82C1599.18 1671.11 1594.89 1667.21 1590.76 1663.11C1586.63 1658.98 1582.76 1654.7 1579.05 1650.18C1575.37 1645.7 1571.92 1641.03 1568.68 1636.2C1565.45 1631.37 1562.44 1626.38 1559.72 1621.26C1556.97 1616.11 1554.48 1610.86 1552.27 1605.48C1550.03 1600.11 1548.08 1594.64 1546.38 1589.07C1544.72 1583.5 1543.31 1577.87 1542.16 1572.17C1541.04 1566.48 1540.17 1560.72 1539.6 1554.93C1539.02 1549.14 1538.73 1543.34 1538.73 1537.52C1538.73 1531.7 1539.02 1525.91 1539.6 1520.11C1540.17 1514.32 1541.04 1508.59 1542.16 1502.87C1543.31 1497.17 1544.72 1491.54 1546.38 1485.97C1548.08 1480.4 1550.03 1474.93 1552.27 1469.56C1554.48 1464.18 1556.97 1458.93 1559.72 1453.81C1562.44 1448.7 1565.45 1443.7 1568.68 1438.87C1571.92 1434.04 1575.37 1429.37 1579.05 1424.86C1582.76 1420.38 1586.63 1416.06 1590.76 1411.96C1594.89 1407.83 1599.18 1403.93 1603.69 1400.25C1608.17 1396.57 1612.84 1393.08 1617.67 1389.85C1622.5 1386.62 1627.5 1383.64 1632.62 1380.89C1637.77 1378.17 1643.01 1375.68 1648.39 1373.47C1653.77 1371.23 1659.24 1369.28 1664.77 1367.58C1670.34 1365.89 1676 1364.48 1681.7 1363.36C1687.4 1362.21 1693.16 1361.37 1698.95 1360.8C1704.71 1360.22 1710.53 1359.93 1716.35 1359.93C1722.15 1359.93 1727.97 1360.22 1733.76 1360.8C1739.55 1361.37 1745.28 1362.21 1750.97 1363.36C1756.7 1364.48 1762.33 1365.89 1767.9 1367.58C1773.47 1369.28 1778.94 1371.23 1784.32 1373.47C1789.66 1375.68 1794.94 1378.17 1800.06 1380.89C1805.18 1383.64 1810.17 1386.62 1815 1389.85C1819.83 1393.08 1824.51 1396.57 1829.02 1400.25C1833.5 1403.93 1837.82 1407.83 1841.91 1411.96C1846.04 1416.06 1849.94 1420.38 1853.62 1424.86C1857.3 1429.37 1860.76 1434.04 1863.99 1438.87C1867.22 1443.7 1870.23 1448.7 1872.95 1453.81C1875.7 1458.93 1878.2 1464.18 1880.41 1469.56C1882.65 1474.93 1884.6 1480.4 1886.29 1485.97C1887.99 1491.54 1889.4 1497.17 1890.52 1502.87C1891.67 1508.59 1892.5 1514.32 1893.08 1520.11C1893.65 1525.91 1893.94 1531.7 1893.94 1537.52Z" fill="#333330"/>
<path d="M2016.33 2035.5H1416.35C1392.35 2035.5 1373.15 2016.3 1373.15 1992.3V1973.1C1373.15 1848.31 1470.36 1747.52 1593.93 1740.32C1601.13 1740.32 1607.15 1741.5 1613.13 1743.9C1627.56 1751.1 1659.94 1763.1 1715.14 1763.1C1766.75 1763.1 1802.75 1749.92 1817.15 1743.9C1823.13 1741.5 1829.15 1740.32 1835.13 1740.32C1958.74 1746.3 2057.13 1847.13 2057.13 1971.92V1991.12C2059.53 2016.3 2040.33 2035.5 2016.33 2035.5Z" fill="#333330"/>
<path d="M5132.62 3255.86L5144.62 3243.86C5160.21 3228.25 5183.02 3223.45 5202.22 3229.46L5354.59 3272.66C5334.21 3266.64 5312.61 3271.44 5297 3287.06L5285 3299.06L5250.22 3333.87L4307.05 4262.6C4188.24 4380.23 4020.26 4416.22 3871.47 4374.21L3719.06 4331.01C3869.07 4374.21 4035.84 4337.03 4154.65 4219.41L5132.62 3255.86Z" fill="#333330"/>
<path d="M3392.68 4531.42L3396.26 4535C3499.45 4639.41 3624.25 4712.59 3761.07 4752.2L3608.66 4709C3471.87 4669.39 3347.08 4596.21 3243.89 4491.8L3240.27 4488.22L3392.68 4531.42Z" fill="#333330"/>
<path d="M3677.08 4259.02C3732.27 4315.4 3799.47 4353.83 3870.25 4374.21C4020.25 4417.41 4187.05 4380.23 4305.83 4262.6L5283.81 3299.06L5295.81 3287.06C5311.39 3271.44 5334.2 3266.64 5353.4 3272.66C5363 3275.06 5371.38 3281.04 5379.8 3288.24L5572.97 3483.84C5595.78 3506.66 5595.78 3545.05 5572.97 3567.84L5526.19 3614.65L4583.03 4543.41C4423.42 4700.59 4212.24 4786.98 3987.84 4785.8C3909.86 4785.8 3834.25 4773.8 3761.07 4753.38C3624.28 4713.8 3499.46 4640.59 3396.26 4536.21L3392.68 4532.6L3673.46 4255.4L3677.08 4259.02Z" fill="#FCFF55"/>
<path d="M3993.85 4793C3992.64 4793 3990.24 4793 3989.06 4793C3911.04 4793 3834.25 4781 3759.86 4760.58C3621.85 4721 3493.48 4645.39 3391.47 4541.02L3381.87 4531.42L3673.46 4243.41L3683.06 4253.01C3735.86 4307.02 3801.87 4345.41 3873.86 4365.83C4026.24 4409.03 4189.46 4367.01 4302.25 4256.62L5280.19 3293.04L5292.19 3281.04C5308.99 3264.24 5334.21 3257.05 5358.2 3264.24C5368.99 3267.86 5379.8 3273.84 5387 3281.04L5580.17 3476.65C5592.17 3489.86 5599.37 3506.66 5599.37 3524.64C5599.37 3542.66 5592.17 3559.46 5578.99 3571.45L5526.19 3623.03L4589.01 4545.82C4429.44 4705.39 4218.25 4793 3993.85 4793ZM3403.47 4531.42C3504.26 4632.21 3627.87 4706.6 3763.47 4745C3836.65 4765.38 3912.26 4776.2 3989.06 4777.38C3990.24 4777.38 3992.64 4777.38 3993.85 4777.38C4214.64 4777.38 4421.02 4692.21 4578.23 4537.4L5526.19 3603.84L5568.17 3563.04C5577.77 3553.44 5583.79 3540.26 5583.79 3527.04C5583.79 3512.64 5578.99 3500.64 5569.39 3489.86L5376.19 3294.26C5370.2 3288.24 5361.79 3283.44 5353.4 3281.04C5335.39 3276.24 5316.19 3281.04 5303.01 3294.26L5291.01 3306.26L4313.03 4269.8C4196.66 4385.03 4027.45 4428.22 3870.25 4382.63C3797.07 4361.03 3728.66 4321.42 3674.68 4267.4L3403.47 4531.42Z" fill="#333330"/>
<path d="M4295.05 2309.08L4445.02 2352.31C4425.82 2346.29 4403.04 2351.09 4387.42 2366.71L4341.83 2412.3H4340.64L3398.66 3343.47C3239.09 3500.64 3150.3 3711.83 3149.08 3935.04C3147.9 4159.41 3234.29 4370.63 3391.46 4530.2L3395.08 4533.81L3242.67 4490.62L3239.09 4487C3081.89 4327.4 2995.49 4116.21 2996.68 3891.85C2997.89 3667.45 3086.69 3457.44 3246.29 3300.24L4220.65 2340.31L4221.84 2339.09L4237.45 2323.48C4253.03 2307.9 4274.63 2303.1 4295.05 2309.08Z" fill="#333330"/>
<path d="M3677.08 4259.02C3732.27 4315.4 3799.47 4353.83 3870.25 4374.21C4020.25 4417.41 4187.05 4380.23 4305.83 4262.6L5283.81 3299.06L5295.81 3287.06C5311.39 3271.44 5334.2 3266.64 5353.4 3272.66C5363 3275.06 5371.38 3281.04 5379.8 3288.24L5572.97 3483.84C5595.78 3506.66 5595.78 3545.05 5572.97 3567.84L5526.19 3614.65L4583.03 4543.41C4423.42 4700.59 4212.24 4786.98 3987.84 4785.8C3909.86 4785.8 3834.25 4773.8 3761.07 4753.38C3624.28 4713.8 3499.46 4640.59 3396.26 4536.21L3392.68 4532.6L3673.46 4255.4L3677.08 4259.02Z" fill="#1D6AFF"/>
<path d="M3993.85 4790.6C3992.64 4790.6 3990.24 4790.6 3989.05 4790.6C3911.04 4790.6 3834.25 4778.6 3761.07 4758.18C3623.06 4718.6 3495.87 4642.99 3393.86 4539.8L3386.66 4531.41L3390.28 4527.8L3674.68 4247.02L3681.87 4255.4C3734.67 4309.41 3800.65 4349.03 3873.86 4369.41C4026.23 4412.61 4191.85 4370.63 4304.65 4259.02L5282.59 3295.44L5294.59 3283.44C5311.39 3266.64 5335.39 3260.66 5358.2 3267.86C5368.98 3271.44 5378.58 3276.24 5385.78 3284.66L5578.99 3480.26C5590.98 3492.26 5598.18 3509.06 5598.18 3525.86C5598.18 3542.65 5590.98 3559.45 5578.99 3571.45L5528.59 3621.85L4589.01 4547C4428.22 4704.2 4218.25 4790.6 3993.85 4790.6ZM3399.88 4531.41C3500.67 4633.39 3626.65 4707.79 3762.25 4747.4C3835.46 4767.78 3911.04 4778.6 3987.84 4779.78C3989.05 4779.78 3991.45 4779.78 3992.64 4779.78C4213.45 4779.78 4421.02 4694.6 4578.23 4538.61L5524.97 3606.23L5568.17 3564.25C5578.99 3554.65 5583.78 3540.25 5583.78 3525.86C5583.78 3511.46 5577.77 3498.24 5568.17 3487.46L5375 3291.86C5368.98 3284.66 5360.6 3279.86 5351 3277.46C5331.8 3272.66 5311.39 3277.46 5298.21 3290.64L5286.21 3302.64L4308.23 4266.22C4193.04 4380.23 4023.83 4423.42 3866.66 4379.01C3792.27 4357.41 3725.07 4317.8 3671.06 4262.6L3399.88 4531.41Z" fill="#488467"/>
<path d="M4445.02 2352.31C4454.62 2354.71 4463.04 2360.69 4471.42 2367.89L4665.84 2564.68C4688.62 2588.68 4688.62 2625.89 4665.84 2648.67L4647.82 2666.69L3673.46 3625.43C3499.46 3797.04 3498.27 4079.03 3671.06 4254.22L3674.68 4257.8L3395.08 4533.82L3391.46 4530.2C3234.29 4370.63 3147.9 4159.41 3147.9 3936.23C3149.08 3713.04 3236.69 3503.04 3395.08 3345.87L4339.43 2413.49L4386.24 2366.71C4401.82 2351.09 4424.64 2346.29 4445.02 2352.31Z" fill="#FCFF55"/>
<path d="M3395.08 4542.2L3387.88 4533.82C3229.49 4373.03 3141.88 4160.63 3143.1 3936.23C3144.28 3710.64 3231.89 3500.64 3392.68 3342.25L4333.44 2413.49L4383.84 2363.09C4400.64 2346.29 4424.64 2340.31 4447.42 2347.51C4458.24 2351.09 4467.83 2355.89 4476.22 2364.31L4670.64 2561.1C4695.82 2586.28 4695.82 2628.29 4670.64 2652.29L4656.24 2666.69L4652.62 2670.27L3678.26 3629.05C3595.45 3711.83 3548.67 3821.04 3548.67 3938.63C3548.67 4056.22 3593.05 4166.61 3675.86 4250.6L3683.06 4259.02L3395.08 4542.2ZM4346.63 2412.31L4343.04 2415.89L3398.66 3348.27C3241.49 3504.26 3153.88 3713.04 3152.7 3935.04C3151.48 4157.01 3237.88 4367.01 3393.86 4525.4L3665.08 4256.62C3581.05 4171.41 3534.27 4057.43 3534.27 3937.44C3534.27 3817.42 3582.27 3704.63 3667.48 3620.63L4638.22 2665.47L4641.84 2661.89L4659.82 2643.87C4681.42 2623.49 4681.42 2588.68 4659.82 2567.08L4465.43 2370.29C4459.42 2363.09 4451.04 2358.29 4441.44 2355.89C4422.24 2349.91 4401.82 2355.89 4388.64 2369.11L4346.63 2412.31Z" fill="#488467"/>
<path d="M5776.12 3312.43L5941.55 3283.12L5943.44 3293.78L5778.01 3323.09L5776.12 3312.43Z" fill="#488467"/>
<path d="M5650.85 3198.04L5836.98 2976.71L5845.24 2983.65L5659.14 3204.98L5650.85 3198.04Z" fill="#488467"/>
<path d="M5514.06 2951.47L5524.81 2950.73L5536.56 3125.53L5525.81 3126.24L5514.06 2951.47Z" fill="#488467"/>
<path d="M4776.9 2408.75L4912.86 2365.11L4916.15 2375.41L4780.19 2419.03L4776.9 2408.75Z" fill="#488467"/>
<path d="M4680.69 2294.04L4843.11 2096.71L4851.46 2103.59L4689.01 2300.92L4680.69 2294.04Z" fill="#488467"/>
<path d="M4520.12 2067.08L4530.71 2065.07L4567.63 2257.15L4557.01 2259.16L4520.12 2067.08Z" fill="#488467"/>
</svg>
