<svg width="3777" height="4716" viewBox="0 0 3777 4716" fill="none" xmlns="http://www.w3.org/2000/svg">
<path d="M1340.49 1280.72L1322.76 1230.02C1303.74 1174.23 1251.79 1143.8 1208.73 1162.82L492.828 1468.31C468.751 1478.43 454.827 1507.6 459.887 1539.29C459.887 1543.09 461.145 1545.64 461.145 1549.44L342.049 1611.55C307.851 1631.82 291.38 1678.72 301.501 1726.87L312.911 1777.57L131.737 1899.28C30.3685 1970.26 -17.7855 2113.49 7.54853 2261.79C39.2322 2446.83 98.7963 2721.9 271.107 2948.78C344.595 3045.12 451.024 3093.3 551.103 3075.54L738.627 3043.86L780.463 3102.17C803.251 3133.85 834.935 3147.81 871.679 3141.46L1000.93 3099.62C1017.4 3117.38 1040.19 3123.7 1060.46 3114.83L1082.02 3104.68L1116.22 3197.22C1120.02 3207.37 1130.14 3213.69 1137.75 3209.92L1226.45 3170.59L1918.27 4695.44C1925.88 4710.65 1941.06 4719.55 1953.73 4714.46L2093.13 4663.76C2176.74 4633.33 2218.54 4523.07 2185.6 4417.86L1720.6 2952.58L1814.36 2910.77C1823.22 2906.97 1825.77 2895.56 1821.96 2885.41L1785.22 2785.26C1816.9 2761.19 1829.57 2711.78 1814.36 2664.85C1818.16 2663.59 1823.22 2663.59 1828.31 2662.33C2337.67 2548.23 2852.09 2565.99 3372.82 2757.38C3385.52 2762.48 3395.64 2747.26 3390.58 2733.31L2437.75 90.5054C2432.69 75.2921 2416.22 72.7458 2409.87 85.4128C2145.05 602.57 1790.28 1004.4 1340.49 1280.72Z" fill="#333330"/>
<path d="M3566.12 1177.13C3574.56 1199.44 3582.78 1221.84 3590.77 1244.34C3598.77 1266.8 3606.5 1289.33 3614.01 1311.86C3621.56 1334.42 3628.81 1357.02 3635.83 1379.61C3642.86 1402.21 3649.63 1424.8 3656.14 1447.36C3662.65 1469.93 3668.9 1492.46 3674.9 1514.95C3680.86 1537.45 3686.6 1559.88 3692.05 1582.25C3697.49 1604.62 3702.65 1626.89 3707.55 1649.1C3712.45 1671.28 3717.06 1693.32 3721.38 1715.27C3725.7 1737.22 3729.76 1759.04 3733.5 1780.7C3737.27 1802.33 3740.72 1823.83 3743.91 1845.13C3747.07 1866.47 3749.93 1887.58 3752.51 1908.5C3755.09 1929.42 3757.38 1950.11 3759.35 1970.58C3761.31 1991.08 3763.02 2011.29 3764.37 2031.27C3765.76 2051.26 3766.82 2070.98 3767.6 2090.42C3768.37 2109.85 3768.82 2129 3769.02 2147.85C3769.18 2166.71 3769.02 2185.24 3768.56 2203.49C3768.11 2221.7 3767.37 2239.58 3766.31 2257.12C3765.28 2274.65 3763.92 2291.83 3762.25 2308.66C3760.6 2325.48 3758.64 2341.92 3756.38 2358C3754.12 2374.06 3751.55 2389.72 3748.71 2405C3745.84 2420.24 3742.71 2435.1 3739.27 2449.51C3735.82 2463.95 3732.08 2477.94 3728.05 2491.51C3724.02 2505.04 3719.73 2518.16 3715.12 2530.8C3710.55 2543.46 3705.65 2555.65 3700.52 2567.38C3695.37 2579.08 3689.92 2590.33 3684.21 2601.09C3678.54 2611.83 3672.55 2622.11 3666.33 2631.88C3660.1 2641.64 3653.59 2650.93 3646.86 2659.66C3640.09 2668.43 3633.09 2676.68 3625.84 2684.38C3618.59 2692.12 3611.08 2699.34 3603.34 2706.01C3595.61 2712.68 3587.62 2718.8 3579.43 2724.41C3571.21 2730.02 3562.8 2735.08 3554.13 2739.63C3545.49 2744.14 3536.63 2748.14 3527.54 2751.55C3518.48 2755 3509.2 2757.9 3499.72 2760.22C3490.24 2762.54 3480.57 2764.35 3470.71 2765.57C3460.85 2766.8 3450.79 2767.47 3440.57 2767.6C3430.36 2767.73 3419.98 2767.28 3409.44 2766.28C3398.9 2765.32 3388.17 2763.77 3377.34 2761.67C3366.47 2759.58 3355.48 2756.94 3344.33 2753.74C3333.18 2750.55 3321.93 2746.81 3310.55 2742.53C3299.14 2738.24 3287.64 2733.41 3276.03 2728.02C3264.4 2722.64 3252.7 2716.74 3240.87 2710.3C3229.07 2703.85 3217.15 2696.89 3205.19 2689.38C3193.2 2681.9 3181.14 2673.87 3168.99 2665.33C3156.87 2656.82 3144.69 2647.77 3132.44 2638.23C3120.22 2628.65 3107.94 2618.63 3095.6 2608.09C3083.29 2597.52 3070.94 2586.49 3058.57 2574.99C3046.19 2563.48 3033.81 2551.49 3021.4 2539.05C3009.03 2526.61 2996.62 2513.68 2984.24 2500.34C2971.83 2486.96 2959.49 2473.17 2947.11 2458.92C2934.76 2444.67 2922.45 2430.01 2910.17 2414.93C2897.86 2399.87 2885.64 2384.37 2873.43 2368.48C2861.24 2352.59 2849.12 2336.31 2837.07 2319.65C2824.98 2302.98 2812.99 2285.97 2801.1 2268.59C2789.17 2251.19 2777.38 2233.46 2765.64 2215.38C2753.91 2197.3 2742.28 2178.93 2730.77 2160.2C2719.26 2141.47 2707.85 2122.46 2696.6 2103.15C2685.32 2083.81 2674.17 2064.24 2663.15 2044.36C2652.16 2024.5 2641.29 2004.36 2630.56 1983.99C2619.86 1963.62 2609.29 1943.02 2598.91 1922.2C2588.5 1901.38 2578.28 1880.33 2568.23 1859.09C2558.17 1837.88 2548.31 1816.48 2538.6 1794.88C2528.93 1773.29 2519.43 1751.57 2510.14 1729.68C2500.86 1707.79 2491.77 1685.78 2482.88 1663.64C2474.01 1641.49 2465.34 1619.25 2456.9 1596.92C2448.45 1574.61 2440.23 1552.18 2432.24 1529.71C2424.25 1507.25 2416.48 1484.72 2408.97 1462.16C2401.46 1439.6 2394.21 1417.03 2387.18 1394.44C2380.15 1371.84 2373.39 1349.25 2366.87 1326.69C2360.36 1304.13 2354.11 1281.6 2348.12 1259.1C2342.12 1236.6 2336.42 1214.17 2330.97 1191.8C2325.52 1169.43 2320.36 1147.16 2315.46 1124.95C2310.57 1102.77 2305.96 1080.7 2301.64 1058.78C2297.29 1036.83 2293.26 1015.01 2289.49 993.348C2285.75 971.689 2282.3 950.222 2279.11 928.917C2275.95 907.58 2273.08 886.468 2270.5 865.55C2267.92 844.631 2265.63 823.939 2263.67 803.472C2261.67 782.972 2259.99 762.763 2258.64 742.779C2257.25 722.796 2256.19 703.07 2255.42 683.634C2254.64 664.199 2254.16 645.053 2254 626.198C2253.84 607.342 2254 588.809 2254.42 570.566C2254.87 552.355 2255.64 534.466 2256.67 516.932C2257.74 499.398 2259.09 482.219 2260.77 465.394C2262.41 448.569 2264.38 432.131 2266.63 416.047C2268.89 399.996 2271.44 384.331 2274.3 369.053C2277.14 353.808 2280.3 338.949 2283.75 324.541C2287.2 310.102 2290.94 296.113 2294.93 282.544C2298.96 269.006 2303.28 255.888 2307.89 243.253C2312.47 230.586 2317.33 218.403 2322.49 206.67C2327.65 194.97 2333.06 183.721 2338.77 172.956C2344.47 162.191 2350.44 151.941 2356.69 142.175C2362.91 132.409 2369.42 123.126 2376.16 114.391C2382.93 105.624 2389.92 97.3728 2397.17 89.6372C2404.42 81.9339 2411.93 74.714 2419.67 68.042C2427.41 61.3701 2435.37 55.2461 2443.59 49.6378C2451.77 44.0295 2460.22 38.9369 2468.86 34.4244C2477.53 29.912 2486.39 25.9153 2495.45 22.4665C2504.54 19.0499 2513.82 16.1491 2523.29 13.8284C2532.77 11.4755 2542.44 9.70275 2552.3 8.47795C2562.17 7.25315 2572.19 6.57628 2582.41 6.44736C2592.62 6.31843 2603.04 6.76968 2613.58 7.73662C2624.11 8.73581 2634.82 10.2829 2645.68 12.378C2656.54 14.473 2667.53 17.116 2678.68 20.307C2689.8 23.4979 2701.08 27.2368 2712.46 31.5236C2723.87 35.8104 2735.38 40.6451 2746.98 46.0278C2758.59 51.4105 2770.32 57.3089 2782.15 63.7552C2793.94 70.2016 2805.84 77.1636 2817.83 84.6413C2829.82 92.1513 2841.87 100.177 2853.99 108.718C2866.14 117.228 2878.33 126.285 2890.54 135.825C2902.79 145.366 2915.07 155.422 2927.38 165.962C2939.73 176.502 2952.07 187.557 2964.45 199.064C2976.83 210.57 2989.2 222.561 3001.58 235.002C3013.99 247.443 3026.4 260.368 3038.78 273.712C3051.15 287.088 3063.53 300.883 3075.91 315.13C3088.25 329.376 3100.56 344.009 3112.84 359.094C3125.12 374.178 3137.37 389.682 3149.56 405.572C3161.77 421.462 3173.89 437.739 3185.94 454.403C3198 471.067 3209.99 488.085 3221.92 505.458C3233.81 522.863 3245.64 540.59 3257.37 558.672C3269.1 576.754 3280.71 595.126 3292.24 613.853C3303.75 632.579 3315.13 651.596 3326.41 670.903C3337.69 690.21 3348.84 709.806 3359.83 729.693C3370.86 749.548 3381.72 769.693 3392.42 790.063C3403.15 810.434 3413.69 831.03 3424.1 851.851C3434.52 872.673 3444.73 893.72 3454.79 914.929C3464.85 936.169 3474.71 957.571 3484.41 979.166C3494.08 1000.76 3503.56 1022.49 3512.87 1044.37C3522.15 1066.26 3531.24 1088.27 3540.14 1110.41C3549 1132.56 3557.67 1154.8 3566.12 1177.13Z" fill="white"/>
<path d="M3436.19 2776.4C3384.23 2776.4 3327.21 2762.45 3267.68 2733.31C3175.18 2688.96 3077.61 2612.89 2978.79 2506.43C2776.05 2287.13 2588.53 1965.2 2450.41 1600.14C2312.3 1235.08 2240.1 868.772 2247.71 570.887C2251.48 425.135 2273.04 303.429 2313.59 209.635C2355.4 110.78 2416.22 46.1234 2493.51 16.986C2570.8 -12.1837 2658.21 -3.28772 2755.78 42.3201C2848.28 86.703 2945.85 162.737 3044.67 269.231C3247.41 488.503 3434.93 810.465 3573.01 1175.52C3711.12 1540.54 3783.35 1906.89 3775.75 2204.74C3771.94 2350.53 3750.41 2472.2 3709.87 2565.99C3668.06 2664.85 3607.24 2729.5 3529.95 2758.67C3500.81 2770.05 3469.13 2776.4 3436.19 2776.4ZM2587.27 13.1826C2555.59 13.1826 2526.45 18.243 2498.57 29.653C2425.08 57.5334 2368.06 119.644 2327.51 214.727C2288.22 307.232 2265.44 427.649 2262.89 570.887C2255.28 867.482 2327.51 1231.28 2464.37 1595.05C2601.19 1958.85 2788.72 2279.52 2990.2 2496.28C3087.73 2601.48 3184.04 2677.55 3275.25 2720.64C3369.02 2764.99 3453.91 2773.86 3526.15 2745.98C3599.63 2718.09 3656.65 2655.98 3697.2 2560.93C3736.49 2468.4 3759.28 2347.98 3761.82 2204.74C3769.43 1908.15 3697.2 1544.35 3560.34 1180.58C3422.26 816.782 3236 496.109 3034.52 279.352C2936.98 174.147 2840.68 98.113 2749.46 55.0193C2691.15 27.1067 2636.68 13.1826 2587.27 13.1826Z" fill="#333330"/>
<path d="M3489.08 1206.27C3496.37 1225.48 3503.43 1244.76 3510.29 1264.09C3517.16 1283.4 3523.83 1302.77 3530.31 1322.18C3536.75 1341.58 3543.01 1361.02 3549.03 1380.45C3555.09 1399.89 3560.89 1419.29 3566.5 1438.73C3572.11 1458.13 3577.46 1477.53 3582.62 1496.87C3587.78 1516.21 3592.67 1535.52 3597.38 1554.76C3602.05 1574 3606.5 1593.15 3610.69 1612.23C3614.91 1631.31 3618.88 1650.29 3622.59 1669.18C3626.32 1688.07 3629.77 1706.8 3633 1725.43C3636.22 1744.06 3639.22 1762.56 3641.92 1780.9C3644.66 1799.2 3647.11 1817.38 3649.34 1835.37C3651.53 1853.39 3653.5 1871.18 3655.2 1888.78C3656.88 1906.41 3658.33 1923.81 3659.52 1940.99C3660.68 1958.2 3661.62 1975.16 3662.26 1991.89C3662.91 2008.58 3663.33 2025.08 3663.46 2041.3C3663.58 2057.51 3663.46 2073.46 3663.07 2089.13C3662.68 2104.79 3662.01 2120.17 3661.1 2135.28C3660.2 2150.37 3659.01 2165.13 3657.59 2179.6C3656.14 2194.07 3654.46 2208.22 3652.5 2222.05C3650.56 2235.88 3648.34 2249.35 3645.89 2262.47C3643.44 2275.62 3640.7 2288.38 3637.73 2300.79C3634.77 2313.2 3631.55 2325.26 3628.1 2336.89C3624.62 2348.56 3620.91 2359.84 3616.95 2370.74C3612.98 2381.63 3608.79 2392.11 3604.34 2402.19C3599.89 2412.28 3595.22 2421.95 3590.32 2431.2C3585.39 2440.45 3580.27 2449.28 3574.88 2457.7C3569.53 2466.11 3563.92 2474.07 3558.09 2481.61C3552.29 2489.16 3546.26 2496.25 3540.01 2502.89C3533.76 2509.53 3527.31 2515.71 3520.64 2521.48C3513.96 2527.22 3507.1 2532.51 3500.04 2537.34C3492.98 2542.14 3485.73 2546.53 3478.25 2550.43C3470.81 2554.33 3463.17 2557.74 3455.37 2560.71C3447.54 2563.64 3439.57 2566.16 3431.39 2568.16C3423.23 2570.15 3414.92 2571.7 3406.41 2572.76C3397.93 2573.83 3389.29 2574.41 3380.49 2574.5C3371.69 2574.63 3362.73 2574.25 3353.68 2573.41C3344.59 2572.57 3335.37 2571.25 3326.02 2569.44C3316.68 2567.64 3307.2 2565.38 3297.63 2562.64C3288.02 2559.87 3278.32 2556.68 3268.52 2552.97C3258.72 2549.3 3248.83 2545.14 3238.8 2540.53C3228.81 2535.92 3218.72 2530.83 3208.57 2525.29C3198.38 2519.74 3188.14 2513.75 3177.82 2507.33C3167.51 2500.89 3157.13 2493.99 3146.69 2486.64C3136.24 2479.29 3125.77 2471.52 3115.23 2463.31C3104.69 2455.12 3094.12 2446.48 3083.51 2437.39C3072.91 2428.33 3062.27 2418.86 3051.63 2408.96C3041 2399.07 3030.33 2388.75 3019.66 2378.05C3008.99 2367.35 2998.32 2356.23 2987.65 2344.76C2976.99 2333.25 2966.35 2321.39 2955.71 2309.14C2945.08 2296.89 2934.47 2284.29 2923.9 2271.33C2913.33 2258.34 2902.79 2245.03 2892.31 2231.37C2881.81 2217.7 2871.39 2203.71 2861.02 2189.37C2850.61 2175.06 2840.29 2160.39 2830.04 2145.44C2819.79 2130.48 2809.64 2115.24 2799.55 2099.7C2789.46 2084.16 2779.47 2068.34 2769.54 2052.22C2759.65 2036.14 2749.82 2019.77 2740.12 2003.17C2730.41 1986.53 2720.84 1969.71 2711.36 1952.59C2701.89 1935.51 2692.54 1918.2 2683.32 1900.7C2674.1 1883.17 2665.02 1865.44 2656.09 1847.55C2647.13 1829.63 2638.33 1811.55 2629.69 1793.27C2621.05 1775.03 2612.54 1756.59 2604.23 1738.03C2595.88 1719.46 2587.72 1700.77 2579.73 1681.95C2571.74 1663.12 2563.9 1644.2 2556.27 1625.15C2548.63 1606.1 2541.18 1586.99 2533.93 1567.78C2526.65 1548.57 2519.59 1529.3 2512.72 1509.96C2505.86 1490.65 2499.18 1471.28 2492.71 1451.88C2486.26 1432.47 2480.01 1413.04 2473.95 1393.6C2467.92 1374.17 2462.09 1354.76 2456.51 1335.33C2450.9 1315.92 2445.52 1296.52 2440.39 1277.18C2435.24 1257.84 2430.3 1238.53 2425.63 1219.29C2420.96 1200.05 2416.51 1180.9 2412.29 1161.82C2408.1 1142.74 2404.13 1123.76 2400.43 1104.87C2396.69 1085.98 2393.21 1067.26 2389.98 1048.63C2386.76 1030 2383.79 1011.5 2381.09 993.155C2378.35 974.848 2375.9 956.669 2373.67 938.684C2371.45 920.666 2369.52 902.875 2367.81 885.244C2366.1 867.645 2364.68 850.24 2363.49 833.061C2362.33 815.849 2361.39 798.895 2360.75 782.167C2360.07 765.439 2359.69 748.968 2359.56 732.756C2359.43 716.543 2359.56 700.589 2359.94 684.924C2360.33 669.26 2360.97 653.853 2361.91 638.768C2362.81 623.684 2363.97 608.89 2365.42 594.418C2366.84 579.946 2368.55 565.828 2370.48 552.001C2372.45 538.173 2374.64 524.701 2377.12 511.582C2379.57 498.432 2382.28 485.668 2385.28 473.259C2388.24 460.85 2391.47 448.795 2394.91 437.159C2398.4 425.492 2402.1 414.211 2406.07 403.316C2410.03 392.422 2414.22 381.947 2418.67 371.858C2423.12 361.77 2427.79 352.1 2432.69 342.85C2437.59 333.599 2442.75 324.768 2448.13 316.355C2453.48 307.943 2459.09 299.982 2464.89 292.439C2470.72 284.897 2476.75 277.806 2483 271.166C2489.26 264.527 2495.7 258.306 2502.37 252.569C2509.05 246.832 2515.91 241.546 2522.97 236.711C2530.03 231.908 2537.28 227.525 2544.73 223.625C2552.2 219.725 2559.81 216.308 2567.64 213.343C2575.44 210.41 2583.44 207.896 2591.62 205.897C2599.78 203.899 2608.09 202.352 2616.6 201.288C2625.08 200.225 2633.72 199.644 2642.52 199.548C2651.32 199.419 2660.25 199.806 2669.33 200.644C2678.42 201.482 2687.64 202.803 2696.99 204.608C2706.34 206.413 2715.81 208.669 2725.39 211.409C2734.99 214.181 2744.66 217.372 2754.49 221.078C2764.29 224.753 2774.18 228.911 2784.18 233.52C2794.2 238.129 2804.29 243.222 2814.44 248.765C2824.63 254.309 2834.88 260.272 2845.19 266.718C2855.5 273.165 2865.88 280.062 2876.33 287.411C2886.77 294.76 2897.24 302.528 2907.78 310.747C2918.32 318.934 2928.9 327.572 2939.5 336.661C2950.1 345.718 2960.71 355.194 2971.38 365.089C2982.01 374.985 2992.68 385.299 3003.35 396C3014.02 406.701 3024.69 417.82 3035.36 429.295C3046.03 440.802 3056.66 452.663 3067.3 464.911C3077.94 477.159 3088.51 489.762 3099.11 502.719C3109.68 515.708 3120.19 529.02 3130.7 542.686C3141.17 556.352 3151.62 570.341 3162 584.684C3172.37 598.995 3182.69 613.66 3192.94 628.615C3203.19 643.539 3213.37 658.816 3223.46 674.352C3233.55 689.888 3243.54 705.714 3253.47 721.829C3263.36 737.913 3273.16 754.287 3282.86 770.886C3292.57 787.485 3302.17 804.342 3311.65 821.425C3321.12 838.54 3330.47 855.849 3339.69 873.35C3348.91 890.884 3357.96 908.612 3366.92 926.5C3375.88 944.421 3384.65 962.503 3393.32 980.778C3401.96 999.022 3410.47 1017.46 3418.78 1036.02C3427.13 1054.59 3435.29 1073.28 3443.28 1092.11C3451.27 1110.93 3459.11 1129.85 3466.75 1148.9C3474.38 1167.95 3481.83 1187.06 3489.08 1206.27Z" fill="#FCFF55"/>
<path d="M2603.75 1745.89L3161.26 1535.49L3023.14 1170.43L2465.63 1380.84C2465.63 1380.84 2485.91 1459.45 2530.26 1569.72C2567 1659.71 2603.75 1745.89 2603.75 1745.89Z" fill="#333330"/>
<path d="M3144.76 1531.68C3102.95 1531.68 3047.22 1467.06 3014.25 1382.12C2978.79 1287.04 2982.6 1193.25 3024.4 1176.78C3028.21 1175.52 3033.27 1174.23 3037.07 1174.23C3078.87 1174.23 3134.63 1238.89 3167.58 1323.82C3185.3 1371.97 3194.2 1420.13 3191.65 1459.45C3189.11 1496.19 3176.44 1521.56 3157.45 1529.17C3153.65 1530.42 3149.85 1531.68 3144.76 1531.68Z" fill="white"/>
<path d="M3037.07 1181.84C3054.79 1181.84 3077.61 1195.79 3099.14 1219.87C3123.22 1246.49 3144.75 1284.53 3161.25 1326.33C3178.98 1373.23 3187.84 1420.13 3185.3 1458.16C3182.78 1492.39 3172.63 1515.21 3156.16 1521.56C3152.36 1522.82 3149.84 1522.82 3146.04 1522.82C3128.28 1522.82 3105.49 1508.86 3083.96 1484.78C3059.89 1458.16 3038.32 1420.13 3021.85 1378.32C3004.12 1331.43 2995.26 1284.53 2997.77 1246.49C3000.32 1212.26 3010.47 1189.44 3026.94 1183.13C3030.75 1181.84 3034.52 1181.84 3037.07 1181.84ZM3037.07 1167.91C3032 1167.91 3026.94 1169.17 3021.85 1170.43C2976.24 1188.19 2969.93 1283.24 3007.93 1384.64C3042.13 1474.63 3100.43 1538.03 3144.75 1538.03C3149.84 1538.03 3154.9 1536.74 3159.96 1535.48C3205.57 1517.76 3211.92 1422.67 3173.92 1321.27C3140.98 1231.28 3082.67 1167.91 3037.07 1167.91Z" fill="#333330"/>
</svg>
