<svg xmlns="http://www.w3.org/2000/svg" xmlns:xlink="http://www.w3.org/1999/xlink" width="1024" zoomAndPan="magnify" viewBox="0 0 768 767.999994" height="1024" preserveAspectRatio="xMidYMid meet" version="1.0"><defs><clipPath id="5509f81984"><path d="M 213 129 L 500 129 L 500 694.710938 L 213 694.710938 Z M 213 129 " clip-rule="nonzero"/></clipPath><clipPath id="6a6b992dab"><path d="M 224 128 L 513 128 L 513 694.710938 L 224 694.710938 Z M 224 128 " clip-rule="nonzero"/></clipPath></defs><path fill="#ff6232" d="M 678.144531 382.925781 C 678.144531 387.996094 678.019531 393.0625 677.769531 398.125 C 677.523438 403.191406 677.148438 408.246094 676.652344 413.289062 C 676.15625 418.335938 675.535156 423.367188 674.789062 428.382812 C 674.046875 433.398438 673.179688 438.390625 672.191406 443.363281 C 671.203125 448.335938 670.089844 453.285156 668.859375 458.203125 C 667.628906 463.121094 666.277344 468.003906 664.804688 472.855469 C 663.332031 477.710938 661.742188 482.523438 660.035156 487.296875 C 658.324219 492.070312 656.5 496.800781 654.5625 501.484375 C 652.621094 506.167969 650.566406 510.800781 648.398438 515.386719 C 646.230469 519.96875 643.953125 524.496094 641.5625 528.96875 C 639.171875 533.4375 636.671875 537.851562 634.066406 542.199219 C 631.460938 546.546875 628.75 550.828125 625.929688 555.046875 C 623.113281 559.261719 620.195312 563.40625 617.175781 567.476562 C 614.15625 571.550781 611.035156 575.546875 607.820312 579.464844 C 604.601562 583.386719 601.292969 587.222656 597.886719 590.980469 C 594.484375 594.738281 590.988281 598.410156 587.402344 601.992188 C 583.816406 605.578125 580.144531 609.074219 576.390625 612.480469 C 572.632812 615.882812 568.792969 619.195312 564.875 622.410156 C 560.957031 625.628906 556.960938 628.746094 552.886719 631.765625 C 548.816406 634.785156 544.671875 637.707031 540.453125 640.523438 C 536.238281 643.339844 531.957031 646.050781 527.609375 648.65625 C 523.257812 651.265625 518.847656 653.761719 514.375 656.152344 C 509.90625 658.542969 505.378906 660.820312 500.792969 662.988281 C 496.210938 665.15625 491.578125 667.210938 486.890625 669.152344 C 482.207031 671.09375 477.480469 672.917969 472.703125 674.625 C 467.929688 676.332031 463.117188 677.921875 458.265625 679.394531 C 453.414062 680.867188 448.527344 682.21875 443.609375 683.449219 C 438.691406 684.683594 433.746094 685.792969 428.773438 686.78125 C 423.800781 687.769531 418.808594 688.636719 413.792969 689.382812 C 408.777344 690.125 403.746094 690.746094 398.699219 691.242188 C 393.652344 691.738281 388.597656 692.113281 383.535156 692.363281 C 378.46875 692.609375 373.402344 692.734375 368.332031 692.734375 C 363.261719 692.734375 358.195312 692.609375 353.132812 692.363281 C 348.066406 692.113281 343.011719 691.738281 337.964844 691.242188 C 332.921875 690.746094 327.890625 690.125 322.875 689.382812 C 317.859375 688.636719 312.863281 687.769531 307.890625 686.78125 C 302.917969 685.792969 297.972656 684.683594 293.054688 683.449219 C 288.136719 682.21875 283.25 680.867188 278.398438 679.394531 C 273.546875 677.921875 268.734375 676.332031 263.960938 674.625 C 259.1875 672.917969 254.457031 671.09375 249.773438 669.152344 C 245.089844 667.210938 240.453125 665.15625 235.871094 662.988281 C 231.289062 660.820312 226.761719 658.542969 222.289062 656.152344 C 217.816406 653.761719 213.40625 651.265625 209.058594 648.65625 C 204.710938 646.050781 200.425781 643.339844 196.210938 640.523438 C 191.996094 637.707031 187.851562 634.785156 183.777344 631.765625 C 179.707031 628.746094 175.710938 625.628906 171.789062 622.410156 C 167.871094 619.195312 164.03125 615.882812 160.277344 612.480469 C 156.519531 609.074219 152.847656 605.578125 149.261719 601.992188 C 145.679688 598.40625 142.183594 594.738281 138.777344 590.980469 C 135.371094 587.222656 132.0625 583.386719 128.84375 579.464844 C 125.628906 575.546875 122.511719 571.550781 119.488281 567.476562 C 116.46875 563.40625 113.550781 559.261719 110.734375 555.046875 C 107.917969 550.828125 105.207031 546.546875 102.597656 542.199219 C 99.992188 537.851562 97.492188 533.4375 95.105469 528.96875 C 92.714844 524.496094 90.433594 519.96875 88.265625 515.386719 C 86.097656 510.800781 84.042969 506.167969 82.105469 501.484375 C 80.164062 496.800781 78.339844 492.070312 76.632812 487.296875 C 74.921875 482.523438 73.332031 477.710938 71.863281 472.855469 C 70.390625 468.003906 69.039062 463.121094 67.804688 458.203125 C 66.574219 453.285156 65.464844 448.335938 64.472656 443.363281 C 63.484375 438.390625 62.617188 433.398438 61.875 428.382812 C 61.132812 423.367188 60.511719 418.335938 60.011719 413.289062 C 59.515625 408.246094 59.144531 403.191406 58.894531 398.125 C 58.644531 393.0625 58.523438 387.996094 58.523438 382.925781 C 58.523438 377.855469 58.644531 372.785156 58.894531 367.722656 C 59.144531 362.65625 59.515625 357.601562 60.011719 352.558594 C 60.511719 347.511719 61.132812 342.480469 61.875 337.464844 C 62.617188 332.449219 63.484375 327.457031 64.472656 322.484375 C 65.464844 317.511719 66.574219 312.5625 67.804688 307.644531 C 69.039062 302.726562 70.390625 297.84375 71.863281 292.992188 C 73.332031 288.136719 74.921875 283.324219 76.632812 278.550781 C 78.339844 273.777344 80.164062 269.046875 82.105469 264.363281 C 84.042969 259.679688 86.097656 255.046875 88.265625 250.460938 C 90.433594 245.878906 92.714844 241.351562 95.105469 236.878906 C 97.492188 232.410156 99.992188 227.996094 102.597656 223.648438 C 105.207031 219.300781 107.917969 215.019531 110.734375 210.800781 C 113.550781 206.585938 116.46875 202.441406 119.488281 198.371094 C 122.511719 194.296875 125.628906 190.300781 128.84375 186.382812 C 132.0625 182.460938 135.371094 178.625 138.777344 174.867188 C 142.183594 171.109375 145.679688 167.441406 149.261719 163.855469 C 152.847656 160.269531 156.519531 156.773438 160.277344 153.367188 C 164.03125 149.964844 167.871094 146.652344 171.789062 143.4375 C 175.710938 140.21875 179.707031 137.101562 183.777344 134.082031 C 187.851562 131.0625 191.996094 128.140625 196.210938 125.324219 C 200.425781 122.507812 204.710938 119.796875 209.058594 117.191406 C 213.40625 114.582031 217.816406 112.085938 222.289062 109.695312 C 226.761719 107.304688 231.289062 105.027344 235.871094 102.859375 C 240.453125 100.691406 245.089844 98.636719 249.773438 96.695312 C 254.457031 94.753906 259.1875 92.929688 263.960938 91.222656 C 268.734375 89.515625 273.546875 87.925781 278.398438 86.453125 C 283.25 84.980469 288.136719 83.628906 293.054688 82.398438 C 297.972656 81.164062 302.917969 80.054688 307.890625 79.066406 C 312.863281 78.078125 317.859375 77.210938 322.875 76.464844 C 327.890625 75.722656 332.921875 75.101562 337.964844 74.605469 C 343.011719 74.109375 348.066406 73.734375 353.132812 73.484375 C 358.195312 73.238281 363.261719 73.113281 368.332031 73.113281 C 373.402344 73.113281 378.46875 73.238281 383.535156 73.484375 C 388.597656 73.734375 393.652344 74.109375 398.699219 74.605469 C 403.746094 75.101562 408.777344 75.722656 413.792969 76.464844 C 418.808594 77.210938 423.800781 78.078125 428.773438 79.066406 C 433.746094 80.054688 438.691406 81.164062 443.609375 82.398438 C 448.527344 83.628906 453.414062 84.980469 458.265625 86.453125 C 463.117188 87.925781 467.929688 89.515625 472.703125 91.222656 C 477.480469 92.929688 482.207031 94.753906 486.890625 96.695312 C 491.578125 98.636719 496.210938 100.691406 500.792969 102.859375 C 505.378906 105.027344 509.90625 107.304688 514.375 109.695312 C 518.847656 112.085938 523.257812 114.582031 527.609375 117.191406 C 531.957031 119.796875 536.238281 122.507812 540.453125 125.324219 C 544.671875 128.140625 548.816406 131.0625 552.886719 134.082031 C 556.960938 137.101562 560.957031 140.21875 564.875 143.4375 C 568.792969 146.652344 572.632812 149.964844 576.390625 153.367188 C 580.144531 156.773438 583.816406 160.269531 587.402344 163.855469 C 590.988281 167.441406 594.484375 171.109375 597.886719 174.867188 C 601.292969 178.625 604.601562 182.460938 607.820312 186.382812 C 611.035156 190.300781 614.15625 194.296875 617.175781 198.371094 C 620.195312 202.441406 623.113281 206.585938 625.929688 210.800781 C 628.75 215.019531 631.460938 219.300781 634.066406 223.648438 C 636.671875 227.996094 639.171875 232.410156 641.5625 236.878906 C 643.953125 241.351562 646.230469 245.878906 648.398438 250.460938 C 650.566406 255.046875 652.621094 259.679688 654.5625 264.363281 C 656.5 269.046875 658.324219 273.777344 660.035156 278.550781 C 661.742188 283.324219 663.332031 288.136719 664.804688 292.992188 C 666.277344 297.84375 667.628906 302.726562 668.859375 307.644531 C 670.089844 312.5625 671.203125 317.511719 672.191406 322.484375 C 673.179688 327.457031 674.046875 332.449219 674.789062 337.464844 C 675.535156 342.480469 676.15625 347.511719 676.652344 352.558594 C 677.148438 357.601562 677.523438 362.65625 677.769531 367.722656 C 678.019531 372.785156 678.144531 377.855469 678.144531 382.925781 Z M 678.144531 382.925781 " fill-opacity="1" fill-rule="nonzero"/><path fill="#333330" d="M 709.476562 221.03125 L 709.9375 221.03125 C 710.707031 221.03125 711.320312 221.644531 711.320312 222.410156 L 711.320312 224.714844 C 711.320312 225.484375 710.707031 226.097656 709.9375 226.097656 L 709.476562 226.097656 C 708.710938 226.097656 708.097656 225.484375 708.097656 224.714844 L 708.097656 222.410156 C 708.097656 221.644531 708.710938 221.03125 709.476562 221.03125 Z M 709.476562 221.03125 " fill-opacity="1" fill-rule="nonzero"/><path fill="#333330" d="M 701.335938 219.953125 L 701.796875 219.953125 C 702.566406 219.953125 703.179688 220.570312 703.179688 221.335938 L 703.179688 225.792969 C 703.179688 226.558594 702.566406 227.171875 701.796875 227.171875 L 701.335938 227.171875 C 700.570312 227.171875 699.957031 226.558594 699.957031 225.792969 L 699.957031 221.335938 C 699.957031 220.570312 700.570312 219.953125 701.335938 219.953125 Z M 701.335938 219.953125 " fill-opacity="1" fill-rule="nonzero"/><path fill="#333330" d="M 693.195312 215.808594 L 693.65625 215.808594 C 694.425781 215.808594 695.039062 216.421875 695.039062 217.191406 L 695.039062 229.9375 C 695.039062 230.707031 694.425781 231.320312 693.65625 231.320312 L 693.195312 231.320312 C 692.429688 231.320312 691.8125 230.707031 691.8125 229.9375 L 691.8125 217.191406 C 691.8125 216.421875 692.429688 215.808594 693.195312 215.808594 Z M 693.195312 215.808594 " fill-opacity="1" fill-rule="nonzero"/><path fill="#333330" d="M 685.054688 212.890625 L 685.515625 212.890625 C 686.285156 212.890625 686.898438 213.503906 686.898438 214.269531 L 686.898438 232.855469 C 686.898438 233.625 686.285156 234.238281 685.515625 234.238281 L 685.054688 234.238281 C 684.289062 234.238281 683.671875 233.625 683.671875 232.855469 L 683.671875 214.269531 C 683.671875 213.503906 684.289062 212.890625 685.054688 212.890625 Z M 685.054688 212.890625 " fill-opacity="1" fill-rule="nonzero"/><path fill="#333330" d="M 676.914062 217.496094 L 677.375 217.496094 C 678.144531 217.496094 678.757812 218.109375 678.757812 218.878906 L 678.757812 228.402344 C 678.757812 229.171875 678.144531 229.785156 677.375 229.785156 L 676.914062 229.785156 C 676.148438 229.785156 675.53125 229.171875 675.53125 228.402344 L 675.53125 218.878906 C 675.53125 218.109375 676.148438 217.496094 676.914062 217.496094 Z M 676.914062 217.496094 " fill-opacity="1" fill-rule="nonzero"/><path fill="#333330" d="M 668.773438 219.953125 L 669.234375 219.953125 C 670.003906 219.953125 670.617188 220.570312 670.617188 221.335938 L 670.617188 225.792969 C 670.617188 226.558594 670.003906 227.171875 669.234375 227.171875 L 668.773438 227.171875 C 668.007812 227.171875 667.390625 226.558594 667.390625 225.792969 L 667.390625 221.335938 C 667.390625 220.570312 668.007812 219.953125 668.773438 219.953125 Z M 668.773438 219.953125 " fill-opacity="1" fill-rule="nonzero"/><path fill="#333330" d="M 660.941406 219.03125 L 661.402344 219.03125 C 662.167969 219.03125 662.785156 219.648438 662.785156 220.414062 L 662.785156 226.710938 C 662.785156 227.480469 662.167969 228.09375 661.402344 228.09375 L 660.941406 228.09375 C 660.171875 228.09375 659.558594 227.480469 659.558594 226.710938 L 659.558594 220.414062 C 659.558594 219.648438 660.171875 219.03125 660.941406 219.03125 Z M 660.941406 219.03125 " fill-opacity="1" fill-rule="nonzero"/><path fill="#333330" d="M 652.800781 217.035156 L 653.261719 217.035156 C 654.027344 217.035156 654.644531 217.648438 654.644531 218.417969 L 654.644531 228.863281 C 654.644531 229.632812 654.027344 230.246094 653.261719 230.246094 L 652.800781 230.246094 C 652.03125 230.246094 651.417969 229.632812 651.417969 228.863281 L 651.417969 218.417969 C 651.417969 217.648438 652.03125 217.035156 652.800781 217.035156 Z M 652.800781 217.035156 " fill-opacity="1" fill-rule="nonzero"/><path fill="#333330" d="M 644.660156 220.414062 L 645.121094 220.414062 C 645.886719 220.414062 646.503906 221.03125 646.503906 221.796875 L 646.503906 225.332031 C 646.503906 226.097656 645.886719 226.710938 645.121094 226.710938 L 644.660156 226.710938 C 643.890625 226.710938 643.277344 226.097656 643.277344 225.332031 L 643.277344 221.796875 C 643.277344 221.03125 643.890625 220.414062 644.660156 220.414062 Z M 644.660156 220.414062 " fill-opacity="1" fill-rule="nonzero"/><path fill="#333330" d="M 636.519531 214.578125 L 636.980469 214.578125 C 637.746094 214.578125 638.363281 215.191406 638.363281 215.960938 L 638.363281 231.167969 C 638.363281 231.933594 637.746094 232.550781 636.980469 232.550781 L 636.519531 232.550781 C 635.75 232.550781 635.136719 231.933594 635.136719 231.167969 L 635.136719 215.960938 C 635.136719 215.191406 635.75 214.578125 636.519531 214.578125 Z M 636.519531 214.578125 " fill-opacity="1" fill-rule="nonzero"/><path fill="#333330" d="M 628.378906 211.046875 L 628.839844 211.046875 C 629.605469 211.046875 630.222656 211.660156 630.222656 212.429688 L 630.222656 234.851562 C 630.222656 235.621094 629.605469 236.234375 628.839844 236.234375 L 628.378906 236.234375 C 627.609375 236.234375 626.996094 235.621094 626.996094 234.851562 L 626.996094 212.429688 C 626.996094 211.660156 627.609375 211.046875 628.378906 211.046875 Z M 628.378906 211.046875 " fill-opacity="1" fill-rule="nonzero"/><path fill="#333330" d="M 620.238281 196.453125 L 620.699219 196.453125 C 621.464844 196.453125 622.078125 197.066406 622.078125 197.835938 L 622.078125 249.292969 C 622.078125 250.058594 621.464844 250.675781 620.699219 250.675781 L 620.238281 250.675781 C 619.46875 250.675781 618.855469 250.058594 618.855469 249.292969 L 618.855469 197.835938 C 619.007812 197.066406 619.621094 196.453125 620.238281 196.453125 Z M 620.238281 196.453125 " fill-opacity="1" fill-rule="nonzero"/><path fill="#333330" d="M 612.25 189.234375 L 612.710938 189.234375 C 613.476562 189.234375 614.09375 189.847656 614.09375 190.617188 L 614.09375 256.511719 C 614.09375 257.277344 613.476562 257.894531 612.710938 257.894531 L 612.25 257.894531 C 611.480469 257.894531 610.867188 257.277344 610.867188 256.511719 L 610.867188 190.617188 C 610.867188 189.847656 611.480469 189.234375 612.25 189.234375 Z M 612.25 189.234375 " fill-opacity="1" fill-rule="nonzero"/><path fill="#333330" d="M 604.261719 199.527344 L 604.722656 199.527344 C 605.492188 199.527344 606.105469 200.140625 606.105469 200.90625 L 606.105469 246.375 C 606.105469 247.140625 605.492188 247.757812 604.722656 247.757812 L 604.261719 247.757812 C 603.496094 247.757812 602.878906 247.140625 602.878906 246.375 L 602.878906 200.90625 C 602.878906 200.140625 603.496094 199.527344 604.261719 199.527344 Z M 604.261719 199.527344 " fill-opacity="1" fill-rule="nonzero"/><path fill="#333330" d="M 596.121094 208.894531 L 596.582031 208.894531 C 597.351562 208.894531 597.964844 209.507812 597.964844 210.277344 L 597.964844 236.851562 C 597.964844 237.617188 597.351562 238.234375 596.582031 238.234375 L 596.121094 238.234375 C 595.355469 238.234375 594.738281 237.617188 594.738281 236.851562 L 594.738281 210.277344 C 594.894531 209.507812 595.507812 208.894531 596.121094 208.894531 Z M 596.121094 208.894531 " fill-opacity="1" fill-rule="nonzero"/><path fill="#333330" d="M 588.132812 213.964844 L 588.59375 213.964844 C 589.363281 213.964844 589.976562 214.578125 589.976562 215.347656 L 589.976562 231.78125 C 589.976562 232.550781 589.363281 233.164062 588.59375 233.164062 L 588.132812 233.164062 C 587.367188 233.164062 586.753906 232.550781 586.753906 231.78125 L 586.753906 215.347656 C 586.753906 214.578125 587.367188 213.964844 588.132812 213.964844 Z M 588.132812 213.964844 " fill-opacity="1" fill-rule="nonzero"/><path fill="#333330" d="M 579.992188 219.1875 L 580.453125 219.1875 C 581.222656 219.1875 581.835938 219.800781 581.835938 220.570312 L 581.835938 226.558594 C 581.835938 227.328125 581.222656 227.941406 580.453125 227.941406 L 579.992188 227.941406 C 579.226562 227.941406 578.609375 227.328125 578.609375 226.558594 L 578.609375 220.570312 C 578.609375 219.800781 579.226562 219.1875 579.992188 219.1875 Z M 579.992188 219.1875 " fill-opacity="1" fill-rule="nonzero"/><path fill="#333330" d="M 571.851562 216.113281 L 572.3125 216.113281 C 573.082031 216.113281 573.695312 216.730469 573.695312 217.496094 L 573.695312 229.476562 C 573.695312 230.246094 573.082031 230.859375 572.3125 230.859375 L 571.851562 230.859375 C 571.085938 230.859375 570.46875 230.246094 570.46875 229.476562 L 570.46875 217.496094 C 570.46875 216.730469 571.085938 216.113281 571.851562 216.113281 Z M 571.851562 216.113281 " fill-opacity="1" fill-rule="nonzero"/><path fill="#333330" d="M 563.710938 213.503906 L 564.171875 213.503906 C 564.941406 213.503906 565.554688 214.117188 565.554688 214.886719 L 565.554688 232.242188 C 565.554688 233.011719 564.941406 233.625 564.171875 233.625 L 563.710938 233.625 C 562.945312 233.625 562.328125 233.011719 562.328125 232.242188 L 562.328125 214.886719 C 562.328125 214.117188 562.945312 213.503906 563.710938 213.503906 Z M 563.710938 213.503906 " fill-opacity="1" fill-rule="nonzero"/><path fill="#333330" d="M 555.570312 211.046875 L 556.03125 211.046875 C 556.800781 211.046875 557.414062 211.660156 557.414062 212.429688 L 557.414062 234.851562 C 557.414062 235.621094 556.800781 236.234375 556.03125 236.234375 L 555.570312 236.234375 C 554.804688 236.234375 554.1875 235.621094 554.1875 234.851562 L 554.1875 212.429688 C 554.1875 211.660156 554.804688 211.046875 555.570312 211.046875 Z M 555.570312 211.046875 " fill-opacity="1" fill-rule="nonzero"/><path fill="#333330" d="M 547.429688 215.808594 L 547.890625 215.808594 C 548.660156 215.808594 549.273438 216.421875 549.273438 217.191406 L 549.273438 229.9375 C 549.273438 230.707031 548.660156 231.320312 547.890625 231.320312 L 547.429688 231.320312 C 546.664062 231.320312 546.046875 230.707031 546.046875 229.9375 L 546.046875 217.191406 C 546.046875 216.421875 546.664062 215.808594 547.429688 215.808594 Z M 547.429688 215.808594 " fill-opacity="1" fill-rule="nonzero"/><path fill="#333330" d="M 539.289062 219.1875 L 539.75 219.1875 C 540.519531 219.1875 541.132812 219.800781 541.132812 220.570312 L 541.132812 226.558594 C 541.132812 227.328125 540.519531 227.941406 539.75 227.941406 L 539.289062 227.941406 C 538.523438 227.941406 537.90625 227.328125 537.90625 226.558594 L 537.90625 220.570312 C 537.90625 219.800781 538.523438 219.1875 539.289062 219.1875 Z M 539.289062 219.1875 " fill-opacity="1" fill-rule="nonzero"/><path fill="#333330" d="M 531.457031 221.492188 L 531.917969 221.492188 C 532.683594 221.492188 533.300781 222.105469 533.300781 222.871094 L 533.300781 224.253906 C 533.300781 225.023438 532.683594 225.636719 531.917969 225.636719 L 531.457031 225.636719 C 530.6875 225.636719 530.074219 225.023438 530.074219 224.253906 L 530.074219 222.871094 C 530.074219 222.105469 530.6875 221.492188 531.457031 221.492188 Z M 531.457031 221.492188 " fill-opacity="1" fill-rule="nonzero"/><path fill="#fbf8ef" d="M 58.523438 602.417969 C 53.761719 602.417969 49.921875 598.578125 49.921875 593.816406 L 49.921875 566.015625 C 49.921875 561.253906 53.761719 557.414062 58.523438 557.414062 L 198.605469 557.414062 L 198.605469 602.570312 L 58.523438 602.570312 Z M 58.523438 602.417969 " fill-opacity="1" fill-rule="nonzero"/><path fill="#333330" d="M 197.835938 558.027344 L 197.835938 601.648438 L 58.523438 601.648438 C 54.222656 601.648438 50.6875 598.117188 50.6875 593.816406 L 50.6875 566.015625 C 50.6875 561.714844 54.222656 558.179688 58.523438 558.179688 L 197.835938 558.179688 M 199.371094 556.492188 L 58.523438 556.492188 C 53.300781 556.492188 49 560.792969 49 566.015625 L 49 593.816406 C 49 599.039062 53.300781 603.339844 58.523438 603.339844 L 199.371094 603.339844 Z M 199.371094 556.492188 " fill-opacity="1" fill-rule="nonzero"/><path fill="#333330" d="M 86.324219 587.210938 L 80.332031 582.449219 C 80.332031 582.449219 80.332031 582.449219 80.179688 582.296875 C 80.488281 581.835938 80.640625 581.375 80.945312 580.914062 C 81.253906 579.992188 81.40625 578.917969 81.40625 577.996094 C 81.40625 576.921875 81.101562 576 80.792969 575.078125 C 80.332031 574.003906 79.566406 573.082031 78.644531 572.160156 C 77.414062 571.082031 75.726562 570.46875 74.035156 570.316406 C 72.804688 570.316406 71.578125 570.46875 70.503906 570.929688 C 69.582031 571.390625 68.660156 572.003906 67.890625 572.773438 C 67.125 573.542969 66.664062 574.464844 66.203125 575.382812 C 65.894531 576.304688 65.742188 577.382812 65.742188 578.304688 C 65.742188 579.378906 66.046875 580.300781 66.355469 581.222656 C 66.816406 582.296875 67.585938 583.21875 68.503906 584.140625 C 69.734375 585.214844 71.425781 585.828125 73.113281 585.984375 C 74.34375 585.984375 75.570312 585.828125 76.644531 585.367188 C 77.105469 585.214844 77.566406 584.90625 78.027344 584.601562 C 78.027344 584.601562 78.183594 584.753906 78.183594 584.753906 L 83.40625 590.285156 C 83.710938 590.589844 84.328125 590.746094 84.789062 590.746094 C 85.402344 590.746094 85.863281 590.589844 86.324219 590.128906 C 86.785156 589.667969 86.9375 589.207031 86.9375 588.59375 C 86.9375 587.980469 86.785156 587.519531 86.324219 587.210938 Z M 73.726562 582.605469 C 72.5 582.605469 71.269531 582.144531 70.347656 581.066406 C 68.8125 579.378906 68.8125 576.921875 70.347656 575.230469 C 71.269531 574.15625 72.5 573.695312 73.726562 573.695312 C 74.957031 573.695312 76.1875 574.15625 77.105469 575.230469 C 78.644531 576.921875 78.644531 579.378906 77.105469 581.066406 C 76.1875 581.988281 74.957031 582.605469 73.726562 582.605469 Z M 73.726562 582.605469 " fill-opacity="1" fill-rule="nonzero"/><path fill="#333330" d="M 140.082031 197.375 C 140.082031 183.550781 160.820312 162.816406 174.644531 162.816406 C 160.820312 162.816406 140.082031 142.078125 140.082031 128.253906 C 140.082031 142.078125 119.347656 162.816406 105.523438 162.816406 C 119.347656 162.816406 140.082031 183.550781 140.082031 197.375 Z M 140.082031 197.375 " fill-opacity="1" fill-rule="nonzero"/><path fill="#333330" d="M 140.851562 197.375 L 139.316406 197.375 C 139.316406 191.230469 134.707031 182.78125 127.488281 175.410156 C 120.113281 168.039062 111.820312 163.582031 105.523438 163.582031 L 105.523438 162.046875 C 111.667969 162.046875 120.113281 157.4375 127.488281 150.21875 C 134.859375 142.847656 139.316406 134.550781 139.316406 128.253906 L 140.851562 128.253906 C 140.851562 134.398438 145.460938 142.847656 152.679688 150.21875 C 160.050781 157.59375 168.34375 162.046875 174.644531 162.046875 L 174.644531 163.582031 C 168.5 163.582031 160.050781 168.191406 152.679688 175.410156 C 145.460938 182.78125 140.851562 191.230469 140.851562 197.375 Z M 110.746094 162.816406 C 116.429688 164.503906 122.726562 168.5 128.5625 174.335938 C 134.398438 180.171875 138.546875 186.625 140.082031 192.152344 C 141.773438 186.46875 145.765625 180.171875 151.601562 174.335938 C 157.441406 168.5 163.890625 164.351562 169.421875 162.816406 C 163.738281 161.125 157.441406 157.132812 151.601562 151.296875 C 145.765625 145.457031 141.621094 139.007812 140.082031 133.476562 C 138.394531 139.160156 134.398438 145.457031 128.5625 151.296875 C 122.726562 157.132812 116.273438 161.277344 110.746094 162.816406 Z M 110.746094 162.816406 " fill-opacity="1" fill-rule="nonzero"/><path fill="#333330" d="M 85.863281 218.878906 C 85.863281 210.277344 98.609375 197.527344 107.210938 197.527344 C 98.609375 197.527344 85.863281 184.78125 85.863281 176.179688 C 85.863281 184.78125 73.113281 197.527344 64.511719 197.527344 C 73.113281 197.527344 85.863281 210.429688 85.863281 218.878906 Z M 85.863281 218.878906 " fill-opacity="1" fill-rule="nonzero"/><path fill="#333330" d="M 86.628906 218.878906 L 85.09375 218.878906 C 85.09375 210.738281 72.652344 198.296875 64.511719 198.296875 L 64.511719 196.761719 C 72.652344 196.761719 85.09375 184.320312 85.09375 176.179688 L 86.628906 176.179688 C 86.628906 184.320312 99.070312 196.761719 107.210938 196.761719 L 107.210938 198.296875 C 99.226562 198.296875 86.628906 210.890625 86.628906 218.878906 Z M 68.660156 197.527344 C 72.039062 198.757812 75.570312 201.0625 78.949219 204.441406 C 82.328125 207.820312 84.789062 211.351562 85.863281 214.730469 C 87.089844 211.351562 89.394531 207.820312 92.773438 204.441406 C 96.152344 201.0625 99.6875 198.605469 103.066406 197.527344 C 99.6875 196.300781 96.152344 193.996094 92.773438 190.617188 C 89.394531 187.238281 86.9375 183.703125 85.863281 180.324219 C 84.632812 183.703125 82.328125 187.238281 78.949219 190.617188 C 75.570312 193.996094 72.039062 196.453125 68.660156 197.527344 Z M 68.660156 197.527344 " fill-opacity="1" fill-rule="nonzero"/><path fill="#333330" d="M 121.34375 248.984375 C 121.34375 243.761719 129.332031 235.773438 134.554688 235.773438 C 129.332031 235.773438 121.34375 227.789062 121.34375 222.566406 C 121.34375 227.789062 113.355469 235.773438 108.132812 235.773438 C 113.511719 235.773438 121.34375 243.609375 121.34375 248.984375 Z M 121.34375 248.984375 " fill-opacity="1" fill-rule="nonzero"/><path fill="#333330" d="M 122.113281 248.984375 L 120.574219 248.984375 C 120.574219 244.070312 113.050781 236.542969 108.132812 236.542969 L 108.132812 235.007812 C 113.050781 235.007812 120.574219 227.480469 120.574219 222.566406 L 122.113281 222.566406 C 122.113281 227.480469 129.636719 235.007812 134.554688 235.007812 L 134.554688 236.542969 C 129.636719 236.542969 122.113281 244.070312 122.113281 248.984375 Z M 111.511719 235.773438 C 115.507812 237.464844 119.65625 241.613281 121.34375 245.605469 C 123.035156 241.613281 127.179688 237.464844 131.175781 235.773438 C 127.179688 234.085938 123.035156 229.9375 121.34375 225.945312 C 119.65625 229.9375 115.507812 234.085938 111.511719 235.773438 Z M 111.511719 235.773438 " fill-opacity="1" fill-rule="nonzero"/><path fill="#fbf8ef" d="M 141.160156 197.375 C 141.160156 183.550781 161.894531 162.816406 175.71875 162.816406 C 161.894531 162.816406 141.160156 142.078125 141.160156 128.253906 C 141.160156 142.078125 120.421875 162.816406 106.597656 162.816406 C 120.421875 162.816406 141.160156 183.550781 141.160156 197.375 Z M 141.160156 197.375 " fill-opacity="1" fill-rule="nonzero"/><path fill="#333330" d="M 141.925781 197.375 L 140.390625 197.375 C 140.390625 191.230469 135.78125 182.78125 128.5625 175.410156 C 121.191406 168.039062 112.894531 163.582031 106.597656 163.582031 L 106.597656 162.046875 C 112.742188 162.046875 121.191406 157.4375 128.5625 150.21875 C 135.9375 142.847656 140.390625 134.550781 140.390625 128.253906 L 141.925781 128.253906 C 141.925781 134.398438 146.535156 142.847656 153.753906 150.21875 C 161.125 157.59375 169.421875 162.046875 175.71875 162.046875 L 175.71875 163.582031 C 169.574219 163.582031 161.125 168.191406 153.753906 175.410156 C 146.535156 182.78125 141.925781 191.230469 141.925781 197.375 Z M 111.820312 162.816406 C 117.503906 164.503906 123.800781 168.5 129.636719 174.335938 C 135.476562 180.171875 139.621094 186.625 141.160156 192.152344 C 142.847656 186.46875 146.839844 180.171875 152.679688 174.335938 C 158.515625 168.5 164.964844 164.351562 170.496094 162.816406 C 164.8125 161.125 158.515625 157.132812 152.679688 151.296875 C 146.839844 145.457031 142.695312 139.007812 141.160156 133.476562 C 139.46875 139.160156 135.476562 145.457031 129.636719 151.296875 C 123.800781 157.132812 117.351562 161.277344 111.820312 162.816406 Z M 111.820312 162.816406 " fill-opacity="1" fill-rule="nonzero"/><path fill="#fbf8ef" d="M 86.9375 218.878906 C 86.9375 210.429688 99.839844 197.527344 108.289062 197.527344 C 99.6875 197.527344 86.9375 184.78125 86.9375 176.179688 C 86.9375 184.78125 74.1875 197.527344 65.585938 197.527344 C 74.1875 197.527344 86.9375 210.429688 86.9375 218.878906 Z M 86.9375 218.878906 " fill-opacity="1" fill-rule="nonzero"/><path fill="#333330" d="M 87.707031 218.878906 L 86.167969 218.878906 C 86.167969 210.738281 73.726562 198.296875 65.585938 198.296875 L 65.585938 196.761719 C 73.726562 196.761719 86.167969 184.320312 86.167969 176.179688 L 87.707031 176.179688 C 87.707031 184.320312 100.148438 196.761719 108.289062 196.761719 L 108.289062 198.296875 C 100.300781 198.296875 87.707031 210.890625 87.707031 218.878906 Z M 69.734375 197.527344 C 73.113281 198.757812 76.644531 201.0625 80.027344 204.441406 C 83.40625 207.820312 85.863281 211.351562 86.9375 214.730469 C 88.167969 211.351562 90.46875 207.820312 93.847656 204.441406 C 97.230469 201.0625 100.761719 198.605469 104.140625 197.527344 C 100.761719 196.300781 97.230469 193.996094 93.847656 190.617188 C 90.46875 187.238281 88.011719 183.703125 86.9375 180.324219 C 85.707031 183.703125 83.40625 187.238281 80.027344 190.617188 C 76.644531 193.996094 73.113281 196.453125 69.734375 197.527344 Z M 69.734375 197.527344 " fill-opacity="1" fill-rule="nonzero"/><path fill="#fbf8ef" d="M 122.417969 248.984375 C 122.417969 243.761719 130.40625 235.773438 135.628906 235.773438 C 130.40625 235.773438 122.417969 227.789062 122.417969 222.566406 C 122.417969 227.789062 114.433594 235.773438 109.210938 235.773438 C 114.585938 235.773438 122.417969 243.609375 122.417969 248.984375 Z M 122.417969 248.984375 " fill-opacity="1" fill-rule="nonzero"/><path fill="#333330" d="M 123.1875 248.984375 L 121.652344 248.984375 C 121.652344 244.070312 114.125 236.542969 109.210938 236.542969 L 109.210938 235.007812 C 114.125 235.007812 121.652344 227.480469 121.652344 222.566406 L 123.1875 222.566406 C 123.1875 227.480469 130.714844 235.007812 135.628906 235.007812 L 135.628906 236.542969 C 130.867188 236.542969 123.1875 244.070312 123.1875 248.984375 Z M 112.742188 235.773438 C 116.734375 237.464844 120.882812 241.613281 122.574219 245.605469 C 124.261719 241.613281 128.410156 237.464844 132.402344 235.773438 C 128.410156 234.085938 124.261719 229.9375 122.574219 225.945312 C 120.730469 229.9375 116.582031 234.085938 112.742188 235.773438 Z M 112.742188 235.773438 " fill-opacity="1" fill-rule="nonzero"/><path fill="#333330" d="M 725.453125 499.199219 L 640.972656 499.199219 L 608.5625 480.152344 L 506.417969 480.152344 L 506.417969 478.003906 L 609.175781 478.003906 L 641.433594 497.046875 L 725.453125 497.046875 Z M 725.453125 499.199219 " fill-opacity="1" fill-rule="nonzero"/><path fill="#fbf8ef" d="M 737.585938 498.125 C 737.585938 498.527344 737.546875 498.925781 737.46875 499.324219 C 737.390625 499.71875 737.273438 500.101562 737.121094 500.476562 C 736.964844 500.847656 736.777344 501.203125 736.550781 501.539062 C 736.328125 501.871094 736.074219 502.183594 735.789062 502.46875 C 735.503906 502.753906 735.191406 503.007812 734.855469 503.234375 C 734.519531 503.457031 734.167969 503.644531 733.792969 503.800781 C 733.421875 503.953125 733.039062 504.070312 732.640625 504.148438 C 732.246094 504.226562 731.847656 504.269531 731.441406 504.269531 C 731.039062 504.269531 730.640625 504.226562 730.246094 504.148438 C 729.847656 504.070312 729.464844 503.953125 729.09375 503.800781 C 728.71875 503.644531 728.363281 503.457031 728.03125 503.234375 C 727.695312 503.007812 727.382812 502.753906 727.097656 502.46875 C 726.8125 502.183594 726.558594 501.871094 726.335938 501.539062 C 726.109375 501.203125 725.921875 500.847656 725.765625 500.476562 C 725.613281 500.101562 725.496094 499.71875 725.417969 499.324219 C 725.339844 498.925781 725.300781 498.527344 725.300781 498.125 C 725.300781 497.71875 725.339844 497.320312 725.417969 496.925781 C 725.496094 496.53125 725.613281 496.144531 725.765625 495.773438 C 725.921875 495.398438 726.109375 495.046875 726.335938 494.710938 C 726.558594 494.375 726.8125 494.066406 727.097656 493.78125 C 727.382812 493.496094 727.695312 493.238281 728.03125 493.015625 C 728.363281 492.792969 728.71875 492.601562 729.09375 492.449219 C 729.464844 492.292969 729.847656 492.175781 730.246094 492.097656 C 730.640625 492.019531 731.039062 491.980469 731.441406 491.980469 C 731.847656 491.980469 732.246094 492.019531 732.640625 492.097656 C 733.039062 492.175781 733.421875 492.292969 733.792969 492.449219 C 734.167969 492.601562 734.519531 492.792969 734.855469 493.015625 C 735.191406 493.238281 735.503906 493.496094 735.789062 493.78125 C 736.074219 494.066406 736.328125 494.375 736.550781 494.710938 C 736.777344 495.046875 736.964844 495.398438 737.121094 495.773438 C 737.273438 496.144531 737.390625 496.53125 737.46875 496.925781 C 737.546875 497.320312 737.585938 497.71875 737.585938 498.125 Z M 737.585938 498.125 " fill-opacity="1" fill-rule="nonzero"/><path fill="#333330" d="M 731.441406 505.191406 C 727.449219 505.191406 724.222656 501.964844 724.222656 497.96875 C 724.222656 493.976562 727.449219 490.75 731.441406 490.75 C 735.4375 490.75 738.664062 493.976562 738.664062 497.96875 C 738.664062 501.964844 735.4375 505.191406 731.441406 505.191406 Z M 731.441406 493.054688 C 728.679688 493.054688 726.527344 495.359375 726.527344 497.96875 C 726.527344 500.734375 728.832031 502.886719 731.441406 502.886719 C 734.207031 502.886719 736.359375 500.582031 736.359375 497.96875 C 736.511719 495.359375 734.207031 493.054688 731.441406 493.054688 Z M 731.441406 493.054688 " fill-opacity="1" fill-rule="nonzero"/><path fill="#333330" d="M 620.851562 401.507812 L 507.1875 401.507812 L 507.1875 399.359375 L 620.851562 399.359375 L 668.929688 399.207031 L 706.40625 375.242188 L 707.636719 377.085938 L 669.542969 401.355469 L 669.234375 401.355469 Z M 620.851562 401.507812 " fill-opacity="1" fill-rule="nonzero"/><path fill="#333330" d="M 506.417969 439.140625 L 693.351562 439.140625 L 693.351562 441.292969 L 506.417969 441.292969 Z M 506.417969 439.140625 " fill-opacity="1" fill-rule="nonzero"/><path fill="#fbf8ef" d="M 718.078125 372.480469 C 718.078125 372.882812 718.039062 373.28125 717.960938 373.675781 C 717.882812 374.074219 717.765625 374.457031 717.613281 374.832031 C 717.457031 375.203125 717.269531 375.558594 717.042969 375.890625 C 716.820312 376.226562 716.566406 376.539062 716.28125 376.824219 C 715.996094 377.109375 715.683594 377.363281 715.347656 377.585938 C 715.015625 377.8125 714.660156 378 714.285156 378.15625 C 713.914062 378.308594 713.53125 378.425781 713.132812 378.503906 C 712.738281 378.582031 712.339844 378.625 711.9375 378.625 C 711.53125 378.625 711.132812 378.582031 710.738281 378.503906 C 710.339844 378.425781 709.957031 378.308594 709.585938 378.15625 C 709.210938 378 708.859375 377.8125 708.523438 377.585938 C 708.1875 377.363281 707.875 377.109375 707.589844 376.824219 C 707.304688 376.539062 707.050781 376.226562 706.828125 375.890625 C 706.601562 375.558594 706.414062 375.203125 706.257812 374.832031 C 706.105469 374.457031 705.988281 374.074219 705.910156 373.675781 C 705.832031 373.28125 705.792969 372.882812 705.792969 372.480469 C 705.792969 372.074219 705.832031 371.675781 705.910156 371.28125 C 705.988281 370.882812 706.105469 370.5 706.257812 370.128906 C 706.414062 369.753906 706.601562 369.402344 706.828125 369.066406 C 707.050781 368.730469 707.304688 368.417969 707.589844 368.132812 C 707.875 367.847656 708.1875 367.59375 708.523438 367.371094 C 708.859375 367.144531 709.210938 366.957031 709.585938 366.800781 C 709.957031 366.648438 710.339844 366.53125 710.738281 366.453125 C 711.132812 366.375 711.53125 366.335938 711.9375 366.335938 C 712.339844 366.335938 712.738281 366.375 713.132812 366.453125 C 713.53125 366.53125 713.914062 366.648438 714.285156 366.800781 C 714.660156 366.957031 715.015625 367.144531 715.347656 367.371094 C 715.683594 367.59375 715.996094 367.847656 716.28125 368.132812 C 716.566406 368.417969 716.820312 368.730469 717.042969 369.066406 C 717.269531 369.402344 717.457031 369.753906 717.613281 370.128906 C 717.765625 370.5 717.882812 370.882812 717.960938 371.28125 C 718.039062 371.675781 718.078125 372.074219 718.078125 372.480469 Z M 718.078125 372.480469 " fill-opacity="1" fill-rule="nonzero"/><path fill="#333330" d="M 711.9375 379.699219 C 707.941406 379.699219 704.714844 376.472656 704.714844 372.480469 C 704.714844 368.484375 707.941406 365.261719 711.9375 365.261719 C 715.929688 365.261719 719.15625 368.484375 719.15625 372.480469 C 719 376.472656 715.777344 379.699219 711.9375 379.699219 Z M 711.9375 367.410156 C 709.171875 367.410156 707.019531 369.714844 707.019531 372.324219 C 707.019531 375.089844 709.324219 377.242188 711.9375 377.242188 C 714.699219 377.242188 716.851562 374.9375 716.851562 372.324219 C 716.851562 369.714844 714.699219 367.410156 711.9375 367.410156 Z M 711.9375 367.410156 " fill-opacity="1" fill-rule="nonzero"/><path fill="#333330" d="M 592.433594 321.175781 L 489.523438 321.175781 L 489.523438 319.027344 L 591.511719 319.027344 L 615.78125 294.757812 L 646.195312 294.757812 L 646.195312 296.90625 L 616.703125 296.90625 Z M 592.433594 321.175781 " fill-opacity="1" fill-rule="nonzero"/><path fill="#fbf8ef" d="M 659.097656 296.292969 C 659.097656 296.695312 659.058594 297.097656 658.980469 297.492188 C 658.902344 297.886719 658.785156 298.273438 658.628906 298.644531 C 658.476562 299.015625 658.285156 299.371094 658.0625 299.707031 C 657.839844 300.042969 657.582031 300.351562 657.296875 300.636719 C 657.011719 300.921875 656.703125 301.179688 656.367188 301.402344 C 656.03125 301.625 655.675781 301.816406 655.304688 301.96875 C 654.933594 302.125 654.546875 302.242188 654.152344 302.320312 C 653.757812 302.398438 653.355469 302.4375 652.953125 302.4375 C 652.550781 302.4375 652.152344 302.398438 651.753906 302.320312 C 651.359375 302.242188 650.976562 302.125 650.601562 301.96875 C 650.230469 301.816406 649.875 301.625 649.539062 301.402344 C 649.203125 301.179688 648.894531 300.921875 648.609375 300.636719 C 648.324219 300.351562 648.070312 300.042969 647.84375 299.707031 C 647.621094 299.371094 647.429688 299.015625 647.277344 298.644531 C 647.121094 298.273438 647.007812 297.886719 646.925781 297.492188 C 646.847656 297.097656 646.808594 296.695312 646.808594 296.292969 C 646.808594 295.890625 646.847656 295.492188 646.925781 295.09375 C 647.007812 294.699219 647.121094 294.316406 647.277344 293.941406 C 647.429688 293.570312 647.621094 293.214844 647.84375 292.878906 C 648.070312 292.542969 648.324219 292.234375 648.609375 291.949219 C 648.894531 291.664062 649.203125 291.410156 649.539062 291.183594 C 649.875 290.960938 650.230469 290.773438 650.601562 290.617188 C 650.976562 290.460938 651.359375 290.347656 651.753906 290.265625 C 652.152344 290.1875 652.550781 290.148438 652.953125 290.148438 C 653.355469 290.148438 653.757812 290.1875 654.152344 290.265625 C 654.546875 290.347656 654.933594 290.460938 655.304688 290.617188 C 655.675781 290.773438 656.03125 290.960938 656.367188 291.183594 C 656.703125 291.410156 657.011719 291.664062 657.296875 291.949219 C 657.582031 292.234375 657.839844 292.542969 658.0625 292.878906 C 658.285156 293.214844 658.476562 293.570312 658.628906 293.941406 C 658.785156 294.316406 658.902344 294.699219 658.980469 295.09375 C 659.058594 295.492188 659.097656 295.890625 659.097656 296.292969 Z M 659.097656 296.292969 " fill-opacity="1" fill-rule="nonzero"/><path fill="#333330" d="M 652.953125 303.359375 C 648.960938 303.359375 645.734375 300.132812 645.734375 296.140625 C 645.734375 292.144531 648.960938 288.921875 652.953125 288.921875 C 656.945312 288.921875 660.171875 292.144531 660.171875 296.140625 C 660.171875 300.132812 656.945312 303.359375 652.953125 303.359375 Z M 652.953125 291.226562 C 650.1875 291.226562 648.039062 293.527344 648.039062 296.140625 C 648.039062 298.75 650.34375 301.054688 652.953125 301.054688 C 655.71875 301.054688 657.867188 298.75 657.867188 296.140625 C 657.867188 293.527344 655.71875 291.226562 652.953125 291.226562 Z M 652.953125 291.226562 " fill-opacity="1" fill-rule="nonzero"/><path fill="#fbf8ef" d="M 705.945312 439.910156 C 705.945312 440.3125 705.90625 440.710938 705.828125 441.109375 C 705.75 441.503906 705.632812 441.886719 705.476562 442.261719 C 705.324219 442.632812 705.132812 442.988281 704.910156 443.324219 C 704.6875 443.660156 704.429688 443.96875 704.144531 444.253906 C 703.859375 444.539062 703.550781 444.792969 703.214844 445.019531 C 702.878906 445.242188 702.527344 445.429688 702.152344 445.585938 C 701.78125 445.738281 701.394531 445.855469 701 445.933594 C 700.605469 446.015625 700.203125 446.054688 699.800781 446.054688 C 699.398438 446.054688 699 446.015625 698.601562 445.933594 C 698.207031 445.855469 697.824219 445.738281 697.449219 445.585938 C 697.078125 445.429688 696.722656 445.242188 696.386719 445.019531 C 696.050781 444.792969 695.742188 444.539062 695.457031 444.253906 C 695.171875 443.96875 694.917969 443.660156 694.691406 443.324219 C 694.46875 442.988281 694.28125 442.632812 694.125 442.261719 C 693.972656 441.886719 693.855469 441.503906 693.777344 441.109375 C 693.695312 440.710938 693.65625 440.3125 693.65625 439.910156 C 693.65625 439.507812 693.695312 439.105469 693.777344 438.710938 C 693.855469 438.316406 693.972656 437.929688 694.125 437.558594 C 694.28125 437.183594 694.46875 436.832031 694.691406 436.496094 C 694.917969 436.160156 695.171875 435.851562 695.457031 435.566406 C 695.742188 435.28125 696.050781 435.023438 696.386719 434.800781 C 696.722656 434.578125 697.078125 434.386719 697.449219 434.234375 C 697.824219 434.078125 698.207031 433.960938 698.601562 433.882812 C 699 433.804688 699.398438 433.765625 699.800781 433.765625 C 700.203125 433.765625 700.605469 433.804688 701 433.882812 C 701.394531 433.960938 701.78125 434.078125 702.152344 434.234375 C 702.527344 434.386719 702.878906 434.578125 703.214844 434.800781 C 703.550781 435.023438 703.859375 435.28125 704.144531 435.566406 C 704.429688 435.851562 704.6875 436.160156 704.910156 436.496094 C 705.132812 436.832031 705.324219 437.183594 705.476562 437.558594 C 705.632812 437.929688 705.75 438.316406 705.828125 438.710938 C 705.90625 439.105469 705.945312 439.507812 705.945312 439.910156 Z M 705.945312 439.910156 " fill-opacity="1" fill-rule="nonzero"/><path fill="#333330" d="M 699.800781 447.128906 C 695.808594 447.128906 692.582031 443.902344 692.582031 439.910156 C 692.582031 435.914062 695.808594 432.691406 699.800781 432.691406 C 703.796875 432.691406 707.019531 435.914062 707.019531 439.910156 C 707.019531 443.902344 703.796875 447.128906 699.800781 447.128906 Z M 699.800781 434.996094 C 697.035156 434.996094 694.886719 437.296875 694.886719 439.910156 C 694.886719 442.675781 697.191406 444.824219 699.800781 444.824219 C 702.566406 444.824219 704.71875 442.519531 704.71875 439.910156 C 704.714844 437.144531 702.566406 434.996094 699.800781 434.996094 Z M 699.800781 434.996094 " fill-opacity="1" fill-rule="nonzero"/><path fill="#333330" d="M 601.652344 360.960938 L 507.1875 360.960938 L 507.1875 358.808594 L 600.730469 358.808594 L 617.777344 341.757812 L 676.914062 341.757812 L 720.691406 297.984375 L 754.789062 297.984375 L 754.789062 300.132812 L 721.613281 300.132812 L 677.835938 343.910156 L 618.699219 343.910156 Z M 601.652344 360.960938 " fill-opacity="1" fill-rule="nonzero"/><path fill="#fbf8ef" d="M 766.925781 299.058594 C 766.925781 299.460938 766.886719 299.859375 766.804688 300.257812 C 766.726562 300.652344 766.613281 301.035156 766.457031 301.410156 C 766.300781 301.78125 766.113281 302.136719 765.890625 302.472656 C 765.664062 302.808594 765.410156 303.117188 765.125 303.402344 C 764.839844 303.6875 764.53125 303.941406 764.195312 304.167969 C 763.859375 304.390625 763.503906 304.582031 763.132812 304.734375 C 762.757812 304.890625 762.375 305.003906 761.980469 305.085938 C 761.582031 305.164062 761.183594 305.203125 760.78125 305.203125 C 760.378906 305.203125 759.976562 305.164062 759.582031 305.085938 C 759.1875 305.003906 758.800781 304.890625 758.429688 304.734375 C 758.058594 304.582031 757.703125 304.390625 757.367188 304.167969 C 757.03125 303.941406 756.722656 303.6875 756.4375 303.402344 C 756.152344 303.117188 755.894531 302.808594 755.671875 302.472656 C 755.449219 302.136719 755.257812 301.78125 755.105469 301.410156 C 754.949219 301.035156 754.832031 300.652344 754.753906 300.257812 C 754.675781 299.859375 754.636719 299.460938 754.636719 299.058594 C 754.636719 298.65625 754.675781 298.253906 754.753906 297.859375 C 754.832031 297.464844 754.949219 297.078125 755.105469 296.707031 C 755.257812 296.335938 755.449219 295.980469 755.671875 295.644531 C 755.894531 295.308594 756.152344 295 756.4375 294.714844 C 756.722656 294.429688 757.03125 294.175781 757.367188 293.949219 C 757.703125 293.726562 758.058594 293.535156 758.429688 293.382812 C 758.800781 293.226562 759.1875 293.109375 759.582031 293.03125 C 759.976562 292.953125 760.378906 292.914062 760.78125 292.914062 C 761.183594 292.914062 761.582031 292.953125 761.980469 293.03125 C 762.375 293.109375 762.757812 293.226562 763.132812 293.382812 C 763.503906 293.535156 763.859375 293.726562 764.195312 293.949219 C 764.53125 294.175781 764.839844 294.429688 765.125 294.714844 C 765.410156 295 765.664062 295.308594 765.890625 295.644531 C 766.113281 295.980469 766.300781 296.335938 766.457031 296.707031 C 766.613281 297.078125 766.726562 297.464844 766.804688 297.859375 C 766.886719 298.253906 766.925781 298.65625 766.925781 299.058594 Z M 766.925781 299.058594 " fill-opacity="1" fill-rule="nonzero"/><path fill="#333330" d="M 760.78125 306.277344 C 756.789062 306.277344 753.5625 303.050781 753.5625 299.058594 C 753.5625 295.066406 756.789062 291.839844 760.78125 291.839844 C 764.773438 291.839844 768 295.066406 768 299.058594 C 768 303.050781 764.773438 306.277344 760.78125 306.277344 Z M 760.78125 294.144531 C 758.015625 294.144531 755.867188 296.445312 755.867188 299.058594 C 755.867188 301.667969 758.167969 303.972656 760.78125 303.972656 C 763.546875 303.972656 765.695312 301.667969 765.695312 299.058594 C 765.695312 296.445312 763.546875 294.144531 760.78125 294.144531 Z M 760.78125 294.144531 " fill-opacity="1" fill-rule="nonzero"/><path fill="#333330" d="M 235.929688 316.261719 L 129.636719 316.261719 L 97.382812 297.367188 L 31.335938 297.367188 L 31.335938 295.21875 L 97.996094 295.21875 L 130.253906 314.109375 L 235.929688 314.109375 Z M 235.929688 316.261719 " fill-opacity="1" fill-rule="nonzero"/><path fill="#fbf8ef" d="M 31.335938 296.292969 C 31.335938 296.695312 31.296875 297.097656 31.214844 297.492188 C 31.136719 297.886719 31.019531 298.273438 30.867188 298.644531 C 30.710938 299.015625 30.523438 299.371094 30.300781 299.707031 C 30.074219 300.042969 29.820312 300.351562 29.535156 300.636719 C 29.25 300.921875 28.9375 301.179688 28.605469 301.402344 C 28.269531 301.625 27.914062 301.816406 27.542969 301.96875 C 27.167969 302.125 26.785156 302.242188 26.390625 302.320312 C 25.992188 302.398438 25.59375 302.4375 25.191406 302.4375 C 24.785156 302.4375 24.386719 302.398438 23.992188 302.320312 C 23.597656 302.242188 23.210938 302.125 22.839844 301.96875 C 22.464844 301.816406 22.113281 301.625 21.777344 301.402344 C 21.441406 301.179688 21.132812 300.921875 20.847656 300.636719 C 20.5625 300.351562 20.304688 300.042969 20.082031 299.707031 C 19.859375 299.371094 19.667969 299.015625 19.515625 298.644531 C 19.359375 298.273438 19.242188 297.886719 19.164062 297.492188 C 19.085938 297.097656 19.046875 296.695312 19.046875 296.292969 C 19.046875 295.890625 19.085938 295.492188 19.164062 295.09375 C 19.242188 294.699219 19.359375 294.316406 19.515625 293.941406 C 19.667969 293.570312 19.859375 293.214844 20.082031 292.878906 C 20.304688 292.542969 20.5625 292.234375 20.847656 291.949219 C 21.132812 291.664062 21.441406 291.410156 21.777344 291.183594 C 22.113281 290.960938 22.464844 290.773438 22.839844 290.617188 C 23.210938 290.460938 23.597656 290.347656 23.992188 290.265625 C 24.386719 290.1875 24.785156 290.148438 25.191406 290.148438 C 25.59375 290.148438 25.992188 290.1875 26.390625 290.265625 C 26.785156 290.347656 27.167969 290.460938 27.542969 290.617188 C 27.914062 290.773438 28.269531 290.960938 28.605469 291.183594 C 28.9375 291.410156 29.25 291.664062 29.535156 291.949219 C 29.820312 292.234375 30.074219 292.542969 30.300781 292.878906 C 30.523438 293.214844 30.710938 293.570312 30.867188 293.941406 C 31.019531 294.316406 31.136719 294.699219 31.214844 295.09375 C 31.296875 295.492188 31.335938 295.890625 31.335938 296.292969 Z M 31.335938 296.292969 " fill-opacity="1" fill-rule="nonzero"/><path fill="#333330" d="M 25.191406 303.359375 C 21.195312 303.359375 17.972656 300.132812 17.972656 296.140625 C 17.972656 292.144531 21.195312 288.921875 25.191406 288.921875 C 29.183594 288.921875 32.410156 292.144531 32.410156 296.140625 C 32.410156 300.132812 29.183594 303.359375 25.191406 303.359375 Z M 25.191406 291.226562 C 22.425781 291.226562 20.273438 293.527344 20.273438 296.140625 C 20.273438 298.75 22.578125 301.054688 25.191406 301.054688 C 27.800781 301.054688 30.105469 298.75 30.105469 296.140625 C 30.105469 293.527344 27.957031 291.226562 25.191406 291.226562 Z M 25.191406 291.226562 " fill-opacity="1" fill-rule="nonzero"/><path fill="#333330" d="M 83.710938 412.722656 L 82.636719 410.726562 L 114.277344 392.90625 L 137.320312 392.753906 L 236.238281 392.753906 L 236.238281 394.90625 L 137.320312 394.90625 L 114.894531 395.210938 Z M 83.710938 412.722656 " fill-opacity="1" fill-rule="nonzero"/><path fill="#333330" d="M 18.277344 372.941406 L 17.203125 371.097656 L 48.84375 352.203125 L 49.152344 352.203125 L 118.117188 352.511719 L 240.078125 352.511719 L 240.078125 354.660156 L 118.117188 354.660156 L 49.460938 354.355469 Z M 18.277344 372.941406 " fill-opacity="1" fill-rule="nonzero"/><path fill="#fbf8ef" d="M 84.480469 415.488281 C 84.480469 415.890625 84.441406 416.289062 84.363281 416.6875 C 84.285156 417.082031 84.167969 417.464844 84.011719 417.839844 C 83.859375 418.210938 83.667969 418.566406 83.445312 418.902344 C 83.21875 419.234375 82.964844 419.546875 82.679688 419.832031 C 82.394531 420.117188 82.085938 420.371094 81.75 420.59375 C 81.414062 420.820312 81.058594 421.007812 80.6875 421.164062 C 80.316406 421.316406 79.929688 421.433594 79.535156 421.511719 C 79.140625 421.589844 78.738281 421.632812 78.335938 421.632812 C 77.933594 421.632812 77.53125 421.589844 77.136719 421.511719 C 76.742188 421.433594 76.359375 421.316406 75.984375 421.164062 C 75.613281 421.007812 75.257812 420.820312 74.921875 420.59375 C 74.585938 420.371094 74.277344 420.117188 73.992188 419.832031 C 73.707031 419.546875 73.453125 419.234375 73.226562 418.902344 C 73.003906 418.566406 72.8125 418.210938 72.660156 417.839844 C 72.503906 417.464844 72.390625 417.082031 72.308594 416.6875 C 72.230469 416.289062 72.191406 415.890625 72.191406 415.488281 C 72.191406 415.082031 72.230469 414.683594 72.308594 414.289062 C 72.390625 413.894531 72.503906 413.507812 72.660156 413.136719 C 72.8125 412.761719 73.003906 412.410156 73.226562 412.074219 C 73.453125 411.738281 73.707031 411.429688 73.992188 411.144531 C 74.277344 410.855469 74.585938 410.601562 74.921875 410.378906 C 75.257812 410.15625 75.613281 409.964844 75.984375 409.8125 C 76.359375 409.65625 76.742188 409.539062 77.136719 409.460938 C 77.53125 409.382812 77.933594 409.34375 78.335938 409.34375 C 78.738281 409.34375 79.140625 409.382812 79.535156 409.460938 C 79.929688 409.539062 80.316406 409.65625 80.6875 409.8125 C 81.058594 409.964844 81.414062 410.15625 81.75 410.378906 C 82.085938 410.601562 82.394531 410.855469 82.679688 411.144531 C 82.964844 411.429688 83.21875 411.738281 83.445312 412.074219 C 83.667969 412.410156 83.859375 412.761719 84.011719 413.136719 C 84.167969 413.507812 84.285156 413.894531 84.363281 414.289062 C 84.441406 414.683594 84.480469 415.082031 84.480469 415.488281 Z M 84.480469 415.488281 " fill-opacity="1" fill-rule="nonzero"/><path fill="#333330" d="M 78.335938 422.550781 C 74.34375 422.550781 71.117188 419.328125 71.117188 415.332031 C 71.117188 411.339844 74.34375 408.113281 78.335938 408.113281 C 82.328125 408.113281 85.554688 411.339844 85.554688 415.332031 C 85.554688 419.328125 82.328125 422.550781 78.335938 422.550781 Z M 78.335938 410.417969 C 75.570312 410.417969 73.421875 412.722656 73.421875 415.332031 C 73.421875 418.097656 75.726562 420.25 78.335938 420.25 C 80.945312 420.25 83.25 417.945312 83.25 415.332031 C 83.25 412.722656 81.101562 410.417969 78.335938 410.417969 Z M 78.335938 410.417969 " fill-opacity="1" fill-rule="nonzero"/><path fill="#333330" d="M 60.058594 499.660156 L 13.824219 499.660156 L 13.824219 497.355469 L 59.136719 497.355469 L 83.40625 473.085938 L 244.222656 473.085938 L 244.222656 475.238281 L 84.328125 475.238281 Z M 60.058594 499.660156 " fill-opacity="1" fill-rule="nonzero"/><path fill="#fbf8ef" d="M 13.363281 498.125 C 13.363281 498.527344 13.324219 498.925781 13.246094 499.324219 C 13.167969 499.71875 13.050781 500.101562 12.894531 500.476562 C 12.742188 500.847656 12.550781 501.203125 12.328125 501.539062 C 12.105469 501.871094 11.847656 502.183594 11.5625 502.46875 C 11.277344 502.753906 10.96875 503.007812 10.632812 503.234375 C 10.296875 503.457031 9.941406 503.644531 9.570312 503.800781 C 9.199219 503.953125 8.8125 504.070312 8.417969 504.148438 C 8.023438 504.226562 7.621094 504.269531 7.21875 504.269531 C 6.816406 504.269531 6.417969 504.226562 6.019531 504.148438 C 5.625 504.070312 5.242188 503.953125 4.867188 503.800781 C 4.496094 503.644531 4.140625 503.457031 3.804688 503.234375 C 3.46875 503.007812 3.160156 502.753906 2.875 502.46875 C 2.589844 502.183594 2.335938 501.871094 2.109375 501.539062 C 1.886719 501.203125 1.699219 500.847656 1.542969 500.476562 C 1.386719 500.101562 1.273438 499.71875 1.191406 499.324219 C 1.113281 498.925781 1.074219 498.527344 1.074219 498.125 C 1.074219 497.71875 1.113281 497.320312 1.191406 496.925781 C 1.273438 496.53125 1.386719 496.144531 1.542969 495.773438 C 1.699219 495.398438 1.886719 495.046875 2.109375 494.710938 C 2.335938 494.375 2.589844 494.066406 2.875 493.78125 C 3.160156 493.496094 3.46875 493.238281 3.804688 493.015625 C 4.140625 492.792969 4.496094 492.601562 4.867188 492.449219 C 5.242188 492.292969 5.625 492.175781 6.019531 492.097656 C 6.417969 492.019531 6.816406 491.980469 7.21875 491.980469 C 7.621094 491.980469 8.023438 492.019531 8.417969 492.097656 C 8.8125 492.175781 9.199219 492.292969 9.570312 492.449219 C 9.941406 492.601562 10.296875 492.792969 10.632812 493.015625 C 10.96875 493.238281 11.277344 493.496094 11.5625 493.78125 C 11.847656 494.066406 12.105469 494.375 12.328125 494.710938 C 12.550781 495.046875 12.742188 495.398438 12.894531 495.773438 C 13.050781 496.144531 13.167969 496.53125 13.246094 496.925781 C 13.324219 497.320312 13.363281 497.71875 13.363281 498.125 Z M 13.363281 498.125 " fill-opacity="1" fill-rule="nonzero"/><path fill="#333330" d="M 7.21875 505.191406 C 3.226562 505.191406 0 501.964844 0 497.96875 C 0 493.976562 3.226562 490.75 7.21875 490.75 C 11.210938 490.75 14.4375 493.976562 14.4375 497.96875 C 14.285156 501.964844 11.058594 505.191406 7.21875 505.191406 Z M 7.21875 493.054688 C 4.453125 493.054688 2.304688 495.359375 2.304688 497.96875 C 2.304688 500.734375 4.609375 502.886719 7.21875 502.886719 C 9.832031 502.886719 12.132812 500.582031 12.132812 497.96875 C 12.132812 495.359375 9.984375 493.054688 7.21875 493.054688 Z M 7.21875 493.054688 " fill-opacity="1" fill-rule="nonzero"/><path fill="#fbf8ef" d="M 19.8125 375.703125 C 19.8125 376.109375 19.773438 376.507812 19.695312 376.902344 C 19.617188 377.300781 19.5 377.683594 19.347656 378.054688 C 19.191406 378.429688 19.003906 378.78125 18.777344 379.117188 C 18.554688 379.453125 18.300781 379.765625 18.015625 380.050781 C 17.730469 380.335938 17.417969 380.589844 17.082031 380.8125 C 16.75 381.039062 16.394531 381.226562 16.023438 381.382812 C 15.648438 381.535156 15.265625 381.652344 14.867188 381.730469 C 14.472656 381.808594 14.074219 381.847656 13.671875 381.847656 C 13.265625 381.847656 12.867188 381.808594 12.472656 381.730469 C 12.074219 381.652344 11.691406 381.535156 11.320312 381.382812 C 10.945312 381.226562 10.59375 381.039062 10.257812 380.8125 C 9.921875 380.589844 9.609375 380.335938 9.324219 380.050781 C 9.039062 379.765625 8.785156 379.453125 8.5625 379.117188 C 8.335938 378.78125 8.148438 378.429688 7.992188 378.054688 C 7.839844 377.683594 7.722656 377.300781 7.644531 376.902344 C 7.566406 376.507812 7.527344 376.109375 7.527344 375.703125 C 7.527344 375.300781 7.566406 374.902344 7.644531 374.507812 C 7.722656 374.109375 7.839844 373.726562 7.992188 373.351562 C 8.148438 372.980469 8.335938 372.625 8.5625 372.292969 C 8.785156 371.957031 9.039062 371.644531 9.324219 371.359375 C 9.609375 371.074219 9.921875 370.820312 10.257812 370.597656 C 10.59375 370.371094 10.945312 370.183594 11.320312 370.027344 C 11.691406 369.875 12.074219 369.757812 12.472656 369.679688 C 12.867188 369.601562 13.265625 369.5625 13.671875 369.5625 C 14.074219 369.5625 14.472656 369.601562 14.867188 369.679688 C 15.265625 369.757812 15.648438 369.875 16.023438 370.027344 C 16.394531 370.183594 16.75 370.371094 17.082031 370.597656 C 17.417969 370.820312 17.730469 371.074219 18.015625 371.359375 C 18.300781 371.644531 18.554688 371.957031 18.777344 372.292969 C 19.003906 372.625 19.191406 372.980469 19.347656 373.351562 C 19.5 373.726562 19.617188 374.109375 19.695312 374.507812 C 19.773438 374.902344 19.8125 375.300781 19.8125 375.703125 Z M 19.8125 375.703125 " fill-opacity="1" fill-rule="nonzero"/><path fill="#333330" d="M 13.671875 382.925781 C 9.675781 382.925781 6.453125 379.699219 6.453125 375.703125 C 6.453125 371.710938 9.675781 368.484375 13.671875 368.484375 C 17.664062 368.484375 20.890625 371.710938 20.890625 375.703125 C 20.890625 379.699219 17.664062 382.925781 13.671875 382.925781 Z M 13.671875 370.789062 C 10.90625 370.789062 8.753906 373.09375 8.753906 375.703125 C 8.753906 378.46875 11.058594 380.621094 13.671875 380.621094 C 16.28125 380.621094 18.585938 378.316406 18.585938 375.703125 C 18.585938 372.941406 16.433594 370.789062 13.671875 370.789062 Z M 13.671875 370.789062 " fill-opacity="1" fill-rule="nonzero"/><path fill="#333330" d="M 159.898438 452.503906 L 50.839844 452.503906 L 50.839844 450.355469 L 158.976562 450.355469 L 176.027344 433.304688 L 240.078125 433.304688 L 240.078125 435.453125 L 176.945312 435.453125 Z M 159.898438 452.503906 " fill-opacity="1" fill-rule="nonzero"/><path fill="#fbf8ef" d="M 50.839844 451.890625 C 50.839844 452.292969 50.800781 452.691406 50.722656 453.089844 C 50.644531 453.484375 50.527344 453.867188 50.375 454.242188 C 50.21875 454.613281 50.03125 454.96875 49.804688 455.304688 C 49.582031 455.640625 49.328125 455.949219 49.042969 456.234375 C 48.757812 456.519531 48.445312 456.773438 48.109375 457 C 47.777344 457.222656 47.421875 457.414062 47.046875 457.566406 C 46.675781 457.722656 46.292969 457.835938 45.894531 457.917969 C 45.5 457.996094 45.101562 458.035156 44.699219 458.035156 C 44.292969 458.035156 43.894531 457.996094 43.5 457.917969 C 43.101562 457.835938 42.71875 457.722656 42.347656 457.566406 C 41.972656 457.414062 41.621094 457.222656 41.285156 457 C 40.949219 456.773438 40.636719 456.519531 40.351562 456.234375 C 40.066406 455.949219 39.8125 455.640625 39.589844 455.304688 C 39.363281 454.96875 39.175781 454.613281 39.019531 454.242188 C 38.867188 453.867188 38.75 453.484375 38.671875 453.089844 C 38.59375 452.691406 38.554688 452.292969 38.554688 451.890625 C 38.554688 451.488281 38.59375 451.085938 38.671875 450.691406 C 38.75 450.296875 38.867188 449.910156 39.019531 449.539062 C 39.175781 449.167969 39.363281 448.8125 39.589844 448.476562 C 39.8125 448.140625 40.066406 447.832031 40.351562 447.546875 C 40.636719 447.261719 40.949219 447.003906 41.285156 446.78125 C 41.621094 446.558594 41.972656 446.367188 42.347656 446.214844 C 42.71875 446.058594 43.101562 445.941406 43.5 445.863281 C 43.894531 445.785156 44.292969 445.746094 44.699219 445.746094 C 45.101562 445.746094 45.5 445.785156 45.894531 445.863281 C 46.292969 445.941406 46.675781 446.058594 47.046875 446.214844 C 47.421875 446.367188 47.777344 446.558594 48.109375 446.78125 C 48.445312 447.003906 48.757812 447.261719 49.042969 447.546875 C 49.328125 447.832031 49.582031 448.140625 49.804688 448.476562 C 50.03125 448.8125 50.21875 449.167969 50.375 449.539062 C 50.527344 449.910156 50.644531 450.296875 50.722656 450.691406 C 50.800781 451.085938 50.839844 451.488281 50.839844 451.890625 Z M 50.839844 451.890625 " fill-opacity="1" fill-rule="nonzero"/><path fill="#333330" d="M 44.699219 459.109375 C 40.703125 459.109375 37.476562 455.882812 37.476562 451.890625 C 37.476562 447.898438 40.703125 444.671875 44.699219 444.671875 C 48.691406 444.671875 51.917969 447.898438 51.917969 451.890625 C 51.917969 455.882812 48.691406 459.109375 44.699219 459.109375 Z M 44.699219 446.976562 C 41.933594 446.976562 39.78125 449.277344 39.78125 451.890625 C 39.78125 454.65625 42.085938 456.804688 44.699219 456.804688 C 47.460938 456.804688 49.613281 454.5 49.613281 451.890625 C 49.765625 449.277344 47.460938 446.976562 44.699219 446.976562 Z M 44.699219 446.976562 " fill-opacity="1" fill-rule="nonzero"/><path fill="#fbf8ef" d="M 659.097656 296.292969 C 659.097656 296.695312 659.058594 297.097656 658.980469 297.492188 C 658.902344 297.886719 658.785156 298.273438 658.628906 298.644531 C 658.476562 299.015625 658.285156 299.371094 658.0625 299.707031 C 657.839844 300.042969 657.582031 300.351562 657.296875 300.636719 C 657.011719 300.921875 656.703125 301.179688 656.367188 301.402344 C 656.03125 301.625 655.675781 301.816406 655.304688 301.96875 C 654.933594 302.125 654.546875 302.242188 654.152344 302.320312 C 653.757812 302.398438 653.355469 302.4375 652.953125 302.4375 C 652.550781 302.4375 652.152344 302.398438 651.753906 302.320312 C 651.359375 302.242188 650.976562 302.125 650.601562 301.96875 C 650.230469 301.816406 649.875 301.625 649.539062 301.402344 C 649.203125 301.179688 648.894531 300.921875 648.609375 300.636719 C 648.324219 300.351562 648.070312 300.042969 647.84375 299.707031 C 647.621094 299.371094 647.429688 299.015625 647.277344 298.644531 C 647.121094 298.273438 647.007812 297.886719 646.925781 297.492188 C 646.847656 297.097656 646.808594 296.695312 646.808594 296.292969 C 646.808594 295.890625 646.847656 295.492188 646.925781 295.09375 C 647.007812 294.699219 647.121094 294.316406 647.277344 293.941406 C 647.429688 293.570312 647.621094 293.214844 647.84375 292.878906 C 648.070312 292.542969 648.324219 292.234375 648.609375 291.949219 C 648.894531 291.664062 649.203125 291.410156 649.539062 291.183594 C 649.875 290.960938 650.230469 290.773438 650.601562 290.617188 C 650.976562 290.460938 651.359375 290.347656 651.753906 290.265625 C 652.152344 290.1875 652.550781 290.148438 652.953125 290.148438 C 653.355469 290.148438 653.757812 290.1875 654.152344 290.265625 C 654.546875 290.347656 654.933594 290.460938 655.304688 290.617188 C 655.675781 290.773438 656.03125 290.960938 656.367188 291.183594 C 656.703125 291.410156 657.011719 291.664062 657.296875 291.949219 C 657.582031 292.234375 657.839844 292.542969 658.0625 292.878906 C 658.285156 293.214844 658.476562 293.570312 658.628906 293.941406 C 658.785156 294.316406 658.902344 294.699219 658.980469 295.09375 C 659.058594 295.492188 659.097656 295.890625 659.097656 296.292969 Z M 659.097656 296.292969 " fill-opacity="1" fill-rule="nonzero"/><path fill="#333330" d="M 652.953125 303.359375 C 648.960938 303.359375 645.734375 300.132812 645.734375 296.140625 C 645.734375 292.144531 648.960938 288.921875 652.953125 288.921875 C 656.945312 288.921875 660.171875 292.144531 660.171875 296.140625 C 660.171875 300.132812 656.945312 303.359375 652.953125 303.359375 Z M 652.953125 291.226562 C 650.1875 291.226562 648.039062 293.527344 648.039062 296.140625 C 648.039062 298.75 650.34375 301.054688 652.953125 301.054688 C 655.71875 301.054688 657.867188 298.75 657.867188 296.140625 C 657.867188 293.527344 655.71875 291.226562 652.953125 291.226562 Z M 652.953125 291.226562 " fill-opacity="1" fill-rule="nonzero"/><path fill="#333330" d="M 472.933594 130.867188 L 426.546875 130.710938 C 423.628906 130.710938 421.324219 133.324219 421.324219 136.550781 C 421.324219 144.074219 415.796875 150.066406 408.882812 150.066406 L 304.28125 149.757812 C 297.523438 149.757812 291.992188 143.613281 291.992188 136.089844 C 291.992188 132.863281 289.691406 130.25 286.769531 130.25 L 241.765625 130.097656 C 227.328125 130.097656 215.65625 142.847656 215.5 158.667969 L 213.964844 674.304688 C 213.964844 684.441406 222.105469 692.582031 232.089844 692.582031 L 478.15625 693.347656 C 488.753906 693.347656 497.355469 684.746094 497.511719 674.148438 L 499.046875 159.4375 C 499.046875 143.769531 487.371094 130.867188 472.933594 130.867188 Z M 472.933594 130.867188 " fill-opacity="1" fill-rule="nonzero"/><g clip-path="url(#5509f81984)"><path fill="#333330" d="M 478.308594 694.269531 L 232.242188 693.503906 C 227.175781 693.503906 222.414062 691.507812 218.726562 687.820312 C 215.195312 684.132812 213.195312 679.371094 213.195312 674.304688 L 214.734375 158.667969 C 214.734375 142.386719 226.867188 129.175781 241.613281 129.175781 L 286.617188 129.332031 C 288.308594 129.332031 289.84375 130.097656 290.917969 131.328125 C 291.992188 132.554688 292.609375 134.246094 292.609375 135.933594 C 292.609375 143 297.832031 148.683594 304.128906 148.683594 L 408.730469 148.992188 C 415.027344 148.992188 420.25 143.308594 420.25 136.242188 C 420.25 134.550781 420.863281 132.863281 421.9375 131.632812 C 423.015625 130.40625 424.550781 129.636719 426.238281 129.636719 L 472.628906 129.792969 C 487.527344 129.792969 499.507812 143.152344 499.507812 159.4375 L 497.972656 674.148438 C 497.972656 679.527344 495.820312 684.59375 491.980469 688.28125 C 488.601562 692.121094 483.6875 694.269531 478.308594 694.269531 Z M 241.765625 130.867188 C 227.789062 130.867188 216.421875 143.308594 216.421875 158.667969 L 214.886719 674.304688 C 214.886719 678.910156 216.730469 683.367188 219.957031 686.589844 C 223.179688 689.96875 227.636719 691.660156 232.242188 691.660156 L 478.308594 692.429688 C 483.226562 692.429688 487.832031 690.585938 491.367188 687.050781 C 494.898438 683.519531 496.742188 678.910156 496.742188 673.996094 L 498.277344 159.28125 C 498.277344 143.921875 487.066406 131.328125 473.089844 131.328125 L 426.546875 131.480469 C 425.320312 131.480469 424.242188 131.941406 423.476562 132.863281 C 422.554688 133.785156 422.09375 135.011719 422.09375 136.394531 C 422.09375 144.382812 416.101562 150.679688 408.882812 150.679688 L 304.28125 150.375 C 297.0625 150.375 291.070312 143.921875 291.226562 135.933594 C 291.226562 134.550781 290.765625 133.324219 289.84375 132.402344 C 289.074219 131.480469 287.847656 131.019531 286.769531 131.019531 Z M 241.765625 130.867188 " fill-opacity="1" fill-rule="nonzero"/></g><path fill="#fbf8ef" d="M 485.375 130.867188 L 438.988281 130.710938 C 436.070312 130.710938 433.765625 133.324219 433.765625 136.550781 C 433.765625 144.074219 428.238281 150.066406 421.324219 150.066406 L 316.722656 149.757812 C 309.964844 149.757812 304.433594 143.613281 304.433594 136.089844 C 304.433594 132.863281 302.132812 130.25 299.210938 130.25 L 254.207031 130.097656 C 239.769531 130.097656 228.097656 142.847656 227.941406 158.667969 L 226.40625 674.304688 C 226.40625 684.441406 234.546875 692.582031 244.53125 692.582031 L 490.597656 693.347656 C 501.195312 693.347656 509.796875 684.746094 509.953125 674.148438 L 511.488281 159.4375 C 511.488281 143.769531 499.8125 130.867188 485.375 130.867188 Z M 485.375 130.867188 " fill-opacity="1" fill-rule="nonzero"/><g clip-path="url(#6a6b992dab)"><path fill="#333330" d="M 490.597656 694.886719 L 244.53125 694.117188 C 239.308594 694.117188 234.394531 691.96875 230.554688 688.28125 C 226.867188 684.59375 224.871094 679.527344 224.871094 674.304688 L 226.40625 158.667969 C 226.40625 142.078125 238.847656 128.5625 254.054688 128.5625 L 299.058594 128.714844 C 302.746094 128.714844 305.816406 131.941406 305.816406 135.933594 C 305.816406 142.695312 310.734375 148.070312 316.722656 148.070312 L 421.324219 148.375 C 427.316406 148.375 432.230469 143 432.230469 136.242188 C 432.230469 132.25 435.300781 129.023438 438.988281 129.023438 L 485.375 129.175781 C 492.75 129.175781 499.660156 132.402344 504.882812 138.085938 C 510.105469 143.769531 512.871094 151.296875 512.871094 159.4375 L 511.335938 674.148438 C 511.335938 679.679688 509.183594 684.902344 505.191406 688.742188 C 501.351562 692.734375 496.128906 694.886719 490.597656 694.886719 Z M 254.054688 131.632812 C 240.539062 131.632812 229.476562 143.769531 229.324219 158.820312 L 227.789062 674.457031 C 227.789062 678.910156 229.476562 683.210938 232.703125 686.285156 C 235.929688 689.507812 240.078125 691.199219 244.53125 691.199219 L 490.597656 691.96875 C 495.359375 691.96875 499.8125 690.125 503.195312 686.746094 C 506.574219 683.367188 508.414062 678.910156 508.414062 674.148438 L 509.953125 159.4375 C 509.953125 152.0625 507.339844 145.304688 502.734375 140.082031 C 498.125 135.011719 491.980469 132.09375 485.375 132.09375 L 438.988281 131.941406 C 436.839844 131.941406 435.148438 133.9375 435.148438 136.242188 C 435.148438 144.535156 429.003906 151.296875 421.324219 151.296875 L 316.722656 150.988281 C 309.042969 150.988281 302.898438 144.230469 302.898438 135.933594 C 302.898438 133.476562 301.210938 131.632812 299.058594 131.632812 Z M 254.054688 131.632812 " fill-opacity="1" fill-rule="nonzero"/></g><path fill="#333330" d="M 452.351562 648.34375 C 441.90625 648.34375 432.230469 644.351562 424.859375 636.976562 L 269.414062 481.535156 C 262.042969 474.164062 258.046875 464.332031 258.046875 454.039062 C 258.046875 443.597656 262.042969 433.917969 269.414062 426.546875 L 424.703125 271.257812 C 432.078125 263.882812 441.90625 259.890625 452.199219 259.890625 C 462.644531 259.890625 472.320312 263.882812 479.691406 271.257812 L 635.289062 426.394531 C 642.664062 433.765625 646.65625 443.597656 646.65625 453.886719 C 646.65625 464.332031 642.664062 474.007812 635.289062 481.382812 L 479.847656 636.824219 C 472.472656 644.199219 462.796875 648.34375 452.351562 648.34375 Z M 452.351562 648.34375 " fill-opacity="1" fill-rule="nonzero"/><path fill="#333330" d="M 452.351562 260.503906 C 462.183594 260.503906 471.859375 264.191406 479.386719 271.71875 L 634.675781 427.007812 C 649.574219 441.90625 649.574219 466.019531 634.675781 480.921875 L 479.386719 636.363281 C 471.859375 643.890625 462.183594 647.578125 452.351562 647.578125 C 442.523438 647.578125 432.84375 643.890625 425.320312 636.363281 L 270.027344 480.921875 C 255.128906 466.019531 255.128906 441.90625 270.027344 427.007812 L 425.320312 271.71875 C 432.84375 264.191406 442.523438 260.503906 452.351562 260.503906 M 452.351562 258.96875 C 447.128906 258.96875 442.214844 259.890625 437.453125 261.886719 C 432.539062 263.882812 428.082031 266.800781 424.242188 270.640625 L 268.953125 425.933594 C 265.113281 429.773438 262.195312 434.074219 260.199219 439.140625 C 258.203125 443.902344 257.28125 448.972656 257.28125 454.039062 C 257.28125 459.109375 258.203125 464.179688 260.199219 468.941406 C 262.195312 473.855469 265.113281 478.308594 268.953125 482.148438 L 424.242188 637.4375 C 428.082031 641.277344 432.382812 644.199219 437.453125 646.195312 C 442.214844 648.191406 447.285156 649.113281 452.351562 649.113281 C 457.574219 649.113281 462.488281 648.191406 467.25 646.195312 C 472.167969 644.199219 476.621094 641.277344 480.460938 637.4375 L 635.75 482.148438 C 639.589844 478.308594 642.507812 474.007812 644.503906 468.941406 C 646.503906 464.179688 647.425781 459.109375 647.425781 454.039062 C 647.425781 448.972656 646.503906 443.902344 644.503906 439.140625 C 642.507812 434.226562 639.589844 429.773438 635.75 425.933594 L 480.460938 270.488281 C 476.621094 266.648438 472.320312 263.730469 467.25 261.734375 C 462.488281 259.890625 457.574219 258.96875 452.351562 258.96875 Z M 452.351562 258.96875 " fill-opacity="1" fill-rule="nonzero"/><path fill="#fcff55" d="M 439.449219 636.363281 L 284.007812 480.921875 C 269.105469 466.019531 269.105469 441.90625 284.007812 427.007812 L 439.296875 271.71875 C 454.195312 256.816406 478.308594 256.816406 493.210938 271.71875 L 648.5 427.007812 C 663.398438 441.90625 663.398438 466.019531 648.5 480.921875 L 493.363281 636.363281 C 478.464844 651.261719 454.347656 651.261719 439.449219 636.363281 Z M 439.449219 636.363281 " fill-opacity="1" fill-rule="nonzero"/><path fill="#333330" d="M 466.328125 648.960938 C 456.191406 648.960938 446.054688 645.117188 438.375 637.4375 L 283.085938 481.996094 C 267.570312 466.480469 267.570312 441.445312 283.085938 425.933594 L 438.375 270.640625 C 453.886719 255.128906 478.925781 255.128906 494.4375 270.640625 L 649.726562 425.933594 C 665.242188 441.445312 665.242188 466.480469 649.726562 481.996094 L 494.4375 637.285156 C 486.605469 645.117188 476.46875 648.960938 466.328125 648.960938 Z M 440.371094 635.289062 C 454.65625 649.574219 478.003906 649.574219 492.289062 635.289062 L 647.578125 480 C 654.488281 473.085938 658.328125 463.871094 658.328125 454.039062 C 658.328125 444.210938 654.488281 434.996094 647.578125 428.082031 L 492.289062 272.640625 C 485.375 265.726562 476.160156 261.886719 466.328125 261.886719 C 456.5 261.886719 447.285156 265.726562 440.371094 272.640625 L 285.082031 428.082031 C 278.167969 434.996094 274.328125 444.210938 274.328125 454.039062 C 274.328125 463.871094 278.167969 473.085938 285.082031 480 Z M 440.371094 635.289062 " fill-opacity="1" fill-rule="nonzero"/><path fill="#333330" d="M 522.085938 418.097656 L 509.796875 418.097656 L 514.40625 387.378906 C 514.714844 387.378906 515.019531 387.378906 515.328125 387.378906 C 521.933594 387.378906 527.15625 382.15625 527.15625 375.550781 C 527.15625 368.945312 521.933594 363.722656 515.328125 363.722656 C 508.722656 363.722656 503.5 368.945312 503.5 375.550781 C 503.5 380.160156 506.113281 384.152344 509.953125 386.148438 L 497.511719 418.097656 L 440.371094 418.097656 L 427.929688 385.996094 C 431.617188 384 434.226562 380.003906 434.226562 375.550781 C 434.226562 368.945312 429.003906 363.722656 422.398438 363.722656 C 415.796875 363.722656 410.574219 368.945312 410.574219 375.550781 C 410.574219 382.15625 415.796875 387.378906 422.398438 387.378906 C 422.707031 387.378906 423.167969 387.378906 423.476562 387.378906 L 428.851562 418.097656 L 416.410156 418.097656 C 407.808594 418.097656 400.894531 425.011719 400.894531 433.613281 L 400.894531 488.90625 C 400.894531 497.507812 407.808594 504.421875 416.410156 504.421875 L 522.085938 504.421875 C 530.6875 504.421875 537.601562 497.507812 537.601562 488.90625 L 537.601562 433.613281 C 537.753906 425.011719 530.6875 418.097656 522.085938 418.097656 Z M 522.085938 418.097656 " fill-opacity="1" fill-rule="nonzero"/><path fill="#333330" d="M 547.429688 438.066406 L 543.589844 438.066406 C 542.363281 438.066406 541.441406 438.988281 541.441406 440.214844 L 541.441406 476.160156 C 541.441406 477.386719 542.363281 478.308594 543.589844 478.308594 L 547.429688 478.308594 C 551.886719 478.308594 555.570312 474.625 555.570312 470.167969 L 555.570312 446.359375 C 555.570312 441.753906 551.886719 438.066406 547.429688 438.066406 Z M 547.429688 438.066406 " fill-opacity="1" fill-rule="nonzero"/><path fill="#333330" d="M 394.90625 438.066406 L 391.066406 438.066406 C 386.609375 438.066406 382.925781 441.753906 382.925781 446.207031 L 382.925781 470.015625 C 382.925781 474.46875 386.609375 478.15625 391.066406 478.15625 L 394.90625 478.15625 C 396.132812 478.15625 397.054688 477.234375 397.054688 476.003906 L 397.054688 440.214844 C 397.054688 439.140625 396.132812 438.066406 394.90625 438.066406 Z M 394.90625 438.066406 " fill-opacity="1" fill-rule="nonzero"/><path fill="#333330" d="M 524.390625 510.257812 L 413.492188 510.257812 C 412.261719 510.257812 411.339844 511.179688 411.496094 512.410156 L 411.800781 525.617188 C 411.957031 531.914062 417.636719 536.675781 423.78125 535.601562 L 524.238281 519.78125 C 525.160156 519.628906 525.925781 518.859375 525.925781 517.9375 L 526.386719 512.410156 C 526.539062 511.332031 525.621094 510.257812 524.390625 510.257812 Z M 524.390625 510.257812 " fill-opacity="1" fill-rule="nonzero"/><path fill="#fcff55" d="M 447.898438 452.8125 C 447.898438 453.597656 447.820312 454.378906 447.667969 455.148438 C 447.515625 455.921875 447.285156 456.667969 446.984375 457.398438 C 446.683594 458.125 446.316406 458.8125 445.878906 459.46875 C 445.441406 460.121094 444.945312 460.726562 444.386719 461.285156 C 443.832031 461.839844 443.226562 462.335938 442.574219 462.773438 C 441.917969 463.210938 441.226562 463.578125 440.5 463.878906 C 439.773438 464.183594 439.027344 464.410156 438.253906 464.5625 C 437.484375 464.714844 436.703125 464.792969 435.917969 464.792969 C 435.128906 464.792969 434.351562 464.714844 433.578125 464.5625 C 432.808594 464.410156 432.058594 464.183594 431.332031 463.878906 C 430.605469 463.578125 429.914062 463.210938 429.261719 462.773438 C 428.605469 462.335938 428 461.839844 427.445312 461.285156 C 426.890625 460.726562 426.390625 460.121094 425.953125 459.46875 C 425.519531 458.8125 425.148438 458.125 424.847656 457.398438 C 424.546875 456.667969 424.320312 455.921875 424.167969 455.148438 C 424.011719 454.378906 423.9375 453.597656 423.9375 452.8125 C 423.9375 452.023438 424.011719 451.246094 424.167969 450.472656 C 424.320312 449.703125 424.546875 448.953125 424.847656 448.226562 C 425.148438 447.5 425.519531 446.808594 425.953125 446.15625 C 426.390625 445.5 426.890625 444.894531 427.445312 444.339844 C 428 443.785156 428.605469 443.289062 429.261719 442.851562 C 429.914062 442.414062 430.605469 442.042969 431.332031 441.742188 C 432.058594 441.441406 432.808594 441.214844 433.578125 441.0625 C 434.351562 440.90625 435.128906 440.832031 435.917969 440.832031 C 436.703125 440.832031 437.484375 440.90625 438.253906 441.0625 C 439.027344 441.214844 439.773438 441.441406 440.5 441.742188 C 441.226562 442.042969 441.917969 442.414062 442.574219 442.851562 C 443.226562 443.289062 443.832031 443.785156 444.386719 444.339844 C 444.945312 444.894531 445.441406 445.5 445.878906 446.15625 C 446.316406 446.808594 446.683594 447.5 446.984375 448.226562 C 447.285156 448.953125 447.515625 449.703125 447.667969 450.472656 C 447.820312 451.246094 447.898438 452.023438 447.898438 452.8125 Z M 447.898438 452.8125 " fill-opacity="1" fill-rule="nonzero"/><path fill="#fcff55" d="M 514.253906 452.8125 C 514.253906 453.597656 514.175781 454.378906 514.023438 455.148438 C 513.867188 455.921875 513.640625 456.667969 513.339844 457.398438 C 513.039062 458.125 512.671875 458.8125 512.234375 459.46875 C 511.796875 460.121094 511.300781 460.726562 510.742188 461.285156 C 510.1875 461.839844 509.582031 462.335938 508.929688 462.773438 C 508.273438 463.210938 507.582031 463.578125 506.855469 463.878906 C 506.128906 464.183594 505.378906 464.410156 504.609375 464.5625 C 503.835938 464.714844 503.058594 464.792969 502.273438 464.792969 C 501.484375 464.792969 500.707031 464.714844 499.933594 464.5625 C 499.164062 464.410156 498.414062 464.183594 497.6875 463.878906 C 496.960938 463.578125 496.269531 463.210938 495.617188 462.773438 C 494.960938 462.335938 494.355469 461.839844 493.800781 461.285156 C 493.242188 460.726562 492.746094 460.121094 492.308594 459.46875 C 491.875 458.8125 491.503906 458.125 491.203125 457.398438 C 490.902344 456.667969 490.675781 455.921875 490.519531 455.148438 C 490.367188 454.378906 490.292969 453.597656 490.292969 452.8125 C 490.292969 452.023438 490.367188 451.246094 490.519531 450.472656 C 490.675781 449.703125 490.902344 448.953125 491.203125 448.226562 C 491.503906 447.5 491.875 446.808594 492.308594 446.15625 C 492.746094 445.5 493.242188 444.894531 493.800781 444.339844 C 494.355469 443.785156 494.960938 443.289062 495.617188 442.851562 C 496.269531 442.414062 496.960938 442.042969 497.6875 441.742188 C 498.414062 441.441406 499.164062 441.214844 499.933594 441.0625 C 500.707031 440.90625 501.484375 440.832031 502.273438 440.832031 C 503.058594 440.832031 503.835938 440.90625 504.609375 441.0625 C 505.378906 441.214844 506.128906 441.441406 506.855469 441.742188 C 507.582031 442.042969 508.273438 442.414062 508.929688 442.851562 C 509.582031 443.289062 510.1875 443.785156 510.742188 444.339844 C 511.300781 444.894531 511.796875 445.5 512.234375 446.15625 C 512.671875 446.808594 513.039062 447.5 513.339844 448.226562 C 513.640625 448.953125 513.867188 449.703125 514.023438 450.472656 C 514.175781 451.246094 514.253906 452.023438 514.253906 452.8125 Z M 514.253906 452.8125 " fill-opacity="1" fill-rule="nonzero"/><path fill="#fcff55" d="M 489.523438 484.144531 C 478.003906 491.671875 460.339844 491.671875 448.820312 484.144531 C 448.203125 483.839844 447.898438 483.226562 447.898438 482.765625 L 447.898438 480.613281 C 447.898438 480 448.664062 479.382812 449.585938 479.382812 L 488.449219 479.382812 C 489.371094 479.382812 490.136719 480 490.136719 480.613281 L 490.136719 482.765625 C 490.292969 483.226562 489.984375 483.683594 489.523438 484.144531 Z M 489.523438 484.144531 " fill-opacity="1" fill-rule="nonzero"/></svg>