<svg width="5869" height="5869" viewBox="0 0 5869 5869" fill="none" xmlns="http://www.w3.org/2000/svg">
<path d="M4953.94 3068.05C4953.94 3105.99 4953.01 3143.91 4951.16 3181.79C4949.31 3219.67 4946.5 3257.49 4942.8 3295.25C4939.07 3332.98 4934.44 3370.63 4928.86 3408.15C4923.31 3445.67 4916.8 3483.05 4909.4 3520.24C4902.02 3557.47 4893.7 3594.45 4884.47 3631.26C4875.28 3668.06 4865.16 3704.6 4854.14 3740.9C4843.13 3777.2 4831.25 3813.23 4818.44 3848.93C4805.67 3884.67 4792.02 3920.04 4777.52 3955.08C4762.98 3990.13 4747.63 4024.79 4731.4 4059.09C4715.19 4093.39 4698.14 4127.27 4680.26 4160.7C4662.38 4194.16 4643.69 4227.18 4624.17 4259.72C4604.68 4292.25 4584.38 4324.28 4563.3 4355.81C4542.23 4387.36 4520.41 4418.38 4497.81 4448.82C4475.21 4479.3 4451.87 4509.21 4427.81 4538.53C4403.75 4567.84 4378.97 4596.56 4353.48 4624.68C4328.01 4652.8 4301.86 4680.26 4275.03 4707.07C4248.22 4733.9 4220.76 4760.05 4192.64 4785.52C4164.55 4811.01 4135.83 4835.76 4106.49 4859.85C4077.17 4883.91 4047.26 4907.22 4016.82 4929.82C3986.34 4952.42 3955.32 4974.27 3923.8 4995.34C3892.25 5016.42 3860.22 5036.72 3827.68 5056.21C3795.14 5075.7 3762.12 5094.39 3728.69 5112.27C3695.23 5130.18 3661.35 5147.23 3627.05 5163.43C3592.78 5179.64 3558.09 5195.02 3523.05 5209.55C3488 5224.06 3452.63 5237.7 3416.89 5250.48C3381.19 5263.26 3345.19 5275.17 3308.86 5286.18C3272.56 5297.2 3236.03 5307.29 3199.22 5316.51C3162.44 5325.74 3125.43 5334.03 3088.23 5341.44C3051.01 5348.84 3013.66 5355.32 2976.14 5360.9C2938.62 5366.45 2900.97 5371.11 2863.21 5374.81C2825.45 5378.54 2787.63 5381.32 2749.75 5383.2C2711.87 5385.05 2673.96 5385.98 2636.01 5385.98C2598.07 5385.98 2560.16 5385.05 2522.28 5383.2C2484.4 5381.32 2446.58 5378.54 2408.82 5374.81C2371.05 5371.11 2333.41 5366.45 2295.89 5360.9C2258.37 5355.32 2221.02 5348.84 2183.8 5341.44C2146.6 5334.03 2109.59 5325.74 2072.81 5316.51C2036 5307.29 1999.47 5297.2 1963.17 5286.18C1926.84 5275.17 1890.84 5263.26 1855.13 5250.48C1819.4 5237.7 1784.03 5224.06 1748.98 5209.52C1713.94 5195.02 1679.25 5179.64 1644.98 5163.43C1610.68 5147.23 1576.8 5130.18 1543.34 5112.27C1509.9 5094.39 1476.89 5075.7 1444.35 5056.21C1411.81 5036.72 1379.78 5016.42 1348.23 4995.34C1316.71 4974.27 1285.69 4952.42 1255.21 4929.82C1224.77 4907.22 1194.85 4883.91 1165.54 4859.85C1136.2 4835.76 1107.48 4811.01 1079.39 4785.52C1051.27 4760.05 1023.81 4733.9 997 4707.07C970.164 4680.26 944.014 4652.8 918.551 4624.68C893.058 4596.56 868.281 4567.84 844.221 4538.53C820.161 4509.21 796.817 4479.3 774.22 4448.82C751.622 4418.38 729.801 4387.36 708.726 4355.81C687.651 4324.28 667.352 4292.25 647.859 4259.72C628.337 4227.18 609.65 4194.16 591.769 4160.7C573.888 4127.27 556.843 4093.39 540.634 4059.09C524.395 4024.79 509.051 3990.13 494.513 3955.08C480.006 3920.04 466.364 3884.67 453.587 3848.93C440.781 3813.23 428.9 3777.2 417.885 3740.9C406.87 3704.6 396.75 3668.06 387.556 3631.26C378.332 3594.45 370.004 3557.47 362.63 3520.24C355.227 3483.05 348.72 3445.67 343.167 3408.15C337.585 3370.63 332.958 3332.98 329.227 3295.25C325.525 3257.49 322.719 3219.67 320.869 3181.79C319.018 3143.91 318.062 3105.99 318.062 3068.05C318.062 3030.11 319.018 2992.2 320.869 2954.32C322.719 2916.41 325.525 2878.59 329.227 2840.86C332.958 2803.09 337.585 2765.45 343.167 2727.93C348.72 2690.4 355.227 2653.03 362.63 2615.84C370.004 2578.64 378.332 2541.63 387.556 2504.82C396.75 2468.04 406.87 2431.47 417.885 2395.18C428.9 2358.88 440.781 2322.88 453.587 2287.14C466.364 2251.44 480.006 2216.07 494.513 2181.02C509.051 2145.98 524.395 2111.29 540.634 2076.99C556.843 2042.72 573.888 2008.84 591.769 1975.38C609.65 1941.91 628.337 1908.93 647.859 1876.39C667.352 1843.85 687.651 1811.82 708.726 1780.27C729.801 1748.72 751.622 1717.73 774.22 1687.25C796.817 1656.77 820.161 1626.89 844.221 1597.55C868.281 1568.24 893.058 1539.52 918.551 1511.43C944.014 1483.31 970.164 1455.85 997 1429.01C1023.81 1402.2 1051.27 1376.05 1079.39 1350.56C1107.48 1325.1 1136.2 1300.32 1165.54 1276.26C1194.85 1252.2 1224.77 1228.86 1255.21 1206.26C1285.69 1183.66 1316.71 1161.84 1348.23 1140.77C1379.78 1119.69 1411.81 1099.39 1444.35 1079.9C1476.89 1060.38 1509.9 1041.69 1543.34 1023.81C1576.8 1005.93 1610.68 988.882 1644.98 972.643C1679.25 956.434 1713.94 941.06 1748.98 926.552C1784.03 912.045 1819.4 898.373 1855.13 885.597C1890.84 872.82 1926.84 860.939 1963.17 849.924C1999.47 838.909 2036 828.79 2072.81 819.565C2109.59 810.371 2146.6 802.043 2183.8 794.64C2221.02 787.237 2258.37 780.759 2295.89 775.206C2333.41 769.624 2371.05 764.997 2408.82 761.266C2446.58 757.564 2484.4 754.758 2522.28 752.908C2560.16 751.027 2598.07 750.102 2636.01 750.102C2673.96 750.102 2711.87 751.027 2749.75 752.908C2787.63 754.758 2825.45 757.564 2863.21 761.266C2900.97 764.997 2938.62 769.624 2976.14 775.206C3013.66 780.759 3051.01 787.237 3088.23 794.64C3125.43 802.043 3162.44 810.371 3199.22 819.565C3236.03 828.79 3272.56 838.909 3308.86 849.924C3345.19 860.939 3381.19 872.82 3416.89 885.597C3452.63 898.373 3488 912.045 3523.05 926.552C3558.09 941.06 3592.78 956.434 3627.05 972.643C3661.35 988.882 3695.23 1005.93 3728.69 1023.81C3762.12 1041.69 3795.14 1060.38 3827.68 1079.9C3860.22 1099.39 3892.25 1119.69 3923.8 1140.77C3955.32 1161.84 3986.34 1183.66 4016.82 1206.26C4047.26 1228.86 4077.17 1252.2 4106.49 1276.26C4135.83 1300.32 4164.55 1325.1 4192.64 1350.56C4220.76 1376.05 4248.22 1402.2 4275.03 1429.01C4301.86 1455.85 4328.01 1483.31 4353.48 1511.43C4378.97 1539.52 4403.75 1568.24 4427.81 1597.55C4451.87 1626.89 4475.21 1656.77 4497.81 1687.25C4520.41 1717.73 4542.23 1748.72 4563.3 1780.27C4584.38 1811.82 4604.68 1843.85 4624.17 1876.39C4643.69 1908.93 4662.38 1941.91 4680.26 1975.38C4698.14 2008.84 4715.19 2042.72 4731.4 2076.99C4747.63 2111.29 4762.98 2145.98 4777.52 2181.02C4792.02 2216.07 4805.67 2251.44 4818.44 2287.14C4831.25 2322.88 4843.13 2358.88 4854.14 2395.18C4865.16 2431.47 4875.28 2468.04 4884.47 2504.82C4893.7 2541.63 4902.02 2578.64 4909.4 2615.84C4916.8 2653.03 4923.31 2690.4 4928.86 2727.93C4934.44 2765.45 4939.07 2803.09 4942.8 2840.86C4946.5 2878.59 4949.31 2916.41 4951.16 2954.32C4953.01 2992.2 4953.94 3030.11 4953.94 3068.05Z" fill="#FF6232"/>
<mask id="mask0_4595_10198" style="mask-type:luminance" maskUnits="userSpaceOnUse" x="313" y="748" width="4647" height="4640">
<path d="M313.32 748.91H4959.61V5387.56H313.32V748.91Z" fill="white"/>
</mask>
<g mask="url(#mask0_4595_10198)">
<mask id="mask1_4595_10198" style="mask-type:luminance" maskUnits="userSpaceOnUse" x="318" y="750" width="4636" height="4636">
<path d="M318.07 3068.06C318.07 3030.12 319.026 2992.21 320.876 2954.32C322.727 2916.41 325.533 2878.59 329.235 2840.86C332.966 2803.1 337.593 2765.45 343.175 2727.93C348.728 2690.41 355.235 2653.04 362.638 2615.84C370.012 2578.65 378.34 2541.63 387.564 2504.82C396.758 2468.05 406.878 2431.48 417.893 2395.18C428.908 2358.88 440.789 2322.88 453.595 2287.15C466.371 2251.45 480.014 2216.07 494.521 2181.03C509.059 2145.95 524.402 2111.29 540.641 2076.99C556.851 2042.73 573.896 2008.84 591.777 1975.38C609.658 1941.92 628.345 1908.93 647.867 1876.39C667.36 1843.86 687.659 1811.83 708.734 1780.27C729.809 1748.72 751.63 1717.73 774.228 1687.26C796.825 1656.78 820.169 1626.9 844.229 1597.55C868.289 1568.24 893.066 1539.52 918.559 1511.43C944.022 1483.31 970.172 1455.85 997.008 1429.01C1023.81 1402.21 1051.28 1376.06 1079.4 1350.56C1107.49 1325.1 1136.2 1300.32 1165.55 1276.26C1194.86 1252.2 1224.77 1228.86 1255.22 1206.26C1285.7 1183.67 1316.72 1161.84 1348.24 1140.77C1379.79 1119.69 1411.82 1099.4 1444.36 1079.9C1476.9 1060.38 1509.91 1041.69 1543.35 1023.81C1576.81 1005.93 1610.69 988.886 1644.99 972.647C1679.26 956.438 1713.95 941.064 1748.99 926.556C1784.04 912.049 1819.41 898.377 1855.14 885.6C1890.84 872.824 1926.85 860.943 1963.17 849.928C1999.47 838.913 2036.01 828.793 2072.82 819.569C2109.59 810.375 2146.61 802.047 2183.81 794.644C2221.03 787.24 2258.37 780.763 2295.9 775.21C2333.42 769.628 2371.06 765.001 2408.82 761.27C2446.59 757.568 2484.41 754.762 2522.29 752.911C2560.17 751.031 2598.08 750.105 2636.02 750.105C2673.96 750.105 2711.87 751.031 2749.76 752.911C2787.64 754.762 2825.46 757.568 2863.22 761.27C2900.98 765.001 2938.62 769.628 2976.15 775.21C3013.67 780.763 3051.01 787.24 3088.24 794.644C3125.43 802.047 3162.45 810.375 3199.23 819.569C3236.03 828.793 3272.57 838.913 3308.87 849.928C3345.2 860.943 3381.2 872.824 3416.9 885.6C3452.63 898.377 3488.01 912.049 3523.05 926.556C3558.1 941.064 3592.79 956.438 3627.05 972.647C3661.35 988.886 3695.24 1005.93 3728.7 1023.81C3762.13 1041.69 3795.15 1060.38 3827.69 1079.9C3860.22 1099.4 3892.25 1119.69 3923.81 1140.77C3955.33 1161.84 3986.34 1183.67 4016.82 1206.26C4047.27 1228.86 4077.18 1252.2 4106.5 1276.26C4135.84 1300.32 4164.56 1325.1 4192.65 1350.56C4220.77 1376.06 4248.23 1402.21 4275.04 1429.01C4301.87 1455.85 4328.02 1483.31 4353.49 1511.43C4378.98 1539.52 4403.76 1568.24 4427.82 1597.55C4451.88 1626.9 4475.22 1656.78 4497.82 1687.26C4520.41 1717.73 4542.24 1748.72 4563.31 1780.27C4584.39 1811.83 4604.68 1843.86 4624.18 1876.39C4643.67 1908.93 4662.39 1941.92 4680.27 1975.38C4698.15 2008.84 4715.19 2042.73 4731.4 2076.99C4747.64 2111.29 4762.99 2145.98 4777.52 2181.03C4792.03 2216.07 4805.67 2251.45 4818.45 2287.15C4831.26 2322.88 4843.14 2358.88 4854.15 2395.18C4865.17 2431.48 4875.29 2468.05 4884.48 2504.82C4893.7 2541.63 4902.03 2578.65 4909.41 2615.84C4916.81 2653.04 4923.32 2690.41 4928.87 2727.93C4934.45 2765.45 4939.08 2803.1 4942.81 2840.86C4946.51 2878.59 4949.32 2916.41 4951.17 2954.32C4953.02 2992.21 4953.94 3030.12 4953.97 3068.06C4953.94 3106 4953.02 3143.91 4951.17 3181.79C4949.32 3219.67 4946.51 3257.49 4942.81 3295.26C4939.08 3332.99 4934.45 3370.63 4928.87 3408.15C4923.32 3445.68 4916.81 3483.05 4909.41 3520.24C4902.03 3557.47 4893.7 3594.45 4884.48 3631.26C4875.29 3668.07 4865.17 3704.61 4854.15 3740.91C4843.14 3777.2 4831.26 3813.23 4818.45 3848.94C4805.67 3884.67 4792.03 3920.04 4777.52 3955.09C4762.99 3990.13 4747.64 4024.79 4731.4 4059.09C4715.19 4093.39 4698.15 4127.27 4680.27 4160.7C4662.39 4194.17 4643.67 4227.18 4624.18 4259.72C4604.68 4292.26 4584.39 4324.29 4563.31 4355.81C4542.24 4387.36 4520.41 4418.38 4497.82 4448.83C4475.22 4479.31 4451.88 4509.22 4427.82 4538.53C4403.76 4567.85 4378.98 4596.56 4353.49 4624.68C4328.02 4652.8 4301.87 4680.27 4275.04 4707.07C4248.23 4733.91 4220.77 4760.06 4192.65 4785.52C4164.56 4811.01 4135.84 4835.76 4106.5 4859.85C4077.18 4883.91 4047.27 4907.22 4016.82 4929.82C3986.34 4952.42 3955.33 4974.27 3923.81 4995.35C3892.25 5016.42 3860.22 5036.72 3827.69 5056.21C3795.15 5075.71 3762.13 5094.39 3728.7 5112.27C3695.24 5130.18 3661.35 5147.23 3627.05 5163.44C3592.79 5179.65 3558.1 5195.02 3523.05 5209.56C3488.01 5224.07 3452.63 5237.71 3416.9 5250.48C3381.2 5263.26 3345.2 5275.17 3308.87 5286.19C3272.57 5297.2 3236.03 5307.29 3199.23 5316.52C3162.45 5325.74 3125.43 5334.04 3088.24 5341.44C3051.01 5348.84 3013.67 5355.32 2976.15 5360.9C2938.62 5366.46 2900.98 5371.11 2863.22 5374.81C2825.46 5378.55 2787.64 5381.32 2749.76 5383.2C2711.87 5385.05 2673.96 5385.98 2636.02 5385.98C2598.08 5385.98 2560.17 5385.05 2522.29 5383.2C2484.41 5381.32 2446.59 5378.55 2408.82 5374.81C2371.06 5371.11 2333.42 5366.46 2295.9 5360.9C2258.37 5355.32 2221.03 5348.84 2183.81 5341.44C2146.61 5334.04 2109.59 5325.74 2072.82 5316.52C2036.01 5307.29 1999.47 5297.2 1963.17 5286.19C1926.85 5275.17 1890.84 5263.26 1855.14 5250.48C1819.41 5237.71 1784.04 5224.07 1748.99 5209.53C1713.95 5195.02 1679.26 5179.65 1644.99 5163.44C1610.69 5147.23 1576.81 5130.15 1543.35 5112.27C1509.91 5094.39 1476.9 5075.71 1444.36 5056.21C1411.82 5036.72 1379.79 5016.42 1348.24 4995.35C1316.72 4974.27 1285.7 4952.42 1255.22 4929.82C1224.77 4907.22 1194.86 4883.91 1165.55 4859.85C1136.2 4835.76 1107.49 4811.01 1079.4 4785.52C1051.28 4760.06 1023.81 4733.91 997.008 4707.07C970.172 4680.27 944.022 4652.8 918.559 4624.68C893.066 4596.56 868.289 4567.85 844.229 4538.53C820.169 4509.22 796.825 4479.31 774.228 4448.83C751.63 4418.38 729.809 4387.36 708.734 4355.81C687.659 4324.29 667.36 4292.26 647.867 4259.72C628.345 4227.18 609.658 4194.17 591.777 4160.7C573.896 4127.27 556.851 4093.39 540.641 4059.09C524.402 4024.79 509.059 3990.13 494.521 3955.09C480.014 3920.04 466.371 3884.67 453.595 3848.94C440.789 3813.23 428.908 3777.2 417.893 3740.91C406.878 3704.61 396.758 3668.07 387.564 3631.26C378.34 3594.45 370.012 3557.47 362.638 3520.24C355.235 3483.05 348.728 3445.68 343.175 3408.15C337.593 3370.63 332.966 3332.99 329.235 3295.26C325.533 3257.49 322.727 3219.67 320.876 3181.79C319.026 3143.91 318.07 3106 318.07 3068.06Z" fill="white"/>
</mask>
<g mask="url(#mask1_4595_10198)">
<path d="M2632.56 5734.13C2527.3 5734.13 2422.05 5728.34 2319.09 5715.63C2145.59 5694.82 1973.26 5656.64 1807.86 5602.28C1644.78 5549.09 1486.3 5479.68 1335.94 5395.23C1186.74 5311.95 1045.63 5213.65 914.915 5103.76C784.226 4993.88 663.925 4870.12 557.505 4738.27C449.951 4604.08 353.949 4459.51 274.127 4307.99C193.17 4153 126.065 3989.89 77.4967 3822.19C26.6003 3649.86 -6.9227 3471.74 -21.9677 3291.28C-37.0128 3110.83 -34.6844 2929.25 -12.7138 2751.13C8.09249 2577.63 46.2723 2405.3 100.631 2239.89C153.826 2076.78 223.231 1918.33 307.68 1767.97C390.965 1618.75 489.265 1477.64 599.148 1346.95C709.03 1216.23 832.794 1095.96 964.647 989.542C1098.83 881.958 1243.4 785.956 1394.92 706.164C1549.91 625.207 1713.02 558.101 1880.72 509.533C2053.05 458.637 2231.18 425.084 2411.63 410.069C2592.08 395.024 2773.66 397.322 2951.79 419.323C3125.28 440.129 3297.61 478.309 3463.02 532.668C3627.26 585.863 3785.74 656.431 3936.1 739.716C4085.3 822.972 4226.41 921.302 4357.13 1031.18C4487.81 1141.07 4608.11 1264.83 4714.53 1396.68C4822.09 1530.86 4918.09 1675.43 4997.91 1826.96C5078.87 1981.95 5145.98 2145.03 5194.54 2312.76C5245.44 2485.09 5278.96 2663.21 5294.01 2843.66C5309.05 3024.09 5306.72 3205.7 5284.75 3383.82C5263.95 3557.32 5225.77 3729.65 5171.41 3895.06C5118.21 4058.13 5048.81 4216.61 4964.36 4366.98C4881.08 4516.17 4782.77 4657.28 4672.89 4788C4563.01 4918.69 4439.25 5038.99 4307.39 5145.41C4173.21 5252.96 4028.64 5348.96 3877.12 5428.79C3722.13 5509.74 3559.02 5576.85 3391.32 5625.42C3218.99 5676.31 3040.86 5709.83 2860.41 5724.88C2784.08 5730.67 2708.89 5734.13 2632.56 5734.13ZM2638.32 441.293C2564.32 441.293 2489.12 444.756 2415.09 450.547C2236.97 465.562 2061.17 497.951 1892.31 547.683C1726.9 596.281 1566.12 661.058 1413.43 742.015C1264.23 820.673 1121.96 914.346 990.11 1020.77C859.391 1126.02 737.956 1243.99 629.238 1373.55C520.49 1500.77 424.488 1640.75 342.367 1787.65C259.082 1935.68 190.842 2091.83 138.811 2252.61C85.5864 2415.69 47.4365 2585.72 27.7645 2756.92C6.92829 2932.71 3.46554 3110.83 18.5106 3288.96C33.5556 3467.11 65.9443 3642.9 115.676 3811.77C164.245 3977.18 229.022 4137.96 309.978 4290.65C388.637 4439.84 482.34 4583.28 588.73 4715.13C693.985 4845.82 811.987 4967.28 941.512 5076C1071.07 5184.72 1209.88 5280.72 1355.61 5362.84C1503.64 5446.13 1659.79 5514.37 1820.57 5566.43C1983.68 5619.62 2153.68 5657.8 2324.88 5677.48C2500.7 5698.28 2678.83 5701.75 2856.95 5686.73C3035.07 5671.69 3210.87 5639.3 3379.73 5589.56C3545.14 5540.97 3705.92 5476.22 3858.61 5395.23C4007.81 5316.57 4151.24 5222.9 4283.09 5116.48C4413.81 5011.23 4535.25 4893.25 4643.97 4763.7C4752.68 4635.31 4848.72 4495.37 4930.84 4349.63C5014.09 4201.57 5082.33 4045.42 5134.39 3884.64C5187.59 3721.56 5225.77 3551.53 5245.44 3380.36C5266.25 3204.54 5269.74 3026.41 5254.69 2848.29C5239.65 2670.17 5207.26 2494.34 5157.53 2325.48C5108.96 2160.07 5044.18 1999.29 4963.2 1846.63C4884.57 1697.41 4790.86 1554 4684.44 1422.12C4579.19 1291.43 4461.22 1169.96 4331.66 1061.24C4202.14 952.526 4063.33 856.524 3916.43 774.404C3768.4 691.119 3612.25 622.879 3451.47 570.818C3288.36 517.623 3118.36 479.443 2947.16 459.801C2845.37 447.055 2742.44 441.293 2638.32 441.293Z" fill="#FBF8EF"/>
</g>
</g>
<mask id="mask2_4595_10198" style="mask-type:luminance" maskUnits="userSpaceOnUse" x="1329" y="748" width="2615" height="4640">
<path d="M1329.7 748.91H3943.23V5387.56H1329.7V748.91Z" fill="white"/>
</mask>
<g mask="url(#mask2_4595_10198)">
<mask id="mask3_4595_10198" style="mask-type:luminance" maskUnits="userSpaceOnUse" x="318" y="750" width="4636" height="4636">
<path d="M318.062 3068.06C318.062 3030.12 319.018 2992.21 320.869 2954.32C322.719 2916.41 325.525 2878.59 329.227 2840.86C332.958 2803.1 337.585 2765.45 343.167 2727.93C348.72 2690.41 355.227 2653.04 362.63 2615.84C370.004 2578.65 378.332 2541.63 387.556 2504.82C396.75 2468.05 406.87 2431.48 417.885 2395.18C428.9 2358.88 440.781 2322.88 453.587 2287.15C466.364 2251.45 480.006 2216.07 494.513 2181.03C509.051 2145.95 524.395 2111.29 540.634 2076.99C556.843 2042.73 573.888 2008.84 591.769 1975.38C609.65 1941.92 628.337 1908.93 647.859 1876.39C667.352 1843.86 687.651 1811.83 708.726 1780.27C729.801 1748.72 751.622 1717.73 774.22 1687.26C796.817 1656.78 820.161 1626.9 844.221 1597.55C868.281 1568.24 893.058 1539.52 918.551 1511.43C944.014 1483.31 970.164 1455.85 997 1429.01C1023.81 1402.21 1051.27 1376.06 1079.39 1350.56C1107.48 1325.1 1136.2 1300.32 1165.54 1276.26C1194.85 1252.2 1224.77 1228.86 1255.21 1206.26C1285.69 1183.67 1316.71 1161.84 1348.23 1140.77C1379.78 1119.69 1411.81 1099.4 1444.35 1079.9C1476.89 1060.38 1509.9 1041.69 1543.34 1023.81C1576.8 1005.93 1610.68 988.886 1644.98 972.647C1679.25 956.438 1713.94 941.064 1748.98 926.556C1784.03 912.049 1819.4 898.377 1855.13 885.6C1890.84 872.824 1926.84 860.943 1963.17 849.928C1999.47 838.913 2036 828.793 2072.81 819.569C2109.59 810.375 2146.6 802.047 2183.8 794.644C2221.02 787.24 2258.37 780.763 2295.89 775.21C2333.41 769.628 2371.05 765.001 2408.82 761.27C2446.58 757.568 2484.4 754.762 2522.28 752.911C2560.16 751.031 2598.07 750.105 2636.01 750.105C2673.96 750.105 2711.87 751.031 2749.75 752.911C2787.63 754.762 2825.45 757.568 2863.21 761.27C2900.97 765.001 2938.62 769.628 2976.14 775.21C3013.66 780.763 3051.01 787.24 3088.23 794.644C3125.43 802.047 3162.44 810.375 3199.22 819.569C3236.03 828.793 3272.56 838.913 3308.86 849.928C3345.19 860.943 3381.19 872.824 3416.89 885.6C3452.63 898.377 3488 912.049 3523.05 926.556C3558.09 941.064 3592.78 956.438 3627.05 972.647C3661.35 988.886 3695.23 1005.93 3728.69 1023.81C3762.12 1041.69 3795.14 1060.38 3827.68 1079.9C3860.22 1099.4 3892.25 1119.69 3923.8 1140.77C3955.32 1161.84 3986.34 1183.67 4016.82 1206.26C4047.26 1228.86 4077.17 1252.2 4106.49 1276.26C4135.83 1300.32 4164.55 1325.1 4192.64 1350.56C4220.76 1376.06 4248.22 1402.21 4275.03 1429.01C4301.86 1455.85 4328.01 1483.31 4353.48 1511.43C4378.97 1539.52 4403.75 1568.24 4427.81 1597.55C4451.87 1626.9 4475.21 1656.78 4497.81 1687.26C4520.41 1717.73 4542.23 1748.72 4563.3 1780.27C4584.38 1811.83 4604.68 1843.86 4624.17 1876.39C4643.66 1908.93 4662.38 1941.92 4680.26 1975.38C4698.14 2008.84 4715.19 2042.73 4731.4 2076.99C4747.63 2111.29 4762.98 2145.98 4777.52 2181.03C4792.02 2216.07 4805.67 2251.45 4818.44 2287.15C4831.25 2322.88 4843.13 2358.88 4854.14 2395.18C4865.16 2431.48 4875.28 2468.05 4884.47 2504.82C4893.7 2541.63 4902.02 2578.65 4909.4 2615.84C4916.8 2653.04 4923.31 2690.41 4928.86 2727.93C4934.44 2765.45 4939.07 2803.1 4942.8 2840.86C4946.5 2878.59 4949.31 2916.41 4951.16 2954.32C4953.01 2992.21 4953.94 3030.12 4953.97 3068.06C4953.94 3106 4953.01 3143.91 4951.16 3181.79C4949.31 3219.67 4946.5 3257.49 4942.8 3295.26C4939.07 3332.99 4934.44 3370.63 4928.86 3408.15C4923.31 3445.68 4916.8 3483.05 4909.4 3520.24C4902.02 3557.47 4893.7 3594.45 4884.47 3631.26C4875.28 3668.07 4865.16 3704.61 4854.14 3740.91C4843.13 3777.2 4831.25 3813.23 4818.44 3848.94C4805.67 3884.67 4792.02 3920.04 4777.52 3955.09C4762.98 3990.13 4747.63 4024.79 4731.4 4059.09C4715.19 4093.39 4698.14 4127.27 4680.26 4160.7C4662.38 4194.17 4643.66 4227.18 4624.17 4259.72C4604.68 4292.26 4584.38 4324.29 4563.3 4355.81C4542.23 4387.36 4520.41 4418.38 4497.81 4448.83C4475.21 4479.31 4451.87 4509.22 4427.81 4538.53C4403.75 4567.85 4378.97 4596.56 4353.48 4624.68C4328.01 4652.8 4301.86 4680.27 4275.03 4707.07C4248.22 4733.91 4220.76 4760.06 4192.64 4785.52C4164.55 4811.01 4135.83 4835.76 4106.49 4859.85C4077.17 4883.91 4047.26 4907.22 4016.82 4929.82C3986.34 4952.42 3955.32 4974.27 3923.8 4995.35C3892.25 5016.42 3860.22 5036.72 3827.68 5056.21C3795.14 5075.71 3762.12 5094.39 3728.69 5112.27C3695.23 5130.18 3661.35 5147.23 3627.05 5163.44C3592.78 5179.65 3558.09 5195.02 3523.05 5209.56C3488 5224.07 3452.63 5237.71 3416.89 5250.48C3381.19 5263.26 3345.19 5275.17 3308.86 5286.19C3272.56 5297.2 3236.03 5307.29 3199.22 5316.52C3162.44 5325.74 3125.43 5334.04 3088.23 5341.44C3051.01 5348.84 3013.66 5355.32 2976.14 5360.9C2938.62 5366.46 2900.97 5371.11 2863.21 5374.81C2825.45 5378.55 2787.63 5381.32 2749.75 5383.2C2711.87 5385.05 2673.96 5385.98 2636.01 5385.98C2598.07 5385.98 2560.16 5385.05 2522.28 5383.2C2484.4 5381.32 2446.58 5378.55 2408.82 5374.81C2371.05 5371.11 2333.41 5366.46 2295.89 5360.9C2258.37 5355.32 2221.02 5348.84 2183.8 5341.44C2146.6 5334.04 2109.59 5325.74 2072.81 5316.52C2036 5307.29 1999.47 5297.2 1963.17 5286.19C1926.84 5275.17 1890.84 5263.26 1855.13 5250.48C1819.4 5237.71 1784.03 5224.07 1748.98 5209.53C1713.94 5195.02 1679.25 5179.65 1644.98 5163.44C1610.68 5147.23 1576.8 5130.15 1543.34 5112.27C1509.9 5094.39 1476.89 5075.71 1444.35 5056.21C1411.81 5036.72 1379.78 5016.42 1348.23 4995.35C1316.71 4974.27 1285.69 4952.42 1255.21 4929.82C1224.77 4907.22 1194.85 4883.91 1165.54 4859.85C1136.2 4835.76 1107.48 4811.01 1079.39 4785.52C1051.27 4760.06 1023.81 4733.91 997 4707.07C970.164 4680.27 944.014 4652.8 918.551 4624.68C893.058 4596.56 868.281 4567.85 844.221 4538.53C820.161 4509.22 796.817 4479.31 774.22 4448.83C751.622 4418.38 729.801 4387.36 708.726 4355.81C687.651 4324.29 667.352 4292.26 647.859 4259.72C628.337 4227.18 609.65 4194.17 591.769 4160.7C573.888 4127.27 556.843 4093.39 540.634 4059.09C524.395 4024.79 509.051 3990.13 494.513 3955.09C480.006 3920.04 466.364 3884.67 453.587 3848.94C440.781 3813.23 428.9 3777.2 417.885 3740.91C406.87 3704.61 396.75 3668.07 387.556 3631.26C378.332 3594.45 370.004 3557.47 362.63 3520.24C355.227 3483.05 348.72 3445.68 343.167 3408.15C337.585 3370.63 332.958 3332.99 329.227 3295.26C325.525 3257.49 322.719 3219.67 320.869 3181.79C319.018 3143.91 318.062 3106 318.062 3068.06Z" fill="white"/>
</mask>
<g mask="url(#mask3_4595_10198)">
<path d="M2806.04 5727.21C2735.48 5727.21 2663.77 5715.63 2593.21 5691.36C2507.62 5662.43 2422.04 5617.33 2337.59 5554.85C2174.51 5433.41 2021.82 5251.83 1884.18 5018.18C1747.7 4784.53 1632.02 4508.08 1541.81 4198.11C1448.14 3877.71 1385.66 3533.02 1355.6 3175.61C1325.51 2818.2 1330.14 2468.91 1368.32 2136.94C1405.33 1816.54 1473.57 1525.07 1569.57 1271.76C1665.58 1017.3 1785.88 813.718 1926.98 666.82C1998.69 591.654 2076.18 531.504 2156 489.861C2238.12 445.92 2324.87 420.457 2412.78 412.368C2500.7 405.442 2590.91 415.83 2678.82 445.92C2764.4 474.816 2849.99 519.952 2934.44 582.4C3097.51 703.835 3250.2 885.451 3387.85 1119.1C3524.33 1352.74 3640 1629.17 3730.21 1939.14C3823.88 2259.53 3886.36 2604.23 3916.42 2961.64C3946.51 3319.05 3941.89 3668.37 3903.71 4000.31C3866.69 4320.71 3798.45 4612.17 3702.45 4865.49C3606.45 5119.94 3486.15 5323.53 3345.04 5470.43C3273.34 5545.59 3195.84 5605.74 3116.02 5647.39C3033.9 5691.33 2947.15 5716.79 2859.24 5724.88C2841.9 5726.04 2824.55 5727.21 2806.04 5727.21ZM2465.98 448.219C2448.64 448.219 2432.43 449.383 2415.08 450.547C2249.68 464.428 2094.69 546.549 1954.75 693.447C1886.51 765.15 1822.89 851.898 1763.91 951.362C1706.05 1050.86 1652.86 1163.04 1605.43 1285.64C1510.59 1535.49 1443.51 1824.63 1406.5 2141.56C1368.32 2471.21 1363.69 2818.2 1393.75 3172.15C1423.84 3527.23 1486.29 3868.46 1578.83 4186.52C1667.91 4494.2 1782.41 4766.03 1917.73 4997.34C1984.81 5110.69 2055.37 5212.48 2129.41 5300.4C2203.44 5388.31 2282.07 5463.47 2360.72 5522.46C2523.83 5643.92 2690.37 5698.28 2855.78 5684.4C3021.18 5670.52 3176.17 5588.4 3316.11 5441.5C3384.35 5369.8 3448 5283.05 3506.98 5183.56C3564.8 5084.09 3618 4971.91 3665.43 4849.31C3760.27 4599.46 3827.38 4310.29 3864.39 3993.39C3902.54 3663.74 3907.17 3316.72 3877.11 2962.8C3847.02 2607.69 3784.57 2266.49 3692.03 1948.39C3601.82 1641.88 3488.47 1368.92 3353.13 1138.74C3286.05 1025.39 3215.48 923.601 3141.48 835.718C3067.45 747.806 2988.79 672.611 2910.14 613.625C2763.24 503.742 2614.04 448.219 2465.98 448.219Z" fill="#FBF8EF"/>
</g>
</g>
<mask id="mask4_4595_10198" style="mask-type:luminance" maskUnits="userSpaceOnUse" x="313" y="1513" width="4494" height="872">
<path d="M313.32 1513.1H4806.77V2384.28H313.32V1513.1Z" fill="white"/>
</mask>
<g mask="url(#mask4_4595_10198)">
<mask id="mask5_4595_10198" style="mask-type:luminance" maskUnits="userSpaceOnUse" x="318" y="750" width="4636" height="4636">
<path d="M318.07 3068.05C318.07 3030.11 319.026 2992.2 320.876 2954.32C322.727 2916.41 325.533 2878.59 329.235 2840.86C332.966 2803.09 337.593 2765.45 343.175 2727.93C348.728 2690.4 355.235 2653.03 362.638 2615.84C370.012 2578.64 378.34 2541.63 387.564 2504.82C396.758 2468.04 406.878 2431.47 417.893 2395.18C428.908 2358.88 440.789 2322.88 453.595 2287.14C466.371 2251.44 480.014 2216.07 494.521 2181.02C509.059 2145.95 524.402 2111.29 540.641 2076.99C556.851 2042.72 573.896 2008.84 591.777 1975.38C609.658 1941.91 628.345 1908.93 647.867 1876.39C667.36 1843.85 687.659 1811.82 708.734 1780.27C729.809 1748.72 751.63 1717.73 774.228 1687.25C796.825 1656.77 820.169 1626.89 844.229 1597.55C868.289 1568.24 893.066 1539.52 918.559 1511.43C944.022 1483.31 970.172 1455.85 997.008 1429.01C1023.81 1402.2 1051.28 1376.05 1079.4 1350.56C1107.49 1325.1 1136.2 1300.32 1165.55 1276.26C1194.86 1252.2 1224.77 1228.86 1255.22 1206.26C1285.7 1183.66 1316.72 1161.84 1348.24 1140.77C1379.79 1119.69 1411.82 1099.39 1444.36 1079.9C1476.9 1060.38 1509.91 1041.69 1543.35 1023.81C1576.81 1005.93 1610.69 988.882 1644.99 972.643C1679.26 956.434 1713.95 941.06 1748.99 926.552C1784.04 912.045 1819.41 898.373 1855.14 885.597C1890.84 872.82 1926.85 860.939 1963.17 849.924C1999.47 838.909 2036.01 828.79 2072.82 819.565C2109.59 810.371 2146.61 802.043 2183.81 794.64C2221.03 787.237 2258.37 780.759 2295.9 775.206C2333.42 769.624 2371.06 764.997 2408.82 761.266C2446.59 757.564 2484.41 754.758 2522.29 752.908C2560.17 751.027 2598.08 750.102 2636.02 750.102C2673.96 750.102 2711.87 751.027 2749.76 752.908C2787.64 754.758 2825.46 757.564 2863.22 761.266C2900.98 764.997 2938.62 769.624 2976.15 775.206C3013.67 780.759 3051.01 787.237 3088.24 794.64C3125.43 802.043 3162.45 810.371 3199.23 819.565C3236.03 828.79 3272.57 838.909 3308.87 849.924C3345.2 860.939 3381.2 872.82 3416.9 885.597C3452.63 898.373 3488.01 912.045 3523.05 926.552C3558.1 941.06 3592.79 956.434 3627.05 972.643C3661.35 988.882 3695.24 1005.93 3728.7 1023.81C3762.13 1041.69 3795.15 1060.38 3827.69 1079.9C3860.22 1099.39 3892.25 1119.69 3923.81 1140.77C3955.33 1161.84 3986.34 1183.66 4016.82 1206.26C4047.27 1228.86 4077.18 1252.2 4106.5 1276.26C4135.84 1300.32 4164.56 1325.1 4192.65 1350.56C4220.77 1376.05 4248.23 1402.2 4275.04 1429.01C4301.87 1455.85 4328.02 1483.31 4353.49 1511.43C4378.98 1539.52 4403.76 1568.24 4427.82 1597.55C4451.88 1626.89 4475.22 1656.77 4497.82 1687.25C4520.41 1717.73 4542.24 1748.72 4563.31 1780.27C4584.39 1811.82 4604.68 1843.85 4624.18 1876.39C4643.67 1908.93 4662.39 1941.91 4680.27 1975.38C4698.15 2008.84 4715.19 2042.72 4731.4 2076.99C4747.64 2111.29 4762.99 2145.98 4777.52 2181.02C4792.03 2216.07 4805.67 2251.44 4818.45 2287.14C4831.26 2322.88 4843.14 2358.88 4854.15 2395.18C4865.17 2431.47 4875.29 2468.04 4884.48 2504.82C4893.7 2541.63 4902.03 2578.64 4909.41 2615.84C4916.81 2653.03 4923.32 2690.4 4928.87 2727.93C4934.45 2765.45 4939.08 2803.09 4942.81 2840.86C4946.51 2878.59 4949.32 2916.41 4951.17 2954.32C4953.02 2992.2 4953.94 3030.11 4953.97 3068.05C4953.94 3105.99 4953.02 3143.91 4951.17 3181.79C4949.32 3219.67 4946.51 3257.49 4942.81 3295.25C4939.08 3332.98 4934.45 3370.63 4928.87 3408.15C4923.32 3445.67 4916.81 3483.05 4909.41 3520.24C4902.03 3557.47 4893.7 3594.45 4884.48 3631.26C4875.29 3668.06 4865.17 3704.6 4854.15 3740.9C4843.14 3777.2 4831.26 3813.23 4818.45 3848.93C4805.67 3884.67 4792.03 3920.04 4777.52 3955.08C4762.99 3990.13 4747.64 4024.79 4731.4 4059.09C4715.19 4093.39 4698.15 4127.27 4680.27 4160.7C4662.39 4194.16 4643.67 4227.18 4624.18 4259.72C4604.68 4292.25 4584.39 4324.28 4563.31 4355.81C4542.24 4387.36 4520.41 4418.38 4497.82 4448.82C4475.22 4479.3 4451.88 4509.21 4427.82 4538.53C4403.76 4567.84 4378.98 4596.56 4353.49 4624.68C4328.02 4652.8 4301.87 4680.26 4275.04 4707.07C4248.23 4733.9 4220.77 4760.05 4192.65 4785.52C4164.56 4811.01 4135.84 4835.76 4106.5 4859.85C4077.18 4883.91 4047.27 4907.22 4016.82 4929.82C3986.34 4952.42 3955.33 4974.27 3923.81 4995.34C3892.25 5016.42 3860.22 5036.72 3827.69 5056.21C3795.15 5075.7 3762.13 5094.39 3728.7 5112.27C3695.24 5130.18 3661.35 5147.23 3627.05 5163.43C3592.79 5179.64 3558.1 5195.02 3523.05 5209.55C3488.01 5224.06 3452.63 5237.7 3416.9 5250.48C3381.2 5263.26 3345.2 5275.17 3308.87 5286.18C3272.57 5297.2 3236.03 5307.29 3199.23 5316.51C3162.45 5325.74 3125.43 5334.03 3088.24 5341.44C3051.01 5348.84 3013.67 5355.32 2976.15 5360.9C2938.62 5366.45 2900.98 5371.11 2863.22 5374.81C2825.46 5378.54 2787.64 5381.32 2749.76 5383.2C2711.87 5385.05 2673.96 5385.98 2636.02 5385.98C2598.08 5385.98 2560.17 5385.05 2522.29 5383.2C2484.41 5381.32 2446.59 5378.54 2408.82 5374.81C2371.06 5371.11 2333.42 5366.45 2295.9 5360.9C2258.37 5355.32 2221.03 5348.84 2183.81 5341.44C2146.61 5334.03 2109.59 5325.74 2072.82 5316.51C2036.01 5307.29 1999.47 5297.2 1963.17 5286.18C1926.85 5275.17 1890.84 5263.26 1855.14 5250.48C1819.41 5237.7 1784.04 5224.06 1748.99 5209.52C1713.95 5195.02 1679.26 5179.64 1644.99 5163.43C1610.69 5147.23 1576.81 5130.15 1543.35 5112.27C1509.91 5094.39 1476.9 5075.7 1444.36 5056.21C1411.82 5036.72 1379.79 5016.42 1348.24 4995.34C1316.72 4974.27 1285.7 4952.42 1255.22 4929.82C1224.77 4907.22 1194.86 4883.91 1165.55 4859.85C1136.2 4835.76 1107.49 4811.01 1079.4 4785.52C1051.28 4760.05 1023.81 4733.9 997.008 4707.07C970.172 4680.26 944.022 4652.8 918.559 4624.68C893.066 4596.56 868.289 4567.84 844.229 4538.53C820.169 4509.21 796.825 4479.3 774.228 4448.82C751.63 4418.38 729.809 4387.36 708.734 4355.81C687.659 4324.28 667.36 4292.25 647.867 4259.72C628.345 4227.18 609.658 4194.16 591.777 4160.7C573.896 4127.27 556.851 4093.39 540.641 4059.09C524.402 4024.79 509.059 3990.13 494.521 3955.08C480.014 3920.04 466.371 3884.67 453.595 3848.93C440.789 3813.23 428.908 3777.2 417.893 3740.9C406.878 3704.6 396.758 3668.06 387.564 3631.26C378.34 3594.45 370.012 3557.47 362.638 3520.24C355.235 3483.05 348.728 3445.67 343.175 3408.15C337.593 3370.63 332.966 3332.98 329.235 3295.25C325.533 3257.49 322.727 3219.67 320.876 3181.79C319.026 3143.91 318.07 3105.99 318.07 3068.05Z" fill="white"/>
</mask>
<g mask="url(#mask5_4595_10198)">
<path d="M1490.93 2379.83C1433.11 2379.83 1376.42 2377.53 1320.9 2374.04C1113.88 2360.16 919.545 2318.55 743.721 2251.44C550.583 2177.41 375.924 2071.02 223.234 1934.51L249.832 1905.61C399.058 2038.63 570.226 2143.89 757.602 2215.59C929.963 2281.53 1119.64 2322.01 1323.22 2335.89C1505.97 2348.61 1706.07 2339.35 1915.41 2310.43C2100.49 2283.83 2295.96 2242.19 2512.26 2182.04C2802.59 2101.08 3088.27 1998.15 3364.72 1899.82C3465.35 1863.97 3568.28 1826.96 3670.07 1791.1C3823.9 1737.88 4026.32 1669.64 4232.2 1617.61C4435.79 1565.55 4620.83 1532 4797.82 1516.98L4801.29 1556.29C4626.63 1571.34 4443.88 1603.73 4242.62 1655.76C4037.9 1708.98 3836.64 1776.06 3683.95 1829.25C3583.32 1863.97 3479.23 1900.99 3379.74 1936.84C3102.15 2036.3 2815.31 2139.26 2523.84 2220.22C2306.38 2281.53 2109.75 2323.14 1922.37 2349.77C1772.01 2369.41 1627.41 2379.83 1490.93 2379.83Z" fill="#FBF8EF"/>
</g>
</g>
<mask id="mask6_4595_10198" style="mask-type:luminance" maskUnits="userSpaceOnUse" x="450" y="3736" width="4510" height="873">
<path d="M450.875 3736.9H4959.61V4608.08H450.875V3736.9Z" fill="white"/>
</mask>
<g mask="url(#mask6_4595_10198)">
<mask id="mask7_4595_10198" style="mask-type:luminance" maskUnits="userSpaceOnUse" x="318" y="750" width="4636" height="4636">
<path d="M318.07 3068.05C318.07 3030.11 319.026 2992.2 320.876 2954.32C322.727 2916.41 325.533 2878.59 329.235 2840.86C332.966 2803.09 337.593 2765.45 343.175 2727.93C348.728 2690.4 355.235 2653.03 362.638 2615.84C370.012 2578.64 378.34 2541.63 387.564 2504.82C396.758 2468.04 406.878 2431.47 417.893 2395.18C428.908 2358.88 440.789 2322.88 453.595 2287.14C466.371 2251.44 480.014 2216.07 494.521 2181.02C509.059 2145.95 524.402 2111.29 540.641 2076.99C556.851 2042.72 573.896 2008.84 591.777 1975.38C609.658 1941.91 628.345 1908.93 647.867 1876.39C667.36 1843.85 687.659 1811.82 708.734 1780.27C729.809 1748.72 751.63 1717.73 774.228 1687.25C796.825 1656.77 820.169 1626.89 844.229 1597.55C868.289 1568.24 893.066 1539.52 918.559 1511.43C944.022 1483.31 970.172 1455.85 997.008 1429.01C1023.81 1402.2 1051.28 1376.05 1079.4 1350.56C1107.49 1325.1 1136.2 1300.32 1165.55 1276.26C1194.86 1252.2 1224.77 1228.86 1255.22 1206.26C1285.7 1183.66 1316.72 1161.84 1348.24 1140.77C1379.79 1119.69 1411.82 1099.39 1444.36 1079.9C1476.9 1060.38 1509.91 1041.69 1543.35 1023.81C1576.81 1005.93 1610.69 988.882 1644.99 972.643C1679.26 956.434 1713.95 941.06 1748.99 926.552C1784.04 912.045 1819.41 898.373 1855.14 885.597C1890.84 872.82 1926.85 860.939 1963.17 849.924C1999.47 838.909 2036.01 828.79 2072.82 819.565C2109.59 810.371 2146.61 802.043 2183.81 794.64C2221.03 787.237 2258.37 780.759 2295.9 775.206C2333.42 769.624 2371.06 764.997 2408.82 761.266C2446.59 757.564 2484.41 754.758 2522.29 752.908C2560.17 751.027 2598.08 750.102 2636.02 750.102C2673.96 750.102 2711.87 751.027 2749.76 752.908C2787.64 754.758 2825.46 757.564 2863.22 761.266C2900.98 764.997 2938.62 769.624 2976.15 775.206C3013.67 780.759 3051.01 787.237 3088.24 794.64C3125.43 802.043 3162.45 810.371 3199.23 819.565C3236.03 828.79 3272.57 838.909 3308.87 849.924C3345.2 860.939 3381.2 872.82 3416.9 885.597C3452.63 898.373 3488.01 912.045 3523.05 926.552C3558.1 941.06 3592.79 956.434 3627.05 972.643C3661.35 988.882 3695.24 1005.93 3728.7 1023.81C3762.13 1041.69 3795.15 1060.38 3827.69 1079.9C3860.22 1099.39 3892.25 1119.69 3923.81 1140.77C3955.33 1161.84 3986.34 1183.66 4016.82 1206.26C4047.27 1228.86 4077.18 1252.2 4106.5 1276.26C4135.84 1300.32 4164.56 1325.1 4192.65 1350.56C4220.77 1376.05 4248.23 1402.2 4275.04 1429.01C4301.87 1455.85 4328.02 1483.31 4353.49 1511.43C4378.98 1539.52 4403.76 1568.24 4427.82 1597.55C4451.88 1626.89 4475.22 1656.77 4497.82 1687.25C4520.41 1717.73 4542.24 1748.72 4563.31 1780.27C4584.39 1811.82 4604.68 1843.85 4624.18 1876.39C4643.67 1908.93 4662.39 1941.91 4680.27 1975.38C4698.15 2008.84 4715.19 2042.72 4731.4 2076.99C4747.64 2111.29 4762.99 2145.98 4777.52 2181.02C4792.03 2216.07 4805.67 2251.44 4818.45 2287.14C4831.26 2322.88 4843.14 2358.88 4854.15 2395.18C4865.17 2431.47 4875.29 2468.04 4884.48 2504.82C4893.7 2541.63 4902.03 2578.64 4909.41 2615.84C4916.81 2653.03 4923.32 2690.4 4928.87 2727.93C4934.45 2765.45 4939.08 2803.09 4942.81 2840.86C4946.51 2878.59 4949.32 2916.41 4951.17 2954.32C4953.02 2992.2 4953.94 3030.11 4953.97 3068.05C4953.94 3105.99 4953.02 3143.91 4951.17 3181.79C4949.32 3219.67 4946.51 3257.49 4942.81 3295.25C4939.08 3332.98 4934.45 3370.63 4928.87 3408.15C4923.32 3445.67 4916.81 3483.05 4909.41 3520.24C4902.03 3557.47 4893.7 3594.45 4884.48 3631.26C4875.29 3668.06 4865.17 3704.6 4854.15 3740.9C4843.14 3777.2 4831.26 3813.23 4818.45 3848.93C4805.67 3884.67 4792.03 3920.04 4777.52 3955.08C4762.99 3990.13 4747.64 4024.79 4731.4 4059.09C4715.19 4093.39 4698.15 4127.27 4680.27 4160.7C4662.39 4194.16 4643.67 4227.18 4624.18 4259.72C4604.68 4292.25 4584.39 4324.28 4563.31 4355.81C4542.24 4387.36 4520.41 4418.38 4497.82 4448.82C4475.22 4479.3 4451.88 4509.21 4427.82 4538.53C4403.76 4567.84 4378.98 4596.56 4353.49 4624.68C4328.02 4652.8 4301.87 4680.26 4275.04 4707.07C4248.23 4733.9 4220.77 4760.05 4192.65 4785.52C4164.56 4811.01 4135.84 4835.76 4106.5 4859.85C4077.18 4883.91 4047.27 4907.22 4016.82 4929.82C3986.34 4952.42 3955.33 4974.27 3923.81 4995.34C3892.25 5016.42 3860.22 5036.72 3827.69 5056.21C3795.15 5075.7 3762.13 5094.39 3728.7 5112.27C3695.24 5130.18 3661.35 5147.23 3627.05 5163.43C3592.79 5179.64 3558.1 5195.02 3523.05 5209.55C3488.01 5224.06 3452.63 5237.7 3416.9 5250.48C3381.2 5263.26 3345.2 5275.17 3308.87 5286.18C3272.57 5297.2 3236.03 5307.29 3199.23 5316.51C3162.45 5325.74 3125.43 5334.03 3088.24 5341.44C3051.01 5348.84 3013.67 5355.32 2976.15 5360.9C2938.62 5366.45 2900.98 5371.11 2863.22 5374.81C2825.46 5378.54 2787.64 5381.32 2749.76 5383.2C2711.87 5385.05 2673.96 5385.98 2636.02 5385.98C2598.08 5385.98 2560.17 5385.05 2522.29 5383.2C2484.41 5381.32 2446.59 5378.54 2408.82 5374.81C2371.06 5371.11 2333.42 5366.45 2295.9 5360.9C2258.37 5355.32 2221.03 5348.84 2183.81 5341.44C2146.61 5334.03 2109.59 5325.74 2072.82 5316.51C2036.01 5307.29 1999.47 5297.2 1963.17 5286.18C1926.85 5275.17 1890.84 5263.26 1855.14 5250.48C1819.41 5237.7 1784.04 5224.06 1748.99 5209.52C1713.95 5195.02 1679.26 5179.64 1644.99 5163.43C1610.69 5147.23 1576.81 5130.15 1543.35 5112.27C1509.91 5094.39 1476.9 5075.7 1444.36 5056.21C1411.82 5036.72 1379.79 5016.42 1348.24 4995.34C1316.72 4974.27 1285.7 4952.42 1255.22 4929.82C1224.77 4907.22 1194.86 4883.91 1165.55 4859.85C1136.2 4835.76 1107.49 4811.01 1079.4 4785.52C1051.28 4760.05 1023.81 4733.9 997.008 4707.07C970.172 4680.26 944.022 4652.8 918.559 4624.68C893.066 4596.56 868.289 4567.84 844.229 4538.53C820.169 4509.21 796.825 4479.3 774.228 4448.82C751.63 4418.38 729.809 4387.36 708.734 4355.81C687.659 4324.28 667.36 4292.25 647.867 4259.72C628.345 4227.18 609.658 4194.16 591.777 4160.7C573.896 4127.27 556.851 4093.39 540.641 4059.09C524.402 4024.79 509.059 3990.13 494.521 3955.08C480.014 3920.04 466.371 3884.67 453.595 3848.93C440.789 3813.23 428.908 3777.2 417.893 3740.9C406.878 3704.6 396.758 3668.06 387.564 3631.26C378.34 3594.45 370.012 3557.47 362.638 3520.24C355.235 3483.05 348.728 3445.67 343.175 3408.15C337.593 3370.63 332.966 3332.98 329.235 3295.25C325.533 3257.49 322.727 3219.67 320.876 3181.79C319.026 3143.91 318.07 3105.99 318.07 3068.05Z" fill="white"/>
</mask>
<g mask="url(#mask7_4595_10198)">
<path d="M460.338 4607.54L456.875 4568.23C631.535 4553.18 814.284 4520.79 1016.71 4468.76C1221.43 4415.54 1422.68 4348.46 1575.37 4295.27C1676 4260.55 1780.09 4223.54 1879.56 4187.68C2157.17 4088.22 2444.02 3985.26 2735.48 3904.31C2952.95 3842.99 3149.58 3801.35 3336.96 3774.75C3549.77 3744.69 3752.19 3735.44 3938.4 3749.32C4145.45 3763.2 4339.78 3804.84 4515.57 3871.92C4708.74 3945.95 4883.4 4052.37 5036.09 4190.01L5009.46 4218.91C4860.27 4084.76 4689.07 3980.64 4501.69 3908.93C4329.36 3842.99 4139.66 3802.51 3936.1 3788.63C3753.35 3775.92 3553.26 3785.17 3342.75 3814.1C3157.67 3840.69 2962.2 3882.34 2745.9 3942.49C2455.57 4023.44 2169.89 4126.37 1892.3 4225.86C1791.68 4261.72 1688.72 4298.73 1586.93 4334.58C1433.1 4387.78 1230.68 4456.02 1024.8 4508.08C822.374 4560.14 637.326 4592.53 460.338 4607.54Z" fill="#FBF8EF"/>
</g>
</g>
<mask id="mask8_4595_10198" style="mask-type:luminance" maskUnits="userSpaceOnUse" x="2391" y="748" width="491" height="4640">
<path d="M2391.92 748.91H2881.01V5387.56H2391.92V748.91Z" fill="white"/>
</mask>
<g mask="url(#mask8_4595_10198)">
<mask id="mask9_4595_10198" style="mask-type:luminance" maskUnits="userSpaceOnUse" x="318" y="750" width="4636" height="4636">
<path d="M318.062 3068.06C318.062 3030.12 319.018 2992.21 320.869 2954.32C322.719 2916.41 325.525 2878.59 329.227 2840.86C332.958 2803.1 337.585 2765.45 343.167 2727.93C348.72 2690.41 355.227 2653.04 362.63 2615.84C370.004 2578.65 378.332 2541.63 387.556 2504.82C396.75 2468.05 406.87 2431.48 417.885 2395.18C428.9 2358.88 440.781 2322.88 453.587 2287.15C466.364 2251.45 480.006 2216.07 494.513 2181.03C509.051 2145.95 524.395 2111.29 540.634 2076.99C556.843 2042.73 573.888 2008.84 591.769 1975.38C609.65 1941.92 628.337 1908.93 647.859 1876.39C667.352 1843.86 687.651 1811.83 708.726 1780.27C729.801 1748.72 751.622 1717.73 774.22 1687.26C796.817 1656.78 820.161 1626.9 844.221 1597.55C868.281 1568.24 893.058 1539.52 918.551 1511.43C944.014 1483.31 970.164 1455.85 997 1429.01C1023.81 1402.21 1051.27 1376.06 1079.39 1350.56C1107.48 1325.1 1136.2 1300.32 1165.54 1276.26C1194.85 1252.2 1224.77 1228.86 1255.21 1206.26C1285.69 1183.67 1316.71 1161.84 1348.23 1140.77C1379.78 1119.69 1411.81 1099.4 1444.35 1079.9C1476.89 1060.38 1509.9 1041.69 1543.34 1023.81C1576.8 1005.93 1610.68 988.886 1644.98 972.647C1679.25 956.438 1713.94 941.064 1748.98 926.556C1784.03 912.049 1819.4 898.377 1855.13 885.6C1890.84 872.824 1926.84 860.943 1963.17 849.928C1999.47 838.913 2036 828.793 2072.81 819.569C2109.59 810.375 2146.6 802.047 2183.8 794.644C2221.02 787.24 2258.37 780.763 2295.89 775.21C2333.41 769.628 2371.05 765.001 2408.82 761.27C2446.58 757.568 2484.4 754.762 2522.28 752.911C2560.16 751.031 2598.07 750.105 2636.01 750.105C2673.96 750.105 2711.87 751.031 2749.75 752.911C2787.63 754.762 2825.45 757.568 2863.21 761.27C2900.97 765.001 2938.62 769.628 2976.14 775.21C3013.66 780.763 3051.01 787.24 3088.23 794.644C3125.43 802.047 3162.44 810.375 3199.22 819.569C3236.03 828.793 3272.56 838.913 3308.86 849.928C3345.19 860.943 3381.19 872.824 3416.89 885.6C3452.63 898.377 3488 912.049 3523.05 926.556C3558.09 941.064 3592.78 956.438 3627.05 972.647C3661.35 988.886 3695.23 1005.93 3728.69 1023.81C3762.12 1041.69 3795.14 1060.38 3827.68 1079.9C3860.22 1099.4 3892.25 1119.69 3923.8 1140.77C3955.32 1161.84 3986.34 1183.67 4016.82 1206.26C4047.26 1228.86 4077.17 1252.2 4106.49 1276.26C4135.83 1300.32 4164.55 1325.1 4192.64 1350.56C4220.76 1376.06 4248.22 1402.21 4275.03 1429.01C4301.86 1455.85 4328.01 1483.31 4353.48 1511.43C4378.97 1539.52 4403.75 1568.24 4427.81 1597.55C4451.87 1626.9 4475.21 1656.78 4497.81 1687.26C4520.41 1717.73 4542.23 1748.72 4563.3 1780.27C4584.38 1811.83 4604.68 1843.86 4624.17 1876.39C4643.66 1908.93 4662.38 1941.92 4680.26 1975.38C4698.14 2008.84 4715.19 2042.73 4731.4 2076.99C4747.63 2111.29 4762.98 2145.98 4777.52 2181.03C4792.02 2216.07 4805.67 2251.45 4818.44 2287.15C4831.25 2322.88 4843.13 2358.88 4854.14 2395.18C4865.16 2431.48 4875.28 2468.05 4884.47 2504.82C4893.7 2541.63 4902.02 2578.65 4909.4 2615.84C4916.8 2653.04 4923.31 2690.41 4928.86 2727.93C4934.44 2765.45 4939.07 2803.1 4942.8 2840.86C4946.5 2878.59 4949.31 2916.41 4951.16 2954.32C4953.01 2992.21 4953.94 3030.12 4953.97 3068.06C4953.94 3106 4953.01 3143.91 4951.16 3181.79C4949.31 3219.67 4946.5 3257.49 4942.8 3295.26C4939.07 3332.99 4934.44 3370.63 4928.86 3408.15C4923.31 3445.68 4916.8 3483.05 4909.4 3520.24C4902.02 3557.47 4893.7 3594.45 4884.47 3631.26C4875.28 3668.07 4865.16 3704.61 4854.14 3740.91C4843.13 3777.2 4831.25 3813.23 4818.44 3848.94C4805.67 3884.67 4792.02 3920.04 4777.52 3955.09C4762.98 3990.13 4747.63 4024.79 4731.4 4059.09C4715.19 4093.39 4698.14 4127.27 4680.26 4160.7C4662.38 4194.17 4643.66 4227.18 4624.17 4259.72C4604.68 4292.26 4584.38 4324.29 4563.3 4355.81C4542.23 4387.36 4520.41 4418.38 4497.81 4448.83C4475.21 4479.31 4451.87 4509.22 4427.81 4538.53C4403.75 4567.85 4378.97 4596.56 4353.48 4624.68C4328.01 4652.8 4301.86 4680.27 4275.03 4707.07C4248.22 4733.91 4220.76 4760.06 4192.64 4785.52C4164.55 4811.01 4135.83 4835.76 4106.49 4859.85C4077.17 4883.91 4047.26 4907.22 4016.82 4929.82C3986.34 4952.42 3955.32 4974.27 3923.8 4995.35C3892.25 5016.42 3860.22 5036.72 3827.68 5056.21C3795.14 5075.71 3762.12 5094.39 3728.69 5112.27C3695.23 5130.18 3661.35 5147.23 3627.05 5163.44C3592.78 5179.65 3558.09 5195.02 3523.05 5209.56C3488 5224.07 3452.63 5237.71 3416.89 5250.48C3381.19 5263.26 3345.19 5275.17 3308.86 5286.19C3272.56 5297.2 3236.03 5307.29 3199.22 5316.52C3162.44 5325.74 3125.43 5334.04 3088.23 5341.44C3051.01 5348.84 3013.66 5355.32 2976.14 5360.9C2938.62 5366.46 2900.97 5371.11 2863.21 5374.81C2825.45 5378.55 2787.63 5381.32 2749.75 5383.2C2711.87 5385.05 2673.96 5385.98 2636.01 5385.98C2598.07 5385.98 2560.16 5385.05 2522.28 5383.2C2484.4 5381.32 2446.58 5378.55 2408.82 5374.81C2371.05 5371.11 2333.41 5366.46 2295.89 5360.9C2258.37 5355.32 2221.02 5348.84 2183.8 5341.44C2146.6 5334.04 2109.59 5325.74 2072.81 5316.52C2036 5307.29 1999.47 5297.2 1963.17 5286.19C1926.84 5275.17 1890.84 5263.26 1855.13 5250.48C1819.4 5237.71 1784.03 5224.07 1748.98 5209.53C1713.94 5195.02 1679.25 5179.65 1644.98 5163.44C1610.68 5147.23 1576.8 5130.15 1543.34 5112.27C1509.9 5094.39 1476.89 5075.71 1444.35 5056.21C1411.81 5036.72 1379.78 5016.42 1348.23 4995.35C1316.71 4974.27 1285.69 4952.42 1255.21 4929.82C1224.77 4907.22 1194.85 4883.91 1165.54 4859.85C1136.2 4835.76 1107.48 4811.01 1079.39 4785.52C1051.27 4760.06 1023.81 4733.91 997 4707.07C970.164 4680.27 944.014 4652.8 918.551 4624.68C893.058 4596.56 868.281 4567.85 844.221 4538.53C820.161 4509.22 796.817 4479.31 774.22 4448.83C751.622 4418.38 729.801 4387.36 708.726 4355.81C687.651 4324.29 667.352 4292.26 647.859 4259.72C628.337 4227.18 609.65 4194.17 591.769 4160.7C573.888 4127.27 556.843 4093.39 540.634 4059.09C524.395 4024.79 509.051 3990.13 494.513 3955.09C480.006 3920.04 466.364 3884.67 453.587 3848.94C440.781 3813.23 428.9 3777.2 417.885 3740.91C406.87 3704.61 396.75 3668.07 387.556 3631.26C378.332 3594.45 370.004 3557.47 362.63 3520.24C355.227 3483.05 348.72 3445.68 343.167 3408.15C337.585 3370.63 332.958 3332.99 329.227 3295.26C325.525 3257.49 322.719 3219.67 320.869 3181.79C319.018 3143.91 318.062 3106 318.062 3068.06Z" fill="white"/>
</mask>
<g mask="url(#mask9_4595_10198)">
<path d="M2394.55 432.579L2433.74 429.266L2877.6 5703.6L2838.41 5706.91L2394.55 432.579Z" fill="#FBF8EF"/>
</g>
</g>
<path d="M4342.08 3539.98C4317.78 3563.11 4352.5 3615.14 4384.89 3609.35C4601.19 3575.83 4770.06 3471.74 4922.72 3315.58C5145.98 3087.7 5260.49 2804.32 5321.77 2496.67C5333.35 2436.52 5341.44 2376.37 5346.07 2315.06C5348.37 2288.46 5357.62 2282.67 5381.92 2279.21C5479.09 2268.79 5577.39 2257.24 5681.51 2244.52C5711.57 2241.03 5723.12 2202.88 5698.85 2183.2C5466.37 1995.83 5282.46 1799.2 5055.74 1615.28C4995.59 1566.72 4863.73 1590.99 4816.33 1652.3C4634.71 1885.95 4454.29 2117.26 4272.68 2349.77C4254.17 2374.04 4280.8 2416.85 4310.86 2413.39C4379.1 2406.43 4476.26 2385.63 4578.06 2374.04C4596.56 2371.75 4611.58 2370.58 4617.37 2393.72C4682.15 2615.81 4701.82 2839.04 4637.04 3064.56C4572.26 3292.45 4432.29 3453.23 4342.08 3539.98Z" fill="#333330"/>
<path d="M4410.31 3539.97C4386.04 3563.11 4405.69 3603.59 4439.24 3598.96C4655.54 3565.41 4838.29 3471.73 4990.95 3316.72C5214.21 3088.86 5328.72 2805.48 5390 2497.81C5401.59 2437.66 5409.67 2377.54 5414.3 2316.22C5416.6 2289.62 5425.85 2283.83 5450.15 2280.37C5547.32 2269.95 5645.62 2258.4 5749.74 2245.65C5779.8 2242.19 5791.38 2204.04 5767.08 2184.37C5534.6 1996.99 5307.88 1814.24 5080.03 1630.33C5019.88 1581.76 4931.96 1592.15 4884.56 1653.46C4702.95 1887.11 4522.52 2118.43 4340.91 2350.91C4322.43 2375.21 4342.07 2409.92 4372.16 2406.43C4440.4 2399.51 4544.5 2387.92 4646.29 2375.21C4664.8 2372.91 4679.81 2371.74 4685.6 2394.88C4750.38 2616.94 4770.05 2840.2 4705.27 3065.73C4640.5 3292.45 4500.55 3453.23 4410.31 3539.97Z" fill="#FBF8EF"/>
<path d="M4434.61 3609.35C4418.43 3609.35 4403.39 3600.1 4395.3 3585.08C4386.04 3567.74 4389.51 3546.9 4404.55 3533.02C4504.02 3437.02 4634.71 3278.57 4697.18 3063.43C4728.41 2955.85 4741.13 2847.13 4735.33 2729.15C4730.71 2625.06 4712.2 2516.32 4677.51 2397.18C4672.89 2382.16 4667.09 2382.16 4648.59 2384.46C4529.45 2398.34 4417.27 2411.06 4374.46 2415.69C4355.95 2418.01 4339.78 2408.76 4330.52 2392.55C4321.27 2376.37 4323.57 2357.86 4333.98 2343.98L4877.61 1646.51C4901.9 1615.28 4937.76 1594.48 4977.07 1589.85C5016.41 1585.22 5055.73 1596.78 5086.95 1622.24L5774.01 2176.28C5787.89 2187.83 5793.68 2206.34 5789.05 2223.68C5784.43 2241.03 5769.38 2253.77 5750.87 2256.07L5727.74 2258.4C5631.74 2269.95 5541.53 2280.37 5451.32 2290.79C5431.65 2293.09 5427.02 2296.55 5424.72 2317.39C5418.93 2382.16 5410.84 2443.45 5399.26 2500.14C5365.7 2666.68 5320.6 2811.28 5260.45 2941.96C5192.21 3088.86 5106.62 3213.79 4997.91 3324.84C4921.58 3403.47 4835.96 3467.11 4743.42 3513.35C4652.05 3560.78 4550.29 3593.17 4440.4 3610.51C4439.24 3609.35 4436.91 3609.35 4434.61 3609.35ZM4418.43 3546.9C4409.18 3556.15 4409.18 3567.74 4413.81 3575.83C4417.27 3583.92 4426.52 3590.84 4439.24 3588.54C4545.66 3572.36 4646.29 3539.97 4735.33 3493.71C4825.57 3447.44 4908.83 3384.96 4984.03 3308.63C5090.45 3199.91 5174.86 3077.31 5241.97 2931.58C5302.09 2803.19 5347.23 2659.75 5379.58 2494.34C5391.17 2438.82 5399.26 2378.67 5403.88 2313.92C5406.21 2280.37 5422.39 2272.28 5447.85 2268.79C5538.07 2258.4 5628.28 2247.98 5724.28 2236.4L5747.41 2234.1C5758.99 2232.94 5765.92 2223.68 5768.25 2216.76C5770.55 2208.67 5769.38 2198.25 5760.13 2191.29L5073.07 1637.25C5046.47 1615.28 5012.95 1606.03 4978.23 1609.49C4943.55 1612.99 4913.46 1630.33 4891.49 1658.09L4347.86 2355.54C4340.91 2364.79 4342.07 2375.21 4345.54 2382.16C4349.03 2389.09 4357.12 2396.04 4369.84 2394.88C4412.64 2390.25 4524.82 2377.54 4643.96 2363.66C4661.3 2361.33 4685.6 2359.03 4694.86 2390.25C4729.57 2510.55 4749.22 2620.44 4753.84 2726.83C4759.63 2845.96 4745.75 2957.01 4714.53 3066.89C4652.05 3287.82 4519.06 3449.73 4418.43 3546.9Z" fill="#333330"/>
<path d="M2250.85 1241.7L1940.87 1286.8C1921.2 1289.1 1908.48 1308.77 1910.78 1330.74C1917.74 1380.47 1886.51 1426.74 1841.41 1433.7L1143.93 1534.33C1098.83 1541.25 1056.02 1505.4 1047.93 1455.67C1044.47 1434.86 1027.13 1419.82 1007.45 1422.12L707.866 1464.92C611.864 1478.8 545.953 1575.97 560.968 1681.23L1046.77 5048.24C1061.81 5154.66 1161.28 5228.69 1267.7 5213.65L2766.71 4996.18C2876.59 4980 2952.95 4878.21 2936.74 4768.33L2452.11 1408.24C2437.06 1301.85 2346.85 1227.81 2250.85 1241.7Z" fill="#333330"/>
<path d="M2338.76 1228.98L2028.79 1274.08C2009.11 1276.38 1996.4 1296.05 1998.7 1318.02C2005.65 1367.76 1974.43 1414.03 1929.29 1420.98L1233.01 1520.45C1187.88 1527.37 1145.1 1491.52 1137.01 1441.79C1133.52 1420.98 1116.17 1405.94 1096.5 1408.23L796.943 1451.04C700.942 1464.92 635 1562.09 650.045 1667.34L1135.84 5034.36C1150.89 5140.78 1250.35 5214.81 1356.77 5199.76L2854.62 4983.46C2964.5 4967.28 3040.86 4865.49 3024.65 4755.61L2540.02 1395.52C2524.97 1289.1 2434.76 1215.1 2338.76 1228.98Z" fill="#FBF8EF"/>
<path d="M1327.84 5210.18C1228.38 5210.18 1141.63 5137.31 1126.58 5036.69L640.785 1669.64C632.695 1616.45 644.247 1563.25 673.173 1521.61C702.099 1478.8 744.876 1451.04 793.474 1444.11L1093.03 1401.31C1117.33 1397.85 1139.3 1416.35 1142.76 1441.79C1146.26 1463.76 1156.64 1483.43 1172.85 1497.31C1189.03 1511.19 1208.71 1516.98 1228.38 1513.49L1925.82 1412.86C1945.49 1410.56 1962.84 1398.98 1974.42 1381.64C1985.97 1364.29 1990.6 1342.32 1988.3 1320.35C1984.81 1294.89 2001.02 1270.62 2025.29 1267.13L2335.29 1222.02C2435.92 1206.98 2530.76 1285.63 2546.94 1395.52L3031.6 4755.61C3047.78 4870.12 2967.96 4976.54 2853.45 4992.72L1355.6 5209.02C1347.51 5209.02 1337.1 5210.18 1327.84 5210.18ZM1101.12 1416.35C1099.99 1416.35 1098.82 1416.35 1097.66 1416.35L798.101 1459.13C754.13 1466.09 714.816 1490.35 688.218 1529.7C661.591 1569.01 651.203 1617.61 658.128 1666.18L1143.93 5033.19C1158.97 5134.99 1253.81 5205.56 1354.44 5191.67L2852.32 4975.37C2957.57 4960.33 3031.6 4862.03 3015.39 4756.77L2531.92 1396.68C2516.88 1294.89 2431.29 1224.35 2339.92 1237.07L2029.91 1282.17C2014.9 1284.47 2004.48 1299.52 2007.94 1316.86C2011.41 1343.49 2005.64 1368.92 1991.76 1389.73C1977.88 1410.56 1955.91 1424.44 1931.61 1427.91L1234.14 1528.53C1209.87 1532 1185.57 1525.07 1165.9 1508.86C1146.26 1492.68 1133.51 1469.55 1130.05 1442.95C1126.58 1426.74 1115 1416.35 1101.12 1416.35Z" fill="#333330"/>
<path d="M3896.76 4660.77L3502.36 4923.31C3471.11 4907.13 3430.63 4910.6 3401.73 4936.06C3367.02 4966.12 3360.09 5019.31 3387.85 5057.49C3417.91 5099.14 3476.9 5108.39 3517.38 5077.17C3546.3 5055.2 3557.89 5019.31 3549.77 4985.79L3902.55 4668.86C3904.88 4664.23 3901.39 4658.44 3896.76 4660.77Z" fill="#333330"/>
<path d="M3460.72 5107.23C3456.09 5107.23 3450.3 5107.23 3445.67 5106.06C3417.91 5101.44 3393.61 5086.42 3376.27 5064.42C3346.21 5021.64 3353.13 4961.49 3392.48 4926.81C3422.54 4900.18 3464.18 4894.42 3500.03 4909.43L3888.66 4651.52C3895.62 4646.89 3904.87 4648.02 3910.64 4654.98C3916.43 4661.91 3915.26 4671.16 3908.34 4676.95L3561.35 4989.25C3567.14 5026.27 3552.09 5063.29 3523.17 5086.42C3505.82 5099.14 3483.85 5107.23 3460.72 5107.23ZM3460.72 4925.64C3442.21 4925.64 3423.7 4932.57 3409.82 4945.31C3379.73 4971.91 3373.97 5017.02 3397.1 5049.41C3409.82 5066.75 3428.33 5078.3 3449.13 5081.79C3469.97 5085.26 3491.94 5079.47 3508.12 5066.75C3532.42 5048.24 3542.84 5017.02 3537.05 4988.09L3535.88 4981.17L3808.87 4735.94L3503.49 4938.36L3496.57 4934.9C3484.99 4929.1 3473.43 4925.64 3460.72 4925.64Z" fill="#333330"/>
<path d="M3867.86 3984.13C3865.53 3969.08 3855.14 3954.04 3840.1 3948.25C3797.29 3930.9 3753.35 3915.86 3708.24 3904.31C3636.51 3884.64 3562.51 3873.08 3488.48 3868.46C3412.12 3863.83 3335.79 3866.13 3259.46 3877.71C3183.1 3889.26 3109.1 3906.61 3037.37 3932.07C2966.83 3956.37 2899.72 3988.76 2836.11 4026.91C2799.09 4048.88 2763.24 4073.18 2728.56 4099.77C2714.67 4110.19 2708.88 4126.37 2711.21 4142.58C2712.35 4150.67 2715.84 4159.92 2722.76 4166.88L2936.74 4406.29C2951.78 4423.66 2978.38 4425.96 2996.89 4413.24C3013.1 4401.66 3030.44 4390.11 3046.62 4380.85C3128.74 4331.12 3220.12 4299.9 3316.12 4286.02C3412.12 4272.13 3509.29 4277.9 3601.82 4303.36C3622.63 4309.15 3643.47 4314.91 3663.14 4323.03C3685.11 4331.12 3709.38 4321.87 3719.8 4301.03L3863.23 4013.03C3867.86 4002.64 3869.02 3993.38 3867.86 3984.13Z" fill="#333330"/>
<path d="M2907.84 4462.98C2906.67 4454.89 2903.21 4445.63 2896.26 4438.68L2682.28 4199.27C2664.94 4179.6 2634.85 4178.43 2616.34 4196.94C2579.33 4233.96 2544.64 4274.43 2512.25 4316.08C2468.31 4373.9 2430.13 4436.38 2398.9 4501.16C2366.52 4567.07 2341.05 4635.31 2322.54 4705.88C2302.9 4777.58 2291.32 4851.61 2286.69 4925.64C2283.23 4985.79 2284.4 5045.94 2290.19 5106.06C2290.19 5107.23 2290.19 5107.23 2290.19 5108.39C2293.65 5132.69 2316.78 5150.03 2341.05 5146.57L2657.98 5102.6C2682.28 5099.14 2698.46 5078.3 2697.33 5054.03C2690.37 4971.91 2698.46 4890.92 2719.3 4812.3C2730.85 4767.16 2748.19 4723.22 2767.87 4681.58C2788.7 4639.93 2812.97 4600.62 2840.73 4563.6C2858.08 4541.63 2875.45 4519.66 2895.09 4499.99C2905.51 4489.57 2908.97 4475.69 2907.84 4462.98Z" fill="#333330"/>
<path d="M4530.62 4796.09C4530.62 4794.92 4530.62 4794.92 4530.62 4793.79C4520.2 4734.8 4504.02 4675.79 4484.35 4619.13C4460.05 4548.56 4427.66 4481.48 4389.51 4417.87C4352.49 4355.39 4308.55 4296.41 4259.95 4242.05C4211.39 4188.85 4158.16 4139.12 4100.34 4095.15C4061.02 4065.09 4019.38 4037.33 3975.41 4013.03C3952.28 4000.31 3923.38 4009.56 3911.8 4032.7L3769.53 4319.54C3764.9 4327.63 3763.77 4336.88 3764.9 4346.14C3767.23 4358.88 3774.15 4371.6 3786.9 4379.69C3810.01 4393.57 3830.84 4407.45 3852.81 4423.63C3889.83 4451.39 3924.51 4482.65 3954.61 4517.33C3985.83 4552.02 4013.59 4589.04 4037.89 4629.55C4079.53 4700.08 4109.59 4775.28 4125.77 4856.24C4130.4 4879.37 4152.4 4895.55 4176.67 4892.09L4493.6 4848.15C4516.73 4843.52 4534.08 4820.38 4530.62 4796.09Z" fill="#333330"/>
<path d="M3932.64 3963.3C3930.31 3948.25 3919.89 3933.24 3904.87 3927.44C3862.07 3910.1 3818.13 3895.06 3773.02 3883.5C3701.29 3863.83 3627.26 3852.25 3553.26 3847.62C3476.9 3842.99 3400.57 3845.32 3324.24 3856.88C3247.88 3868.46 3173.85 3885.8 3102.14 3911.23C3031.6 3935.53 2964.5 3967.92 2900.89 4006.1C2863.87 4028.07 2828.02 4052.37 2793.33 4078.97C2779.45 4089.39 2773.66 4105.57 2775.96 4121.75C2777.12 4129.87 2780.59 4139.12 2787.54 4146.05L3001.51 4385.48C3016.56 4402.83 3043.16 4405.15 3061.67 4392.41C3077.84 4380.86 3095.22 4369.27 3111.4 4360.02C3193.52 4310.29 3284.89 4279.06 3380.89 4265.18C3476.9 4251.3 3574.06 4257.09 3666.6 4282.53C3687.41 4288.32 3708.24 4294.11 3727.89 4302.2C3749.89 4310.29 3774.16 4301.03 3784.57 4280.23L3928.01 3992.22C3932.64 3981.8 3933.77 3972.55 3932.64 3963.3Z" fill="#FBF8EF"/>
<path d="M3035.07 4412.08C3018.86 4412.08 3003.85 4405.15 2992.26 4392.41L2778.29 4153C2770.2 4144.88 2765.57 4133.33 2764.41 4122.91C2762.08 4102.1 2770.2 4081.27 2786.38 4068.55C2821.1 4041.95 2858.08 4017.65 2895.1 3994.52C2959.87 3956.37 3028.11 3923.98 3098.68 3898.52C3171.55 3873.09 3246.75 3854.58 3324.24 3843C3400.57 3832.61 3479.23 3829.11 3555.56 3833.74C3630.75 3838.37 3704.75 3851.11 3777.65 3869.62C3822.76 3881.17 3866.7 3896.22 3910.64 3913.56C3930.31 3921.65 3943.03 3939 3946.52 3959.83C3947.65 3971.39 3946.52 3982.97 3940.73 3993.39L3797.29 4281.39C3784.58 4307.99 3753.35 4320.71 3725.59 4310.29C3705.92 4303.36 3685.11 4296.41 3665.44 4290.64C3574.06 4266.35 3479.23 4260.55 3384.36 4273.27C3289.52 4286.02 3200.48 4318.38 3119.49 4366.97C3103.31 4377.39 3085.97 4387.78 3069.76 4399.36C3058.2 4408.62 3046.62 4412.08 3035.07 4412.08ZM3482.69 3858.04C3430.63 3858.04 3378.6 3861.5 3326.54 3868.46C3251.37 3878.88 3177.34 3897.38 3106.77 3921.65C3037.37 3945.95 2970.29 3978.34 2907.84 4015.36C2870.83 4037.33 2836.11 4061.63 2801.42 4087.06C2792.17 4094.01 2787.54 4106.73 2788.71 4118.28C2789.84 4125.24 2792.17 4131 2796.8 4135.63L3010.77 4375.06C3022.35 4387.78 3040.86 4390.11 3054.71 4379.69C3070.92 4368.14 3088.26 4356.56 3105.61 4346.14C3190.06 4295.27 3282.6 4262.88 3379.73 4250.14C3478.06 4236.26 3575.23 4242.05 3670.07 4267.51C3690.87 4273.27 3712.87 4280.23 3732.52 4287.15C3748.72 4292.94 3766.07 4286.02 3774.16 4270.97L3917.59 3982.97C3921.06 3977.18 3922.22 3970.25 3921.06 3963.3C3919.89 3951.74 3911.8 3941.33 3900.25 3936.7C3857.44 3919.35 3814.64 3905.47 3770.69 3892.76C3700.13 3874.25 3626.13 3861.5 3553.26 3856.88C3530.12 3858.04 3505.82 3858.04 3482.69 3858.04Z" fill="#333330"/>
<path d="M2972.59 4441C2971.46 4432.89 2967.96 4423.66 2961.04 4416.71L2748.2 4178.43C2730.86 4158.76 2700.8 4157.63 2682.29 4176.13C2645.27 4213.15 2610.59 4253.63 2578.2 4295.27C2534.23 4353.09 2496.08 4415.54 2464.82 4480.32C2432.43 4546.26 2407 4614.5 2388.49 4685.04C2368.82 4756.77 2357.27 4830.8 2352.64 4904.8C2349.18 4964.95 2350.31 5025.1 2356.1 5085.26C2356.1 5086.42 2356.1 5086.42 2356.1 5087.55C2359.57 5111.85 2382.7 5129.2 2407 5125.73L2723.93 5081.79C2748.2 5078.3 2764.41 5057.49 2763.24 5033.19C2756.32 4951.07 2764.41 4870.12 2785.22 4791.46C2796.8 4746.35 2814.14 4702.41 2833.81 4660.77C2854.62 4619.13 2878.92 4579.78 2906.68 4542.77C2924.02 4520.8 2941.37 4498.83 2961.04 4479.15C2970.29 4468.77 2974.92 4454.89 2972.59 4441Z" fill="#FBF8EF"/>
<path d="M2400.07 5139.61C2387.32 5139.61 2375.77 5136.15 2365.35 5128.06C2352.64 5118.81 2344.55 5104.93 2343.38 5089.88C2343.38 5088.72 2343.38 5088.72 2343.38 5087.55C2337.59 5026.27 2336.43 4964.96 2339.92 4904.8C2344.55 4829.64 2357.26 4755.61 2375.77 4682.74C2394.28 4611.04 2420.88 4541.63 2453.26 4475.69C2485.65 4409.78 2523.83 4347.3 2567.77 4288.32C2600.16 4245.51 2634.85 4205.03 2673.03 4168.02C2684.58 4156.46 2699.63 4150.67 2715.84 4150.67C2732.02 4150.67 2747.06 4157.63 2757.45 4170.34L2971.45 4409.78C2979.54 4417.87 2984.17 4429.42 2985.33 4439.84C2987.63 4457.18 2981.84 4474.53 2970.29 4488.41C2951.78 4508.08 2933.27 4528.92 2917.09 4550.89C2889.33 4586.74 2866.2 4626.05 2845.36 4666.53C2825.72 4707.04 2809.51 4750.98 2797.96 4794.92C2777.12 4872.42 2770.2 4952.24 2775.96 5033.2C2778.29 5063.29 2756.31 5091.05 2726.22 5094.51L2409.32 5138.45C2404.7 5139.61 2402.37 5139.61 2400.07 5139.61ZM2713.51 4174.97C2704.25 4174.97 2696.16 4178.43 2690.37 4184.22C2653.36 4221.24 2618.67 4260.55 2587.45 4302.2C2544.64 4358.88 2506.46 4421.33 2475.24 4484.95C2444.01 4549.72 2417.41 4617.96 2398.91 4687.37C2380.4 4757.91 2367.68 4831.94 2363.05 4904.8C2359.56 4963.79 2360.73 5023.94 2366.52 5082.93V5084.09C2367.68 5093.35 2372.31 5100.3 2379.23 5106.06C2386.19 5111.85 2395.44 5114.18 2403.53 5113.02L2720.46 5069.05C2737.81 5066.75 2750.52 5050.57 2749.36 5033.2C2742.43 4949.94 2750.52 4867.79 2771.33 4786.83C2784.08 4741.73 2800.26 4696.62 2821.09 4653.82C2841.9 4612.17 2866.2 4571.69 2895.09 4533.54C2912.47 4510.41 2930.97 4489.57 2950.62 4468.77C2957.57 4461.81 2961.03 4451.39 2959.87 4441.01C2958.71 4434.05 2956.41 4428.29 2951.78 4423.66L2738.94 4186.52C2732.02 4179.6 2723.93 4176.14 2713.51 4174.97Z" fill="#333330"/>
<path d="M4595.39 4774.11C4595.39 4772.95 4595.39 4772.95 4595.39 4771.78C4584.98 4712.8 4568.8 4653.81 4549.12 4597.15C4524.82 4526.59 4492.44 4459.51 4454.29 4395.9C4417.27 4333.42 4373.3 4274.43 4324.73 4220.07C4276.16 4166.88 4222.94 4117.12 4165.12 4073.18C4125.77 4043.11 4084.16 4015.35 4040.19 3991.05C4017.05 3978.34 3988.16 3987.59 3976.58 4010.73L3834.31 4297.57C3829.68 4305.66 3828.51 4314.91 3829.68 4324.16C3832.01 4336.88 3838.93 4349.63 3851.65 4357.72C3874.78 4371.6 3895.62 4385.48 3917.59 4401.66C3954.61 4429.42 3989.29 4460.64 4019.38 4495.36C4050.61 4530.05 4078.37 4567.06 4102.67 4607.54C4144.28 4678.11 4174.37 4753.28 4190.55 4834.26C4195.18 4857.4 4217.18 4873.58 4241.45 4870.11L4558.38 4826.17C4581.51 4822.68 4598.86 4799.55 4595.39 4774.11Z" fill="#FBF8EF"/>
<path d="M4232.19 4882.83C4205.59 4882.83 4181.3 4863.16 4175.53 4836.56C4159.33 4757.9 4130.4 4682.74 4089.92 4613.33C4066.79 4574.02 4039.02 4537 4008.96 4503.45C3978.9 4469.9 3945.35 4438.67 3908.34 4410.91C3887.53 4395.9 3866.69 4380.85 3843.56 4368.14C3828.51 4358.88 3818.13 4343.84 3815.8 4326.49C3814.63 4314.91 3815.8 4303.36 3821.59 4292.94L3963.86 4006.1C3970.78 3992.22 3983.53 3980.64 3998.55 3976.01C4013.59 3971.38 4029.77 3972.55 4043.65 3980.64C4087.62 4004.93 4130.4 4033.86 4169.74 4063.92C4227.57 4107.89 4283.09 4157.62 4331.66 4211.98C4381.42 4266.34 4425.36 4326.49 4463.54 4390.11C4501.69 4454.88 4534.08 4523.12 4559.54 4593.66C4579.18 4650.35 4595.39 4710.5 4606.95 4769.49C4606.95 4770.65 4606.95 4770.65 4606.95 4771.78C4611.57 4803.04 4589.6 4833.1 4557.21 4836.56L4240.28 4880.53C4237.98 4882.83 4235.65 4882.83 4232.19 4882.83ZM4015.89 3998.01C4012.43 3998.01 4008.96 3998.01 4006.64 3999.14C3997.41 4001.47 3990.46 4008.4 3986.99 4016.49L3844.72 4303.36C3841.26 4309.15 3840.1 4316.07 3841.26 4323.03C3842.39 4333.42 3848.19 4341.51 3857.44 4347.3C3880.57 4361.18 3902.54 4376.23 3923.38 4392.4C3960.4 4420.17 3996.25 4452.55 4027.47 4487.27C4058.7 4521.96 4087.62 4561.27 4111.89 4600.62C4154.7 4672.32 4184.79 4749.81 4200.97 4830.8C4204.43 4848.14 4220.64 4859.7 4237.98 4857.4L4554.91 4813.43C4573.42 4811.13 4586.14 4793.78 4582.68 4776.41V4775.28C4572.26 4716.29 4556.05 4658.44 4536.41 4602.92C4512.11 4533.54 4479.72 4466.44 4442.7 4403.99C4405.69 4342.67 4362.91 4283.69 4314.31 4229.33C4266.91 4176.13 4213.68 4127.53 4155.86 4084.76C4116.52 4054.67 4074.91 4028.07 4032.1 4003.77C4027.47 4000.31 4021.68 3998.01 4015.89 3998.01Z" fill="#333330"/>
<path d="M3921.05 4670.02L3526.63 4932.56C3495.4 4916.39 3454.92 4919.85 3426 4945.31C3391.31 4975.37 3384.36 5028.57 3412.12 5066.75C3442.21 5108.39 3501.19 5117.64 3541.67 5086.42C3570.6 5064.45 3582.15 5028.57 3574.06 4995.04L3926.84 4678.11C3929.14 4672.32 3924.52 4666.53 3921.05 4670.02Z" fill="#FBF8EF"/>
<path d="M3484.99 5115.32C3480.36 5115.32 3474.6 5115.32 3469.97 5114.18C3442.21 5109.55 3417.91 5094.51 3400.57 5072.54C3370.51 5029.73 3377.43 4969.58 3416.75 4934.9C3446.84 4908.3 3488.48 4902.51 3524.33 4917.55L3912.96 4659.61C3919.89 4654.98 3929.14 4656.14 3934.93 4663.07C3940.73 4670.02 3939.56 4679.28 3932.64 4685.04L3585.61 4997.34C3591.41 5034.36 3576.39 5071.38 3547.46 5094.51C3530.12 5108.39 3508.12 5115.32 3484.99 5115.32ZM3484.99 4933.73C3466.51 4933.73 3448 4940.69 3434.12 4953.4C3404.03 4980 3398.24 5025.11 3421.37 5057.49C3434.12 5074.84 3452.63 5086.42 3473.43 5089.88C3494.24 5093.35 3516.24 5087.55 3532.42 5074.84C3556.72 5056.33 3567.14 5025.11 3561.35 4996.18L3560.18 4989.25L3833.14 4744.06L3527.79 4946.45L3520.87 4942.98C3509.28 4937.19 3496.57 4933.73 3484.99 4933.73Z" fill="#333330"/>
<path d="M1617.01 4235.12C1617.01 4247.39 1616.71 4259.63 1616.08 4271.9C1615.49 4284.14 1614.59 4296.38 1613.4 4308.59C1612.17 4320.79 1610.68 4332.94 1608.89 4345.09C1607.1 4357.21 1604.98 4369.3 1602.59 4381.33C1600.2 4393.36 1597.52 4405.33 1594.53 4417.24C1591.55 4429.13 1588.29 4440.95 1584.74 4452.68C1581.16 4464.41 1577.31 4476.08 1573.19 4487.6C1569.04 4499.16 1564.65 4510.62 1559.93 4521.93C1555.25 4533.28 1550.29 4544.47 1545.04 4555.58C1539.79 4566.65 1534.29 4577.61 1528.5 4588.44C1522.71 4599.25 1516.68 4609.9 1510.35 4620.44C1504.05 4630.95 1497.49 4641.31 1490.68 4651.52C1483.87 4661.73 1476.8 4671.76 1469.52 4681.61C1462.2 4691.46 1454.65 4701.13 1446.86 4710.59C1439.1 4720.09 1431.07 4729.37 1422.83 4738.44C1414.59 4747.55 1406.14 4756.41 1397.48 4765.1C1388.8 4773.76 1379.93 4782.24 1370.83 4790.47C1361.75 4798.71 1352.47 4806.71 1342.98 4814.51C1333.48 4822.27 1323.81 4829.82 1313.96 4837.13C1304.11 4844.45 1294.08 4851.49 1283.9 4858.3C1273.69 4865.13 1263.33 4871.67 1252.82 4878C1242.29 4884.3 1231.63 4890.33 1220.79 4896.12C1209.99 4901.91 1199.03 4907.43 1187.96 4912.66C1176.85 4917.91 1165.66 4922.87 1154.32 4927.58C1142.97 4932.27 1131.54 4936.69 1119.99 4940.81C1108.43 4944.96 1096.79 4948.81 1085.06 4952.36C1073.33 4955.91 1061.51 4959.19 1049.6 4962.15C1037.72 4965.13 1025.75 4967.82 1013.72 4970.21C1001.69 4972.63 989.596 4974.72 977.477 4976.51C965.327 4978.3 953.148 4979.82 940.939 4981.02C928.759 4982.21 916.52 4983.14 904.251 4983.73C892.012 4984.33 879.744 4984.63 867.475 4984.63C855.236 4984.63 842.967 4984.33 830.698 4983.73C818.459 4983.14 806.22 4982.21 794.011 4981.02C781.801 4979.82 769.652 4978.3 757.503 4976.51C745.383 4974.72 733.293 4972.63 721.263 4970.21C709.233 4967.82 697.263 4965.13 685.382 4962.15C673.471 4959.19 661.65 4955.91 649.919 4952.36C638.187 4948.81 626.545 4944.96 614.993 4940.81C603.44 4936.69 592.007 4932.27 580.664 4927.58C569.32 4922.87 558.126 4917.91 547.021 4912.66C535.946 4907.43 524.991 4901.91 514.185 4896.12C503.349 4890.33 492.692 4884.3 482.154 4878C471.647 4871.67 461.288 4865.13 451.079 4858.3C440.87 4851.49 430.87 4844.45 420.989 4837.13C411.138 4829.82 401.496 4822.27 392.003 4814.51C382.511 4806.71 373.227 4798.71 364.152 4790.47C355.048 4782.24 346.182 4773.76 337.495 4765.1C328.838 4756.41 320.36 4747.55 312.121 4738.44C303.912 4729.37 295.882 4720.09 288.121 4710.59C280.33 4701.13 272.777 4691.46 265.464 4681.61C258.18 4671.76 251.105 4661.73 244.299 4651.52C237.463 4641.31 230.926 4630.95 224.598 4620.44C218.299 4609.9 212.269 4599.25 206.478 4588.44C200.687 4577.61 195.194 4566.65 189.94 4555.58C184.686 4544.47 179.731 4533.28 175.015 4521.93C170.328 4510.62 165.91 4499.16 161.79 4487.6C157.671 4476.08 153.82 4464.41 150.238 4452.68C146.686 4440.95 143.432 4429.13 140.447 4417.24C137.462 4405.33 134.775 4393.36 132.387 4381.33C129.999 4369.3 127.879 4357.21 126.088 4345.09C124.297 4332.94 122.775 4320.79 121.581 4308.59C120.387 4296.38 119.491 4284.14 118.864 4271.9C118.267 4259.63 117.969 4247.39 117.969 4235.12C117.969 4222.85 118.267 4210.58 118.864 4198.34C119.491 4186.08 120.387 4173.87 121.581 4161.66C122.775 4149.45 124.297 4137.27 126.088 4125.15C127.879 4113 129.999 4100.91 132.387 4088.88C134.775 4076.85 137.462 4064.88 140.447 4053C143.432 4041.09 146.686 4029.27 150.238 4017.54C153.82 4005.8 157.671 3994.16 161.79 3982.61C165.91 3971.06 170.328 3959.62 175.015 3948.28C179.731 3936.97 184.686 3925.74 189.94 3914.67C195.194 3903.56 200.687 3892.61 206.478 3881.8C212.269 3870.97 218.299 3860.31 224.598 3849.8C230.926 3839.26 237.463 3828.91 244.299 3818.7C251.105 3808.52 258.18 3798.49 265.464 3788.64C272.777 3778.79 280.33 3769.11 288.121 3759.62C295.882 3750.16 303.912 3740.87 312.121 3731.77C320.36 3722.69 328.838 3713.8 337.495 3705.14C346.182 3696.46 355.048 3688.01 364.152 3679.77C373.227 3671.53 382.511 3663.5 392.003 3655.74C401.496 3647.95 411.138 3640.39 420.989 3633.11C430.87 3625.8 440.87 3618.72 451.079 3611.92C461.288 3605.11 471.647 3598.54 482.154 3592.24C492.692 3585.92 503.349 3579.89 514.185 3574.09C524.991 3568.33 535.946 3562.81 547.021 3557.56C558.126 3552.3 569.32 3547.35 580.664 3542.66C592.007 3537.95 603.44 3533.56 614.993 3529.41C626.545 3525.29 638.187 3521.44 649.919 3517.89C661.65 3514.3 673.471 3511.05 685.382 3508.06C697.263 3505.08 709.233 3502.39 721.263 3500C733.293 3497.62 745.383 3495.53 757.503 3493.71C769.652 3491.91 781.801 3490.42 794.011 3489.2C806.22 3488 818.459 3487.11 830.698 3486.51C842.967 3485.91 855.236 3485.59 867.475 3485.59C879.744 3485.59 892.012 3485.91 904.251 3486.51C916.52 3487.11 928.759 3488 940.939 3489.2C953.148 3490.42 965.327 3491.91 977.477 3493.71C989.596 3495.53 1001.69 3497.62 1013.72 3500C1025.75 3502.39 1037.72 3505.08 1049.6 3508.06C1061.51 3511.05 1073.33 3514.3 1085.06 3517.89C1096.79 3521.44 1108.43 3525.29 1119.99 3529.41C1131.54 3533.56 1142.97 3537.95 1154.32 3542.66C1165.66 3547.35 1176.85 3552.3 1187.96 3557.56C1199.03 3562.81 1209.99 3568.33 1220.79 3574.09C1231.63 3579.89 1242.29 3585.92 1252.82 3592.24C1263.33 3598.54 1273.69 3605.11 1283.9 3611.92C1294.08 3618.72 1304.11 3625.8 1313.96 3633.11C1323.81 3640.39 1333.48 3647.95 1342.98 3655.74C1352.47 3663.5 1361.75 3671.53 1370.83 3679.77C1379.93 3688.01 1388.8 3696.46 1397.48 3705.14C1406.14 3713.8 1414.59 3722.69 1422.83 3731.77C1431.07 3740.87 1439.1 3750.16 1446.86 3759.62C1454.65 3769.11 1462.2 3778.79 1469.52 3788.64C1476.8 3798.49 1483.87 3808.52 1490.68 3818.7C1497.49 3828.91 1504.05 3839.26 1510.35 3849.8C1516.68 3860.31 1522.71 3870.97 1528.5 3881.8C1534.29 3892.61 1539.79 3903.56 1545.04 3914.67C1550.29 3925.74 1555.25 3936.97 1559.93 3948.28C1564.65 3959.62 1569.04 3971.06 1573.19 3982.61C1577.31 3994.16 1581.16 4005.8 1584.74 4017.54C1588.29 4029.27 1591.55 4041.09 1594.53 4053C1597.52 4064.91 1600.2 4076.85 1602.59 4088.88C1604.98 4100.91 1607.1 4113 1608.89 4125.15C1610.68 4137.27 1612.17 4149.45 1613.4 4161.66C1614.59 4173.87 1615.49 4186.08 1616.08 4198.34C1616.71 4210.58 1617.01 4222.85 1617.01 4235.12Z" fill="#333330"/>
<path d="M1514.06 4171.51C1514.06 4183.78 1513.76 4196.02 1513.16 4208.29C1512.57 4220.52 1511.67 4232.76 1510.45 4244.97C1509.25 4257.18 1507.76 4269.33 1505.94 4281.48C1504.15 4293.6 1502.06 4305.69 1499.67 4317.72C1497.28 4329.75 1494.6 4341.72 1491.61 4353.6C1488.63 4365.51 1485.34 4377.33 1481.79 4389.06C1478.24 4400.8 1474.39 4412.44 1470.24 4423.99C1466.12 4435.54 1461.7 4446.98 1457.01 4458.32C1452.33 4469.66 1447.34 4480.86 1442.09 4491.96C1436.86 4503.04 1431.34 4513.99 1425.55 4524.83C1419.79 4535.63 1413.73 4546.29 1407.43 4556.83C1401.13 4567.34 1394.56 4577.69 1387.76 4587.9C1380.92 4598.11 1373.88 4608.11 1366.56 4617.99C1359.25 4627.84 1351.73 4637.49 1343.94 4646.98C1336.15 4656.47 1328.15 4665.76 1319.91 4674.83C1311.67 4683.94 1303.22 4692.8 1294.53 4701.49C1285.88 4710.14 1276.98 4718.62 1267.91 4726.86C1258.8 4735.1 1249.52 4743.1 1240.02 4750.89C1230.56 4758.65 1220.89 4766.21 1211.04 4773.52C1201.19 4780.83 1191.16 4787.88 1180.95 4794.68C1170.77 4801.52 1160.41 4808.06 1149.87 4814.39C1139.37 4820.68 1128.68 4826.71 1117.87 4832.51C1107.04 4838.3 1096.11 4843.79 1085.01 4849.04C1073.93 4854.3 1062.71 4859.25 1051.36 4863.97C1040.05 4868.66 1028.62 4873.07 1017.06 4877.19C1005.51 4881.34 993.87 4885.16 982.109 4888.75C970.377 4892.3 958.556 4895.58 946.675 4898.54C934.765 4901.52 922.794 4904.21 910.764 4906.6C898.734 4909.01 886.674 4911.1 874.525 4912.89C862.405 4914.69 850.226 4916.21 838.017 4917.4C825.808 4918.6 813.569 4919.49 801.33 4920.12C789.091 4920.72 776.822 4921.01 764.553 4921.01C752.284 4921.01 740.015 4920.72 727.776 4920.12C715.537 4919.49 703.298 4918.6 691.089 4917.4C678.88 4916.21 666.7 4914.69 654.581 4912.89C642.431 4911.1 630.371 4909.01 618.341 4906.6C606.311 4904.21 594.341 4901.52 582.43 4898.54C570.549 4895.58 558.728 4892.3 546.967 4888.75C535.235 4885.16 523.593 4881.34 512.041 4877.19C500.488 4873.07 489.055 4868.66 477.712 4863.97C466.398 4859.25 455.174 4854.3 444.099 4849.04C432.995 4843.79 422.039 4838.3 411.233 4832.51C400.427 4826.71 389.74 4820.68 379.232 4814.39C368.695 4808.06 358.337 4801.52 348.157 4794.68C337.948 4787.88 327.918 4780.83 318.067 4773.52C308.216 4766.21 298.544 4758.65 289.052 4750.89C279.589 4743.1 270.305 4735.1 261.201 4726.86C252.126 4718.62 243.23 4710.14 234.573 4701.49C225.886 4692.8 217.439 4683.94 209.2 4674.83C200.961 4665.76 192.961 4656.47 185.169 4646.98C177.378 4637.49 169.856 4627.84 162.542 4617.99C155.228 4608.11 148.184 4598.11 141.348 4587.9C134.542 4577.69 127.974 4567.34 121.676 4556.83C115.377 4546.29 109.317 4535.63 103.526 4524.83C97.7648 4513.99 92.2423 4503.04 86.9884 4491.96C81.7645 4480.86 76.7793 4469.66 72.0927 4458.32C67.406 4446.98 62.988 4435.54 58.8387 4423.99C54.7192 4412.44 50.8684 4400.8 47.3161 4389.06C43.7638 4377.33 40.4802 4365.51 37.495 4353.6C34.5099 4341.72 31.8233 4329.75 29.4352 4317.72C27.0471 4305.69 24.9575 4293.6 23.1366 4281.48C21.3455 4269.33 19.8529 4257.18 18.6589 4244.97C17.435 4232.76 16.5394 4220.52 15.9424 4208.29C15.3454 4196.02 15.0469 4183.78 15.0469 4171.51C15.0469 4159.24 15.3454 4146.97 15.9424 4134.73C16.5394 4122.46 17.435 4110.25 18.6589 4098.04C19.8529 4085.84 21.3455 4073.66 23.1366 4061.51C24.9575 4049.39 27.0471 4037.3 29.4352 4025.27C31.8233 4013.24 34.5099 4001.27 37.495 3989.39C40.4802 3977.48 43.7638 3965.65 47.3161 3953.92C50.8684 3942.19 54.7192 3930.55 58.8387 3919C62.988 3907.44 67.406 3896.01 72.0927 3884.67C76.7793 3873.32 81.7645 3862.13 86.9884 3851.03C92.2423 3839.95 97.7648 3828.99 103.526 3818.19C109.317 3807.35 115.377 3796.7 121.676 3786.16C127.974 3775.65 134.542 3765.29 141.348 3755.08C148.184 3744.9 155.228 3734.87 162.542 3725.02C169.856 3715.17 177.378 3705.5 185.169 3696.01C192.961 3686.51 200.961 3677.23 209.2 3668.16C217.439 3659.05 225.886 3650.19 234.573 3641.5C243.23 3632.84 252.126 3624.39 261.201 3616.16C270.305 3607.92 279.589 3599.89 289.052 3592.12C298.544 3584.33 308.216 3576.78 318.067 3569.5C327.918 3562.18 337.948 3555.11 348.157 3548.3C358.337 3541.5 368.695 3534.93 379.232 3528.63C389.74 3522.3 400.427 3516.27 411.233 3510.48C422.039 3504.69 432.995 3499.2 444.099 3493.94C455.174 3488.69 466.398 3483.73 477.712 3479.05C489.055 3474.33 500.488 3469.94 512.041 3465.79C523.593 3461.67 535.235 3457.82 546.967 3454.27C558.728 3450.69 570.549 3447.44 582.43 3444.45C594.341 3441.47 606.311 3438.78 618.341 3436.39C630.371 3434 642.431 3431.88 654.581 3430.09C666.7 3428.3 678.88 3426.81 691.089 3425.58C703.298 3424.39 715.537 3423.5 727.776 3422.9C740.015 3422.27 752.284 3421.97 764.553 3421.97C776.822 3421.97 789.091 3422.27 801.33 3422.9C813.569 3423.5 825.808 3424.39 838.017 3425.58C850.226 3426.81 862.405 3428.3 874.525 3430.09C886.674 3431.88 898.734 3434 910.764 3436.39C922.794 3438.78 934.765 3441.47 946.675 3444.45C958.556 3447.44 970.377 3450.69 982.109 3454.27C993.87 3457.82 1005.51 3461.67 1017.06 3465.79C1028.62 3469.94 1040.05 3474.33 1051.36 3479.05C1062.71 3483.73 1073.93 3488.69 1085.01 3493.94C1096.11 3499.2 1107.04 3504.69 1117.87 3510.48C1128.68 3516.27 1139.37 3522.3 1149.87 3528.63C1160.41 3534.93 1170.77 3541.5 1180.95 3548.3C1191.16 3555.11 1201.19 3562.18 1211.04 3569.47C1220.89 3576.78 1230.56 3584.33 1240.02 3592.12C1249.52 3599.89 1258.8 3607.92 1267.91 3616.16C1276.98 3624.39 1285.88 3632.84 1294.53 3641.5C1303.22 3650.19 1311.67 3659.05 1319.91 3668.16C1328.15 3677.23 1336.15 3686.51 1343.94 3696.01C1351.73 3705.5 1359.25 3715.17 1366.56 3725.02C1373.88 3734.87 1380.92 3744.9 1387.76 3755.08C1394.56 3765.29 1401.13 3775.65 1407.43 3786.16C1413.73 3796.7 1419.79 3807.35 1425.55 3818.19C1431.34 3828.99 1436.86 3839.95 1442.09 3851.03C1447.34 3862.13 1452.33 3873.32 1457.01 3884.67C1461.7 3896.01 1466.12 3907.44 1470.24 3919C1474.39 3930.55 1478.24 3942.19 1481.79 3953.92C1485.34 3965.65 1488.63 3977.48 1491.61 3989.39C1494.6 4001.27 1497.28 4013.24 1499.67 4025.27C1502.06 4037.3 1504.15 4049.39 1505.94 4061.51C1507.76 4073.66 1509.25 4085.84 1510.45 4098.04C1511.67 4110.25 1512.57 4122.46 1513.16 4134.73C1513.76 4146.97 1514.06 4159.24 1514.06 4171.51Z" fill="#FBF8EF"/>
<path d="M763.389 4929.1C697.477 4929.1 632.7 4921.01 569.087 4903.67C474.219 4878.2 386.337 4835.43 307.679 4776.41C229.021 4717.43 164.244 4644.56 113.347 4560.14C61.3165 4473.39 27.7636 4377.39 13.8828 4276.76C0.00191975 4174.97 5.79306 4074.34 32.3906 3976.01C57.8238 3881.17 100.631 3793.26 159.617 3714.6C218.603 3635.97 291.47 3571.2 375.919 3520.3C462.667 3468.24 558.669 3434.72 659.297 3420.84C761.09 3406.95 861.719 3412.72 960.019 3439.34C1054.86 3464.78 1142.77 3507.58 1221.43 3566.57C1300.08 3625.56 1364.86 3698.42 1415.76 3782.87C1467.79 3869.62 1501.34 3965.62 1515.22 4066.25C1529.1 4168.01 1523.31 4268.64 1496.72 4366.97C1471.28 4461.81 1428.48 4549.72 1369.49 4628.38C1310.5 4707.04 1237.64 4771.78 1153.19 4822.68C1066.44 4874.74 970.437 4908.29 869.808 4922.18C833.957 4926.8 799.24 4929.1 763.389 4929.1ZM765.717 3430.09C731 3430.09 696.313 3432.39 661.596 3437.01C562.131 3450.9 469.592 3483.28 384.009 3534.18C301.888 3583.91 230.185 3647.53 172.333 3723.86C114.511 3800.22 72.8689 3886.96 47.4356 3979.5C21.9725 4075.5 16.1813 4173.8 30.0622 4273.27C43.943 4372.76 76.3316 4465.27 127.228 4550.89C176.96 4633.01 240.573 4704.71 316.933 4762.53C393.263 4820.38 480.01 4862.03 572.549 4887.46C668.551 4912.92 766.851 4918.68 866.346 4904.8C965.81 4890.92 1058.35 4858.53 1143.93 4807.67C1226.05 4757.9 1297.76 4694.29 1355.61 4617.96C1413.43 4541.63 1455.07 4454.88 1480.51 4362.34C1505.97 4266.34 1511.76 4168.01 1497.88 4068.55C1484 3969.08 1451.61 3876.54 1400.71 3790.96C1350.98 3708.84 1287.37 3637.11 1211.01 3579.29C1134.68 3521.46 1047.93 3479.82 955.392 3454.36C892.943 3438.18 830.494 3430.09 765.717 3430.09Z" fill="#333330"/>
<path d="M586.427 4633.01C573.711 4634.17 563.293 4626.05 560.964 4614.5L447.619 3801.35C446.455 3788.64 454.574 3778.25 466.127 3775.92C478.843 3774.76 489.261 3782.87 491.59 3794.43L604.935 4607.55C607.234 4620.29 599.144 4631.85 586.427 4633.01Z" fill="#FF6232"/>
<path d="M557.506 4509.25C514.729 4509.25 477.714 4476.86 470.758 4434.05C463.833 4386.65 497.356 4342.68 544.789 4335.75C548.252 4335.75 552.879 4334.59 557.506 4334.59C600.313 4334.59 637.328 4366.97 644.254 4409.78C651.209 4457.19 617.656 4501.16 570.223 4508.08C565.596 4508.08 562.133 4509.25 557.506 4509.25Z" fill="#333330"/>
<path d="M557.499 4347.3C594.514 4347.3 625.739 4373.9 631.53 4412.08C637.321 4452.56 608.395 4490.74 567.917 4496.53C564.454 4496.53 560.962 4497.66 557.499 4497.66C520.483 4497.66 489.259 4471.06 483.468 4432.88C477.706 4392.41 506.602 4354.26 547.081 4348.46C550.573 4347.3 554.036 4347.3 557.499 4347.3ZM557.499 4321.87C552.872 4321.87 548.245 4321.87 543.618 4323.03C489.259 4331.12 451.079 4380.85 459.199 4435.21C462.661 4459.51 474.214 4481.48 492.722 4496.53C511.229 4512.71 534.364 4520.8 557.499 4520.8C562.126 4520.8 566.753 4520.8 571.38 4519.66C625.739 4511.54 663.919 4461.81 655.829 4407.45C652.336 4383.15 640.784 4361.18 622.276 4346.14C604.932 4331.12 581.798 4321.87 557.499 4321.87Z" fill="#FBF8EF"/>
<path d="M824.701 4599.45C811.984 4600.62 801.566 4592.53 799.238 4580.95L685.892 3767.83C684.728 3755.11 692.848 3744.69 704.4 3742.36C717.117 3741.23 727.535 3749.32 729.863 3760.87L843.208 4574.02C845.507 4586.74 837.417 4598.29 824.701 4599.45Z" fill="#FF6232"/>
<path d="M763.384 4247.84C720.607 4247.84 683.591 4215.45 676.636 4172.64C673.173 4149.51 678.964 4126.37 692.845 4107.89C706.726 4089.39 727.532 4077.8 750.667 4074.34C754.13 4074.34 758.757 4073.18 763.384 4073.18C806.19 4073.18 843.206 4105.56 850.131 4148.37C853.594 4171.51 847.833 4194.64 833.952 4213.15C820.071 4231.63 799.235 4243.21 776.1 4246.67C771.473 4247.84 768.011 4247.84 763.384 4247.84Z" fill="#333330"/>
<path d="M763.39 4085.89C800.406 4085.89 831.63 4112.49 837.421 4150.67C843.212 4191.15 814.286 4229.33 773.808 4235.12C770.345 4235.12 766.853 4236.25 763.39 4236.25C726.374 4236.25 695.15 4209.66 689.359 4171.51C683.598 4131 712.494 4092.85 752.972 4087.06C756.465 4085.89 759.927 4085.89 763.39 4085.89ZM763.39 4061.62C758.763 4061.62 754.136 4061.63 749.509 4062.76C722.912 4066.25 699.777 4080.13 683.598 4100.94C667.388 4121.75 660.463 4148.37 663.926 4174.97C667.388 4199.27 678.971 4221.24 697.478 4236.25C715.986 4252.46 739.091 4260.55 762.226 4260.55C766.853 4260.55 771.48 4260.55 776.107 4259.39C802.734 4255.93 825.869 4242.05 842.048 4221.24C858.228 4200.4 865.183 4173.81 861.72 4147.21C858.228 4122.91 846.675 4100.94 828.167 4085.89C810.824 4069.71 787.689 4061.62 763.39 4061.62Z" fill="#FBF8EF"/>
<path d="M1062.97 4567.07C1050.26 4568.23 1039.84 4560.14 1037.51 4548.56L924.166 3735.44C923.001 3722.72 931.121 3712.31 942.673 3709.98C955.39 3708.84 965.808 3716.93 968.107 3728.48L1081.48 4541.63C1082.62 4553.19 1074.53 4564.77 1062.97 4567.07Z" fill="#FF6232"/>
<path d="M971.601 4001.47C928.794 4001.47 891.778 3969.08 884.853 3926.28C881.36 3903.14 887.151 3880.01 901.032 3861.5C914.913 3842.99 935.749 3831.44 958.854 3827.98C962.347 3827.98 966.974 3826.81 971.601 3826.81C1014.38 3826.81 1051.39 3859.2 1058.35 3902.01C1065.27 3949.41 1031.75 3993.38 984.317 4000.31C979.69 4000.31 975.063 4001.47 971.601 4001.47Z" fill="#333330"/>
<path d="M971.597 3838.37C1008.61 3838.37 1039.84 3864.99 1045.63 3903.14C1051.39 3943.62 1022.49 3981.8 981.986 3987.59C978.523 3987.59 975.06 3988.76 971.597 3988.76C934.582 3988.76 903.357 3962.13 897.566 3923.98C891.775 3883.5 920.701 3845.32 961.179 3839.53C964.642 3839.53 968.105 3838.37 971.597 3838.37ZM971.597 3814.1C966.971 3814.1 962.344 3814.1 957.717 3815.23C931.119 3818.72 907.984 3832.61 891.775 3853.41C875.596 3874.25 868.64 3900.85 872.103 3927.44C875.596 3951.74 887.148 3973.71 905.656 3988.76C924.164 4004.94 947.299 4013.03 970.433 4013.03C975.06 4013.03 979.687 4013.03 984.314 4011.86C1038.67 4003.77 1076.85 3954.04 1068.73 3899.68C1065.27 3875.38 1053.72 3853.41 1035.21 3838.37C1019 3822.19 995.867 3814.1 971.597 3814.1Z" fill="#FBF8EF"/>
<path d="M3928.19 1563.97L3642.96 1603.88L3509.44 649.685L3794.67 609.773L3928.19 1563.97Z" fill="#333330"/>
<path d="M3534.78 1618.57L3239.22 1659.91L3147.55 1004.71L3443.07 963.332L3534.78 1618.57Z" fill="#333330"/>
<path d="M3127.55 1675.82L2846.89 1715.08L2797.7 1363.43L3078.33 1324.14L3127.55 1675.82Z" fill="#333330"/>
<path d="M3986.61 1555.61L3701.38 1595.52L3567.85 641.325L3853.08 601.414L3986.61 1555.61Z" fill="#FBF8EF"/>
<path d="M3694.36 1607.19L3557.88 632.131L3863.23 589.324L3999.71 1564.39L3694.36 1607.19ZM3580.99 649.475L3711.71 1584.06L3976.58 1547.04L3845.89 612.459L3580.99 649.475Z" fill="#333330"/>
<path d="M3593.17 1610.18L3297.64 1651.55L3205.94 996.317L3501.49 954.973L3593.17 1610.18Z" fill="#FBF8EF"/>
<path d="M3290.69 1662.72L3195.85 987.211L3510.45 943.27L3605.29 1618.74L3290.69 1662.72ZM3218.99 1005.72L3308.03 1640.74L3583.32 1602.56L3494.24 967.568L3218.99 1005.72Z" fill="#333330"/>
<path d="M3185.97 1667.43L2905.3 1706.72L2856.11 1355.04L3136.74 1315.79L3185.97 1667.43Z" fill="#FBF8EF"/>
<path d="M2897.43 1718.24L2845.37 1346.95L3146.12 1305.31L3198.15 1676.6L2897.43 1718.24ZM2868.5 1364.29L2914.77 1695.11L3175.01 1658.09L3128.75 1327.28L2868.5 1364.29Z" fill="#333330"/>
<path d="M3209.73 2035.14L1776.63 2235.26C1384.5 2290.79 1110.38 2652.79 1164.74 3046.08C1220.26 3438.18 1582.3 3712.3 1975.56 3657.94L3408.66 3457.85C3800.76 3402.33 4074.91 3040.29 4020.52 2647.03C3965.03 2253.77 3601.83 1980.78 3209.73 2035.14Z" fill="#333330"/>
<path d="M3280.27 1887.11L1848.33 2087.2C1456.24 2142.73 1182.11 2504.76 1236.47 2898.02C1292 3290.12 1654.03 3564.24 2047.29 3509.89L3479.23 3309.79C3871.33 3254.27 4145.45 2892.23 4091.09 2498.97C4035.57 2105.71 3672.4 1831.59 3280.27 1887.11Z" fill="#FBF8EF"/>
<path d="M1945.5 3523.76C1883.05 3523.76 1820.57 3515.68 1759.28 3499.47C1669.04 3475.2 1584.62 3434.72 1509.43 3376.87C1434.26 3320.21 1371.78 3250.8 1323.22 3169.82C1273.48 3086.56 1241.1 2995.19 1227.21 2898.02C1213.33 2800.86 1219.12 2703.69 1244.56 2610.02C1268.86 2519.81 1309.34 2435.36 1367.16 2360.16C1425.01 2285 1493.25 2222.52 1574.21 2173.95C1657.49 2124.22 1748.87 2091.83 1846.03 2077.95L3277.97 1877.86C3375.1 1863.97 3472.27 1869.77 3565.97 1895.2C3656.18 1919.5 3740.63 1959.98 3815.8 2017.8C3890.99 2074.49 3953.44 2143.89 4002.01 2224.85C4051.77 2308.13 4084.16 2399.51 4098.04 2496.67C4111.89 2593.81 4106.13 2690.97 4080.67 2784.68C4056.4 2874.89 4015.89 2959.31 3958.07 3034.5C3901.38 3109.7 3832.01 3172.15 3751.02 3220.71C3667.77 3270.45 3576.39 3302.84 3479.22 3316.72L2047.29 3516.84C2013.74 3521.47 1979.05 3523.76 1945.5 3523.76ZM3281.43 1895.2L1849.49 2095.29C1754.66 2108.04 1665.58 2140.4 1583.46 2188.99C1504.8 2236.4 1436.56 2297.71 1381.04 2370.58C1325.51 2444.61 1285.04 2526.73 1261.9 2614.64C1237.63 2706.02 1231.84 2800.86 1244.56 2895.69C1257.27 2990.56 1289.66 3079.61 1338.26 3161.73C1385.66 3240.39 1446.98 3308.63 1519.85 3364.15C1593.88 3419.67 1676 3460.15 1763.91 3483.29C1855.29 3507.59 1950.12 3513.35 2044.96 3500.63L3476.9 3300.54C3571.76 3287.82 3660.81 3255.43 3742.93 3206.83C3821.59 3159.43 3889.83 3098.12 3945.35 3025.25C4000.88 2951.22 4041.35 2869.1 4064.49 2781.18C4088.79 2689.81 4094.55 2594.97 4081.83 2500.13C4069.12 2405.3 4036.73 2316.22 3988.16 2234.1C3940.73 2155.44 3879.41 2087.2 3806.54 2031.68C3732.51 1976.16 3650.39 1935.68 3562.51 1912.54C3471.1 1888.27 3376.27 1882.48 3281.43 1895.2Z" fill="#333330"/>
<path d="M3912.97 2600.76C3912.97 2609.87 3912.73 2619 3912.28 2628.11C3911.83 2637.24 3911.17 2646.32 3910.28 2655.39C3909.38 2664.5 3908.28 2673.54 3906.94 2682.56C3905.59 2691.6 3904.04 2700.59 3902.25 2709.51C3900.46 2718.47 3898.49 2727.36 3896.25 2736.23C3894.04 2745.07 3891.59 2753.87 3888.97 2762.59C3886.31 2771.33 3883.44 2779.99 3880.37 2788.59C3877.29 2797.16 3874.01 2805.69 3870.52 2814.11C3867.02 2822.53 3863.35 2830.89 3859.44 2839.13C3855.53 2847.37 3851.44 2855.52 3847.14 2863.57C3842.85 2871.6 3838.34 2879.55 3833.65 2887.37C3828.96 2895.19 3824.07 2902.92 3818.99 2910.5C3813.95 2918.08 3808.7 2925.55 3803.26 2932.86C3797.83 2940.2 3792.22 2947.4 3786.43 2954.44C3780.64 2961.49 3774.66 2968.41 3768.55 2975.16C3762.43 2981.91 3756.13 2988.53 3749.68 2994.98C3743.23 3001.43 3736.6 3007.73 3729.86 3013.85C3723.08 3019.97 3716.19 3025.94 3709.14 3031.73C3702.1 3037.52 3694.9 3043.13 3687.56 3048.56C3680.25 3054 3672.78 3059.25 3665.2 3064.32C3657.62 3069.37 3649.89 3074.27 3642.07 3078.95C3634.24 3083.64 3626.3 3088.15 3618.27 3092.44C3610.21 3096.74 3602.06 3100.83 3593.83 3104.74C3585.59 3108.65 3577.23 3112.33 3568.81 3115.82C3560.36 3119.31 3551.86 3122.59 3543.29 3125.67C3534.69 3128.74 3526.03 3131.61 3517.29 3134.27C3508.57 3136.92 3499.76 3139.34 3490.93 3141.55C3482.06 3143.79 3473.17 3145.79 3464.21 3147.55C3455.29 3149.34 3446.27 3150.89 3437.26 3152.24C3428.24 3153.58 3419.2 3154.68 3410.09 3155.58C3401.02 3156.48 3391.91 3157.16 3382.81 3157.61C3373.7 3158.06 3364.57 3158.27 3355.46 3158.27C3346.33 3158.27 3337.22 3158.06 3328.09 3157.61C3318.99 3157.16 3309.88 3156.48 3300.81 3155.58C3291.73 3154.68 3282.69 3153.58 3273.64 3152.24C3264.63 3150.89 3255.64 3149.34 3246.69 3147.55C3237.73 3145.79 3228.83 3143.79 3220 3141.55C3211.13 3139.34 3202.36 3136.92 3193.61 3134.27C3184.89 3131.61 3176.24 3128.74 3167.64 3125.67C3159.04 3122.59 3150.53 3119.31 3142.12 3115.82C3133.67 3112.33 3125.34 3108.65 3117.1 3104.74C3108.83 3100.83 3100.68 3096.74 3092.65 3092.44C3084.59 3088.15 3076.65 3083.64 3068.83 3078.95C3061.01 3074.27 3053.31 3069.37 3045.73 3064.32C3038.14 3059.25 3030.68 3054 3023.34 3048.56C3016.02 3043.13 3008.83 3037.52 3001.79 3031.73C2994.71 3025.94 2987.82 3019.97 2981.07 3013.85C2974.29 3007.73 2967.7 3001.43 2961.25 2994.98C2954.8 2988.53 2948.5 2981.91 2942.38 2975.16C2936.23 2968.41 2930.29 2961.49 2924.5 2954.44C2918.71 2947.4 2913.1 2940.2 2907.66 2932.86C2902.23 2925.55 2896.98 2918.08 2891.9 2910.5C2886.83 2902.92 2881.96 2895.19 2877.28 2887.37C2872.59 2879.55 2868.08 2871.6 2863.78 2863.57C2859.48 2855.52 2855.36 2847.37 2851.48 2839.13C2847.57 2830.89 2843.87 2822.53 2840.38 2814.11C2836.89 2805.69 2833.6 2797.16 2830.53 2788.59C2827.45 2779.99 2824.62 2771.33 2821.96 2762.59C2819.3 2753.87 2816.89 2745.07 2814.65 2736.23C2812.44 2727.36 2810.44 2718.47 2808.65 2709.51C2806.89 2700.59 2805.33 2691.6 2803.99 2682.56C2802.65 2673.54 2801.51 2664.5 2800.65 2655.39C2799.75 2646.32 2799.07 2637.24 2798.62 2628.11C2798.17 2619 2797.96 2609.87 2797.96 2600.76C2797.96 2591.63 2798.17 2582.53 2798.62 2573.39C2799.07 2564.29 2799.75 2555.18 2800.65 2546.11C2801.51 2537.03 2802.65 2527.99 2803.99 2518.94C2805.33 2509.93 2806.89 2500.94 2808.65 2491.99C2810.44 2483.06 2812.44 2474.14 2814.65 2465.3C2816.89 2456.43 2819.3 2447.66 2821.96 2438.91C2824.62 2430.19 2827.45 2421.54 2830.53 2412.94C2833.6 2404.34 2836.89 2395.84 2840.38 2387.42C2843.87 2378.97 2847.57 2370.64 2851.48 2362.4C2855.36 2354.13 2859.48 2346.01 2863.78 2337.95C2868.08 2329.89 2872.59 2321.98 2877.28 2314.13C2881.96 2306.31 2886.83 2298.61 2891.9 2291.03C2896.98 2283.45 2902.23 2275.98 2907.66 2268.64C2913.1 2261.33 2918.71 2254.13 2924.5 2247.09C2930.29 2240.04 2936.23 2233.12 2942.38 2226.37C2948.5 2219.59 2954.8 2213 2961.25 2206.55C2967.7 2200.1 2974.29 2193.8 2981.07 2187.68C2987.82 2181.53 2994.71 2175.59 3001.79 2169.8C3008.83 2164.01 3016.02 2158.4 3023.34 2152.97C3030.68 2147.53 3038.14 2142.28 3045.73 2137.2C3053.31 2132.13 3061.01 2127.26 3068.83 2122.58C3076.65 2117.89 3084.59 2113.38 3092.65 2109.08C3100.68 2104.79 3108.83 2100.67 3117.1 2096.79C3125.34 2092.87 3133.67 2089.17 3142.12 2085.68C3150.53 2082.19 3159.04 2078.9 3167.64 2075.83C3176.24 2072.75 3184.89 2069.92 3193.61 2067.26C3202.36 2064.61 3211.13 2062.19 3220 2059.95C3228.83 2057.74 3237.73 2055.74 3246.69 2053.98C3255.64 2052.19 3264.63 2050.63 3273.64 2049.29C3282.69 2047.95 3291.73 2046.84 3300.81 2045.95C3309.88 2045.05 3318.99 2044.37 3328.09 2043.92C3337.22 2043.47 3346.33 2043.26 3355.46 2043.26C3364.57 2043.26 3373.7 2043.47 3382.81 2043.92C3391.91 2044.37 3401.02 2045.05 3410.09 2045.95C3419.2 2046.84 3428.24 2047.95 3437.26 2049.29C3446.27 2050.63 3455.29 2052.19 3464.21 2053.98C3473.17 2055.74 3482.06 2057.74 3490.93 2059.95C3499.76 2062.19 3508.57 2064.61 3517.29 2067.26C3526.03 2069.92 3534.69 2072.75 3543.29 2075.83C3551.86 2078.9 3560.36 2082.19 3568.81 2085.68C3577.23 2089.17 3585.59 2092.87 3593.83 2096.79C3602.06 2100.67 3610.21 2104.79 3618.27 2109.08C3626.3 2113.38 3634.24 2117.89 3642.07 2122.58C3649.89 2127.26 3657.62 2132.13 3665.2 2137.2C3672.78 2142.28 3680.25 2147.53 3687.56 2152.97C3694.9 2158.4 3702.1 2164.01 3709.14 2169.8C3716.19 2175.59 3723.08 2181.53 3729.86 2187.68C3736.6 2193.8 3743.23 2200.1 3749.68 2206.55C3756.13 2213 3762.43 2219.59 3768.55 2226.37C3774.66 2233.12 3780.64 2240.04 3786.43 2247.09C3792.22 2254.13 3797.83 2261.33 3803.26 2268.64C3808.7 2275.98 3813.95 2283.45 3818.99 2291.03C3824.07 2298.61 3828.96 2306.31 3833.65 2314.13C3838.34 2321.98 3842.85 2329.89 3847.14 2337.95C3851.44 2346.01 3855.53 2354.13 3859.44 2362.4C3863.35 2370.64 3867.02 2378.97 3870.52 2387.42C3874.01 2395.84 3877.29 2404.34 3880.37 2412.94C3883.44 2421.54 3886.31 2430.19 3888.97 2438.91C3891.59 2447.66 3894.04 2456.43 3896.25 2465.3C3898.49 2474.14 3900.46 2483.06 3902.25 2491.99C3904.04 2500.94 3905.59 2509.93 3906.94 2518.94C3908.28 2527.99 3909.38 2537.03 3910.28 2546.11C3911.17 2555.18 3911.83 2564.29 3912.28 2573.39C3912.73 2582.53 3912.97 2591.63 3912.97 2600.76Z" fill="#FF6232"/>
</svg>
