<svg xmlns="http://www.w3.org/2000/svg" xmlns:xlink="http://www.w3.org/1999/xlink" width="1024" zoomAndPan="magnify" viewBox="0 0 768 767.999994" height="1024" preserveAspectRatio="xMidYMid meet" version="1.0"><path fill="#ecf0f1" d="M 647.875 0 L 84.515625 325.351562 L 85.710938 747.171875 L 121.542969 768 L 684.902344 442.648438 L 683.707031 20.828125 Z M 647.875 0 " fill-opacity="1" fill-rule="nonzero"/><path fill="#d4d6d6" d="M 121.542969 768 L 85.710938 747.171875 L 84.515625 325.351562 L 120.347656 346.179688 Z M 121.542969 768 " fill-opacity="1" fill-rule="nonzero"/><path fill="#ecf0f1" d="M 120.347656 346.179688 L 84.515625 325.351562 L 647.875 0 L 683.707031 20.828125 Z M 120.347656 346.179688 " fill-opacity="1" fill-rule="nonzero"/><path fill="#d4d6d6" d="M 683.707031 20.828125 L 684.902344 442.648438 L 121.542969 768 L 120.347656 346.179688 Z M 683.707031 20.828125 " fill-opacity="1" fill-rule="nonzero"/><path fill="#ffffff" d="M 436.242188 209.371094 L 436.316406 235.445312 L 413.683594 248.515625 L 413.609375 222.441406 Z M 436.242188 209.371094 " fill-opacity="1" fill-rule="nonzero"/><path fill="#ffffff" d="M 620.257812 307.167969 L 620.183594 281.089844 L 642.871094 267.988281 L 642.945312 294.066406 Z M 620.257812 307.167969 " fill-opacity="1" fill-rule="nonzero"/><path fill="#ffffff" d="M 617.117188 282.863281 L 617.191406 308.9375 L 594.507812 322.039062 L 594.433594 295.964844 Z M 617.117188 282.863281 " fill-opacity="1" fill-rule="nonzero"/><path fill="#ffffff" d="M 620.175781 277.566406 L 620.101562 251.492188 L 642.785156 238.390625 L 642.859375 264.464844 Z M 620.175781 277.566406 " fill-opacity="1" fill-rule="nonzero"/><path fill="#ffffff" d="M 642.859375 264.464844 L 620.175781 277.566406 L 620.101562 251.492188 L 642.785156 238.390625 Z M 642.859375 264.464844 " fill-opacity="1" fill-rule="nonzero"/><path fill="#ffffff" d="M 594.347656 266.363281 L 617.035156 253.261719 L 617.109375 279.339844 L 594.421875 292.441406 Z M 594.347656 266.363281 " fill-opacity="1" fill-rule="nonzero"/><path fill="#ffffff" d="M 617.035156 253.261719 L 617.109375 279.339844 L 594.421875 292.441406 L 594.347656 266.363281 Z M 617.035156 253.261719 " fill-opacity="1" fill-rule="nonzero"/><path fill="#ffffff" d="M 565.476562 283.039062 L 565.550781 309.113281 L 542.917969 322.183594 L 542.84375 296.109375 Z M 565.476562 283.039062 " fill-opacity="1" fill-rule="nonzero"/><path fill="#ffffff" d="M 568.511719 251.636719 L 591.144531 238.566406 L 591.21875 264.578125 L 568.585938 277.648438 Z M 568.511719 251.636719 " fill-opacity="1" fill-rule="nonzero"/><path fill="#ffffff" d="M 591.144531 238.566406 L 591.21875 264.578125 L 568.585938 277.648438 L 568.511719 251.636719 Z M 591.144531 238.566406 " fill-opacity="1" fill-rule="nonzero"/><path fill="#ffffff" d="M 616.867188 194.0625 L 616.941406 220.074219 L 594.253906 233.175781 L 594.179688 207.167969 Z M 616.867188 194.0625 " fill-opacity="1" fill-rule="nonzero"/><path fill="#ffffff" d="M 642.609375 175.605469 L 619.921875 188.707031 L 619.847656 162.628906 L 642.535156 149.527344 Z M 642.609375 175.605469 " fill-opacity="1" fill-rule="nonzero"/><path fill="#ffffff" d="M 514.054688 342.382812 L 514.128906 368.457031 L 491.445312 381.558594 L 491.371094 355.484375 Z M 514.054688 342.382812 " fill-opacity="1" fill-rule="nonzero"/><path fill="#ffffff" d="M 565.390625 253.441406 L 565.464844 279.453125 L 542.835938 292.519531 L 542.761719 266.507812 Z M 565.390625 253.441406 " fill-opacity="1" fill-rule="nonzero"/><path fill="#ffffff" d="M 591.058594 208.96875 L 591.132812 234.980469 L 568.503906 248.050781 L 568.429688 222.039062 Z M 591.058594 208.96875 " fill-opacity="1" fill-rule="nonzero"/><path fill="#ffffff" d="M 568.429688 222.039062 L 591.058594 208.96875 L 591.132812 234.980469 L 568.503906 248.050781 Z M 568.429688 222.039062 " fill-opacity="1" fill-rule="nonzero"/><path fill="#ffffff" d="M 616.78125 164.402344 L 616.855469 190.476562 L 594.171875 203.578125 L 594.097656 177.503906 Z M 616.78125 164.402344 " fill-opacity="1" fill-rule="nonzero"/><path fill="#ffffff" d="M 619.839844 159.105469 L 619.765625 133.03125 L 642.449219 119.929688 L 642.523438 146.003906 Z M 619.839844 159.105469 " fill-opacity="1" fill-rule="nonzero"/><path fill="#ffffff" d="M 491.285156 325.886719 L 513.972656 312.785156 L 514.046875 338.859375 L 491.359375 351.960938 Z M 491.285156 325.886719 " fill-opacity="1" fill-rule="nonzero"/><path fill="#ffffff" d="M 539.640625 268.3125 L 539.714844 294.324219 L 517.027344 307.425781 L 516.953125 281.414062 Z M 539.640625 268.3125 " fill-opacity="1" fill-rule="nonzero"/><path fill="#ffffff" d="M 516.953125 281.414062 L 539.640625 268.3125 L 539.714844 294.324219 L 517.027344 307.425781 Z M 516.953125 281.414062 " fill-opacity="1" fill-rule="nonzero"/><path fill="#ffffff" d="M 565.308594 223.839844 L 565.382812 249.851562 L 542.75 262.921875 L 542.675781 236.910156 Z M 565.308594 223.839844 " fill-opacity="1" fill-rule="nonzero"/><path fill="#ffffff" d="M 617.203125 312.460938 L 620.269531 310.691406 L 642.953125 297.589844 L 643.304688 421.046875 L 414.546875 553.15625 L 414.199219 429.699219 L 436.828125 416.628906 L 439.949219 414.828125 L 462.582031 401.757812 L 465.703125 399.957031 L 488.386719 386.855469 L 491.453125 385.082031 L 514.140625 371.980469 L 517.207031 370.210938 L 539.890625 357.109375 L 543.011719 355.308594 L 565.644531 342.238281 L 568.765625 340.433594 L 591.394531 327.367188 L 594.515625 325.5625 Z M 617.203125 312.460938 " fill-opacity="1" fill-rule="nonzero"/><path fill="#ffffff" d="M 513.886719 283.183594 L 513.960938 309.195312 L 491.277344 322.296875 L 491.203125 296.285156 Z M 513.886719 283.183594 " fill-opacity="1" fill-rule="nonzero"/><path fill="#ffffff" d="M 516.871094 251.8125 L 539.554688 238.710938 L 539.628906 264.722656 L 516.945312 277.824219 Z M 516.871094 251.8125 " fill-opacity="1" fill-rule="nonzero"/><path fill="#ffffff" d="M 539.554688 238.710938 L 539.628906 264.722656 L 516.945312 277.824219 L 516.871094 251.8125 Z M 539.554688 238.710938 " fill-opacity="1" fill-rule="nonzero"/><path fill="#ffffff" d="M 565.222656 194.175781 L 565.296875 220.253906 L 542.667969 233.324219 L 542.59375 207.246094 Z M 565.222656 194.175781 " fill-opacity="1" fill-rule="nonzero"/><path fill="#ffffff" d="M 590.890625 149.707031 L 590.964844 175.78125 L 568.335938 188.851562 L 568.261719 162.777344 Z M 590.890625 149.707031 " fill-opacity="1" fill-rule="nonzero"/><path fill="#ffffff" d="M 616.613281 105.203125 L 616.6875 131.277344 L 594.003906 144.378906 L 593.929688 118.304688 Z M 616.613281 105.203125 " fill-opacity="1" fill-rule="nonzero"/><path fill="#ffffff" d="M 436.746094 387.03125 L 436.820312 413.105469 L 414.1875 426.175781 L 414.113281 400.101562 Z M 436.746094 387.03125 " fill-opacity="1" fill-rule="nonzero"/><path fill="#ffffff" d="M 439.78125 355.628906 L 462.414062 342.558594 L 462.488281 368.636719 L 439.855469 381.703125 Z M 439.78125 355.628906 " fill-opacity="1" fill-rule="nonzero"/><path fill="#ffffff" d="M 462.414062 342.558594 L 462.488281 368.636719 L 439.855469 381.703125 L 439.78125 355.628906 Z M 462.414062 342.558594 " fill-opacity="1" fill-rule="nonzero"/><path fill="#ffffff" d="M 513.804688 253.585938 L 513.878906 279.597656 L 491.191406 292.699219 L 491.117188 266.6875 Z M 513.804688 253.585938 " fill-opacity="1" fill-rule="nonzero"/><path fill="#ffffff" d="M 539.472656 209.050781 L 539.546875 235.125 L 516.859375 248.226562 L 516.785156 222.152344 Z M 539.472656 209.050781 " fill-opacity="1" fill-rule="nonzero"/><path fill="#ffffff" d="M 565.140625 164.578125 L 565.214844 190.652344 L 542.582031 203.722656 L 542.507812 177.648438 Z M 565.140625 164.578125 " fill-opacity="1" fill-rule="nonzero"/><path fill="#ffffff" d="M 439.699219 326.03125 L 462.328125 312.960938 L 462.402344 338.972656 L 439.773438 352.042969 Z M 439.699219 326.03125 " fill-opacity="1" fill-rule="nonzero"/><path fill="#ffffff" d="M 462.328125 312.960938 L 462.402344 338.972656 L 439.773438 352.042969 L 439.699219 326.03125 Z M 462.328125 312.960938 " fill-opacity="1" fill-rule="nonzero"/><path fill="#ffffff" d="M 539.386719 179.449219 L 539.460938 205.527344 L 516.777344 218.628906 L 516.703125 192.550781 Z M 539.386719 179.449219 " fill-opacity="1" fill-rule="nonzero"/><path fill="#ffffff" d="M 516.703125 192.550781 L 539.386719 179.449219 L 539.460938 205.527344 L 516.777344 218.628906 Z M 516.703125 192.550781 " fill-opacity="1" fill-rule="nonzero"/><path fill="#ffffff" d="M 436.578125 327.832031 L 436.652344 353.84375 L 414.019531 366.914062 L 413.945312 340.902344 Z M 436.578125 327.832031 " fill-opacity="1" fill-rule="nonzero"/><path fill="#ffffff" d="M 462.246094 283.359375 L 462.320312 309.371094 L 439.6875 322.441406 L 439.613281 296.429688 Z M 462.246094 283.359375 " fill-opacity="1" fill-rule="nonzero"/><path fill="#ffffff" d="M 439.613281 296.429688 L 462.246094 283.359375 L 462.320312 309.371094 L 439.6875 322.441406 Z M 439.613281 296.429688 " fill-opacity="1" fill-rule="nonzero"/><path fill="#ffffff" d="M 487.96875 238.792969 L 488.042969 264.867188 L 465.355469 277.96875 L 465.28125 251.894531 Z M 487.96875 238.792969 " fill-opacity="1" fill-rule="nonzero"/><path fill="#ffffff" d="M 465.28125 251.894531 L 487.96875 238.792969 L 488.042969 264.867188 L 465.355469 277.96875 Z M 465.28125 251.894531 " fill-opacity="1" fill-rule="nonzero"/><path fill="#ffffff" d="M 490.949219 207.425781 L 513.636719 194.324219 L 513.710938 220.398438 L 491.023438 233.5 Z M 490.949219 207.425781 " fill-opacity="1" fill-rule="nonzero"/><path fill="#ffffff" d="M 539.304688 149.851562 L 539.378906 175.925781 L 516.691406 189.027344 L 516.617188 162.953125 Z M 539.304688 149.851562 " fill-opacity="1" fill-rule="nonzero"/><path fill="#5b5e71" d="M 355.4375 459.527344 L 355.464844 469.136719 L 317.785156 490.898438 L 317.757812 481.289062 Z M 355.4375 459.527344 " fill-opacity="1" fill-rule="nonzero"/><path fill="#ffffff" d="M 413.863281 311.300781 L 436.492188 298.234375 L 436.566406 324.246094 L 413.9375 337.3125 Z M 413.863281 311.300781 " fill-opacity="1" fill-rule="nonzero"/><path fill="#ffffff" d="M 436.492188 298.234375 L 436.566406 324.246094 L 413.9375 337.3125 L 413.863281 311.300781 Z M 436.492188 298.234375 " fill-opacity="1" fill-rule="nonzero"/><path fill="#ffffff" d="M 462.160156 253.699219 L 462.234375 279.773438 L 439.605469 292.84375 L 439.53125 266.765625 Z M 462.160156 253.699219 " fill-opacity="1" fill-rule="nonzero"/><path fill="#ffffff" d="M 487.882812 209.195312 L 487.957031 235.269531 L 465.273438 248.371094 L 465.199219 222.296875 Z M 487.882812 209.195312 " fill-opacity="1" fill-rule="nonzero"/><path fill="#ffffff" d="M 513.550781 164.722656 L 513.625 190.796875 L 490.941406 203.898438 L 490.867188 177.824219 Z M 513.550781 164.722656 " fill-opacity="1" fill-rule="nonzero"/><path fill="#ffffff" d="M 413.777344 281.640625 L 436.410156 268.570312 L 436.484375 294.644531 L 413.851562 307.714844 Z M 413.777344 281.640625 " fill-opacity="1" fill-rule="nonzero"/><path fill="#ffffff" d="M 439.445312 237.167969 L 462.078125 224.097656 L 462.152344 250.175781 L 439.519531 263.242188 Z M 439.445312 237.167969 " fill-opacity="1" fill-rule="nonzero"/><path fill="#ffffff" d="M 487.800781 179.59375 L 487.875 205.671875 L 465.1875 218.773438 L 465.113281 192.695312 Z M 487.800781 179.59375 " fill-opacity="1" fill-rule="nonzero"/><path fill="#ffffff" d="M 436.324219 238.972656 L 436.398438 265.046875 L 413.769531 278.117188 L 413.695312 252.039062 Z M 436.324219 238.972656 " fill-opacity="1" fill-rule="nonzero"/><path fill="#ffffff" d="M 461.992188 194.5 L 462.066406 220.574219 L 439.4375 233.644531 L 439.363281 207.570312 Z M 461.992188 194.5 " fill-opacity="1" fill-rule="nonzero"/><path fill="#d4d6d6" d="M 250.710938 621.59375 L 250.734375 629.472656 L 160.601562 681.527344 L 160.582031 673.644531 Z M 250.710938 621.59375 " fill-opacity="1" fill-rule="nonzero"/><path fill="#d4d6d6" d="M 250.65625 601.605469 L 250.675781 609.421875 L 160.546875 661.472656 L 160.523438 653.65625 Z M 250.65625 601.605469 " fill-opacity="1" fill-rule="nonzero"/><path fill="#ffffff" d="M 138.96875 356.792969 L 665.207031 52.882812 L 666.28125 432.035156 L 140.042969 735.945312 Z M 645.507812 114.636719 L 645.421875 84.972656 L 619.671875 99.84375 L 616.605469 101.613281 L 593.917969 114.71875 L 590.796875 116.519531 L 568.167969 129.589844 L 565.046875 131.390625 L 542.414062 144.460938 L 539.292969 146.261719 L 516.609375 159.363281 L 513.542969 161.136719 L 490.855469 174.238281 L 487.789062 176.007812 L 465.105469 189.109375 L 461.984375 190.910156 L 439.351562 203.980469 L 436.230469 205.785156 L 410.480469 220.65625 L 410.5625 250.320312 L 410.574219 253.84375 L 410.648438 279.917969 L 410.65625 283.441406 L 410.730469 309.515625 L 410.742188 313.105469 L 410.816406 339.117188 L 410.824219 342.703125 L 410.898438 368.714844 L 410.910156 372.304688 L 410.984375 398.378906 L 410.992188 401.902344 L 411.078125 431.503906 L 411.4375 558.546875 L 646.378906 422.863281 L 646.019531 295.820312 L 645.9375 266.21875 L 645.925781 262.695312 L 645.851562 236.621094 L 645.84375 233.03125 L 645.769531 207.019531 L 645.757812 203.433594 L 645.683594 177.421875 L 645.675781 173.832031 L 645.601562 147.757812 L 645.589844 144.234375 L 645.515625 118.160156 L 645.507812 114.636719 M 219.011719 428.964844 L 183.226562 449.632812 C 187.464844 486.523438 214.640625 502.015625 248.824219 487.023438 L 248.707031 445.894531 C 233.867188 450.613281 222.347656 443.980469 219.011719 428.964844 M 266.597656 435.558594 L 266.714844 476.691406 C 300.871094 452.21875 327.871094 405.4375 331.882812 363.78125 L 296.101562 384.445312 C 292.859375 403.257812 281.414062 423.152344 266.597656 435.558594 M 248.339844 316.15625 C 214.183594 340.628906 187.183594 387.347656 183.167969 429.003906 L 218.953125 408.335938 C 222.195312 389.585938 233.640625 369.628906 248.453125 357.222656 L 248.339844 316.15625 M 266.230469 305.824219 L 266.347656 346.890625 C 281.183594 342.171875 292.707031 348.867188 296.042969 363.816406 L 331.828125 343.152344 C 327.589844 306.257812 300.414062 290.832031 266.230469 305.824219 M 250.734375 629.472656 L 250.710938 621.59375 L 160.582031 673.644531 L 160.601562 681.527344 L 250.734375 629.472656 M 357.253906 567.957031 L 357.230469 560.078125 L 267.097656 612.128906 L 267.121094 620.011719 L 357.253906 567.957031 M 250.675781 609.421875 L 250.65625 601.605469 L 160.523438 653.65625 L 160.546875 661.472656 L 250.675781 609.421875 M 250.789062 649.464844 L 250.769531 641.648438 L 160.636719 693.699219 L 160.660156 701.515625 L 250.789062 649.464844 M 357.195312 547.90625 L 357.171875 540.089844 L 267.042969 592.140625 L 267.066406 599.957031 L 357.195312 547.90625 M 357.308594 587.945312 L 357.285156 580.128906 L 267.15625 632.183594 L 267.179688 640 L 357.308594 587.945312 M 250.5625 569.316406 L 250.542969 561.5 L 160.410156 613.550781 L 160.433594 621.367188 L 250.5625 569.316406 M 357.082031 507.796875 L 357.058594 499.980469 L 266.929688 552.035156 L 266.953125 559.851562 L 357.082031 507.796875 M 250.621094 589.367188 L 250.597656 581.550781 L 160.46875 633.605469 L 160.488281 641.421875 L 250.621094 589.367188 M 357.140625 527.851562 L 357.117188 520.035156 L 266.984375 572.085938 L 267.007812 579.902344 L 357.140625 527.851562 M 355.4375 459.527344 L 317.757812 481.289062 L 317.785156 490.898438 L 355.464844 469.136719 L 355.4375 459.527344 M 265.25 511.613281 L 265.277344 521.222656 L 302.957031 499.460938 L 302.929688 489.851562 L 265.25 511.613281 M 160.292969 572.226562 L 160.320312 581.835938 L 198 560.078125 L 197.972656 550.464844 L 160.292969 572.226562 M 250.507812 529.753906 L 250.480469 520.144531 L 212.800781 541.902344 L 212.828125 551.515625 L 250.507812 529.753906 " fill-opacity="1" fill-rule="nonzero"/><path fill="#ffffff" d="M 591.3125 297.765625 L 591.386719 323.839844 L 568.753906 336.910156 L 568.679688 310.835938 Z M 591.3125 297.765625 " fill-opacity="1" fill-rule="nonzero"/><path fill="#ffffff" d="M 620.089844 247.90625 L 620.015625 221.894531 L 642.703125 208.792969 L 642.777344 234.804688 Z M 620.089844 247.90625 " fill-opacity="1" fill-rule="nonzero"/><path fill="#ffffff" d="M 642.777344 234.804688 L 620.089844 247.90625 L 620.015625 221.894531 L 642.703125 208.792969 Z M 642.777344 234.804688 " fill-opacity="1" fill-rule="nonzero"/><path fill="#ffffff" d="M 565.558594 312.636719 L 565.632812 338.714844 L 543.003906 351.78125 L 542.929688 325.707031 Z M 565.558594 312.636719 " fill-opacity="1" fill-rule="nonzero"/><path fill="#ffffff" d="M 568.597656 281.238281 L 591.226562 268.167969 L 591.300781 294.242188 L 568.671875 307.3125 Z M 568.597656 281.238281 " fill-opacity="1" fill-rule="nonzero"/><path fill="#ffffff" d="M 591.226562 268.167969 L 591.300781 294.242188 L 568.671875 307.3125 L 568.597656 281.238281 Z M 591.226562 268.167969 " fill-opacity="1" fill-rule="nonzero"/><path fill="#ffffff" d="M 616.949219 223.664062 L 617.023438 249.675781 L 594.339844 262.777344 L 594.265625 236.765625 Z M 616.949219 223.664062 " fill-opacity="1" fill-rule="nonzero"/><path fill="#ffffff" d="M 594.265625 236.765625 L 616.949219 223.664062 L 617.023438 249.675781 L 594.339844 262.777344 Z M 594.265625 236.765625 " fill-opacity="1" fill-rule="nonzero"/><path fill="#ffffff" d="M 642.691406 205.203125 L 620.007812 218.304688 L 619.933594 192.292969 L 642.617188 179.191406 Z M 642.691406 205.203125 " fill-opacity="1" fill-rule="nonzero"/><path fill="#ffffff" d="M 620.007812 218.304688 L 619.933594 192.292969 L 642.617188 179.191406 L 642.691406 205.203125 Z M 620.007812 218.304688 " fill-opacity="1" fill-rule="nonzero"/><path fill="#ffffff" d="M 539.808594 327.511719 L 539.882812 353.585938 L 517.195312 366.6875 L 517.121094 340.613281 Z M 539.808594 327.511719 " fill-opacity="1" fill-rule="nonzero"/><path fill="#ffffff" d="M 542.84375 296.109375 L 565.476562 283.039062 L 565.550781 309.113281 L 542.917969 322.183594 Z M 542.84375 296.109375 " fill-opacity="1" fill-rule="nonzero"/><path fill="#ffffff" d="M 594.179688 207.167969 L 616.867188 194.0625 L 616.941406 220.074219 L 594.253906 233.175781 Z M 594.179688 207.167969 " fill-opacity="1" fill-rule="nonzero"/><path fill="#ffffff" d="M 619.921875 188.707031 L 619.847656 162.628906 L 642.535156 149.527344 L 642.609375 175.605469 Z M 619.921875 188.707031 " fill-opacity="1" fill-rule="nonzero"/><path fill="#ffffff" d="M 517.039062 311.011719 L 539.722656 297.910156 L 539.796875 323.988281 L 517.113281 337.089844 Z M 517.039062 311.011719 " fill-opacity="1" fill-rule="nonzero"/><path fill="#ffffff" d="M 539.722656 297.910156 L 539.796875 323.988281 L 517.113281 337.089844 L 517.039062 311.011719 Z M 539.722656 297.910156 " fill-opacity="1" fill-rule="nonzero"/><path fill="#ffffff" d="M 542.761719 266.507812 L 565.390625 253.441406 L 565.464844 279.453125 L 542.835938 292.519531 Z M 542.761719 266.507812 " fill-opacity="1" fill-rule="nonzero"/><path fill="#ffffff" d="M 642.523438 146.003906 L 619.839844 159.105469 L 619.765625 133.03125 L 642.449219 119.929688 Z M 642.523438 146.003906 " fill-opacity="1" fill-rule="nonzero"/><path fill="#ffffff" d="M 488.304688 357.253906 L 488.378906 383.328125 L 465.691406 396.429688 L 465.617188 370.355469 Z M 488.304688 357.253906 " fill-opacity="1" fill-rule="nonzero"/><path fill="#ffffff" d="M 513.972656 312.785156 L 514.046875 338.859375 L 491.359375 351.960938 L 491.285156 325.886719 Z M 513.972656 312.785156 " fill-opacity="1" fill-rule="nonzero"/><path fill="#ffffff" d="M 542.675781 236.910156 L 565.308594 223.839844 L 565.382812 249.851562 L 542.75 262.921875 Z M 542.675781 236.910156 " fill-opacity="1" fill-rule="nonzero"/><path fill="#ffffff" d="M 590.976562 179.304688 L 591.050781 205.382812 L 568.417969 218.449219 L 568.34375 192.375 Z M 590.976562 179.304688 " fill-opacity="1" fill-rule="nonzero"/><path fill="#ffffff" d="M 616.699219 134.800781 L 616.773438 160.878906 L 594.085938 173.980469 L 594.011719 147.902344 Z M 616.699219 134.800781 " fill-opacity="1" fill-rule="nonzero"/><path fill="#ffffff" d="M 594.011719 147.902344 L 616.699219 134.800781 L 616.773438 160.878906 L 594.085938 173.980469 Z M 594.011719 147.902344 " fill-opacity="1" fill-rule="nonzero"/><path fill="#ffffff" d="M 619.753906 129.507812 L 619.679688 103.433594 L 642.367188 90.332031 L 642.441406 116.40625 Z M 619.753906 129.507812 " fill-opacity="1" fill-rule="nonzero"/><path fill="#ffffff" d="M 462.496094 372.160156 L 462.570312 398.234375 L 439.941406 411.304688 L 439.867188 385.226562 Z M 462.496094 372.160156 " fill-opacity="1" fill-rule="nonzero"/><path fill="#ffffff" d="M 488.21875 327.65625 L 488.292969 353.730469 L 465.609375 366.832031 L 465.535156 340.757812 Z M 488.21875 327.65625 " fill-opacity="1" fill-rule="nonzero"/><path fill="#ffffff" d="M 491.203125 296.285156 L 513.886719 283.183594 L 513.960938 309.195312 L 491.277344 322.296875 Z M 491.203125 296.285156 " fill-opacity="1" fill-rule="nonzero"/><path fill="#ffffff" d="M 542.59375 207.246094 L 565.222656 194.175781 L 565.296875 220.253906 L 542.667969 233.324219 Z M 542.59375 207.246094 " fill-opacity="1" fill-rule="nonzero"/><path fill="#ffffff" d="M 568.261719 162.777344 L 590.890625 149.707031 L 590.964844 175.78125 L 568.335938 188.851562 Z M 568.261719 162.777344 " fill-opacity="1" fill-rule="nonzero"/><path fill="#ffffff" d="M 488.136719 298.054688 L 488.210938 324.066406 L 465.523438 337.167969 L 465.449219 311.15625 Z M 488.136719 298.054688 " fill-opacity="1" fill-rule="nonzero"/><path fill="#ffffff" d="M 465.449219 311.15625 L 488.136719 298.054688 L 488.210938 324.066406 L 465.523438 337.167969 Z M 465.449219 311.15625 " fill-opacity="1" fill-rule="nonzero"/><path fill="#ffffff" d="M 491.117188 266.6875 L 513.804688 253.585938 L 513.878906 279.597656 L 491.191406 292.699219 Z M 491.117188 266.6875 " fill-opacity="1" fill-rule="nonzero"/><path fill="#ffffff" d="M 516.785156 222.152344 L 539.472656 209.050781 L 539.546875 235.125 L 516.859375 248.226562 Z M 516.785156 222.152344 " fill-opacity="1" fill-rule="nonzero"/><path fill="#ffffff" d="M 542.507812 177.648438 L 565.140625 164.578125 L 565.214844 190.652344 L 542.582031 203.722656 Z M 542.507812 177.648438 " fill-opacity="1" fill-rule="nonzero"/><path fill="#ffffff" d="M 590.808594 120.105469 L 590.882812 146.183594 L 568.25 159.25 L 568.175781 133.175781 Z M 590.808594 120.105469 " fill-opacity="1" fill-rule="nonzero"/><path fill="#ffffff" d="M 414.03125 370.5 L 436.660156 357.433594 L 436.734375 383.507812 L 414.105469 396.578125 Z M 414.03125 370.5 " fill-opacity="1" fill-rule="nonzero"/><path fill="#ffffff" d="M 436.660156 357.433594 L 436.734375 383.507812 L 414.105469 396.578125 L 414.03125 370.5 Z M 436.660156 357.433594 " fill-opacity="1" fill-rule="nonzero"/><path fill="#ffffff" d="M 465.367188 281.558594 L 488.050781 268.457031 L 488.125 294.46875 L 465.441406 307.570312 Z M 465.367188 281.558594 " fill-opacity="1" fill-rule="nonzero"/><path fill="#ffffff" d="M 488.050781 268.457031 L 488.125 294.46875 L 465.441406 307.570312 L 465.367188 281.558594 Z M 488.050781 268.457031 " fill-opacity="1" fill-rule="nonzero"/><path fill="#ffffff" d="M 491.035156 237.023438 L 513.71875 223.921875 L 513.792969 249.996094 L 491.109375 263.097656 Z M 491.035156 237.023438 " fill-opacity="1" fill-rule="nonzero"/><path fill="#ffffff" d="M 513.71875 223.921875 L 513.792969 249.996094 L 491.109375 263.097656 L 491.035156 237.023438 Z M 513.71875 223.921875 " fill-opacity="1" fill-rule="nonzero"/><path fill="#ffffff" d="M 565.054688 134.980469 L 565.128906 161.054688 L 542.5 174.125 L 542.425781 148.046875 Z M 565.054688 134.980469 " fill-opacity="1" fill-rule="nonzero"/><path fill="#ffffff" d="M 413.945312 340.902344 L 436.578125 327.832031 L 436.652344 353.84375 L 414.019531 366.914062 Z M 413.945312 340.902344 " fill-opacity="1" fill-rule="nonzero"/><path fill="#ffffff" d="M 513.636719 194.324219 L 513.710938 220.398438 L 491.023438 233.5 L 490.949219 207.425781 Z M 513.636719 194.324219 " fill-opacity="1" fill-rule="nonzero"/><path fill="#ffffff" d="M 439.53125 266.765625 L 462.160156 253.699219 L 462.234375 279.773438 L 439.605469 292.84375 Z M 439.53125 266.765625 " fill-opacity="1" fill-rule="nonzero"/><path fill="#ffffff" d="M 465.199219 222.296875 L 487.882812 209.195312 L 487.957031 235.269531 L 465.273438 248.371094 Z M 465.199219 222.296875 " fill-opacity="1" fill-rule="nonzero"/><path fill="#ffffff" d="M 436.410156 268.570312 L 436.484375 294.644531 L 413.851562 307.714844 L 413.777344 281.640625 Z M 436.410156 268.570312 " fill-opacity="1" fill-rule="nonzero"/><path fill="#ffffff" d="M 462.078125 224.097656 L 462.152344 250.175781 L 439.519531 263.242188 L 439.445312 237.167969 Z M 462.078125 224.097656 " fill-opacity="1" fill-rule="nonzero"/><path fill="#ffffff" d="M 413.695312 252.039062 L 436.324219 238.972656 L 436.398438 265.046875 L 413.769531 278.117188 Z M 413.695312 252.039062 " fill-opacity="1" fill-rule="nonzero"/><path fill="#ffffff" d="M 594.097656 177.503906 L 616.78125 164.402344 L 616.855469 190.476562 L 594.171875 203.578125 Z M 594.097656 177.503906 " fill-opacity="1" fill-rule="nonzero"/><path fill="#ffffff" d="M 568.34375 192.375 L 590.976562 179.304688 L 591.050781 205.382812 L 568.417969 218.449219 Z M 568.34375 192.375 " fill-opacity="1" fill-rule="nonzero"/><path fill="#ffffff" d="M 465.535156 340.757812 L 488.21875 327.65625 L 488.292969 353.730469 L 465.609375 366.832031 Z M 465.535156 340.757812 " fill-opacity="1" fill-rule="nonzero"/><path fill="#d4d6d6" d="M 250.769531 641.648438 L 250.792969 649.464844 L 160.660156 701.515625 L 160.636719 693.699219 Z M 250.769531 641.648438 " fill-opacity="1" fill-rule="nonzero"/><path fill="#d4d6d6" d="M 250.597656 581.550781 L 250.621094 589.367188 L 160.488281 641.421875 L 160.46875 633.605469 Z M 250.597656 581.550781 " fill-opacity="1" fill-rule="nonzero"/><path fill="#ecf0f1" d="M 266.597656 435.558594 C 281.414062 423.152344 292.859375 403.257812 296.101562 384.445312 L 331.882812 363.78125 C 327.871094 405.4375 300.871094 452.21875 266.714844 476.691406 Z M 266.597656 435.558594 " fill-opacity="1" fill-rule="nonzero"/><path fill="#2ecc71" d="M 197.972656 550.464844 L 198 560.078125 L 160.320312 581.835938 L 160.292969 572.226562 Z M 197.972656 550.464844 " fill-opacity="1" fill-rule="nonzero"/><path fill="#f1c40f" d="M 296.042969 363.816406 C 292.707031 348.867188 281.183594 342.171875 266.347656 346.890625 L 266.230469 305.824219 C 300.414062 290.832031 327.589844 306.257812 331.824219 343.152344 Z M 296.042969 363.816406 " fill-opacity="1" fill-rule="nonzero"/><path fill="#e74c3c" d="M 183.167969 429.003906 C 187.183594 387.347656 214.183594 340.628906 248.339844 316.15625 L 248.457031 357.222656 C 233.640625 369.628906 222.195312 389.585938 218.953125 408.335938 Z M 183.167969 429.003906 " fill-opacity="1" fill-rule="nonzero"/><path fill="#f1c40f" d="M 250.480469 520.144531 L 250.507812 529.753906 L 212.828125 551.515625 L 212.800781 541.902344 Z M 250.480469 520.144531 " fill-opacity="1" fill-rule="nonzero"/><path fill="#3498db" d="M 219.011719 428.964844 C 222.347656 443.980469 233.867188 450.613281 248.707031 445.894531 L 248.824219 487.023438 C 214.640625 502.015625 187.464844 486.523438 183.226562 449.632812 Z M 219.011719 428.964844 " fill-opacity="1" fill-rule="nonzero"/><path fill="#d4d6d6" d="M 357.171875 540.089844 L 357.195312 547.90625 L 267.066406 599.957031 L 267.042969 592.140625 Z M 357.171875 540.089844 " fill-opacity="1" fill-rule="nonzero"/><path fill="#d4d6d6" d="M 357.285156 580.132812 L 357.308594 587.945312 L 267.179688 640 L 267.15625 632.183594 Z M 357.285156 580.132812 " fill-opacity="1" fill-rule="nonzero"/><path fill="#d4d6d6" d="M 357.230469 560.078125 L 357.253906 567.957031 L 267.121094 620.011719 L 267.097656 612.128906 Z M 357.230469 560.078125 " fill-opacity="1" fill-rule="nonzero"/><path fill="#d4d6d6" d="M 357.117188 520.035156 L 357.140625 527.851562 L 267.007812 579.902344 L 266.984375 572.085938 Z M 357.117188 520.035156 " fill-opacity="1" fill-rule="nonzero"/><path fill="#d4d6d6" d="M 357.058594 499.980469 L 357.082031 507.796875 L 266.953125 559.851562 L 266.929688 552.035156 Z M 357.058594 499.980469 " fill-opacity="1" fill-rule="nonzero"/><path fill="#e74c3c" d="M 302.929688 489.851562 L 302.957031 499.460938 L 265.277344 521.222656 L 265.25 511.613281 Z M 302.929688 489.851562 " fill-opacity="1" fill-rule="nonzero"/><path fill="#d4d6d6" d="M 250.542969 561.5 L 250.5625 569.316406 L 160.433594 621.367188 L 160.410156 613.550781 Z M 250.542969 561.5 " fill-opacity="1" fill-rule="nonzero"/><path fill="#d4d6d6" d="M 645.769531 207.085938 L 646.378906 422.863281 L 411.4375 558.546875 L 411.070312 428.492188 L 462.46875 342.589844 L 488.027344 376.988281 L 538.21875 298.84375 L 576.652344 306.296875 Z M 645.769531 207.085938 " fill-opacity="1" fill-rule="nonzero"/><path fill="#a1a7af" d="M 414.203125 430.363281 L 407.9375 426.613281 L 462.144531 336.03125 L 487.808594 370.578125 L 536.488281 294.789062 L 575.019531 302.261719 L 642.773438 205 L 648.761719 209.171875 L 578.289062 310.332031 L 539.949219 302.894531 L 488.246094 383.402344 L 462.800781 349.148438 Z M 414.203125 430.363281 " fill-opacity="1" fill-rule="nonzero"/><path fill="#3498db" d="M 655.234375 202.792969 C 655.234375 209.425781 650.65625 217.476562 644.816406 220.792969 C 638.972656 224.269531 634.238281 221.425781 634.238281 214.792969 C 634.238281 208.164062 638.816406 200.109375 644.65625 196.792969 C 650.496094 193.320312 655.074219 196.003906 655.234375 202.792969 Z M 655.234375 202.792969 " fill-opacity="1" fill-rule="nonzero"/><path fill="#f1c40f" d="M 578.625 295.105469 C 584.4375 291.75 589.054688 294.464844 589.074219 301.140625 C 589.09375 307.816406 584.503906 315.847656 578.695312 319.203125 C 572.816406 322.597656 568.195312 319.882812 568.175781 313.207031 C 568.160156 306.53125 572.746094 298.5 578.625 295.105469 Z M 578.625 295.105469 " fill-opacity="1" fill-rule="nonzero"/><path fill="#e74c3c" d="M 539.882812 285.527344 C 545.691406 282.171875 550.3125 284.886719 550.328125 291.5625 C 550.347656 298.238281 545.761719 306.273438 539.949219 309.625 C 534.070312 313.023438 529.453125 310.308594 529.433594 303.628906 C 529.414062 296.953125 534.003906 288.921875 539.882812 285.527344 Z M 539.882812 285.527344 " fill-opacity="1" fill-rule="nonzero"/><path fill="#3498db" d="M 488.378906 362.519531 C 494.1875 359.164062 498.808594 361.878906 498.828125 368.554688 C 498.84375 375.230469 494.257812 383.265625 488.449219 386.621094 C 482.566406 390.015625 477.949219 387.300781 477.929688 380.625 C 477.910156 373.945312 482.5 365.914062 488.378906 362.519531 Z M 488.378906 362.519531 " fill-opacity="1" fill-rule="nonzero"/><path fill="#f1c40f" d="M 461.332031 330.496094 C 467.140625 327.140625 471.761719 329.855469 471.78125 336.53125 C 471.796875 343.210938 467.210938 351.242188 461.402344 354.597656 C 455.519531 357.992188 450.902344 355.277344 450.882812 348.601562 C 450.863281 341.925781 455.453125 333.890625 461.332031 330.496094 Z M 461.332031 330.496094 " fill-opacity="1" fill-rule="nonzero"/><path fill="#e74c3c" d="M 412.0625 411.644531 C 417.871094 408.292969 422.492188 411.003906 422.511719 417.683594 C 422.527344 424.359375 417.941406 432.390625 412.132812 435.746094 C 406.25 439.140625 401.632812 436.425781 401.613281 429.75 C 401.59375 423.074219 406.183594 415.042969 412.0625 411.644531 Z M 412.0625 411.644531 " fill-opacity="1" fill-rule="nonzero"/></svg>