<svg xmlns="http://www.w3.org/2000/svg" xmlns:xlink="http://www.w3.org/1999/xlink" width="1024" zoomAndPan="magnify" viewBox="0 0 768 767.999994" height="1024" preserveAspectRatio="xMidYMid meet" version="1.0"><defs><clipPath id="d05c0e62a9"><path d="M 176 105 L 565 105 L 565 664.484375 L 176 664.484375 Z M 176 105 " clip-rule="nonzero"/></clipPath><clipPath id="bba5177a08"><path d="M 153 105 L 542 105 L 542 664.484375 L 153 664.484375 Z M 153 105 " clip-rule="nonzero"/></clipPath><clipPath id="ffedd96eac"><path d="M 152 103.484375 L 544 103.484375 L 544 664.484375 L 152 664.484375 Z M 152 103.484375 " clip-rule="nonzero"/></clipPath></defs><g clip-path="url(#d05c0e62a9)"><path fill="#fffffa" d="M 528.125 105.085938 L 462.925781 105.085938 C 458.84375 105.085938 455.539062 108.71875 455.539062 113.203125 C 455.539062 123.738281 447.773438 132.273438 438.1875 132.273438 L 301.089844 132.273438 C 291.507812 132.273438 283.738281 123.730469 283.738281 113.203125 C 283.738281 108.71875 280.433594 105.085938 276.355469 105.085938 L 213.25 105.085938 C 193 105.085938 176.582031 123.128906 176.582031 145.390625 L 176.582031 664.523438 L 564.800781 664.523438 L 564.800781 145.382812 C 564.796875 123.125 548.382812 105.085938 528.125 105.085938 Z M 528.125 105.085938 " fill-opacity="1" fill-rule="nonzero"/></g><g clip-path="url(#bba5177a08)"><path fill="#333330" d="M 505.25 105.085938 L 440.046875 105.085938 C 435.96875 105.085938 432.660156 108.71875 432.660156 113.203125 C 432.660156 123.738281 424.894531 132.273438 415.308594 132.273438 L 278.207031 132.273438 C 268.625 132.273438 260.855469 123.730469 260.855469 113.203125 C 260.855469 108.71875 257.550781 105.085938 253.472656 105.085938 L 190.367188 105.085938 C 170.117188 105.085938 153.699219 123.128906 153.699219 145.390625 L 153.699219 664.523438 L 541.917969 664.523438 L 541.917969 145.382812 C 541.914062 123.125 525.5 105.085938 505.25 105.085938 Z M 505.25 105.085938 " fill-opacity="1" fill-rule="nonzero"/></g><g clip-path="url(#ffedd96eac)"><path fill="#fffffa" d="M 505.25 103.488281 L 440.046875 103.488281 C 435.097656 103.488281 431.070312 107.84375 431.070312 113.195312 C 431.070312 122.835938 424.003906 130.675781 415.308594 130.675781 L 278.207031 130.675781 C 269.515625 130.675781 262.449219 122.835938 262.449219 113.195312 C 262.449219 107.84375 258.421875 103.488281 253.472656 103.488281 L 190.367188 103.488281 C 169.269531 103.488281 152.105469 122.285156 152.105469 145.382812 L 152.105469 664.515625 L 155.292969 664.515625 L 155.292969 145.382812 C 155.292969 124.039062 171.023438 106.675781 190.367188 106.675781 L 253.472656 106.675781 C 256.664062 106.675781 259.261719 109.601562 259.261719 113.195312 C 259.261719 124.589844 267.757812 133.863281 278.207031 133.863281 L 415.308594 133.863281 C 425.761719 133.863281 434.257812 124.589844 434.257812 113.195312 C 434.257812 109.601562 436.855469 106.675781 440.046875 106.675781 L 505.25 106.675781 C 524.589844 106.675781 540.324219 124.039062 540.324219 145.382812 L 540.324219 664.515625 L 543.511719 664.515625 L 543.511719 145.382812 C 543.511719 122.285156 526.347656 103.488281 505.25 103.488281 Z M 505.25 103.488281 " fill-opacity="1" fill-rule="nonzero"/></g><path fill="#fffffa" d="M 515.285156 242.40625 C 347.421875 238.886719 179.550781 235.367188 11.6875 231.84375 C 11.6875 217.761719 11.6875 203.679688 11.6875 189.601562 C 179.550781 186.078125 347.421875 182.558594 515.285156 179.039062 C 515.285156 200.164062 515.285156 221.289062 515.285156 242.40625 Z M 515.285156 242.40625 " fill-opacity="1" fill-rule="nonzero"/><path fill="#ff6232" d="M 505.195312 232.316406 C 337.332031 228.796875 169.460938 225.277344 1.597656 221.753906 C 1.597656 207.671875 1.597656 193.589844 1.597656 179.511719 C 169.460938 175.988281 337.332031 172.46875 505.195312 168.949219 C 505.195312 190.074219 505.195312 211.191406 505.195312 232.316406 Z M 505.195312 232.316406 " fill-opacity="1" fill-rule="nonzero"/><path fill="#fffffa" d="M 506.785156 233.945312 L 505.160156 233.914062 L 0 223.320312 L 0 177.953125 L 506.785156 167.324219 Z M 3.1875 220.195312 L 503.59375 230.6875 L 503.59375 170.578125 L 3.1875 181.070312 Z M 3.1875 220.195312 " fill-opacity="1" fill-rule="nonzero"/><path fill="#fffffa" d="M 486.410156 213.40625 L 486.355469 213.359375 L 474.960938 204.296875 C 474.890625 204.238281 474.820312 204.1875 474.75 204.140625 C 475.292969 203.292969 475.746094 202.386719 476.105469 201.4375 C 476.789062 199.636719 477.109375 197.742188 477.066406 195.8125 C 477.023438 193.882812 476.617188 192.007812 475.851562 190.238281 C 474.949219 188.148438 473.59375 186.320312 471.84375 184.816406 C 469.402344 182.730469 466.328125 181.484375 463.125 181.285156 C 460.808594 181.144531 458.542969 181.519531 456.425781 182.410156 C 454.527344 183.203125 452.839844 184.363281 451.410156 185.859375 C 450.023438 187.308594 448.960938 188.992188 448.25 190.863281 C 447.566406 192.664062 447.246094 194.554688 447.289062 196.484375 C 447.332031 198.414062 447.738281 200.292969 448.503906 202.058594 C 449.40625 204.152344 450.761719 205.980469 452.511719 207.484375 C 454.953125 209.570312 458.027344 210.816406 461.230469 211.015625 C 463.546875 211.15625 465.8125 210.777344 467.929688 209.890625 C 468.859375 209.503906 469.742188 209.027344 470.5625 208.460938 C 470.632812 208.5625 470.714844 208.660156 470.804688 208.753906 L 480.742188 219.238281 L 480.808594 219.296875 C 481.523438 219.945312 482.429688 220.261719 483.355469 220.261719 C 484.421875 220.261719 485.511719 219.835938 486.355469 219.003906 C 487.167969 218.203125 487.617188 217.117188 487.597656 216.03125 C 487.570312 215.007812 487.152344 214.078125 486.410156 213.40625 Z M 462.175781 206.582031 C 459.34375 206.582031 456.5 205.429688 454.414062 203.121094 C 450.933594 199.257812 450.863281 193.308594 454.25 189.363281 C 456.335938 186.933594 459.253906 185.707031 462.183594 185.707031 C 465.015625 185.707031 467.859375 186.859375 469.945312 189.171875 C 473.429688 193.03125 473.496094 198.980469 470.113281 202.925781 C 468.03125 205.355469 465.105469 206.582031 462.175781 206.582031 Z M 462.175781 206.582031 " fill-opacity="1" fill-rule="nonzero"/><path fill="#fffffa" d="M 694.488281 357.808594 C 543.308594 365.636719 392.121094 373.460938 240.941406 381.289062 C 240.941406 357.464844 240.941406 333.636719 240.941406 309.8125 C 392.121094 290.640625 543.308594 271.460938 694.488281 252.285156 C 694.488281 287.457031 694.488281 322.632812 694.488281 357.808594 Z M 694.488281 357.808594 " fill-opacity="1" fill-rule="nonzero"/><path fill="#fffffa" d="M 694.488281 490.539062 C 543.308594 484.089844 392.121094 477.640625 240.941406 471.191406 C 240.941406 447.367188 240.941406 423.539062 240.941406 399.714844 C 392.121094 394.816406 543.308594 389.914062 694.488281 385.019531 C 694.488281 420.195312 694.488281 455.371094 694.488281 490.539062 Z M 694.488281 490.539062 " fill-opacity="1" fill-rule="nonzero"/><path fill="#fffffa" d="M 694.488281 625.574219 C 543.308594 604.597656 392.121094 583.625 240.941406 562.648438 C 240.941406 538.828125 240.941406 515 240.941406 491.175781 C 392.121094 500.796875 543.308594 510.425781 694.488281 520.046875 C 694.488281 555.226562 694.488281 590.398438 694.488281 625.574219 Z M 694.488281 625.574219 " fill-opacity="1" fill-rule="nonzero"/><path fill="#333330" d="M 681.089844 343.839844 C 529.910156 353.257812 378.726562 362.671875 227.546875 372.089844 C 227.546875 348.601562 227.546875 325.109375 227.546875 301.621094 C 378.726562 280.851562 529.910156 260.085938 681.089844 239.316406 C 681.089844 274.160156 681.089844 308.996094 681.089844 343.839844 Z M 681.089844 343.839844 " fill-opacity="1" fill-rule="nonzero"/><path fill="#fffffa" d="M 225.949219 373.789062 L 225.949219 300.234375 L 682.683594 237.492188 L 682.683594 345.339844 Z M 229.144531 303.011719 L 229.144531 370.394531 L 679.496094 342.332031 L 679.496094 241.148438 Z M 229.144531 303.011719 " fill-opacity="1" fill-rule="nonzero"/><path fill="#333330" d="M 681.089844 475.308594 C 529.910156 470.449219 378.726562 465.589844 227.546875 460.734375 C 227.546875 437.246094 227.546875 413.753906 227.546875 390.265625 C 378.726562 383.773438 529.910156 377.285156 681.089844 370.789062 C 681.089844 405.628906 681.089844 440.46875 681.089844 475.308594 Z M 681.089844 475.308594 " fill-opacity="1" fill-rule="nonzero"/><path fill="#fffffa" d="M 682.683594 476.953125 L 681.039062 476.898438 L 225.949219 462.273438 L 225.949219 388.738281 L 227.476562 388.675781 L 682.683594 369.128906 Z M 229.144531 459.1875 L 679.496094 473.65625 L 679.496094 372.453125 L 229.144531 391.792969 Z M 229.144531 459.1875 " fill-opacity="1" fill-rule="nonzero"/><path fill="#fffffa" d="M 284.621094 340.195312 C 274.074219 341.152344 263.527344 342.109375 252.976562 343.066406 C 252.976562 342.085938 252.976562 341.113281 252.976562 340.136719 C 263.523438 339.144531 274.070312 338.15625 284.621094 337.167969 C 284.621094 338.179688 284.621094 339.1875 284.621094 340.195312 Z M 284.621094 340.195312 " fill-opacity="1" fill-rule="nonzero"/><path fill="#fffffa" d="M 399.890625 329.734375 C 367.765625 332.648438 335.648438 335.566406 303.527344 338.480469 C 303.527344 337.453125 303.527344 336.425781 303.527344 335.398438 C 335.648438 332.382812 367.765625 329.375 399.890625 326.359375 C 399.890625 327.480469 399.890625 328.609375 399.890625 329.734375 Z M 399.890625 329.734375 " fill-opacity="1" fill-rule="nonzero"/><path fill="#fffffa" d="M 572.859375 314.03125 C 520.605469 318.773438 468.359375 323.519531 416.105469 328.261719 C 416.105469 327.121094 416.105469 325.976562 416.105469 324.835938 C 468.359375 319.933594 520.605469 315.03125 572.859375 310.136719 C 572.859375 311.4375 572.859375 312.730469 572.859375 314.03125 Z M 572.859375 314.03125 " fill-opacity="1" fill-rule="nonzero"/><path fill="#fffffa" d="M 661.964844 305.949219 C 637.476562 308.171875 612.988281 310.394531 588.496094 312.617188 C 588.496094 311.300781 588.496094 309.984375 588.496094 308.671875 C 612.988281 306.378906 637.476562 304.078125 661.964844 301.78125 C 661.964844 303.164062 661.964844 304.554688 661.964844 305.949219 Z M 661.964844 305.949219 " fill-opacity="1" fill-rule="nonzero"/><path fill="#fffffa" d="M 465.632812 338.484375 C 394.75 344.03125 323.859375 349.578125 252.976562 355.125 C 252.976562 354.148438 252.976562 353.175781 252.976562 352.195312 C 323.859375 346.433594 394.75 340.671875 465.632812 334.910156 C 465.632812 336.097656 465.632812 337.292969 465.632812 338.484375 Z M 465.632812 338.484375 " fill-opacity="1" fill-rule="nonzero"/><path fill="#fffffa" d="M 560.546875 331.054688 C 533.320312 333.183594 506.09375 335.320312 478.867188 337.449219 C 478.867188 336.242188 478.867188 335.039062 478.867188 333.835938 C 506.09375 331.621094 533.320312 329.40625 560.546875 327.195312 C 560.546875 328.480469 560.546875 329.765625 560.546875 331.054688 Z M 560.546875 331.054688 " fill-opacity="1" fill-rule="nonzero"/><path fill="#fffffa" d="M 636.6875 325.09375 C 613.78125 326.886719 590.882812 328.679688 567.980469 330.46875 C 567.980469 329.175781 567.980469 327.878906 567.980469 326.585938 C 590.882812 324.722656 613.78125 322.859375 636.6875 321 C 636.6875 322.371094 636.6875 323.734375 636.6875 325.09375 Z M 636.6875 325.09375 " fill-opacity="1" fill-rule="nonzero"/><path fill="#ff6232" d="M 635.023438 282.496094 C 507.675781 296.503906 380.328125 310.511719 252.976562 324.519531 C 252.976562 320.886719 252.976562 317.246094 252.976562 313.613281 C 380.328125 298.164062 507.675781 282.714844 635.023438 267.269531 C 635.023438 272.34375 635.023438 277.421875 635.023438 282.496094 Z M 635.023438 282.496094 " fill-opacity="1" fill-rule="nonzero"/><path fill="#fffffa" d="M 474.488281 433.679688 C 400.664062 433.488281 326.832031 433.292969 253.007812 433.101562 C 253.007812 432.121094 253.007812 431.148438 253.007812 430.171875 C 326.832031 430.140625 400.664062 430.113281 474.488281 430.078125 C 474.488281 431.285156 474.488281 432.484375 474.488281 433.679688 Z M 474.488281 433.679688 " fill-opacity="1" fill-rule="nonzero"/><path fill="#fffffa" d="M 598.804688 434.007812 C 560.425781 433.90625 522.054688 433.808594 483.671875 433.707031 C 483.671875 432.5 483.671875 431.289062 483.671875 430.078125 C 522.054688 430.0625 560.425781 430.046875 598.804688 430.03125 C 598.804688 431.355469 598.804688 432.679688 598.804688 434.007812 Z M 598.804688 434.007812 " fill-opacity="1" fill-rule="nonzero"/><path fill="#fffffa" d="M 290.191406 445.722656 C 277.792969 445.535156 265.40625 445.34375 253.007812 445.15625 C 253.007812 444.179688 253.007812 443.207031 253.007812 442.226562 C 265.40625 442.378906 277.792969 442.527344 290.191406 442.679688 C 290.191406 443.695312 290.191406 444.707031 290.191406 445.722656 Z M 290.191406 445.722656 " fill-opacity="1" fill-rule="nonzero"/><path fill="#fffffa" d="M 450.789062 448.152344 C 403.695312 447.4375 356.601562 446.726562 309.507812 446.011719 C 309.507812 444.980469 309.507812 443.949219 309.507812 442.910156 C 356.601562 443.480469 403.695312 444.050781 450.789062 444.621094 C 450.789062 445.796875 450.789062 446.972656 450.789062 448.152344 Z M 450.789062 448.152344 " fill-opacity="1" fill-rule="nonzero"/><path fill="#fffffa" d="M 629.144531 450.851562 C 572.285156 449.988281 515.425781 449.128906 458.566406 448.269531 C 458.566406 447.085938 458.566406 445.898438 458.566406 444.714844 C 515.425781 445.40625 572.285156 446.09375 629.144531 446.78125 C 629.144531 448.136719 629.144531 449.488281 629.144531 450.851562 Z M 629.144531 450.851562 " fill-opacity="1" fill-rule="nonzero"/><path fill="#ff6232" d="M 565.167969 409.367188 C 461.113281 411.097656 357.0625 412.824219 253.007812 414.554688 C 253.007812 410.921875 253.007812 407.28125 253.007812 403.648438 C 357.0625 400.742188 461.113281 397.839844 565.167969 394.929688 C 565.167969 399.742188 565.167969 404.558594 565.167969 409.367188 Z M 565.167969 409.367188 " fill-opacity="1" fill-rule="nonzero"/><path fill="#333330" d="M 681.089844 609.050781 C 529.910156 589.667969 378.726562 570.289062 227.546875 550.90625 C 227.546875 527.414062 227.546875 503.925781 227.546875 480.433594 C 378.726562 488.464844 529.910156 496.496094 681.089844 504.53125 C 681.089844 539.371094 681.089844 574.210938 681.089844 609.050781 Z M 681.089844 609.050781 " fill-opacity="1" fill-rule="nonzero"/><path fill="#fffffa" d="M 682.683594 610.859375 L 680.886719 610.628906 L 227.34375 552.484375 L 225.949219 552.308594 L 225.949219 478.753906 L 682.683594 503.015625 Z M 229.144531 549.503906 L 679.496094 607.238281 L 679.496094 506.042969 L 229.144531 482.117188 Z M 229.144531 549.503906 " fill-opacity="1" fill-rule="nonzero"/><path fill="#fffffa" d="M 436.445312 543.824219 C 375.300781 537.789062 314.160156 531.757812 253.015625 525.722656 C 253.015625 524.742188 253.015625 523.769531 253.015625 522.792969 C 314.160156 528.640625 375.300781 534.488281 436.445312 540.335938 C 436.445312 541.5 436.445312 542.660156 436.445312 543.824219 Z M 436.445312 543.824219 " fill-opacity="1" fill-rule="nonzero"/><path fill="#fffffa" d="M 598.804688 559.851562 C 547.746094 554.8125 496.6875 549.769531 445.628906 544.734375 C 445.628906 543.5625 445.628906 542.390625 445.628906 541.21875 C 496.6875 546.105469 547.746094 550.984375 598.804688 555.871094 C 598.804688 557.195312 598.804688 558.523438 598.804688 559.851562 Z M 598.804688 559.851562 " fill-opacity="1" fill-rule="nonzero"/><path fill="#fffffa" d="M 320.199219 545.25 C 297.808594 542.761719 275.40625 540.269531 253.015625 537.777344 C 253.015625 536.800781 253.015625 535.828125 253.015625 534.847656 C 275.40625 537.273438 297.808594 539.691406 320.199219 542.117188 C 320.199219 543.160156 320.199219 544.203125 320.199219 545.25 Z M 320.199219 545.25 " fill-opacity="1" fill-rule="nonzero"/><path fill="#fffffa" d="M 482.941406 563.34375 C 435.132812 558.027344 387.328125 552.710938 339.519531 547.394531 C 339.519531 546.332031 339.519531 545.265625 339.519531 544.203125 C 387.328125 549.375 435.132812 554.542969 482.941406 559.714844 C 482.941406 560.929688 482.941406 562.132812 482.941406 563.34375 Z M 482.941406 563.34375 " fill-opacity="1" fill-rule="nonzero"/><path fill="#fffffa" d="M 643.398438 581.191406 C 592.507812 575.53125 541.609375 569.871094 490.714844 564.210938 C 490.714844 562.996094 490.714844 561.773438 490.714844 560.558594 C 541.609375 566.0625 592.507812 571.566406 643.398438 577.070312 C 643.398438 578.441406 643.398438 579.820312 643.398438 581.191406 Z M 643.398438 581.191406 " fill-opacity="1" fill-rule="nonzero"/><path fill="#ff6232" d="M 603.214844 535 C 486.480469 525.722656 369.75 516.449219 253.015625 507.171875 C 253.015625 503.539062 253.015625 499.898438 253.015625 496.265625 C 369.75 504.222656 486.480469 512.175781 603.214844 520.125 C 603.214844 525.085938 603.214844 530.042969 603.214844 535 Z M 603.214844 535 " fill-opacity="1" fill-rule="nonzero"/><path fill="#fffffa" d="M 718.972656 335.8125 L 606.246094 289.785156 C 603.332031 288.597656 599.699219 292.082031 600.769531 295.042969 L 642.105469 409.566406 C 642.894531 411.75 645.84375 412.011719 647.859375 410.082031 L 664.386719 394.226562 C 665.992188 392.683594 668.304688 392.484375 669.550781 393.785156 L 723.679688 450.195312 C 724.925781 451.488281 727.238281 451.289062 728.84375 449.753906 L 755.539062 424.132812 C 757.144531 422.59375 757.441406 420.292969 756.195312 418.992188 L 702.070312 362.582031 C 700.824219 361.285156 701.121094 358.980469 702.726562 357.4375 L 719.25 341.582031 C 721.265625 339.652344 721.121094 336.695312 718.972656 335.8125 Z M 718.972656 335.8125 " fill-opacity="1" fill-rule="nonzero"/><path fill="#333330" d="M 722.265625 319.753906 L 609.539062 273.722656 C 606.628906 272.535156 602.992188 276.019531 604.0625 278.980469 L 645.398438 393.507812 C 646.191406 395.6875 649.140625 395.953125 651.15625 394.023438 L 667.679688 378.164062 C 669.289062 376.621094 671.597656 376.421875 672.84375 377.722656 L 726.96875 434.132812 C 728.214844 435.429688 730.527344 435.230469 732.136719 433.691406 L 758.828125 408.074219 C 760.4375 406.53125 760.730469 404.230469 759.484375 402.929688 L 705.359375 346.519531 C 704.113281 345.226562 704.410156 342.917969 706.015625 341.375 L 722.539062 325.519531 C 724.554688 323.589844 724.417969 320.632812 722.265625 319.753906 Z M 722.265625 319.753906 " fill-opacity="1" fill-rule="nonzero"/><path fill="#fffffa" d="M 729.097656 436.574219 C 727.855469 436.574219 726.679688 436.132812 725.820312 435.234375 L 671.695312 378.832031 C 671.339844 378.464844 670.820312 378.449219 670.535156 378.472656 C 669.933594 378.527344 669.292969 378.832031 668.78125 379.320312 L 652.257812 395.179688 C 650.785156 396.589844 648.773438 397.210938 647 396.796875 C 645.535156 396.453125 644.40625 395.453125 643.898438 394.054688 L 602.5625 279.527344 C 601.855469 277.554688 602.484375 275.308594 604.207031 273.652344 C 605.933594 272 608.207031 271.460938 610.148438 272.257812 L 722.875 318.285156 C 724.25 318.847656 725.199219 320.015625 725.484375 321.492188 C 725.824219 323.285156 725.125 325.265625 723.652344 326.679688 L 707.128906 342.539062 C 706.175781 343.453125 705.898438 344.773438 706.523438 345.425781 L 760.644531 401.832031 C 761.574219 402.800781 762 404.183594 761.816406 405.617188 C 761.644531 406.949219 760.980469 408.230469 759.941406 409.230469 L 733.246094 434.847656 C 732.039062 435.988281 730.527344 436.574219 729.097656 436.574219 Z M 670.707031 375.273438 C 671.980469 375.273438 673.164062 375.75 673.996094 376.621094 L 728.121094 433.03125 C 728.742188 433.679688 730.078125 433.457031 731.027344 432.542969 L 757.722656 406.921875 C 758.226562 406.433594 758.566406 405.808594 758.640625 405.207031 C 758.679688 404.929688 758.683594 404.402344 758.328125 404.035156 L 704.203125 347.628906 C 702.355469 345.699219 702.667969 342.382812 704.910156 340.230469 L 721.433594 324.375 C 722.121094 323.714844 722.480469 322.816406 722.339844 322.085938 C 722.261719 321.671875 722.035156 321.378906 721.660156 321.230469 L 608.933594 275.203125 C 608.03125 274.832031 607.007812 275.375 606.40625 275.949219 C 605.804688 276.523438 605.226562 277.523438 605.558594 278.441406 L 646.894531 392.96875 C 647.027344 393.351562 647.308594 393.585938 647.722656 393.683594 C 648.441406 393.851562 649.355469 393.535156 650.042969 392.871094 L 666.566406 377.015625 C 667.605469 376.015625 668.917969 375.402344 670.253906 375.289062 C 670.410156 375.277344 670.554688 375.273438 670.707031 375.273438 Z M 670.707031 375.273438 " fill-opacity="1" fill-rule="nonzero"/></svg>